%
M48
M72
T01C0.0276
T02C0.0315
T03C0.0320
T04C0.0354
T05C0.0360
T06C0.0394
T07C0.0400
T08C0.0440
T09C0.0472
T10C0.0700
T11C0.1000
T12C0.1102
T13C0.1180
T14C0.1300
%
T01
X11193Y5344
X13162Y5344
X16738Y2512
X18707Y2512
X24487Y7109
X25487Y7109
X25506Y8158
X24506Y8158
X25006Y10159
X25006Y12159
X25506Y14131
X24506Y14131
X11092Y19970
X10092Y19970
T02
X16256Y13696
X17256Y13696
X18256Y13696
X19256Y13696
X19256Y4696
X18256Y4696
X17256Y4696
X16256Y4696
X32006Y14470
X32006Y15470
X32006Y16470
X32006Y17470
X32006Y18470
X32006Y19470
X32006Y20470
X32006Y21470
X32006Y22470
X32006Y23470
X32006Y24470
X32006Y25470
X32006Y26470
X32006Y27470
X32006Y28470
X32006Y29470
X18006Y29659
X17006Y29659
X16006Y29659
T03
X28663Y26370
X29663Y26370
X30006Y18159
X30006Y17159
X30006Y16159
X30006Y15159
X30006Y14159
X30006Y13159
X30006Y12159
X30006Y11159
X30006Y10159
X30006Y9159
X30006Y8159
X30006Y7159
X30006Y6159
X30006Y5159
X32006Y5159
X32006Y6159
X32006Y7159
X27006Y7159
X27006Y6159
X27006Y5159
X26506Y2659
X25506Y2659
X24506Y2659
X27006Y8159
X27006Y9159
X27006Y10159
X27006Y11159
X27006Y12159
X27006Y13159
X27006Y14159
X27006Y15159
X27006Y16159
X27006Y17159
X27006Y18159
T04
X24643Y22159
X21643Y22159
X29931Y28702
X29931Y31702
X12718Y22159
X9718Y22159
X9506Y18159
X9506Y16159
X9506Y15159
X9506Y14159
X9506Y13159
X9506Y12159
X9506Y11159
X9506Y10159
X9506Y9159
X9506Y8159
X9506Y7159
X9506Y6159
X9506Y5159
X6506Y5159
X6506Y6159
X6506Y7159
X6506Y8159
X6506Y9159
X6506Y10159
X6506Y11159
X6506Y12159
X6506Y13159
X6506Y14159
X6506Y15159
X6506Y16159
X6506Y18159
X16243Y8363
X19243Y8363
X23112Y9659
X23112Y12659
X32006Y12159
X32006Y9159
T05
X28646Y10119
X22566Y6759
X22966Y5159
X24006Y5319
X25686Y5319
X25526Y3799
X22406Y20199
X24246Y24119
X26246Y26359
X27686Y25719
X30806Y23639
X3606Y28199
T06
X17141Y27340
X17141Y25372
X15778Y10109
X19778Y10109
T07
X19006Y17159
X19006Y18159
X19006Y19159
X17006Y19159
X17006Y18159
X17006Y17159
X15006Y17159
X15006Y18159
X15006Y19159
X13006Y19159
X13006Y18159
X13006Y17159
X13006Y21159
X15006Y21159
X17006Y21159
X19006Y21159
X21006Y21159
X23006Y21159
X23006Y19159
X23006Y18159
X23006Y17159
X21006Y17159
X21006Y18159
X21006Y19159
X20650Y25348
X20650Y27364
X25702Y27364
X25702Y25308
X14269Y29760
X14269Y31540
X11709Y31540
X11709Y29760
X13496Y27364
X13496Y25308
X8444Y25348
X8444Y27364
X22206Y2659
X23306Y2659
T08
X13506Y3159
X12506Y3159
X11506Y3159
X10506Y3159
X9506Y3159
X8506Y3159
X3913Y5159
X3913Y6159
X3913Y7159
X3913Y8159
X3913Y9159
X3913Y10159
X3913Y11159
X3913Y12159
X3913Y13159
X3913Y14159
X3913Y15159
X3913Y16159
X3913Y18159
T09
X21056Y31159
X22434Y31159
X23906Y31159
X25284Y31159
X26756Y31159
X28134Y31159
T10
X29488Y20687
X6266Y20687
X6266Y2553
X29488Y2553
T11
X29506Y2559
X6256Y2559
X6256Y20709
X29506Y20709
T12
X31998Y31659
X44171Y31659
X44171Y2163
X31998Y2163
T13
X5899Y29659
X3537Y29659
X4718Y31509
T14
X3506Y2659
X26506Y23159
X8506Y30659
M30
