G75*
G70*
%OFA0B0*%
%FSLAX24Y24*%
%IPPOS*%
%LPD*%
%AMOC8*
5,1,8,0,0,1.08239X$1,22.5*
%
%ADD10C,0.0880*%
%ADD11C,0.0820*%
%ADD12C,0.0820*%
%ADD13C,0.0640*%
%ADD14C,0.0730*%
%ADD15C,0.0720*%
%ADD16C,0.0760*%
%ADD17C,0.0635*%
%ADD18C,0.1182*%
%ADD19C,0.1080*%
%ADD20C,0.1980*%
%ADD21R,0.0820X0.0820*%
%ADD22C,0.0860*%
%ADD23C,0.0780*%
%ADD24C,0.1380*%
%ADD25OC8,0.0840*%
D10*
X021056Y030759D02*
X021056Y031559D01*
X022434Y031559D02*
X022434Y030759D01*
X023906Y030759D02*
X023906Y031559D01*
X025284Y031559D02*
X025284Y030759D01*
X026756Y030759D02*
X026756Y031559D01*
X028134Y031559D02*
X028134Y030759D01*
D11*
X029931Y031702D03*
X029931Y028702D03*
X029663Y026370D03*
X028663Y026370D03*
X024643Y022159D03*
X021643Y022159D03*
X012718Y022159D03*
X009718Y022159D03*
X010092Y019970D03*
X009506Y018159D03*
X009506Y016159D03*
X009506Y015159D03*
X009506Y014159D03*
X009506Y013159D03*
X009506Y012159D03*
X009506Y011159D03*
X009506Y010159D03*
X009506Y009159D03*
X009506Y008159D03*
X009506Y007159D03*
X009506Y006159D03*
X009506Y005159D03*
X011193Y005344D03*
X013162Y005344D03*
X016738Y002512D03*
X018707Y002512D03*
X024487Y007109D03*
X025487Y007109D03*
X025506Y008158D03*
X024506Y008158D03*
X023112Y009659D03*
X019243Y008363D03*
X016243Y008363D03*
X023112Y012659D03*
X024506Y014131D03*
X025506Y014131D03*
X032006Y012159D03*
X032006Y009159D03*
X006506Y009159D03*
X006506Y008159D03*
X006506Y007159D03*
X006506Y006159D03*
X006506Y005159D03*
X006506Y010159D03*
X006506Y011159D03*
X006506Y012159D03*
X006506Y013159D03*
X006506Y014159D03*
X006506Y015159D03*
X006506Y016159D03*
X006506Y018159D03*
X016006Y029659D03*
X017006Y029659D03*
X018006Y029659D03*
D12*
X020280Y027364D02*
X021020Y027364D01*
X021020Y025348D02*
X020280Y025348D01*
X025332Y025308D02*
X026072Y025308D01*
X026072Y027364D02*
X025332Y027364D01*
X013866Y027364D02*
X013126Y027364D01*
X013126Y025308D02*
X013866Y025308D01*
X008814Y025348D02*
X008074Y025348D01*
X008074Y027364D02*
X008814Y027364D01*
D13*
X026726Y018159D02*
X027286Y018159D01*
X027286Y017159D02*
X026726Y017159D01*
X026726Y016159D02*
X027286Y016159D01*
X027286Y015159D02*
X026726Y015159D01*
X026726Y014159D02*
X027286Y014159D01*
X027286Y013159D02*
X026726Y013159D01*
X026726Y012159D02*
X027286Y012159D01*
X027286Y011159D02*
X026726Y011159D01*
X026726Y010159D02*
X027286Y010159D01*
X027286Y009159D02*
X026726Y009159D01*
X026726Y008159D02*
X027286Y008159D01*
X027286Y007159D02*
X026726Y007159D01*
X026726Y006159D02*
X027286Y006159D01*
X027286Y005159D02*
X026726Y005159D01*
X026506Y002939D02*
X026506Y002379D01*
X025506Y002379D02*
X025506Y002939D01*
X024506Y002939D02*
X024506Y002379D01*
X029726Y005159D02*
X030286Y005159D01*
X030286Y006159D02*
X029726Y006159D01*
X029726Y007159D02*
X030286Y007159D01*
X030286Y008159D02*
X029726Y008159D01*
X029726Y009159D02*
X030286Y009159D01*
X030286Y010159D02*
X029726Y010159D01*
X029726Y011159D02*
X030286Y011159D01*
X030286Y012159D02*
X029726Y012159D01*
X029726Y013159D02*
X030286Y013159D01*
X030286Y014159D02*
X029726Y014159D01*
X029726Y015159D02*
X030286Y015159D01*
X030286Y016159D02*
X029726Y016159D01*
X029726Y017159D02*
X030286Y017159D01*
X030286Y018159D02*
X029726Y018159D01*
X031726Y007159D02*
X032286Y007159D01*
X032286Y006159D02*
X031726Y006159D01*
X031726Y005159D02*
X032286Y005159D01*
D14*
X025006Y010159D03*
X025006Y012159D03*
D15*
X023326Y017159D02*
X022686Y017159D01*
X022686Y018159D02*
X023326Y018159D01*
X023326Y019159D02*
X022686Y019159D01*
X021326Y019159D02*
X020686Y019159D01*
X020686Y018159D02*
X021326Y018159D01*
X021326Y017159D02*
X020686Y017159D01*
X019326Y017159D02*
X018686Y017159D01*
X018686Y018159D02*
X019326Y018159D01*
X019326Y019159D02*
X018686Y019159D01*
X017326Y019159D02*
X016686Y019159D01*
X016686Y018159D02*
X017326Y018159D01*
X017326Y017159D02*
X016686Y017159D01*
X015326Y017159D02*
X014686Y017159D01*
X014686Y018159D02*
X015326Y018159D01*
X015326Y019159D02*
X014686Y019159D01*
X013326Y019159D02*
X012686Y019159D01*
X012686Y018159D02*
X013326Y018159D01*
X013326Y017159D02*
X012686Y017159D01*
X012686Y021159D02*
X013326Y021159D01*
X014686Y021159D02*
X015326Y021159D01*
X016686Y021159D02*
X017326Y021159D01*
X018686Y021159D02*
X019326Y021159D01*
X020686Y021159D02*
X021326Y021159D01*
X022686Y021159D02*
X023326Y021159D01*
X014589Y029760D02*
X013949Y029760D01*
X012029Y029760D02*
X011389Y029760D01*
X011389Y031540D02*
X012029Y031540D01*
X013949Y031540D02*
X014589Y031540D01*
X022206Y002979D02*
X022206Y002339D01*
X023306Y002339D02*
X023306Y002979D01*
D16*
X013506Y002819D02*
X013506Y003499D01*
X012506Y003499D02*
X012506Y002819D01*
X011506Y002819D02*
X011506Y003499D01*
X010506Y003499D02*
X010506Y002819D01*
X009506Y002819D02*
X009506Y003499D01*
X008506Y003499D02*
X008506Y002819D01*
X004253Y005159D02*
X003573Y005159D01*
X003573Y006159D02*
X004253Y006159D01*
X004253Y007159D02*
X003573Y007159D01*
X003573Y008159D02*
X004253Y008159D01*
X004253Y009159D02*
X003573Y009159D01*
X003573Y010159D02*
X004253Y010159D01*
X004253Y011159D02*
X003573Y011159D01*
X003573Y012159D02*
X004253Y012159D01*
X004253Y013159D02*
X003573Y013159D01*
X003573Y014159D02*
X004253Y014159D01*
X004253Y015159D02*
X003573Y015159D01*
X003573Y016159D02*
X004253Y016159D01*
X004253Y018159D02*
X003573Y018159D01*
D17*
X016256Y013974D02*
X016256Y013419D01*
X017256Y013419D02*
X017256Y013974D01*
X018256Y013974D02*
X018256Y013419D01*
X019256Y013419D02*
X019256Y013974D01*
X019256Y004974D02*
X019256Y004419D01*
X018256Y004419D02*
X018256Y004974D01*
X017256Y004974D02*
X017256Y004419D01*
X016256Y004419D02*
X016256Y004974D01*
X031728Y014470D02*
X032283Y014470D01*
X032283Y015470D02*
X031728Y015470D01*
X031728Y016470D02*
X032283Y016470D01*
X032283Y017470D02*
X031728Y017470D01*
X031728Y018470D02*
X032283Y018470D01*
X032283Y019470D02*
X031728Y019470D01*
X031728Y020470D02*
X032283Y020470D01*
X032283Y021470D02*
X031728Y021470D01*
X031728Y022470D02*
X032283Y022470D01*
X032283Y023470D02*
X031728Y023470D01*
X031728Y024470D02*
X032283Y024470D01*
X032283Y025470D02*
X031728Y025470D01*
X031728Y026470D02*
X032283Y026470D01*
X032283Y027470D02*
X031728Y027470D01*
X031728Y028470D02*
X032283Y028470D01*
X032283Y029470D02*
X031728Y029470D01*
D18*
X031998Y031659D03*
X044171Y031659D03*
X044171Y002163D03*
X031998Y002163D03*
D19*
X029506Y002559D03*
X006256Y002559D03*
X006256Y020709D03*
X017141Y025372D03*
X017141Y027340D03*
X029506Y020709D03*
D20*
X005899Y029659D03*
X003537Y029659D03*
X004718Y031509D03*
D21*
X011092Y019970D03*
D22*
X015778Y010109D03*
X019778Y010109D03*
D23*
X029488Y002553D03*
X006266Y002553D03*
X006266Y020687D03*
X029488Y020687D03*
D24*
X003506Y002659D03*
X026506Y023159D03*
X008506Y030659D03*
D25*
X003606Y028199D03*
X022406Y020199D03*
X024246Y024119D03*
X026246Y026359D03*
X027686Y025719D03*
X030806Y023639D03*
X028646Y010119D03*
X022566Y006759D03*
X022966Y005159D03*
X024006Y005319D03*
X025686Y005319D03*
X025526Y003799D03*
M02*
