G75*
G70*
%OFA0B0*%
%FSLAX24Y24*%
%IPPOS*%
%LPD*%
%AMOC8*
5,1,8,0,0,1.08239X$1,22.5*
%
%ADD10C,0.0080*%
%ADD11C,0.0060*%
%ADD12C,0.0090*%
%ADD13C,0.0050*%
%ADD14C,0.0010*%
%ADD15R,0.0340X0.0300*%
%ADD16C,0.0100*%
D10*
X007006Y004859D02*
X007006Y005159D01*
X006906Y005159D01*
X007006Y005159D02*
X007006Y005459D01*
X009006Y005459D01*
X009006Y005159D01*
X009106Y005159D01*
X009006Y005159D02*
X009006Y004859D01*
X007006Y004859D01*
X007006Y005859D02*
X009006Y005859D01*
X009006Y006159D01*
X009106Y006159D01*
X009006Y006159D02*
X009006Y006459D01*
X007006Y006459D01*
X007006Y006159D01*
X006906Y006159D01*
X007006Y006159D02*
X007006Y005859D01*
X007006Y006859D02*
X009006Y006859D01*
X009006Y007159D01*
X009106Y007159D01*
X009006Y007159D02*
X009006Y007459D01*
X007006Y007459D01*
X007006Y007159D01*
X006906Y007159D01*
X007006Y007159D02*
X007006Y006859D01*
X007006Y007859D02*
X009006Y007859D01*
X009006Y008159D01*
X009106Y008159D01*
X009006Y008159D02*
X009006Y008459D01*
X007006Y008459D01*
X007006Y008159D01*
X006906Y008159D01*
X007006Y008159D02*
X007006Y007859D01*
X007006Y008859D02*
X009006Y008859D01*
X009006Y009159D01*
X009106Y009159D01*
X009006Y009159D02*
X009006Y009459D01*
X007006Y009459D01*
X007006Y009159D01*
X006906Y009159D01*
X007006Y009159D02*
X007006Y008859D01*
X007006Y009859D02*
X009006Y009859D01*
X009006Y010159D01*
X009106Y010159D01*
X009006Y010159D02*
X009006Y010459D01*
X007006Y010459D01*
X007006Y010159D01*
X006906Y010159D01*
X007006Y010159D02*
X007006Y009859D01*
X007006Y010859D02*
X009006Y010859D01*
X009006Y011159D01*
X009106Y011159D01*
X009006Y011159D02*
X009006Y011459D01*
X007006Y011459D01*
X007006Y011159D01*
X006906Y011159D01*
X007006Y011159D02*
X007006Y010859D01*
X007006Y011859D02*
X009006Y011859D01*
X009006Y012159D01*
X009106Y012159D01*
X009006Y012159D02*
X009006Y012459D01*
X007006Y012459D01*
X007006Y012159D01*
X006906Y012159D01*
X007006Y012159D02*
X007006Y011859D01*
X007006Y012859D02*
X009006Y012859D01*
X009006Y013159D01*
X009106Y013159D01*
X009006Y013159D02*
X009006Y013459D01*
X007006Y013459D01*
X007006Y013159D01*
X006906Y013159D01*
X007006Y013159D02*
X007006Y012859D01*
X007006Y013859D02*
X009006Y013859D01*
X009006Y014159D01*
X009106Y014159D01*
X009006Y014159D02*
X009006Y014459D01*
X007006Y014459D01*
X007006Y014159D01*
X006906Y014159D01*
X007006Y014159D02*
X007006Y013859D01*
X007006Y014859D02*
X009006Y014859D01*
X009006Y015159D01*
X009106Y015159D01*
X009006Y015159D02*
X009006Y015459D01*
X007006Y015459D01*
X007006Y015159D01*
X006906Y015159D01*
X007006Y015159D02*
X007006Y014859D01*
X007006Y015859D02*
X009006Y015859D01*
X009006Y016159D01*
X009106Y016159D01*
X009006Y016159D02*
X009006Y016459D01*
X007006Y016459D01*
X007006Y016159D01*
X006906Y016159D01*
X007006Y016159D02*
X007006Y015859D01*
X007006Y017859D02*
X009006Y017859D01*
X009006Y018159D01*
X009106Y018159D01*
X009006Y018159D02*
X009006Y018459D01*
X007006Y018459D01*
X007006Y018159D01*
X006906Y018159D01*
X007006Y018159D02*
X007006Y017859D01*
X009842Y019470D02*
X010342Y019470D01*
X009312Y019970D02*
X009314Y020041D01*
X009320Y020112D01*
X009330Y020183D01*
X009344Y020252D01*
X009361Y020321D01*
X009383Y020389D01*
X009408Y020456D01*
X009437Y020521D01*
X009469Y020584D01*
X009505Y020646D01*
X009544Y020705D01*
X009587Y020762D01*
X009632Y020817D01*
X009681Y020869D01*
X009732Y020918D01*
X009786Y020964D01*
X009843Y021008D01*
X009901Y021048D01*
X009962Y021084D01*
X010025Y021118D01*
X010090Y021147D01*
X010156Y021173D01*
X010224Y021196D01*
X010292Y021214D01*
X010362Y021229D01*
X010432Y021240D01*
X010503Y021247D01*
X010574Y021250D01*
X010645Y021249D01*
X010716Y021244D01*
X010787Y021235D01*
X010857Y021222D01*
X010926Y021206D01*
X010994Y021185D01*
X011061Y021161D01*
X011127Y021133D01*
X011190Y021101D01*
X011252Y021066D01*
X011312Y021028D01*
X011370Y020986D01*
X011425Y020942D01*
X011478Y020894D01*
X011528Y020843D01*
X011575Y020790D01*
X011619Y020734D01*
X011660Y020676D01*
X011698Y020615D01*
X011732Y020553D01*
X011762Y020488D01*
X011789Y020423D01*
X011813Y020355D01*
X011832Y020287D01*
X011848Y020218D01*
X011860Y020147D01*
X011868Y020077D01*
X011872Y020006D01*
X011872Y019934D01*
X011868Y019863D01*
X011860Y019793D01*
X011848Y019722D01*
X011832Y019653D01*
X011813Y019585D01*
X011789Y019517D01*
X011762Y019452D01*
X011732Y019387D01*
X011698Y019325D01*
X011660Y019264D01*
X011619Y019206D01*
X011575Y019150D01*
X011528Y019097D01*
X011478Y019046D01*
X011425Y018998D01*
X011370Y018954D01*
X011312Y018912D01*
X011252Y018874D01*
X011190Y018839D01*
X011127Y018807D01*
X011061Y018779D01*
X010994Y018755D01*
X010926Y018734D01*
X010857Y018718D01*
X010787Y018705D01*
X010716Y018696D01*
X010645Y018691D01*
X010574Y018690D01*
X010503Y018693D01*
X010432Y018700D01*
X010362Y018711D01*
X010292Y018726D01*
X010224Y018744D01*
X010156Y018767D01*
X010090Y018793D01*
X010025Y018822D01*
X009962Y018856D01*
X009901Y018892D01*
X009843Y018932D01*
X009786Y018976D01*
X009732Y019022D01*
X009681Y019071D01*
X009632Y019123D01*
X009587Y019178D01*
X009544Y019235D01*
X009505Y019294D01*
X009469Y019356D01*
X009437Y019419D01*
X009408Y019484D01*
X009383Y019551D01*
X009361Y019619D01*
X009344Y019688D01*
X009330Y019757D01*
X009320Y019828D01*
X009314Y019899D01*
X009312Y019970D01*
X010218Y021859D02*
X010218Y022159D01*
X010118Y022159D01*
X010218Y022159D02*
X010218Y022459D01*
X012218Y022459D01*
X012218Y022159D01*
X012318Y022159D01*
X012218Y022159D02*
X012218Y021859D01*
X010218Y021859D01*
X005899Y027887D02*
X005899Y028714D01*
X005899Y027887D02*
X001687Y027887D01*
X001687Y031431D01*
X003773Y031431D01*
X005624Y031431D02*
X005899Y031431D01*
X005899Y030604D01*
X020367Y029820D02*
X020367Y032261D01*
X023123Y032261D01*
X023123Y032576D01*
X020367Y032576D01*
X020367Y032261D01*
X023123Y032261D02*
X023123Y029820D01*
X020367Y029820D01*
X020846Y029619D02*
X021126Y029619D01*
X021126Y029199D01*
X020846Y029199D01*
X020986Y029409D02*
X021126Y029409D01*
X021293Y029199D02*
X021433Y029199D01*
X021363Y029199D02*
X021363Y029619D01*
X021433Y029619D02*
X021293Y029619D01*
X021613Y029619D02*
X021613Y029199D01*
X021893Y029619D01*
X021893Y029199D01*
X022074Y029199D02*
X022354Y029199D01*
X022354Y029619D01*
X022074Y029619D01*
X022214Y029409D02*
X022354Y029409D01*
X022534Y029409D02*
X022674Y029409D01*
X022534Y029409D02*
X022534Y029269D01*
X022604Y029199D01*
X022744Y029199D01*
X022814Y029269D01*
X022814Y029549D01*
X022744Y029619D01*
X022604Y029619D01*
X022534Y029549D01*
X023217Y029820D02*
X023217Y032261D01*
X025973Y032261D01*
X025973Y032576D01*
X023217Y032576D01*
X023217Y032261D01*
X025973Y032261D02*
X025973Y029820D01*
X023217Y029820D01*
X023896Y029619D02*
X024176Y029339D01*
X024106Y029409D02*
X023896Y029199D01*
X024176Y029199D02*
X024176Y029619D01*
X024356Y029549D02*
X024426Y029619D01*
X024566Y029619D01*
X024636Y029549D01*
X024636Y029269D01*
X024566Y029199D01*
X024426Y029199D01*
X024356Y029269D01*
X024817Y029269D02*
X024817Y029549D01*
X024887Y029619D01*
X025027Y029619D01*
X025097Y029549D01*
X025097Y029269D01*
X025027Y029199D01*
X024887Y029199D01*
X024817Y029269D01*
X025277Y029199D02*
X025557Y029199D01*
X025557Y029619D01*
X026067Y029820D02*
X026067Y032261D01*
X028823Y032261D01*
X028823Y032576D01*
X026067Y032576D01*
X026067Y032261D01*
X028823Y032261D02*
X028823Y029820D01*
X026067Y029820D01*
X026896Y029599D02*
X026966Y029669D01*
X027106Y029669D01*
X027176Y029599D01*
X027176Y029319D01*
X027106Y029249D01*
X026966Y029249D01*
X026896Y029319D01*
X026896Y029459D01*
X027036Y029459D01*
X027356Y029459D02*
X027636Y029459D01*
X027636Y029529D02*
X027496Y029669D01*
X027356Y029529D01*
X027356Y029249D01*
X027636Y029249D02*
X027636Y029529D01*
X027817Y029669D02*
X027817Y029249D01*
X028097Y029249D02*
X028097Y029669D01*
X027957Y029529D01*
X027817Y029669D01*
X029631Y029202D02*
X029931Y029202D01*
X029931Y029102D01*
X029931Y029202D02*
X030231Y029202D01*
X030231Y031202D01*
X029931Y031202D01*
X029931Y031302D01*
X029931Y031202D02*
X029631Y031202D01*
X029631Y029202D01*
X024143Y022459D02*
X022143Y022459D01*
X022143Y022159D01*
X022043Y022159D01*
X022143Y022159D02*
X022143Y021859D01*
X024143Y021859D01*
X024143Y022159D01*
X024243Y022159D01*
X024143Y022159D02*
X024143Y022459D01*
X026916Y017162D02*
X026846Y017092D01*
X026846Y016952D01*
X026916Y016882D01*
X026986Y016882D01*
X027056Y016952D01*
X027056Y017092D01*
X026986Y017162D01*
X026916Y017162D01*
X027056Y017092D02*
X027126Y017162D01*
X027196Y017162D01*
X027266Y017092D01*
X027266Y016952D01*
X027196Y016882D01*
X027126Y016882D01*
X027056Y016952D01*
X027126Y016702D02*
X026846Y016422D01*
X026846Y016702D01*
X027126Y016702D02*
X027196Y016702D01*
X027266Y016632D01*
X027266Y016492D01*
X027196Y016422D01*
X027196Y016241D02*
X027126Y016241D01*
X027056Y016171D01*
X026986Y016241D01*
X026916Y016241D01*
X026846Y016171D01*
X026846Y016031D01*
X026916Y015961D01*
X026846Y015781D02*
X027126Y015781D01*
X027266Y015641D01*
X027126Y015501D01*
X026846Y015501D01*
X026916Y015321D02*
X027056Y015321D01*
X027056Y015181D01*
X027196Y015321D02*
X027266Y015251D01*
X027266Y015111D01*
X027196Y015040D01*
X026916Y015040D01*
X026846Y015111D01*
X026846Y015251D01*
X026916Y015321D01*
X027056Y015501D02*
X027056Y015781D01*
X027196Y015961D02*
X027266Y016031D01*
X027266Y016171D01*
X027196Y016241D01*
X027056Y016171D02*
X027056Y016101D01*
X027266Y014860D02*
X027266Y014580D01*
X026846Y014580D01*
X026846Y014860D01*
X027056Y014720D02*
X027056Y014580D01*
X027266Y014400D02*
X026846Y014400D01*
X026846Y014120D02*
X027266Y014120D01*
X027126Y014260D01*
X027266Y014400D01*
X027266Y013940D02*
X027266Y013659D01*
X027266Y013800D02*
X026846Y013800D01*
X026846Y013479D02*
X027126Y013479D01*
X027266Y013339D01*
X027126Y013199D01*
X026846Y013199D01*
X027056Y013199D02*
X027056Y013479D01*
X024406Y013009D02*
X024406Y010309D01*
X024404Y010250D01*
X024398Y010192D01*
X024389Y010133D01*
X024375Y010076D01*
X024358Y010020D01*
X024337Y009965D01*
X024313Y009911D01*
X024285Y009859D01*
X024254Y009809D01*
X024220Y009761D01*
X024183Y009716D01*
X024142Y009673D01*
X024099Y009632D01*
X024054Y009595D01*
X024006Y009561D01*
X023956Y009530D01*
X023904Y009502D01*
X023850Y009478D01*
X023795Y009457D01*
X023739Y009440D01*
X023682Y009426D01*
X023623Y009417D01*
X023565Y009411D01*
X023506Y009409D01*
X023447Y009411D01*
X023389Y009417D01*
X023330Y009426D01*
X023273Y009440D01*
X023217Y009457D01*
X023162Y009478D01*
X023108Y009502D01*
X023056Y009530D01*
X023006Y009561D01*
X022958Y009595D01*
X022913Y009632D01*
X022870Y009673D01*
X022829Y009716D01*
X022792Y009761D01*
X022758Y009809D01*
X022727Y009859D01*
X022699Y009911D01*
X022675Y009965D01*
X022654Y010020D01*
X022637Y010076D01*
X022623Y010133D01*
X022614Y010192D01*
X022608Y010250D01*
X022606Y010309D01*
X022606Y013009D01*
X022608Y013068D01*
X022614Y013126D01*
X022623Y013185D01*
X022637Y013242D01*
X022654Y013298D01*
X022675Y013353D01*
X022699Y013407D01*
X022727Y013459D01*
X022758Y013509D01*
X022792Y013557D01*
X022829Y013602D01*
X022870Y013645D01*
X022913Y013686D01*
X022958Y013723D01*
X023006Y013757D01*
X023056Y013788D01*
X023108Y013816D01*
X023162Y013840D01*
X023217Y013861D01*
X023273Y013878D01*
X023330Y013892D01*
X023389Y013901D01*
X023447Y013907D01*
X023506Y013909D01*
X023565Y013907D01*
X023623Y013901D01*
X023682Y013892D01*
X023739Y013878D01*
X023795Y013861D01*
X023850Y013840D01*
X023904Y013816D01*
X023956Y013788D01*
X024006Y013757D01*
X024054Y013723D01*
X024099Y013686D01*
X024142Y013645D01*
X024183Y013602D01*
X024220Y013557D01*
X024254Y013509D01*
X024285Y013459D01*
X024313Y013407D01*
X024337Y013353D01*
X024358Y013298D01*
X024375Y013242D01*
X024389Y013185D01*
X024398Y013126D01*
X024404Y013068D01*
X024406Y013009D01*
X023506Y014381D02*
X023506Y014881D01*
X022957Y015349D02*
X022747Y015349D01*
X022677Y015419D01*
X022677Y015699D01*
X022747Y015769D01*
X022957Y015769D01*
X022957Y015349D01*
X022497Y015419D02*
X022427Y015349D01*
X022287Y015349D01*
X022217Y015419D01*
X022217Y015699D01*
X022287Y015769D01*
X022427Y015769D01*
X022497Y015699D01*
X022497Y015419D01*
X022036Y015419D02*
X021966Y015349D01*
X021826Y015349D01*
X021756Y015419D01*
X021756Y015699D01*
X021826Y015769D01*
X021966Y015769D01*
X022036Y015699D01*
X022036Y015419D01*
X021576Y015349D02*
X021576Y015769D01*
X021366Y015769D01*
X021296Y015699D01*
X021296Y015559D01*
X021366Y015489D01*
X021576Y015489D01*
X021436Y015489D02*
X021296Y015349D01*
X019214Y015349D02*
X018934Y015349D01*
X018754Y015349D02*
X018614Y015349D01*
X018684Y015349D02*
X018684Y015769D01*
X018754Y015769D02*
X018614Y015769D01*
X018447Y015699D02*
X018377Y015769D01*
X018237Y015769D01*
X018167Y015699D01*
X018167Y015559D02*
X018307Y015559D01*
X018167Y015559D02*
X018167Y015419D01*
X018237Y015349D01*
X018377Y015349D01*
X018447Y015419D01*
X018447Y015699D01*
X017987Y015769D02*
X017987Y015349D01*
X017987Y015559D02*
X017706Y015559D01*
X017706Y015769D02*
X017706Y015349D01*
X017386Y015349D02*
X017386Y015769D01*
X017526Y015769D02*
X017246Y015769D01*
X015107Y015719D02*
X015107Y015299D01*
X014827Y015299D01*
X014647Y015369D02*
X014577Y015299D01*
X014437Y015299D01*
X014367Y015369D01*
X014367Y015649D01*
X014437Y015719D01*
X014577Y015719D01*
X014647Y015649D01*
X014647Y015369D01*
X014186Y015369D02*
X014186Y015649D01*
X014116Y015719D01*
X013976Y015719D01*
X013906Y015649D01*
X013726Y015719D02*
X013726Y015299D01*
X013726Y015439D02*
X013446Y015719D01*
X013656Y015509D02*
X013446Y015299D01*
X013906Y015369D02*
X013976Y015299D01*
X014116Y015299D01*
X014186Y015369D01*
X016046Y012937D02*
X016326Y012937D01*
X016466Y012797D01*
X016326Y012657D01*
X016046Y012657D01*
X016116Y012477D02*
X016396Y012477D01*
X016466Y012407D01*
X016466Y012197D01*
X016046Y012197D01*
X016046Y012407D01*
X016116Y012477D01*
X016256Y012657D02*
X016256Y012937D01*
X017046Y012937D02*
X017046Y012657D01*
X017466Y012657D01*
X017396Y012477D02*
X017466Y012407D01*
X017466Y012267D01*
X017396Y012197D01*
X017116Y012197D01*
X017046Y012267D01*
X017046Y012407D01*
X017116Y012477D01*
X017116Y012017D02*
X017046Y011947D01*
X017046Y011806D01*
X017116Y011736D01*
X017256Y011806D02*
X017256Y011947D01*
X017186Y012017D01*
X017116Y012017D01*
X017256Y011806D02*
X017326Y011736D01*
X017396Y011736D01*
X017466Y011806D01*
X017466Y011947D01*
X017396Y012017D01*
X018046Y011877D02*
X018186Y012017D01*
X018466Y012017D01*
X018396Y012197D02*
X018116Y012197D01*
X018046Y012267D01*
X018046Y012407D01*
X018116Y012477D01*
X018116Y012657D02*
X018046Y012727D01*
X018046Y012867D01*
X018116Y012937D01*
X018116Y012657D02*
X018396Y012657D01*
X018466Y012727D01*
X018466Y012867D01*
X018396Y012937D01*
X018396Y012477D02*
X018466Y012407D01*
X018466Y012267D01*
X018396Y012197D01*
X018466Y011736D02*
X018186Y011736D01*
X018046Y011877D01*
X019046Y011947D02*
X019116Y012017D01*
X019256Y012017D01*
X019256Y011877D01*
X019396Y012017D02*
X019466Y011947D01*
X019466Y011806D01*
X019396Y011736D01*
X019116Y011736D01*
X019046Y011806D01*
X019046Y011947D01*
X019046Y012197D02*
X019466Y012197D01*
X019046Y012477D01*
X019466Y012477D01*
X019466Y012657D02*
X019466Y012867D01*
X019396Y012937D01*
X019116Y012937D01*
X019046Y012867D01*
X019046Y012657D01*
X019466Y012657D01*
X018743Y010663D02*
X016743Y010663D01*
X016743Y010363D01*
X016643Y010363D01*
X016743Y010363D02*
X016743Y010063D01*
X018743Y010063D01*
X018743Y010363D01*
X018843Y010363D01*
X018743Y010363D02*
X018743Y010663D01*
X016466Y011806D02*
X016396Y011736D01*
X016326Y011736D01*
X016256Y011806D01*
X016256Y011947D01*
X016186Y012017D01*
X016116Y012017D01*
X016046Y011947D01*
X016046Y011806D01*
X016116Y011736D01*
X016466Y011806D02*
X016466Y011947D01*
X016396Y012017D01*
X013946Y011619D02*
X013946Y009259D01*
X011366Y009259D01*
X011366Y011619D01*
X011334Y007619D02*
X011614Y007619D01*
X011474Y007619D02*
X011474Y007199D01*
X011794Y007269D02*
X011794Y007549D01*
X011864Y007619D01*
X012074Y007619D01*
X012074Y007199D01*
X011864Y007199D01*
X011794Y007269D01*
X012254Y007269D02*
X012254Y007409D01*
X012324Y007479D01*
X012394Y007479D01*
X012535Y007409D01*
X012535Y007619D01*
X012254Y007619D01*
X012254Y007269D02*
X012324Y007199D01*
X012465Y007199D01*
X012535Y007269D01*
X012715Y007269D02*
X012785Y007199D01*
X012925Y007199D01*
X012995Y007269D01*
X012715Y007549D01*
X012715Y007269D01*
X012995Y007269D02*
X012995Y007549D01*
X012925Y007619D01*
X012785Y007619D01*
X012715Y007549D01*
X013175Y007549D02*
X013175Y007479D01*
X013245Y007409D01*
X013385Y007409D01*
X013455Y007479D01*
X013455Y007549D01*
X013385Y007619D01*
X013245Y007619D01*
X013175Y007549D01*
X013245Y007409D02*
X013175Y007339D01*
X013175Y007269D01*
X013245Y007199D01*
X013385Y007199D01*
X013455Y007269D01*
X013455Y007339D01*
X013385Y007409D01*
X013635Y007549D02*
X013916Y007269D01*
X013916Y007199D01*
X013916Y007619D02*
X013635Y007619D01*
X013635Y007549D01*
X012177Y005594D02*
X012177Y005094D01*
X012256Y003659D02*
X012006Y003409D01*
X011756Y003659D01*
X011256Y003659D02*
X011006Y003409D01*
X010756Y003659D01*
X010256Y003659D02*
X010006Y003409D01*
X009756Y003659D01*
X009256Y003659D02*
X009006Y003409D01*
X008756Y003659D01*
X008256Y003659D02*
X008006Y003409D01*
X008006Y002909D01*
X008256Y002659D01*
X008756Y002659D02*
X009006Y002909D01*
X009256Y002659D01*
X009756Y002659D02*
X010006Y002909D01*
X010256Y002659D01*
X010273Y002219D02*
X010133Y002219D01*
X010203Y002219D02*
X010203Y001799D01*
X010273Y001799D02*
X010133Y001799D01*
X010453Y001869D02*
X010453Y002149D01*
X010523Y002219D01*
X010733Y002219D01*
X010733Y001799D01*
X010523Y001799D01*
X010453Y001869D01*
X010913Y002219D02*
X011193Y002219D01*
X011053Y002219D02*
X011053Y001799D01*
X011514Y002009D02*
X011654Y002009D01*
X011654Y001799D02*
X011654Y002219D01*
X011374Y002219D01*
X011256Y002659D02*
X011006Y002909D01*
X010756Y002659D01*
X011756Y002659D02*
X012006Y002909D01*
X012256Y002659D01*
X012756Y002659D02*
X013006Y002909D01*
X013256Y002659D01*
X013756Y002659D02*
X014006Y002909D01*
X014006Y003409D01*
X013756Y003659D01*
X013256Y003659D02*
X013006Y003409D01*
X012756Y003659D01*
X016046Y005486D02*
X016466Y005486D01*
X016466Y005697D01*
X016396Y005767D01*
X016256Y005767D01*
X016186Y005697D01*
X016186Y005486D01*
X016186Y005627D02*
X016046Y005767D01*
X016116Y005947D02*
X016046Y006017D01*
X016046Y006157D01*
X016116Y006227D01*
X016186Y006227D01*
X016256Y006157D01*
X016256Y006017D01*
X016326Y005947D01*
X016396Y005947D01*
X016466Y006017D01*
X016466Y006157D01*
X016396Y006227D01*
X016466Y006407D02*
X016466Y006687D01*
X016466Y006547D02*
X016046Y006547D01*
X017046Y006407D02*
X017186Y006547D01*
X017046Y006687D01*
X017466Y006687D01*
X017466Y006407D02*
X017046Y006407D01*
X017046Y006227D02*
X017186Y006087D01*
X017116Y006227D02*
X017046Y006157D01*
X017046Y006017D01*
X017116Y005947D01*
X017396Y005947D01*
X017466Y006017D01*
X017466Y006157D01*
X017396Y006227D01*
X017116Y006227D01*
X017116Y005767D02*
X017046Y005697D01*
X017046Y005556D01*
X017116Y005486D01*
X017256Y005556D02*
X017256Y005697D01*
X017186Y005767D01*
X017116Y005767D01*
X017256Y005556D02*
X017326Y005486D01*
X017396Y005486D01*
X017466Y005556D01*
X017466Y005697D01*
X017396Y005767D01*
X018046Y005697D02*
X018046Y005556D01*
X018116Y005486D01*
X018256Y005627D02*
X018256Y005697D01*
X018186Y005767D01*
X018116Y005767D01*
X018046Y005697D01*
X018256Y005697D02*
X018326Y005767D01*
X018396Y005767D01*
X018466Y005697D01*
X018466Y005556D01*
X018396Y005486D01*
X018396Y005947D02*
X018466Y006017D01*
X018466Y006157D01*
X018396Y006227D01*
X018326Y006227D01*
X018046Y005947D01*
X018046Y006227D01*
X018046Y006407D02*
X018466Y006407D01*
X018256Y006477D02*
X018046Y006687D01*
X018186Y006407D02*
X018466Y006687D01*
X019046Y006547D02*
X019466Y006547D01*
X019466Y006407D02*
X019466Y006687D01*
X019326Y006227D02*
X019046Y006227D01*
X019256Y006227D02*
X019256Y005947D01*
X019326Y005947D02*
X019466Y006087D01*
X019326Y006227D01*
X019326Y005947D02*
X019046Y005947D01*
X019116Y005767D02*
X019046Y005697D01*
X019046Y005486D01*
X019466Y005486D01*
X019466Y005697D01*
X019396Y005767D01*
X019326Y005767D01*
X019256Y005697D01*
X019256Y005486D01*
X019256Y005697D02*
X019186Y005767D01*
X019116Y005767D01*
X021746Y004119D02*
X022026Y004119D01*
X021886Y004119D02*
X021886Y003699D01*
X022206Y003699D02*
X022206Y004119D01*
X022206Y003909D02*
X022487Y003909D01*
X022667Y003909D02*
X022807Y003909D01*
X022667Y003909D02*
X022667Y003769D01*
X022737Y003699D01*
X022877Y003699D01*
X022947Y003769D01*
X022947Y004049D01*
X022877Y004119D01*
X022737Y004119D01*
X022667Y004049D01*
X022487Y004119D02*
X022487Y003699D01*
X023114Y003699D02*
X023254Y003699D01*
X023184Y003699D02*
X023184Y004119D01*
X023254Y004119D02*
X023114Y004119D01*
X023434Y003699D02*
X023714Y003699D01*
X023714Y004119D01*
X024654Y004209D02*
X024724Y004139D01*
X024935Y004139D01*
X024935Y003999D02*
X024935Y004419D01*
X024724Y004419D01*
X024654Y004349D01*
X024654Y004209D01*
X025115Y004419D02*
X025115Y003999D01*
X025395Y003999D02*
X025395Y004419D01*
X025255Y004279D01*
X025115Y004419D01*
X025575Y004419D02*
X025855Y004419D01*
X025855Y003999D01*
X025575Y003999D01*
X025715Y004209D02*
X025855Y004209D01*
X026035Y004419D02*
X026316Y004419D01*
X026176Y004419D02*
X026176Y003999D01*
X023756Y003049D02*
X023756Y002659D01*
X023756Y002269D01*
X023646Y002159D01*
X023656Y002659D02*
X023756Y002659D01*
X023756Y003049D02*
X023646Y003159D01*
X022906Y002659D02*
X022606Y002659D01*
X021856Y002659D02*
X021756Y002659D01*
X021756Y003049D01*
X021866Y003159D01*
X021756Y002659D02*
X021756Y002269D01*
X021866Y002159D01*
X017723Y002262D02*
X017723Y002762D01*
X023487Y007309D02*
X023487Y007809D01*
X023506Y008410D02*
X023506Y008910D01*
X029812Y006659D02*
X029812Y004659D01*
X030112Y004659D01*
X030112Y004559D01*
X030112Y004659D02*
X030412Y004659D01*
X030412Y006659D01*
X030112Y006659D01*
X030112Y006759D01*
X030112Y006659D02*
X029812Y006659D01*
X031706Y009659D02*
X032006Y009659D01*
X032006Y009559D01*
X032006Y009659D02*
X032306Y009659D01*
X032306Y011659D01*
X032006Y011659D01*
X032006Y011759D01*
X032006Y011659D02*
X031706Y011659D01*
X031706Y009659D01*
X019214Y015349D02*
X019214Y015769D01*
D11*
X019506Y016159D02*
X016506Y016159D01*
X016506Y021659D01*
X019506Y021659D01*
X019506Y016159D01*
X020506Y016159D02*
X020506Y021659D01*
X023506Y021659D01*
X023506Y016159D01*
X020506Y016159D01*
X020256Y017159D02*
X021006Y017159D01*
X021256Y017659D02*
X020756Y018159D01*
X021006Y018159D02*
X020256Y018159D01*
X019756Y018159D02*
X019006Y018159D01*
X019256Y018159D02*
X018756Y017659D01*
X018256Y017659D01*
X018256Y019159D01*
X018756Y019159D01*
X019006Y019159D02*
X019756Y019159D01*
X020256Y019159D02*
X021006Y019159D01*
X021256Y019159D02*
X021756Y019159D01*
X021756Y017659D01*
X021256Y017659D01*
X022256Y017659D02*
X022756Y017659D01*
X023256Y018159D01*
X023006Y018159D02*
X023756Y018159D01*
X023756Y017159D02*
X023006Y017159D01*
X022256Y017659D02*
X022256Y019159D01*
X022756Y019159D01*
X023006Y019159D02*
X023756Y019159D01*
X023006Y020409D02*
X023006Y021009D01*
X023006Y020409D02*
X022256Y020409D01*
X022256Y019909D01*
X021756Y019909D01*
X022256Y020909D01*
X022256Y020409D01*
X021756Y020409D02*
X021756Y019909D01*
X021756Y020409D02*
X021006Y020409D01*
X021006Y021009D01*
X021756Y020909D02*
X022256Y020909D01*
X021756Y020909D02*
X021756Y020409D01*
X019006Y020409D02*
X019006Y021009D01*
X019006Y020409D02*
X018256Y020409D01*
X018256Y019909D01*
X017756Y019909D01*
X018256Y020909D01*
X018256Y020409D01*
X017756Y020409D02*
X017756Y019909D01*
X017756Y020409D02*
X017006Y020409D01*
X017006Y021009D01*
X017756Y020909D02*
X018256Y020909D01*
X017756Y020909D02*
X017756Y020409D01*
X017756Y019159D02*
X017256Y019159D01*
X017006Y019159D02*
X016256Y019159D01*
X015756Y019159D02*
X015006Y019159D01*
X014756Y019159D02*
X014256Y019159D01*
X014256Y017659D01*
X014756Y017659D01*
X015256Y018159D01*
X015006Y018159D02*
X015756Y018159D01*
X016256Y018159D02*
X017006Y018159D01*
X016756Y018159D02*
X017256Y017659D01*
X017756Y017659D01*
X017756Y019159D01*
X017006Y017159D02*
X016256Y017159D01*
X015756Y017159D02*
X015006Y017159D01*
X013756Y017659D02*
X013256Y017659D01*
X012756Y018159D01*
X013006Y018159D02*
X012256Y018159D01*
X012256Y017159D02*
X013006Y017159D01*
X013756Y017659D02*
X013756Y019159D01*
X013256Y019159D01*
X013006Y019159D02*
X012256Y019159D01*
X013006Y020409D02*
X013756Y020409D01*
X013756Y019909D01*
X014256Y020909D01*
X014256Y020409D01*
X014256Y019909D01*
X013756Y019909D01*
X013756Y020409D02*
X013756Y020909D01*
X014256Y020909D01*
X015006Y021009D02*
X015006Y020409D01*
X014256Y020409D01*
X013006Y020409D02*
X013006Y021009D01*
X012506Y021659D02*
X015506Y021659D01*
X015506Y016159D01*
X012506Y016159D01*
X012506Y021659D01*
X019006Y017159D02*
X019756Y017159D01*
X025906Y019959D02*
X028106Y019959D01*
X028106Y005359D01*
X027256Y005359D01*
X027254Y005389D01*
X027249Y005419D01*
X027240Y005448D01*
X027227Y005475D01*
X027212Y005501D01*
X027193Y005525D01*
X027172Y005546D01*
X027148Y005565D01*
X027122Y005580D01*
X027095Y005593D01*
X027066Y005602D01*
X027036Y005607D01*
X027006Y005609D01*
X026976Y005607D01*
X026946Y005602D01*
X026917Y005593D01*
X026890Y005580D01*
X026864Y005565D01*
X026840Y005546D01*
X026819Y005525D01*
X026800Y005501D01*
X026785Y005475D01*
X026772Y005448D01*
X026763Y005419D01*
X026758Y005389D01*
X026756Y005359D01*
X025906Y005359D01*
X025906Y019959D01*
D12*
X013576Y004514D02*
X013661Y004429D01*
X013661Y004089D01*
X013576Y004004D01*
X013405Y004004D01*
X013320Y004089D01*
X013320Y004259D01*
X013491Y004259D01*
X013320Y004429D02*
X013405Y004514D01*
X013576Y004514D01*
X008661Y004514D02*
X008661Y004004D01*
X008405Y004004D01*
X008320Y004089D01*
X008320Y004174D01*
X008405Y004259D01*
X008661Y004259D01*
X008661Y004514D02*
X008405Y004514D01*
X008320Y004429D01*
X008320Y004344D01*
X008405Y004259D01*
D13*
X024681Y002009D02*
X026330Y002009D01*
X026058Y002609D02*
X025953Y002609D01*
X025058Y002609D02*
X024953Y002609D01*
X031356Y005334D02*
X031356Y006984D01*
X031956Y006712D02*
X031956Y006606D01*
X031956Y005712D02*
X031956Y005606D01*
D14*
X031348Y005316D02*
X031373Y005348D01*
X031372Y005347D02*
X031417Y005314D01*
X031464Y005283D01*
X031513Y005255D01*
X031563Y005229D01*
X031546Y005194D01*
X031546Y005193D01*
X031494Y005220D01*
X031443Y005249D01*
X031394Y005281D01*
X031348Y005316D01*
X031353Y005323D01*
X031400Y005288D01*
X031448Y005257D01*
X031498Y005228D01*
X031550Y005201D01*
X031553Y005209D01*
X031502Y005235D01*
X031453Y005264D01*
X031405Y005296D01*
X031359Y005330D01*
X031364Y005337D01*
X031410Y005303D01*
X031457Y005272D01*
X031507Y005243D01*
X031557Y005217D01*
X031561Y005226D01*
X031511Y005251D01*
X031462Y005280D01*
X031415Y005310D01*
X031370Y005344D01*
X032466Y005194D02*
X032449Y005230D01*
X032449Y005229D02*
X032505Y005258D01*
X032559Y005290D01*
X032611Y005325D01*
X032660Y005363D01*
X032707Y005405D01*
X032752Y005449D01*
X032794Y005496D01*
X032833Y005545D01*
X032869Y005596D01*
X032901Y005650D01*
X032931Y005705D01*
X032956Y005762D01*
X032979Y005821D01*
X032998Y005880D01*
X033013Y005941D01*
X033024Y006003D01*
X033032Y006065D01*
X033036Y006128D01*
X033036Y006190D01*
X033032Y006253D01*
X033024Y006315D01*
X033013Y006377D01*
X032998Y006438D01*
X032979Y006497D01*
X032956Y006556D01*
X032931Y006613D01*
X032901Y006668D01*
X032869Y006722D01*
X032833Y006773D01*
X032794Y006822D01*
X032752Y006869D01*
X032707Y006913D01*
X032660Y006955D01*
X032611Y006993D01*
X032559Y007028D01*
X032505Y007060D01*
X032449Y007089D01*
X032466Y007124D01*
X032466Y007125D01*
X032524Y007095D01*
X032580Y007062D01*
X032634Y007025D01*
X032686Y006986D01*
X032735Y006943D01*
X032781Y006897D01*
X032824Y006848D01*
X032865Y006797D01*
X032902Y006744D01*
X032936Y006688D01*
X032966Y006631D01*
X032993Y006571D01*
X033017Y006511D01*
X033036Y006448D01*
X033052Y006385D01*
X033064Y006321D01*
X033072Y006257D01*
X033076Y006192D01*
X033076Y006126D01*
X033072Y006061D01*
X033064Y005997D01*
X033052Y005933D01*
X033036Y005870D01*
X033017Y005807D01*
X032993Y005747D01*
X032966Y005687D01*
X032936Y005630D01*
X032902Y005574D01*
X032865Y005521D01*
X032824Y005470D01*
X032781Y005421D01*
X032735Y005375D01*
X032686Y005332D01*
X032634Y005293D01*
X032580Y005256D01*
X032524Y005223D01*
X032466Y005193D01*
X032462Y005201D01*
X032520Y005231D01*
X032575Y005264D01*
X032629Y005300D01*
X032680Y005339D01*
X032728Y005382D01*
X032774Y005427D01*
X032817Y005475D01*
X032858Y005526D01*
X032894Y005579D01*
X032928Y005634D01*
X032958Y005691D01*
X032985Y005750D01*
X033008Y005810D01*
X033027Y005872D01*
X033043Y005935D01*
X033055Y005998D01*
X033063Y006062D01*
X033067Y006127D01*
X033067Y006191D01*
X033063Y006256D01*
X033055Y006320D01*
X033043Y006383D01*
X033027Y006446D01*
X033008Y006508D01*
X032985Y006568D01*
X032958Y006627D01*
X032928Y006684D01*
X032894Y006739D01*
X032858Y006792D01*
X032817Y006843D01*
X032774Y006891D01*
X032728Y006936D01*
X032680Y006979D01*
X032629Y007018D01*
X032575Y007054D01*
X032520Y007087D01*
X032462Y007117D01*
X032459Y007109D01*
X032516Y007079D01*
X032571Y007047D01*
X032624Y007011D01*
X032674Y006972D01*
X032722Y006929D01*
X032768Y006884D01*
X032811Y006837D01*
X032850Y006787D01*
X032887Y006734D01*
X032920Y006679D01*
X032950Y006623D01*
X032977Y006564D01*
X033000Y006505D01*
X033019Y006444D01*
X033034Y006381D01*
X033046Y006318D01*
X033054Y006255D01*
X033058Y006191D01*
X033058Y006127D01*
X033054Y006063D01*
X033046Y006000D01*
X033034Y005937D01*
X033019Y005874D01*
X033000Y005813D01*
X032977Y005754D01*
X032950Y005695D01*
X032920Y005639D01*
X032887Y005584D01*
X032850Y005531D01*
X032811Y005481D01*
X032768Y005434D01*
X032722Y005389D01*
X032674Y005346D01*
X032624Y005307D01*
X032571Y005271D01*
X032516Y005239D01*
X032459Y005209D01*
X032455Y005217D01*
X032511Y005247D01*
X032566Y005279D01*
X032618Y005315D01*
X032668Y005353D01*
X032716Y005395D01*
X032761Y005440D01*
X032804Y005487D01*
X032843Y005537D01*
X032879Y005589D01*
X032912Y005643D01*
X032942Y005699D01*
X032968Y005757D01*
X032991Y005816D01*
X033010Y005877D01*
X033025Y005938D01*
X033037Y006001D01*
X033045Y006064D01*
X033049Y006127D01*
X033049Y006191D01*
X033045Y006254D01*
X033037Y006317D01*
X033025Y006380D01*
X033010Y006441D01*
X032991Y006502D01*
X032968Y006561D01*
X032942Y006619D01*
X032912Y006675D01*
X032879Y006729D01*
X032843Y006781D01*
X032804Y006831D01*
X032761Y006878D01*
X032716Y006923D01*
X032668Y006965D01*
X032618Y007003D01*
X032566Y007039D01*
X032511Y007071D01*
X032455Y007101D01*
X032451Y007092D01*
X032507Y007064D01*
X032561Y007031D01*
X032613Y006996D01*
X032663Y006958D01*
X032710Y006916D01*
X032755Y006872D01*
X032797Y006825D01*
X032836Y006776D01*
X032872Y006724D01*
X032905Y006670D01*
X032934Y006615D01*
X032960Y006557D01*
X032983Y006499D01*
X033001Y006439D01*
X033017Y006378D01*
X033028Y006316D01*
X033036Y006253D01*
X033040Y006190D01*
X033040Y006128D01*
X033036Y006065D01*
X033028Y006002D01*
X033017Y005940D01*
X033001Y005879D01*
X032983Y005819D01*
X032960Y005761D01*
X032934Y005703D01*
X032905Y005648D01*
X032872Y005594D01*
X032836Y005542D01*
X032797Y005493D01*
X032755Y005446D01*
X032710Y005402D01*
X032663Y005360D01*
X032613Y005322D01*
X032561Y005287D01*
X032507Y005254D01*
X032451Y005226D01*
X031556Y007129D02*
X031573Y007093D01*
X031572Y007093D02*
X031520Y007067D01*
X031469Y007038D01*
X031420Y007006D01*
X031372Y006971D01*
X031348Y007002D01*
X031397Y007039D01*
X031448Y007072D01*
X031501Y007102D01*
X031555Y007129D01*
X031559Y007121D01*
X031505Y007094D01*
X031453Y007064D01*
X031402Y007031D01*
X031353Y006995D01*
X031359Y006988D01*
X031407Y007024D01*
X031457Y007057D01*
X031509Y007086D01*
X031563Y007113D01*
X031567Y007105D01*
X031513Y007078D01*
X031462Y007049D01*
X031412Y007016D01*
X031364Y006981D01*
X031370Y006974D01*
X031417Y007009D01*
X031467Y007041D01*
X031518Y007070D01*
X031570Y007097D01*
X026349Y002001D02*
X026317Y002026D01*
X026318Y002025D02*
X026351Y002070D01*
X026382Y002117D01*
X026410Y002166D01*
X026436Y002216D01*
X026471Y002199D01*
X026472Y002199D01*
X026445Y002147D01*
X026416Y002096D01*
X026384Y002047D01*
X026349Y002001D01*
X026342Y002006D01*
X026377Y002053D01*
X026408Y002101D01*
X026437Y002151D01*
X026464Y002203D01*
X026456Y002206D01*
X026430Y002155D01*
X026401Y002106D01*
X026369Y002058D01*
X026335Y002012D01*
X026328Y002017D01*
X026362Y002063D01*
X026393Y002110D01*
X026422Y002160D01*
X026448Y002210D01*
X026439Y002214D01*
X026414Y002164D01*
X026385Y002115D01*
X026355Y002068D01*
X026321Y002023D01*
X026471Y003119D02*
X026435Y003102D01*
X026436Y003102D02*
X026407Y003158D01*
X026375Y003212D01*
X026340Y003264D01*
X026302Y003313D01*
X026260Y003360D01*
X026216Y003405D01*
X026169Y003447D01*
X026120Y003486D01*
X026069Y003522D01*
X026015Y003554D01*
X025960Y003584D01*
X025903Y003609D01*
X025844Y003632D01*
X025785Y003651D01*
X025724Y003666D01*
X025662Y003677D01*
X025600Y003685D01*
X025537Y003689D01*
X025475Y003689D01*
X025412Y003685D01*
X025350Y003677D01*
X025288Y003666D01*
X025227Y003651D01*
X025168Y003632D01*
X025109Y003609D01*
X025052Y003584D01*
X024997Y003554D01*
X024943Y003522D01*
X024892Y003486D01*
X024843Y003447D01*
X024796Y003405D01*
X024752Y003360D01*
X024710Y003313D01*
X024672Y003264D01*
X024637Y003212D01*
X024605Y003158D01*
X024576Y003102D01*
X024541Y003119D01*
X024540Y003119D01*
X024570Y003177D01*
X024603Y003233D01*
X024640Y003287D01*
X024679Y003339D01*
X024722Y003388D01*
X024768Y003434D01*
X024817Y003477D01*
X024868Y003518D01*
X024921Y003555D01*
X024977Y003589D01*
X025034Y003619D01*
X025094Y003646D01*
X025154Y003670D01*
X025217Y003689D01*
X025280Y003705D01*
X025344Y003717D01*
X025408Y003725D01*
X025473Y003729D01*
X025539Y003729D01*
X025604Y003725D01*
X025668Y003717D01*
X025732Y003705D01*
X025795Y003689D01*
X025858Y003670D01*
X025918Y003646D01*
X025978Y003619D01*
X026035Y003589D01*
X026091Y003555D01*
X026144Y003518D01*
X026195Y003477D01*
X026244Y003434D01*
X026290Y003388D01*
X026333Y003339D01*
X026372Y003287D01*
X026409Y003233D01*
X026442Y003177D01*
X026472Y003119D01*
X026464Y003115D01*
X026434Y003173D01*
X026401Y003228D01*
X026365Y003282D01*
X026326Y003333D01*
X026283Y003381D01*
X026238Y003427D01*
X026190Y003470D01*
X026139Y003511D01*
X026086Y003547D01*
X026031Y003581D01*
X025974Y003611D01*
X025915Y003638D01*
X025855Y003661D01*
X025793Y003680D01*
X025730Y003696D01*
X025667Y003708D01*
X025603Y003716D01*
X025538Y003720D01*
X025474Y003720D01*
X025409Y003716D01*
X025345Y003708D01*
X025282Y003696D01*
X025219Y003680D01*
X025157Y003661D01*
X025097Y003638D01*
X025038Y003611D01*
X024981Y003581D01*
X024926Y003547D01*
X024873Y003511D01*
X024822Y003470D01*
X024774Y003427D01*
X024729Y003381D01*
X024686Y003333D01*
X024647Y003282D01*
X024611Y003228D01*
X024578Y003173D01*
X024548Y003115D01*
X024556Y003112D01*
X024586Y003169D01*
X024618Y003224D01*
X024654Y003277D01*
X024693Y003327D01*
X024736Y003375D01*
X024781Y003421D01*
X024828Y003464D01*
X024878Y003503D01*
X024931Y003540D01*
X024986Y003573D01*
X025042Y003603D01*
X025101Y003630D01*
X025160Y003653D01*
X025221Y003672D01*
X025284Y003687D01*
X025347Y003699D01*
X025410Y003707D01*
X025474Y003711D01*
X025538Y003711D01*
X025602Y003707D01*
X025665Y003699D01*
X025728Y003687D01*
X025791Y003672D01*
X025852Y003653D01*
X025911Y003630D01*
X025970Y003603D01*
X026026Y003573D01*
X026081Y003540D01*
X026134Y003503D01*
X026184Y003464D01*
X026231Y003421D01*
X026276Y003375D01*
X026319Y003327D01*
X026358Y003277D01*
X026394Y003224D01*
X026426Y003169D01*
X026456Y003112D01*
X026448Y003108D01*
X026418Y003164D01*
X026386Y003219D01*
X026350Y003271D01*
X026312Y003321D01*
X026270Y003369D01*
X026225Y003414D01*
X026178Y003457D01*
X026128Y003496D01*
X026076Y003532D01*
X026022Y003565D01*
X025966Y003595D01*
X025908Y003621D01*
X025849Y003644D01*
X025788Y003663D01*
X025727Y003678D01*
X025664Y003690D01*
X025601Y003698D01*
X025538Y003702D01*
X025474Y003702D01*
X025411Y003698D01*
X025348Y003690D01*
X025285Y003678D01*
X025224Y003663D01*
X025163Y003644D01*
X025104Y003621D01*
X025046Y003595D01*
X024990Y003565D01*
X024936Y003532D01*
X024884Y003496D01*
X024834Y003457D01*
X024787Y003414D01*
X024742Y003369D01*
X024700Y003321D01*
X024662Y003271D01*
X024626Y003219D01*
X024594Y003164D01*
X024564Y003108D01*
X024573Y003104D01*
X024601Y003160D01*
X024634Y003214D01*
X024669Y003266D01*
X024707Y003316D01*
X024749Y003363D01*
X024793Y003408D01*
X024840Y003450D01*
X024889Y003489D01*
X024941Y003525D01*
X024995Y003558D01*
X025050Y003587D01*
X025108Y003613D01*
X025166Y003636D01*
X025226Y003654D01*
X025287Y003670D01*
X025349Y003681D01*
X025412Y003689D01*
X025475Y003693D01*
X025537Y003693D01*
X025600Y003689D01*
X025663Y003681D01*
X025725Y003670D01*
X025786Y003654D01*
X025846Y003636D01*
X025904Y003613D01*
X025962Y003587D01*
X026017Y003558D01*
X026071Y003525D01*
X026123Y003489D01*
X026172Y003450D01*
X026219Y003408D01*
X026263Y003363D01*
X026305Y003316D01*
X026343Y003266D01*
X026378Y003214D01*
X026411Y003160D01*
X026439Y003104D01*
X024535Y002209D02*
X024571Y002226D01*
X024571Y002225D02*
X024597Y002173D01*
X024626Y002122D01*
X024658Y002073D01*
X024693Y002025D01*
X024662Y002001D01*
X024625Y002050D01*
X024592Y002101D01*
X024562Y002154D01*
X024535Y002208D01*
X024543Y002212D01*
X024570Y002158D01*
X024600Y002106D01*
X024633Y002055D01*
X024669Y002006D01*
X024676Y002012D01*
X024640Y002060D01*
X024607Y002110D01*
X024578Y002162D01*
X024551Y002216D01*
X024559Y002220D01*
X024586Y002166D01*
X024615Y002115D01*
X024648Y002065D01*
X024683Y002017D01*
X024690Y002023D01*
X024655Y002070D01*
X024623Y002120D01*
X024594Y002171D01*
X024567Y002223D01*
D15*
X012656Y009069D03*
D16*
X016278Y009109D02*
X016528Y009109D01*
X016528Y009609D01*
X018528Y009609D01*
X018528Y008609D01*
X016528Y008609D01*
X016528Y009109D01*
X018528Y008609D02*
X019028Y008609D01*
X019028Y009109D01*
X019278Y009109D01*
X019028Y009109D02*
X019028Y009609D01*
X018528Y009609D01*
M02*
