G75*
G70*
%OFA0B0*%
%FSLAX24Y24*%
%IPPOS*%
%LPD*%
%AMOC8*
5,1,8,0,0,1.08239X$1,22.5*
%
%ADD10C,0.0080*%
%ADD11C,0.0060*%
%ADD12C,0.0010*%
%ADD13C,0.0020*%
%ADD14C,0.0050*%
%ADD15C,0.0000*%
%ADD16R,0.0001X0.0012*%
%ADD17R,0.0001X0.0015*%
%ADD18R,0.0001X0.0018*%
%ADD19R,0.0001X0.0021*%
%ADD20R,0.0002X0.0026*%
%ADD21R,0.0001X0.0030*%
%ADD22R,0.0001X0.0036*%
%ADD23R,0.0001X0.0039*%
%ADD24R,0.0001X0.0041*%
%ADD25R,0.0001X0.0042*%
%ADD26R,0.0001X0.0044*%
%ADD27R,0.0001X0.0045*%
%ADD28R,0.0002X0.0045*%
%ADD29R,0.0001X0.0007*%
%ADD30R,0.0001X0.0001*%
%ADD31R,0.0001X0.0006*%
%ADD32R,0.0001X0.0004*%
%ADD33R,0.0001X0.0006*%
%ADD34R,0.0001X0.0002*%
%ADD35R,0.0001X0.0003*%
%ADD36R,0.0001X0.0005*%
%ADD37R,0.0001X0.0049*%
%ADD38R,0.0001X0.0046*%
%ADD39R,0.0001X0.0003*%
%ADD40R,0.0001X0.0048*%
%ADD41R,0.0002X0.0022*%
%ADD42R,0.0002X0.0019*%
%ADD43R,0.0002X0.0025*%
%ADD44R,0.0002X0.0006*%
%ADD45R,0.0002X0.0009*%
%ADD46R,0.0002X0.0055*%
%ADD47R,0.0002X0.0048*%
%ADD48R,0.0002X0.0054*%
%ADD49R,0.0002X0.0056*%
%ADD50R,0.0001X0.0032*%
%ADD51R,0.0001X0.0031*%
%ADD52R,0.0001X0.0010*%
%ADD53R,0.0001X0.0059*%
%ADD54R,0.0001X0.0060*%
%ADD55R,0.0001X0.0051*%
%ADD56R,0.0001X0.0051*%
%ADD57R,0.0001X0.0014*%
%ADD58R,0.0001X0.0038*%
%ADD59R,0.0001X0.0013*%
%ADD60R,0.0001X0.0063*%
%ADD61R,0.0001X0.0016*%
%ADD62R,0.0001X0.0066*%
%ADD63R,0.0001X0.0056*%
%ADD64R,0.0001X0.0063*%
%ADD65R,0.0001X0.0066*%
%ADD66R,0.0001X0.0011*%
%ADD67R,0.0001X0.0012*%
%ADD68R,0.0001X0.0018*%
%ADD69R,0.0001X0.0065*%
%ADD70R,0.0001X0.0019*%
%ADD71R,0.0001X0.0071*%
%ADD72R,0.0001X0.0068*%
%ADD73R,0.0001X0.0062*%
%ADD74R,0.0001X0.0061*%
%ADD75R,0.0001X0.0023*%
%ADD76R,0.0001X0.0079*%
%ADD77R,0.0001X0.0064*%
%ADD78R,0.0001X0.0021*%
%ADD79R,0.0001X0.0076*%
%ADD80R,0.0001X0.0074*%
%ADD81R,0.0001X0.0123*%
%ADD82R,0.0001X0.0072*%
%ADD83R,0.0001X0.0024*%
%ADD84R,0.0001X0.0026*%
%ADD85R,0.0001X0.0025*%
%ADD86R,0.0001X0.0075*%
%ADD87R,0.0001X0.0086*%
%ADD88R,0.0001X0.0027*%
%ADD89R,0.0001X0.0081*%
%ADD90R,0.0001X0.0126*%
%ADD91R,0.0001X0.0029*%
%ADD92R,0.0001X0.0028*%
%ADD93R,0.0001X0.0033*%
%ADD94R,0.0001X0.0090*%
%ADD95R,0.0001X0.0157*%
%ADD96R,0.0001X0.0078*%
%ADD97R,0.0001X0.0091*%
%ADD98R,0.0001X0.0085*%
%ADD99R,0.0001X0.0129*%
%ADD100R,0.0001X0.0033*%
%ADD101R,0.0001X0.0081*%
%ADD102R,0.0001X0.0034*%
%ADD103R,0.0001X0.0094*%
%ADD104R,0.0001X0.0160*%
%ADD105R,0.0001X0.0088*%
%ADD106R,0.0001X0.0131*%
%ADD107R,0.0001X0.0089*%
%ADD108R,0.0001X0.0035*%
%ADD109R,0.0001X0.0083*%
%ADD110R,0.0001X0.0098*%
%ADD111R,0.0001X0.0164*%
%ADD112R,0.0001X0.0092*%
%ADD113R,0.0001X0.0132*%
%ADD114R,0.0001X0.0037*%
%ADD115R,0.0001X0.0084*%
%ADD116R,0.0001X0.0036*%
%ADD117R,0.0001X0.0101*%
%ADD118R,0.0001X0.0166*%
%ADD119R,0.0001X0.0099*%
%ADD120R,0.0002X0.0096*%
%ADD121R,0.0002X0.0134*%
%ADD122R,0.0002X0.0041*%
%ADD123R,0.0002X0.0031*%
%ADD124R,0.0002X0.0030*%
%ADD125R,0.0002X0.0084*%
%ADD126R,0.0002X0.0036*%
%ADD127R,0.0002X0.0033*%
%ADD128R,0.0002X0.0104*%
%ADD129R,0.0002X0.0170*%
%ADD130R,0.0001X0.0102*%
%ADD131R,0.0001X0.0136*%
%ADD132R,0.0001X0.0108*%
%ADD133R,0.0001X0.0173*%
%ADD134R,0.0001X0.0106*%
%ADD135R,0.0001X0.0141*%
%ADD136R,0.0001X0.0087*%
%ADD137R,0.0001X0.0111*%
%ADD138R,0.0001X0.0176*%
%ADD139R,0.0001X0.0109*%
%ADD140R,0.0001X0.0112*%
%ADD141R,0.0001X0.0142*%
%ADD142R,0.0001X0.0114*%
%ADD143R,0.0001X0.0177*%
%ADD144R,0.0001X0.0115*%
%ADD145R,0.0001X0.0144*%
%ADD146R,0.0001X0.0048*%
%ADD147R,0.0001X0.0117*%
%ADD148R,0.0001X0.0179*%
%ADD149R,0.0001X0.0118*%
%ADD150R,0.0001X0.0146*%
%ADD151R,0.0001X0.0120*%
%ADD152R,0.0001X0.0180*%
%ADD153R,0.0001X0.0119*%
%ADD154R,0.0001X0.0122*%
%ADD155R,0.0001X0.0181*%
%ADD156R,0.0001X0.0125*%
%ADD157R,0.0001X0.0147*%
%ADD158R,0.0001X0.0121*%
%ADD159R,0.0001X0.0126*%
%ADD160R,0.0001X0.0149*%
%ADD161R,0.0001X0.0093*%
%ADD162R,0.0001X0.0129*%
%ADD163R,0.0001X0.0184*%
%ADD164R,0.0001X0.0151*%
%ADD165R,0.0001X0.0128*%
%ADD166R,0.0001X0.0093*%
%ADD167R,0.0001X0.0187*%
%ADD168R,0.0002X0.0132*%
%ADD169R,0.0002X0.0153*%
%ADD170R,0.0002X0.0131*%
%ADD171R,0.0002X0.0046*%
%ADD172R,0.0002X0.0048*%
%ADD173R,0.0002X0.0094*%
%ADD174R,0.0002X0.0034*%
%ADD175R,0.0002X0.0189*%
%ADD176R,0.0002X0.0091*%
%ADD177R,0.0001X0.0134*%
%ADD178R,0.0001X0.0154*%
%ADD179R,0.0001X0.0057*%
%ADD180R,0.0001X0.0027*%
%ADD181R,0.0001X0.0190*%
%ADD182R,0.0001X0.0054*%
%ADD183R,0.0001X0.0053*%
%ADD184R,0.0001X0.0054*%
%ADD185R,0.0001X0.0139*%
%ADD186R,0.0001X0.0156*%
%ADD187R,0.0001X0.0052*%
%ADD188R,0.0001X0.0043*%
%ADD189R,0.0001X0.0039*%
%ADD190R,0.0001X0.0040*%
%ADD191R,0.0001X0.0147*%
%ADD192R,0.0001X0.0159*%
%ADD193R,0.0001X0.0145*%
%ADD194R,0.0001X0.0042*%
%ADD195R,0.0001X0.0047*%
%ADD196R,0.0001X0.0150*%
%ADD197R,0.0001X0.0161*%
%ADD198R,0.0001X0.0162*%
%ADD199R,0.0002X0.0153*%
%ADD200R,0.0002X0.0164*%
%ADD201R,0.0002X0.0151*%
%ADD202R,0.0002X0.0042*%
%ADD203R,0.0002X0.0038*%
%ADD204R,0.0002X0.0040*%
%ADD205R,0.0001X0.0069*%
%ADD206R,0.0001X0.0067*%
%ADD207R,0.0001X0.0069*%
%ADD208R,0.0002X0.0054*%
%ADD209R,0.0002X0.0051*%
%ADD210R,0.0002X0.0052*%
%ADD211R,0.0002X0.0035*%
%ADD212R,0.0002X0.0036*%
%ADD213R,0.0002X0.0032*%
%ADD214R,0.0002X0.0037*%
%ADD215R,0.0002X0.0039*%
%ADD216R,0.0002X0.0059*%
%ADD217R,0.0002X0.0042*%
%ADD218R,0.0002X0.0060*%
%ADD219R,0.0002X0.0061*%
%ADD220R,0.0002X0.0012*%
%ADD221R,0.0001X0.0008*%
%ADD222R,0.0001X0.0070*%
%ADD223R,0.0001X0.0072*%
%ADD224R,0.0001X0.0078*%
%ADD225R,0.0001X0.0082*%
%ADD226R,0.0001X0.0024*%
%ADD227R,0.0002X0.0089*%
%ADD228R,0.0002X0.0018*%
%ADD229R,0.0002X0.0079*%
%ADD230R,0.0002X0.0076*%
%ADD231R,0.0001X0.0096*%
%ADD232R,0.0001X0.0097*%
%ADD233R,0.0001X0.0087*%
%ADD234R,0.0001X0.0105*%
%ADD235R,0.0001X0.0108*%
%ADD236R,0.0001X0.0110*%
%ADD237R,0.0001X0.0113*%
%ADD238R,0.0001X0.0116*%
%ADD239R,0.0001X0.0117*%
%ADD240R,0.0002X0.0124*%
%ADD241R,0.0002X0.0114*%
%ADD242R,0.0002X0.0112*%
%ADD243R,0.0002X0.0129*%
%ADD244R,0.0001X0.0127*%
%ADD245R,0.0001X0.0084*%
%ADD246R,0.0001X0.0103*%
%ADD247R,0.0001X0.0096*%
%ADD248R,0.0001X0.0153*%
%ADD249R,0.0002X0.0156*%
%ADD250R,0.0002X0.0080*%
%ADD251R,0.0002X0.0081*%
%ADD252R,0.0001X0.0165*%
%ADD253R,0.0001X0.0055*%
%ADD254R,0.0001X0.0100*%
%ADD255R,0.0001X0.0009*%
%ADD256R,0.0001X0.0022*%
%ADD257R,0.0002X0.0044*%
%ADD258R,0.0002X0.0029*%
%ADD259R,0.0002X0.0057*%
%ADD260R,0.0002X0.0033*%
%ADD261R,0.0002X0.0049*%
%ADD262R,0.0002X0.0039*%
%ADD263R,0.0002X0.0053*%
%ADD264R,0.0002X0.0043*%
%ADD265R,0.0001X0.0058*%
%ADD266R,0.0001X0.0124*%
%ADD267R,0.0001X0.0144*%
%ADD268R,0.0001X0.0152*%
%ADD269R,0.0001X0.0155*%
%ADD270R,0.0001X0.0123*%
%ADD271R,0.0001X0.0153*%
%ADD272R,0.0002X0.0150*%
%ADD273R,0.0002X0.0139*%
%ADD274R,0.0002X0.0119*%
%ADD275R,0.0002X0.0120*%
%ADD276R,0.0002X0.0141*%
%ADD277R,0.0002X0.0118*%
%ADD278R,0.0001X0.0138*%
%ADD279R,0.0001X0.0114*%
%ADD280R,0.0001X0.0133*%
%ADD281R,0.0001X0.0132*%
%ADD282R,0.0001X0.0130*%
%ADD283R,0.0001X0.0104*%
%ADD284R,0.0001X0.0099*%
%ADD285R,0.0001X0.0135*%
%ADD286R,0.0001X0.0095*%
%ADD287R,0.0002X0.0126*%
%ADD288R,0.0002X0.0128*%
%ADD289R,0.0002X0.0082*%
%ADD290R,0.0002X0.0121*%
%ADD291R,0.0002X0.0024*%
%ADD292R,0.0002X0.0024*%
%ADD293R,0.0002X0.0081*%
%ADD294R,0.0001X0.0020*%
%ADD295R,0.0001X0.0017*%
%ADD296R,0.0001X0.0057*%
%ADD297R,0.0002X0.0090*%
%ADD298R,0.0002X0.0006*%
%ADD299R,0.0001X0.0050*%
%ADD300R,0.0002X0.0075*%
%ADD301R,0.0002X0.0158*%
%ADD302R,0.0002X0.0109*%
%ADD303R,0.0001X0.0168*%
%ADD304R,0.0001X0.0171*%
%ADD305R,0.0001X0.0172*%
%ADD306R,0.0001X0.0175*%
%ADD307R,0.0001X0.0186*%
%ADD308R,0.0001X0.0191*%
%ADD309R,0.0001X0.0194*%
%ADD310R,0.0002X0.0196*%
%ADD311R,0.0002X0.0149*%
%ADD312R,0.0001X0.0199*%
%ADD313R,0.0001X0.0204*%
%ADD314R,0.0001X0.0207*%
%ADD315R,0.0001X0.0158*%
%ADD316R,0.0001X0.0211*%
%ADD317R,0.0001X0.0216*%
%ADD318R,0.0001X0.0219*%
%ADD319R,0.0001X0.0169*%
%ADD320R,0.0001X0.0222*%
%ADD321R,0.0001X0.0224*%
%ADD322R,0.0001X0.0228*%
%ADD323R,0.0002X0.0234*%
%ADD324R,0.0002X0.0183*%
%ADD325R,0.0001X0.0239*%
%ADD326R,0.0001X0.0189*%
%ADD327R,0.0001X0.0241*%
%ADD328R,0.0001X0.0192*%
%ADD329R,0.0001X0.0243*%
%ADD330R,0.0001X0.0246*%
%ADD331R,0.0001X0.0196*%
%ADD332R,0.0001X0.0250*%
%ADD333R,0.0001X0.0201*%
%ADD334R,0.0001X0.0254*%
%ADD335R,0.0001X0.0258*%
%ADD336R,0.0001X0.0209*%
%ADD337R,0.0001X0.0263*%
%ADD338R,0.0001X0.0213*%
%ADD339R,0.0001X0.0267*%
%ADD340R,0.0002X0.0270*%
%ADD341R,0.0002X0.0066*%
%ADD342R,0.0002X0.0219*%
%ADD343R,0.0001X0.0271*%
%ADD344R,0.0001X0.0220*%
%ADD345R,0.0001X0.0274*%
%ADD346R,0.0001X0.0223*%
%ADD347R,0.0001X0.0278*%
%ADD348R,0.0001X0.0282*%
%ADD349R,0.0001X0.0231*%
%ADD350R,0.0001X0.0288*%
%ADD351R,0.0001X0.0236*%
%ADD352R,0.0001X0.0289*%
%ADD353R,0.0001X0.0292*%
%ADD354R,0.0001X0.0297*%
%ADD355R,0.0001X0.0300*%
%ADD356R,0.0002X0.0305*%
%ADD357R,0.0002X0.0101*%
%ADD358R,0.0002X0.0078*%
%ADD359R,0.0002X0.0251*%
%ADD360R,0.0001X0.0309*%
%ADD361R,0.0001X0.0255*%
%ADD362R,0.0001X0.0314*%
%ADD363R,0.0001X0.0316*%
%ADD364R,0.0001X0.0262*%
%ADD365R,0.0001X0.0319*%
%ADD366R,0.0001X0.0266*%
%ADD367R,0.0001X0.0321*%
%ADD368R,0.0001X0.0324*%
%ADD369R,0.0001X0.0270*%
%ADD370R,0.0001X0.0329*%
%ADD371R,0.0001X0.0275*%
%ADD372R,0.0001X0.0333*%
%ADD373R,0.0001X0.0279*%
%ADD374R,0.0001X0.0336*%
%ADD375R,0.0001X0.0284*%
%ADD376R,0.0002X0.0339*%
%ADD377R,0.0002X0.0286*%
%ADD378R,0.0001X0.0342*%
%ADD379R,0.0001X0.0491*%
%ADD380R,0.0001X0.0492*%
%ADD381R,0.0001X0.0294*%
%ADD382R,0.0001X0.0495*%
%ADD383R,0.0001X0.0299*%
%ADD384R,0.0001X0.0496*%
%ADD385R,0.0001X0.0301*%
%ADD386R,0.0001X0.0498*%
%ADD387R,0.0001X0.0304*%
%ADD388R,0.0001X0.0501*%
%ADD389R,0.0001X0.0308*%
%ADD390R,0.0001X0.0311*%
%ADD391R,0.0001X0.0504*%
%ADD392R,0.0002X0.0504*%
%ADD393R,0.0002X0.0318*%
%ADD394R,0.0001X0.0507*%
%ADD395R,0.0001X0.0323*%
%ADD396R,0.0001X0.0326*%
%ADD397R,0.0001X0.0508*%
%ADD398R,0.0001X0.0330*%
%ADD399R,0.0001X0.0510*%
%ADD400R,0.0001X0.0494*%
%ADD401R,0.0001X0.0512*%
%ADD402R,0.0001X0.0500*%
%ADD403R,0.0001X0.0513*%
%ADD404R,0.0001X0.0501*%
%ADD405R,0.0002X0.0513*%
%ADD406R,0.0002X0.0501*%
%ADD407R,0.0001X0.0503*%
%ADD408R,0.0001X0.0504*%
%ADD409R,0.0001X0.0506*%
%ADD410R,0.0001X0.0513*%
%ADD411R,0.0001X0.0509*%
%ADD412R,0.0001X0.0511*%
%ADD413R,0.0001X0.0514*%
%ADD414R,0.0001X0.0516*%
%ADD415R,0.0002X0.0513*%
%ADD416R,0.0002X0.0519*%
%ADD417R,0.0001X0.0519*%
%ADD418R,0.0001X0.0520*%
%ADD419R,0.0001X0.0522*%
%ADD420R,0.0001X0.0507*%
%ADD421R,0.0002X0.0509*%
%ADD422R,0.0002X0.0520*%
%ADD423R,0.0001X0.0522*%
%ADD424R,0.0001X0.0505*%
%ADD425R,0.0001X0.0502*%
%ADD426R,0.0001X0.0521*%
%ADD427R,0.0002X0.0503*%
%ADD428R,0.0002X0.0519*%
%ADD429R,0.0001X0.0519*%
%ADD430R,0.0001X0.0499*%
%ADD431R,0.0001X0.0517*%
%ADD432R,0.0002X0.0495*%
%ADD433R,0.0002X0.0514*%
%ADD434R,0.0001X0.0515*%
%ADD435R,0.0001X0.0492*%
%ADD436R,0.0001X0.0490*%
%ADD437R,0.0002X0.0490*%
%ADD438R,0.0002X0.0511*%
%ADD439R,0.0001X0.0489*%
%ADD440R,0.0001X0.0489*%
%ADD441R,0.0001X0.0488*%
%ADD442R,0.0001X0.0485*%
%ADD443R,0.0001X0.0483*%
%ADD444R,0.0002X0.0483*%
%ADD445R,0.0002X0.0507*%
%ADD446R,0.0001X0.0483*%
%ADD447R,0.0001X0.0481*%
%ADD448R,0.0001X0.0480*%
%ADD449R,0.0002X0.0480*%
%ADD450R,0.0002X0.0501*%
%ADD451R,0.0001X0.0479*%
%ADD452R,0.0001X0.0477*%
%ADD453R,0.0001X0.0477*%
%ADD454R,0.0001X0.0475*%
%ADD455R,0.0001X0.0474*%
%ADD456R,0.0001X0.0472*%
%ADD457R,0.0002X0.0472*%
%ADD458R,0.0002X0.0498*%
%ADD459R,0.0001X0.0471*%
%ADD460R,0.0001X0.0473*%
%ADD461R,0.0001X0.0471*%
%ADD462R,0.0001X0.0470*%
%ADD463R,0.0001X0.0468*%
%ADD464R,0.0001X0.0469*%
%ADD465R,0.0002X0.0468*%
%ADD466R,0.0002X0.0491*%
%ADD467R,0.0001X0.0466*%
%ADD468R,0.0001X0.0465*%
%ADD469R,0.0001X0.0464*%
%ADD470R,0.0001X0.0462*%
%ADD471R,0.0002X0.0462*%
%ADD472R,0.0002X0.0489*%
%ADD473R,0.0001X0.0461*%
%ADD474R,0.0001X0.0460*%
%ADD475R,0.0001X0.0459*%
%ADD476R,0.0001X0.0484*%
%ADD477R,0.0001X0.0457*%
%ADD478R,0.0001X0.0459*%
%ADD479R,0.0002X0.0458*%
%ADD480R,0.0002X0.0484*%
%ADD481R,0.0001X0.0456*%
%ADD482R,0.0001X0.0455*%
%ADD483R,0.0001X0.0453*%
%ADD484R,0.0001X0.0451*%
%ADD485R,0.0001X0.0453*%
%ADD486R,0.0001X0.0450*%
%ADD487R,0.0002X0.0451*%
%ADD488R,0.0001X0.0478*%
%ADD489R,0.0001X0.0449*%
%ADD490R,0.0001X0.0476*%
%ADD491R,0.0001X0.0447*%
%ADD492R,0.0001X0.0474*%
%ADD493R,0.0002X0.0449*%
%ADD494R,0.0002X0.0476*%
%ADD495R,0.0001X0.0454*%
%ADD496R,0.0002X0.0469*%
%ADD497R,0.0001X0.0468*%
%ADD498R,0.0001X0.0467*%
%ADD499R,0.0002X0.0473*%
%ADD500R,0.0002X0.0468*%
%ADD501R,0.0002X0.0486*%
%ADD502R,0.0002X0.0474*%
%ADD503R,0.0001X0.0487*%
%ADD504R,0.0001X0.0497*%
%ADD505R,0.0001X0.0486*%
%ADD506R,0.0002X0.0500*%
%ADD507R,0.0002X0.0487*%
%ADD508R,0.0001X0.0498*%
%ADD509R,0.0002X0.0524*%
%ADD510R,0.0001X0.0524*%
%ADD511R,0.0001X0.0525*%
%ADD512R,0.0001X0.0528*%
%ADD513R,0.0001X0.0529*%
%ADD514R,0.0001X0.0533*%
%ADD515R,0.0001X0.0534*%
%ADD516R,0.0001X0.0523*%
%ADD517R,0.0001X0.0536*%
%ADD518R,0.0002X0.0537*%
%ADD519R,0.0002X0.0527*%
%ADD520R,0.0001X0.0537*%
%ADD521R,0.0001X0.0528*%
%ADD522R,0.0001X0.0539*%
%ADD523R,0.0001X0.0530*%
%ADD524R,0.0001X0.0540*%
%ADD525R,0.0001X0.0541*%
%ADD526R,0.0001X0.0531*%
%ADD527R,0.0001X0.0543*%
%ADD528R,0.0001X0.0544*%
%ADD529R,0.0002X0.0546*%
%ADD530R,0.0002X0.0536*%
%ADD531R,0.0001X0.0547*%
%ADD532R,0.0001X0.0551*%
%ADD533R,0.0001X0.0552*%
%ADD534R,0.0001X0.0554*%
%ADD535R,0.0001X0.0555*%
%ADD536R,0.0002X0.0555*%
%ADD537R,0.0002X0.0547*%
%ADD538R,0.0001X0.0549*%
%ADD539R,0.0001X0.0548*%
%ADD540R,0.0001X0.0538*%
%ADD541R,0.0001X0.0537*%
%ADD542R,0.0002X0.0533*%
%ADD543R,0.0001X0.0531*%
%ADD544R,0.0001X0.0526*%
%ADD545R,0.0001X0.0518*%
%ADD546R,0.0002X0.0498*%
%ADD547R,0.0002X0.0496*%
%ADD548R,0.0001X0.0486*%
%ADD549R,0.0002X0.0485*%
%ADD550R,0.0001X0.0482*%
%ADD551R,0.0002X0.0477*%
%ADD552R,0.0002X0.0530*%
%ADD553R,0.0002X0.0464*%
%ADD554R,0.0001X0.0561*%
%ADD555R,0.0001X0.0570*%
%ADD556R,0.0001X0.0576*%
%ADD557R,0.0001X0.0581*%
%ADD558R,0.0001X0.0585*%
%ADD559R,0.0001X0.0589*%
%ADD560R,0.0002X0.0600*%
%ADD561R,0.0001X0.0614*%
%ADD562R,0.0001X0.0623*%
%ADD563R,0.0001X0.0630*%
%ADD564R,0.0001X0.0633*%
%ADD565R,0.0001X0.0638*%
%ADD566R,0.0001X0.0645*%
%ADD567R,0.0001X0.0657*%
%ADD568R,0.0001X0.0556*%
%ADD569R,0.0001X0.0669*%
%ADD570R,0.0001X0.0674*%
%ADD571R,0.0001X0.0579*%
%ADD572R,0.0002X0.0676*%
%ADD573R,0.0002X0.0585*%
%ADD574R,0.0001X0.0678*%
%ADD575R,0.0001X0.0590*%
%ADD576R,0.0001X0.0679*%
%ADD577R,0.0001X0.0596*%
%ADD578R,0.0001X0.0681*%
%ADD579R,0.0001X0.0606*%
%ADD580R,0.0001X0.0620*%
%ADD581R,0.0001X0.0682*%
%ADD582R,0.0001X0.0633*%
%ADD583R,0.0001X0.0684*%
%ADD584R,0.0001X0.0639*%
%ADD585R,0.0001X0.0649*%
%ADD586R,0.0001X0.0684*%
%ADD587R,0.0001X0.0655*%
%ADD588R,0.0002X0.0683*%
%ADD589R,0.0002X0.0664*%
%ADD590R,0.0001X0.0683*%
%ADD591R,0.0001X0.0670*%
%ADD592R,0.0001X0.0671*%
%ADD593R,0.0001X0.0681*%
%ADD594R,0.0001X0.0672*%
%ADD595R,0.0001X0.0680*%
%ADD596R,0.0001X0.0675*%
%ADD597R,0.0001X0.0676*%
%ADD598R,0.0002X0.0680*%
%ADD599R,0.0002X0.0678*%
%ADD600R,0.0001X0.0678*%
%ADD601R,0.0002X0.0675*%
%ADD602R,0.0002X0.0672*%
%ADD603R,0.0001X0.0672*%
%ADD604R,0.0002X0.0671*%
%ADD605R,0.0002X0.0670*%
%ADD606R,0.0001X0.0669*%
%ADD607R,0.0001X0.0667*%
%ADD608R,0.0002X0.0669*%
%ADD609R,0.0002X0.0667*%
%ADD610R,0.0001X0.0668*%
%ADD611R,0.0001X0.0666*%
%ADD612R,0.0002X0.0668*%
%ADD613R,0.0002X0.0666*%
%ADD614R,0.0001X0.0666*%
%ADD615R,0.0001X0.0664*%
%ADD616R,0.0001X0.0663*%
%ADD617R,0.0002X0.0666*%
%ADD618R,0.0002X0.0663*%
%ADD619R,0.0001X0.0665*%
%ADD620R,0.0002X0.0674*%
%ADD621R,0.0001X0.0677*%
%ADD622R,0.0002X0.0678*%
%ADD623R,0.0002X0.0682*%
%ADD624R,0.0001X0.0686*%
%ADD625R,0.0002X0.0686*%
%ADD626R,0.0001X0.0687*%
%ADD627R,0.0001X0.0689*%
%ADD628R,0.0001X0.0653*%
%ADD629R,0.0001X0.0641*%
%ADD630R,0.0001X0.0626*%
%ADD631R,0.0001X0.0616*%
%ADD632R,0.0001X0.0687*%
%ADD633R,0.0001X0.0612*%
%ADD634R,0.0001X0.0688*%
%ADD635R,0.0001X0.0606*%
%ADD636R,0.0001X0.0601*%
%ADD637R,0.0002X0.0591*%
%ADD638R,0.0001X0.0567*%
%ADD639R,0.0001X0.0560*%
%ADD640R,0.0001X0.0659*%
%ADD641R,0.0001X0.0516*%
%ADD642R,0.0001X0.0639*%
%ADD643R,0.0002X0.0502*%
%ADD644R,0.0002X0.0633*%
%ADD645R,0.0001X0.0608*%
%ADD646R,0.0001X0.0582*%
%ADD647R,0.0001X0.0577*%
%ADD648R,0.0002X0.0569*%
%ADD649R,0.0001X0.0546*%
%ADD650R,0.0002X0.0486*%
%ADD651R,0.0001X0.0493*%
%ADD652R,0.0002X0.0516*%
%ADD653R,0.0001X0.0532*%
%ADD654R,0.0002X0.0534*%
%ADD655R,0.0002X0.0535*%
%ADD656R,0.0001X0.0543*%
%ADD657R,0.0001X0.0553*%
%ADD658R,0.0001X0.0559*%
%ADD659R,0.0001X0.0564*%
%ADD660R,0.0001X0.0564*%
%ADD661R,0.0001X0.0567*%
%ADD662R,0.0001X0.0569*%
%ADD663R,0.0002X0.0570*%
%ADD664R,0.0002X0.0571*%
%ADD665R,0.0001X0.0571*%
%ADD666R,0.0001X0.0573*%
%ADD667R,0.0001X0.0574*%
%ADD668R,0.0001X0.0576*%
%ADD669R,0.0001X0.0600*%
%ADD670R,0.0001X0.0611*%
%ADD671R,0.0001X0.0618*%
%ADD672R,0.0001X0.0621*%
%ADD673R,0.0001X0.1269*%
%ADD674R,0.0001X0.1267*%
%ADD675R,0.0001X0.1266*%
%ADD676R,0.0002X0.1266*%
%ADD677R,0.0001X0.1264*%
%ADD678R,0.0001X0.1261*%
%ADD679R,0.0001X0.1260*%
%ADD680R,0.0001X0.1259*%
%ADD681R,0.0001X0.1256*%
%ADD682R,0.0001X0.1254*%
%ADD683R,0.0001X0.1253*%
%ADD684R,0.0001X0.1251*%
%ADD685R,0.0002X0.1251*%
%ADD686R,0.0001X0.1248*%
%ADD687R,0.0001X0.1245*%
%ADD688R,0.0001X0.1244*%
%ADD689R,0.0001X0.1242*%
%ADD690R,0.0001X0.1239*%
%ADD691R,0.0001X0.1237*%
%ADD692R,0.0002X0.1236*%
%ADD693R,0.0001X0.1233*%
%ADD694R,0.0001X0.1230*%
%ADD695R,0.0001X0.1229*%
%ADD696R,0.0001X0.1227*%
%ADD697R,0.0001X0.1226*%
%ADD698R,0.0001X0.1224*%
%ADD699R,0.0002X0.1223*%
%ADD700R,0.0001X0.1219*%
%ADD701R,0.0001X0.1216*%
%ADD702R,0.0001X0.1215*%
%ADD703R,0.0001X0.1214*%
%ADD704R,0.0001X0.1212*%
%ADD705R,0.0001X0.1209*%
%ADD706R,0.0002X0.1207*%
%ADD707R,0.0001X0.1206*%
%ADD708R,0.0001X0.1204*%
%ADD709R,0.0001X0.1201*%
%ADD710R,0.0001X0.1200*%
%ADD711R,0.0001X0.1199*%
%ADD712R,0.0001X0.1196*%
%ADD713R,0.0001X0.1194*%
%ADD714R,0.0001X0.1193*%
%ADD715R,0.0001X0.1191*%
%ADD716R,0.0002X0.1191*%
%ADD717R,0.0001X0.1188*%
%ADD718R,0.0001X0.1185*%
%ADD719R,0.0001X0.1184*%
%ADD720R,0.0001X0.1181*%
%ADD721R,0.0001X0.1177*%
%ADD722R,0.0001X0.1176*%
%ADD723R,0.0001X0.1174*%
%ADD724R,0.0001X0.1173*%
%ADD725R,0.0002X0.1170*%
%ADD726R,0.0001X0.1170*%
%ADD727R,0.0001X0.1169*%
%ADD728R,0.0001X0.1166*%
%ADD729R,0.0001X0.1164*%
%ADD730R,0.0001X0.1163*%
%ADD731R,0.0002X0.1163*%
%ADD732R,0.0001X0.1167*%
%ADD733R,0.0001X0.1171*%
%ADD734R,0.0001X0.1179*%
%ADD735R,0.0001X0.1182*%
%ADD736R,0.0002X0.1182*%
%ADD737R,0.0001X0.1188*%
%ADD738R,0.0001X0.1190*%
%ADD739R,0.0001X0.1197*%
%ADD740R,0.0002X0.1204*%
%ADD741R,0.0001X0.1207*%
%ADD742R,0.0001X0.1210*%
%ADD743R,0.0001X0.1213*%
%ADD744R,0.0001X0.1217*%
%ADD745R,0.0001X0.1218*%
%ADD746R,0.0001X0.1220*%
%ADD747R,0.0001X0.1221*%
%ADD748R,0.0001X0.1223*%
%ADD749R,0.0002X0.1226*%
%ADD750R,0.0001X0.1236*%
%ADD751R,0.0001X0.1239*%
%ADD752R,0.0001X0.1240*%
%ADD753R,0.0001X0.1243*%
%ADD754R,0.0002X0.1248*%
%ADD755R,0.0001X0.1248*%
%ADD756R,0.0001X0.1251*%
%ADD757R,0.0001X0.1257*%
%ADD758R,0.0001X0.1263*%
%ADD759R,0.0002X0.1267*%
%ADD760R,0.0001X0.1270*%
%ADD761R,0.0001X0.1274*%
%ADD762R,0.0001X0.1275*%
%ADD763R,0.0001X0.1278*%
%ADD764R,0.0001X0.1280*%
%ADD765R,0.0001X0.1281*%
%ADD766R,0.0001X0.1284*%
%ADD767R,0.0001X0.1286*%
%ADD768R,0.0001X0.1289*%
%ADD769R,0.0002X0.1290*%
%ADD770R,0.0001X0.1291*%
%ADD771R,0.0001X0.1294*%
%ADD772R,0.0001X0.1296*%
%ADD773R,0.0001X0.1299*%
%ADD774R,0.0001X0.1300*%
%ADD775R,0.0001X0.1302*%
%ADD776R,0.0001X0.1304*%
%ADD777R,0.0001X0.1306*%
%ADD778R,0.0001X0.1308*%
%ADD779R,0.0002X0.1311*%
%ADD780R,0.0001X0.1313*%
%ADD781R,0.0001X0.1316*%
%ADD782R,0.0001X0.1317*%
%ADD783R,0.0001X0.1320*%
%ADD784R,0.0001X0.1323*%
%ADD785R,0.0001X0.1326*%
%ADD786R,0.0001X0.1329*%
%ADD787R,0.0002X0.1332*%
%ADD788R,0.0001X0.1335*%
%ADD789R,0.0001X0.1336*%
%ADD790R,0.0001X0.1340*%
%ADD791R,0.0001X0.1343*%
%ADD792R,0.0001X0.1346*%
%ADD793R,0.0001X0.1347*%
%ADD794R,0.0001X0.1350*%
%ADD795R,0.0002X0.1353*%
%ADD796R,0.0001X0.1356*%
%ADD797R,0.0001X0.1357*%
%ADD798R,0.0001X0.1360*%
%ADD799R,0.0001X0.1364*%
%ADD800R,0.0001X0.1365*%
%ADD801R,0.0001X0.1368*%
%ADD802R,0.0001X0.1369*%
%ADD803R,0.0001X0.1373*%
%ADD804R,0.0002X0.1374*%
%ADD805R,0.0001X0.1377*%
%ADD806R,0.0001X0.1379*%
%ADD807R,0.0001X0.1380*%
%ADD808R,0.0001X0.1383*%
%ADD809R,0.0001X0.1386*%
%ADD810R,0.0001X0.1387*%
%ADD811R,0.0001X0.1391*%
%ADD812R,0.0001X0.1394*%
%ADD813R,0.0002X0.1395*%
%ADD814R,0.0001X0.1398*%
%ADD815R,0.0001X0.1401*%
%ADD816R,0.0001X0.1403*%
%ADD817R,0.0001X0.1406*%
%ADD818R,0.0001X0.1407*%
%ADD819R,0.0001X0.1409*%
%ADD820R,0.0001X0.1411*%
%ADD821R,0.0001X0.1414*%
%ADD822R,0.0002X0.1416*%
%ADD823R,0.0001X0.1419*%
%ADD824R,0.0001X0.1421*%
%ADD825R,0.0001X0.1422*%
%ADD826R,0.0001X0.1424*%
%ADD827R,0.0001X0.1426*%
%ADD828R,0.0001X0.1428*%
%ADD829R,0.0002X0.1429*%
%ADD830R,0.0001X0.1429*%
%ADD831R,0.0001X0.1425*%
%ADD832R,0.0002X0.1421*%
%ADD833R,0.0001X0.1418*%
%ADD834R,0.0001X0.1416*%
%ADD835R,0.0001X0.1413*%
%ADD836R,0.0001X0.1410*%
%ADD837R,0.0001X0.1404*%
%ADD838R,0.0001X0.1401*%
%ADD839R,0.0001X0.0346*%
%ADD840R,0.0001X0.1044*%
%ADD841R,0.0002X0.0342*%
%ADD842R,0.0002X0.1040*%
%ADD843R,0.0001X0.0337*%
%ADD844R,0.0001X0.1034*%
%ADD845R,0.0001X0.0357*%
%ADD846R,0.0001X0.0660*%
%ADD847R,0.0001X0.0353*%
%ADD848R,0.0001X0.0327*%
%ADD849R,0.0001X0.0349*%
%ADD850R,0.0001X0.0321*%
%ADD851R,0.0001X0.0648*%
%ADD852R,0.0001X0.0344*%
%ADD853R,0.0001X0.0317*%
%ADD854R,0.0001X0.0339*%
%ADD855R,0.0001X0.0312*%
%ADD856R,0.0001X0.0631*%
%ADD857R,0.0001X0.0334*%
%ADD858R,0.0001X0.0309*%
%ADD859R,0.0002X0.0307*%
%ADD860R,0.0002X0.0623*%
%ADD861R,0.0002X0.0327*%
%ADD862R,0.0001X0.0618*%
%ADD863R,0.0001X0.0297*%
%ADD864R,0.0001X0.0607*%
%ADD865R,0.0001X0.0320*%
%ADD866R,0.0001X0.0293*%
%ADD867R,0.0001X0.0599*%
%ADD868R,0.0001X0.0313*%
%ADD869R,0.0001X0.0285*%
%ADD870R,0.0001X0.0584*%
%ADD871R,0.0001X0.0303*%
%ADD872R,0.0001X0.0281*%
%ADD873R,0.0002X0.0273*%
%ADD874R,0.0002X0.0563*%
%ADD875R,0.0002X0.0293*%
%ADD876R,0.0001X0.0264*%
%ADD877R,0.0001X0.0259*%
%ADD878R,0.0001X0.0256*%
%ADD879R,0.0001X0.0276*%
%ADD880R,0.0001X0.0252*%
%ADD881R,0.0001X0.0273*%
%ADD882R,0.0001X0.0248*%
%ADD883R,0.0001X0.0269*%
%ADD884R,0.0001X0.0245*%
%ADD885R,0.0001X0.0240*%
%ADD886R,0.0002X0.0237*%
%ADD887R,0.0002X0.0256*%
%ADD888R,0.0001X0.0234*%
%ADD889R,0.0001X0.0232*%
%ADD890R,0.0001X0.0251*%
%ADD891R,0.0001X0.0228*%
%ADD892R,0.0001X0.0246*%
%ADD893R,0.0001X0.0456*%
%ADD894R,0.0001X0.0219*%
%ADD895R,0.0001X0.0444*%
%ADD896R,0.0001X0.0237*%
%ADD897R,0.0001X0.0214*%
%ADD898R,0.0001X0.0436*%
%ADD899R,0.0001X0.0432*%
%ADD900R,0.0001X0.0231*%
%ADD901R,0.0001X0.0210*%
%ADD902R,0.0001X0.0426*%
%ADD903R,0.0001X0.0420*%
%ADD904R,0.0001X0.0226*%
%ADD905R,0.0002X0.0204*%
%ADD906R,0.0002X0.0409*%
%ADD907R,0.0002X0.0222*%
%ADD908R,0.0001X0.0391*%
%ADD909R,0.0001X0.0217*%
%ADD910R,0.0001X0.0376*%
%ADD911R,0.0001X0.0368*%
%ADD912R,0.0001X0.0189*%
%ADD913R,0.0001X0.0361*%
%ADD914R,0.0001X0.0206*%
%ADD915R,0.0001X0.0186*%
%ADD916R,0.0001X0.0356*%
%ADD917R,0.0001X0.0345*%
%ADD918R,0.0001X0.0331*%
%ADD919R,0.0001X0.0168*%
%ADD920R,0.0002X0.0165*%
%ADD921R,0.0001X0.0162*%
%ADD922R,0.0001X0.0324*%
%ADD923R,0.0001X0.0174*%
%ADD924R,0.0001X0.0167*%
%ADD925R,0.0001X0.0163*%
%ADD926R,0.0001X0.0141*%
%ADD927R,0.0001X0.0140*%
%ADD928R,0.0001X0.0137*%
%ADD929R,0.0002X0.0129*%
%ADD930R,0.0002X0.0321*%
%ADD931R,0.0002X0.0146*%
%ADD932R,0.0001X0.0111*%
%ADD933R,0.0001X0.0318*%
%ADD934R,0.0001X0.0315*%
%ADD935R,0.0002X0.0315*%
%ADD936R,0.0002X0.0105*%
%ADD937R,0.0002X0.0311*%
%ADD938R,0.0002X0.0066*%
%ADD939R,0.0001X0.0307*%
%ADD940R,0.0001X0.0306*%
%ADD941R,0.0002X0.0300*%
%ADD942R,0.0001X0.0296*%
%ADD943R,0.0002X0.0294*%
%ADD944R,0.0001X0.0294*%
%ADD945R,0.0001X0.0291*%
%ADD946R,0.0002X0.0291*%
%ADD947R,0.0001X0.0286*%
%ADD948R,0.0002X0.0281*%
%ADD949R,0.0001X0.0277*%
%ADD950R,0.0001X0.0276*%
%ADD951R,0.0002X0.0266*%
%ADD952R,0.0001X0.0264*%
%ADD953R,0.0001X0.0261*%
%ADD954R,0.0002X0.0259*%
%ADD955R,0.0002X0.0254*%
%ADD956R,0.0002X0.0248*%
%ADD957R,0.0002X0.0218*%
D10*
X002546Y019770D02*
X002546Y020050D01*
X002546Y019910D02*
X002966Y019910D01*
X002826Y020050D01*
X002546Y020230D02*
X002546Y020510D01*
X002546Y020370D02*
X002966Y020370D01*
X002826Y020510D01*
X002896Y020691D02*
X002616Y020971D01*
X002546Y020901D01*
X002546Y020761D01*
X002616Y020691D01*
X002896Y020691D01*
X002966Y020761D01*
X002966Y020901D01*
X002896Y020971D01*
X002616Y020971D01*
X002546Y021151D02*
X002546Y021431D01*
X002826Y021151D01*
X002896Y021151D01*
X002966Y021221D01*
X002966Y021361D01*
X002896Y021431D01*
X002826Y022058D02*
X002826Y022198D01*
X002896Y022128D02*
X002616Y022128D01*
X002546Y022058D01*
X002546Y022378D02*
X002546Y022589D01*
X002616Y022659D01*
X002756Y022659D01*
X002826Y022589D01*
X002826Y022378D01*
X003546Y022369D02*
X003826Y022369D01*
X003826Y022439D01*
X003966Y022369D02*
X004036Y022369D01*
X003756Y022132D02*
X003826Y022062D01*
X003826Y021852D01*
X003966Y021852D02*
X003546Y021852D01*
X003546Y022062D01*
X003616Y022132D01*
X003756Y022132D01*
X003546Y022299D02*
X003546Y022439D01*
X003616Y022619D02*
X003756Y022619D01*
X003826Y022689D01*
X003826Y022829D01*
X003756Y022899D01*
X003616Y022899D01*
X003546Y022829D01*
X003546Y022689D01*
X003616Y022619D01*
X003826Y023073D02*
X003826Y023143D01*
X003686Y023283D01*
X003546Y023283D02*
X003826Y023283D01*
X003756Y023463D02*
X003686Y023463D01*
X003686Y023743D01*
X003756Y023743D02*
X003826Y023673D01*
X003826Y023533D01*
X003756Y023463D01*
X003546Y023533D02*
X003546Y023673D01*
X003616Y023743D01*
X003756Y023743D01*
X003826Y023910D02*
X003826Y024050D01*
X003896Y023980D02*
X003616Y023980D01*
X003546Y023910D01*
X003616Y024230D02*
X003546Y024300D01*
X003546Y024440D01*
X003616Y024510D01*
X003756Y024440D02*
X003756Y024300D01*
X003686Y024230D01*
X003616Y024230D01*
X003756Y024440D02*
X003826Y024510D01*
X003896Y024510D01*
X003966Y024440D01*
X003966Y024300D01*
X003896Y024230D01*
X003036Y024747D02*
X002966Y024747D01*
X002826Y024747D02*
X002546Y024747D01*
X002546Y024817D02*
X002546Y024677D01*
X002616Y024510D02*
X002546Y024440D01*
X002546Y024230D01*
X002616Y024050D02*
X002756Y024050D01*
X002826Y023980D01*
X002826Y023840D01*
X002756Y023770D01*
X002686Y023770D01*
X002686Y024050D01*
X002616Y024050D02*
X002546Y023980D01*
X002546Y023840D01*
X002826Y024230D02*
X002826Y024440D01*
X002756Y024510D01*
X002616Y024510D01*
X002826Y024747D02*
X002826Y024817D01*
X002966Y024997D02*
X002546Y024997D01*
X002966Y025278D01*
X002546Y025278D01*
X002616Y025918D02*
X002546Y025988D01*
X002546Y026128D01*
X002616Y026198D01*
X002896Y025918D01*
X002616Y025918D01*
X002896Y025918D02*
X002966Y025988D01*
X002966Y026128D01*
X002896Y026198D01*
X002616Y026198D01*
X002616Y026378D02*
X002546Y026449D01*
X002546Y026589D01*
X002616Y026659D01*
X002756Y026659D02*
X002826Y026519D01*
X002826Y026449D01*
X002756Y026378D01*
X002616Y026378D01*
X002756Y026659D02*
X002966Y026659D01*
X002966Y026378D01*
X003546Y026449D02*
X003546Y026589D01*
X003616Y026659D01*
X003756Y026659D01*
X003826Y026589D01*
X003826Y026449D01*
X003756Y026378D01*
X003686Y026378D01*
X003686Y026659D01*
X003616Y026839D02*
X003756Y026839D01*
X003756Y026979D01*
X003896Y027119D02*
X003966Y027049D01*
X003966Y026909D01*
X003896Y026839D01*
X003896Y027119D02*
X003616Y027119D01*
X003546Y027049D01*
X003546Y026909D01*
X003616Y026839D01*
X002966Y026909D02*
X002896Y026839D01*
X002826Y026839D01*
X002756Y026909D01*
X002686Y026839D01*
X002616Y026839D01*
X002546Y026909D01*
X002546Y027049D01*
X002616Y027119D01*
X002756Y026979D02*
X002756Y026909D01*
X002966Y026909D02*
X002966Y027049D01*
X002896Y027119D01*
X003546Y026198D02*
X003826Y026198D01*
X003826Y025988D01*
X003756Y025918D01*
X003546Y025918D01*
X003546Y025738D02*
X003546Y025598D01*
X003546Y025668D02*
X003826Y025668D01*
X003826Y025738D01*
X003966Y025668D02*
X004036Y025668D01*
X003756Y025431D02*
X003826Y025361D01*
X003826Y025221D01*
X003756Y025151D01*
X003686Y025151D01*
X003686Y025431D01*
X003616Y025431D02*
X003756Y025431D01*
X003616Y025431D02*
X003546Y025361D01*
X003546Y025221D01*
X002896Y023119D02*
X002616Y023119D01*
X002546Y023049D01*
X002546Y022909D01*
X002616Y022839D01*
X002896Y022839D01*
X002966Y022909D01*
X002966Y023049D01*
X002896Y023119D01*
X003546Y021672D02*
X003546Y021461D01*
X003616Y021391D01*
X003686Y021461D01*
X003686Y021602D01*
X003756Y021672D01*
X003826Y021602D01*
X003826Y021391D01*
X003826Y020751D02*
X003546Y020611D01*
X003826Y020471D01*
X003896Y020291D02*
X003966Y020220D01*
X003966Y020080D01*
X003896Y020010D01*
X003826Y020010D01*
X003546Y020291D01*
X003546Y020010D01*
X008589Y024411D02*
X009025Y023975D01*
X009727Y023975D01*
X012214Y023975D01*
X012876Y023975D01*
X013351Y024372D01*
X013351Y025169D01*
X013351Y027536D01*
X013351Y027543D02*
X013351Y028301D01*
X013033Y028737D01*
X012214Y028737D01*
X009727Y028737D01*
X008986Y028737D01*
X008589Y028301D01*
X008589Y027543D01*
X008589Y027548D02*
X008589Y025169D01*
X008589Y024411D01*
X009499Y023595D02*
X009499Y023525D01*
X009569Y023455D01*
X009709Y023455D01*
X009779Y023385D01*
X009779Y023315D01*
X009709Y023245D01*
X009569Y023245D01*
X009499Y023315D01*
X009499Y023595D02*
X009569Y023665D01*
X009709Y023665D01*
X009779Y023595D01*
X009959Y023175D02*
X010239Y023175D01*
X010420Y023245D02*
X010700Y023245D01*
X010880Y023245D02*
X011020Y023245D01*
X010950Y023245D02*
X010950Y023665D01*
X010880Y023665D02*
X011020Y023665D01*
X011187Y023595D02*
X011187Y023315D01*
X011257Y023245D01*
X011397Y023245D01*
X011467Y023315D01*
X011467Y023455D01*
X011327Y023455D01*
X011467Y023595D02*
X011397Y023665D01*
X011257Y023665D01*
X011187Y023595D01*
X011647Y023665D02*
X011647Y023245D01*
X011647Y023455D02*
X011927Y023455D01*
X011927Y023665D02*
X011927Y023245D01*
X012248Y023245D02*
X012248Y023665D01*
X012388Y023665D02*
X012107Y023665D01*
X010420Y023665D02*
X010420Y023245D01*
X010396Y025745D02*
X011584Y025745D01*
X011581Y025781D02*
X011581Y026891D01*
X011584Y026926D02*
X010396Y026926D01*
X010400Y026891D02*
X010400Y025781D01*
X010768Y029577D02*
X010768Y029857D01*
X010768Y029717D02*
X010348Y029717D01*
X010348Y030037D02*
X010348Y030317D01*
X010768Y030317D01*
X010768Y030037D01*
X010558Y030177D02*
X010558Y030317D01*
X010488Y030497D02*
X010418Y030497D01*
X010348Y030567D01*
X010348Y030707D01*
X010418Y030777D01*
X010558Y030707D02*
X010558Y030567D01*
X010488Y030497D01*
X010698Y030497D02*
X010768Y030567D01*
X010768Y030707D01*
X010698Y030777D01*
X010628Y030777D01*
X010558Y030707D01*
X010768Y030958D02*
X010768Y031238D01*
X010348Y031238D01*
X010348Y030958D01*
X010558Y031098D02*
X010558Y031238D01*
X010558Y031418D02*
X010488Y031488D01*
X010488Y031698D01*
X010488Y031558D02*
X010348Y031418D01*
X010558Y031418D02*
X010698Y031418D01*
X010768Y031488D01*
X010768Y031698D01*
X010348Y031698D01*
X019209Y031741D02*
X019279Y031671D01*
X019559Y031671D01*
X019629Y031741D01*
X019629Y031881D01*
X019559Y031951D01*
X019279Y031951D01*
X019209Y031881D01*
X019209Y031741D01*
X019209Y031491D02*
X019629Y031491D01*
X019209Y031211D01*
X019629Y031211D01*
X019629Y031031D02*
X019629Y030750D01*
X019629Y030890D02*
X019209Y030890D01*
X019209Y030570D02*
X019629Y030570D01*
X019629Y030360D01*
X019559Y030290D01*
X019419Y030290D01*
X019349Y030360D01*
X019349Y030570D01*
X019349Y030430D02*
X019209Y030290D01*
X019209Y030110D02*
X019489Y030110D01*
X019629Y029970D01*
X019489Y029830D01*
X019209Y029830D01*
X019279Y029649D02*
X019209Y029579D01*
X019209Y029439D01*
X019279Y029369D01*
X019349Y029369D01*
X019419Y029439D01*
X019419Y029579D01*
X019489Y029649D01*
X019559Y029649D01*
X019629Y029579D01*
X019629Y029439D01*
X019559Y029369D01*
X019629Y029189D02*
X019629Y028909D01*
X019629Y029049D02*
X019209Y029049D01*
X019419Y029830D02*
X019419Y030110D01*
X021191Y028737D02*
X021932Y028737D01*
X024419Y028737D01*
X025239Y028737D01*
X025557Y028301D01*
X025557Y027543D01*
X025557Y027536D02*
X025557Y025169D01*
X025557Y024372D01*
X025081Y023975D01*
X024419Y023975D01*
X021932Y023975D01*
X021231Y023975D01*
X020795Y024411D01*
X020795Y025169D01*
X020795Y027548D01*
X020795Y027543D02*
X020795Y028301D01*
X021191Y028737D01*
X022601Y026926D02*
X023790Y026926D01*
X023787Y026891D02*
X023787Y025781D01*
X023790Y025745D02*
X022601Y025745D01*
X022606Y025781D02*
X022606Y026891D01*
X022259Y023621D02*
X022119Y023621D01*
X022049Y023551D01*
X022049Y023480D01*
X022119Y023410D01*
X022259Y023410D01*
X022329Y023340D01*
X022329Y023270D01*
X022259Y023200D01*
X022119Y023200D01*
X022049Y023270D01*
X022329Y023551D02*
X022259Y023621D01*
X022509Y023130D02*
X022789Y023130D01*
X022970Y023200D02*
X022970Y023621D01*
X023180Y023621D01*
X023250Y023551D01*
X023250Y023270D01*
X023180Y023200D01*
X022970Y023200D01*
X023430Y023270D02*
X023430Y023551D01*
X023500Y023621D01*
X023640Y023621D01*
X023710Y023551D01*
X023710Y023270D01*
X023640Y023200D01*
X023500Y023200D01*
X023430Y023270D01*
X023890Y023270D02*
X023890Y023551D01*
X023960Y023621D01*
X024100Y023621D01*
X024170Y023551D01*
X024170Y023270D01*
X024100Y023200D01*
X023960Y023200D01*
X023890Y023270D01*
X024351Y023200D02*
X024351Y023621D01*
X024561Y023621D01*
X024631Y023551D01*
X024631Y023410D01*
X024561Y023340D01*
X024351Y023340D01*
X024491Y023340D02*
X024631Y023200D01*
X027256Y025558D02*
X027466Y025768D01*
X027396Y025838D02*
X027676Y025558D01*
X027676Y025838D02*
X027256Y025838D01*
X027326Y026018D02*
X027256Y026088D01*
X027256Y026228D01*
X027326Y026298D01*
X027606Y026298D01*
X027676Y026228D01*
X027676Y026088D01*
X027606Y026018D01*
X028006Y025659D02*
X028006Y027159D01*
X027676Y027219D02*
X027256Y027219D01*
X027256Y026939D01*
X027326Y026759D02*
X027256Y026689D01*
X027256Y026549D01*
X027326Y026478D01*
X027606Y026478D01*
X027676Y026549D01*
X027676Y026689D01*
X027606Y026759D01*
X027326Y026759D01*
X019629Y032201D02*
X019629Y032342D01*
X019559Y032412D01*
X019279Y032412D01*
X019209Y032342D01*
X019209Y032201D01*
X019279Y032131D01*
X019559Y032131D02*
X019629Y032201D01*
X018070Y023455D02*
X018140Y023385D01*
X018140Y023245D01*
X018070Y023175D01*
X017860Y023175D01*
X018000Y023175D02*
X018140Y023035D01*
X017860Y023035D02*
X017860Y023455D01*
X018070Y023455D01*
X017680Y023455D02*
X017400Y023175D01*
X017470Y023245D02*
X017680Y023035D01*
X017400Y023035D02*
X017400Y023455D01*
X017219Y023385D02*
X017219Y023245D01*
X017149Y023175D01*
X016939Y023175D01*
X016939Y023035D02*
X016939Y023455D01*
X017149Y023455D01*
X017219Y023385D01*
X016759Y023385D02*
X016689Y023455D01*
X016549Y023455D01*
X016479Y023385D01*
X016479Y023315D01*
X016549Y023245D01*
X016689Y023245D01*
X016759Y023175D01*
X016759Y023105D01*
X016689Y023035D01*
X016549Y023035D01*
X016479Y023105D01*
D11*
X014741Y026356D02*
X014744Y026474D01*
X014753Y026591D01*
X014767Y026708D01*
X014787Y026824D01*
X014813Y026939D01*
X014844Y027053D01*
X014881Y027165D01*
X014924Y027274D01*
X014971Y027382D01*
X015024Y027487D01*
X015082Y027590D01*
X015145Y027689D01*
X015213Y027786D01*
X015286Y027879D01*
X015363Y027968D01*
X015444Y028053D01*
X015529Y028134D01*
X015618Y028211D01*
X015711Y028284D01*
X015808Y028352D01*
X015907Y028415D01*
X016010Y028473D01*
X016115Y028526D01*
X016223Y028573D01*
X016332Y028616D01*
X016444Y028653D01*
X016558Y028684D01*
X016673Y028710D01*
X016789Y028730D01*
X016906Y028744D01*
X017023Y028753D01*
X017141Y028756D01*
X017259Y028753D01*
X017376Y028744D01*
X017493Y028730D01*
X017609Y028710D01*
X017724Y028684D01*
X017838Y028653D01*
X017950Y028616D01*
X018059Y028573D01*
X018167Y028526D01*
X018272Y028473D01*
X018375Y028415D01*
X018474Y028352D01*
X018571Y028284D01*
X018664Y028211D01*
X018753Y028134D01*
X018838Y028053D01*
X018919Y027968D01*
X018996Y027879D01*
X019069Y027786D01*
X019137Y027689D01*
X019200Y027590D01*
X019258Y027487D01*
X019311Y027382D01*
X019358Y027274D01*
X019401Y027165D01*
X019438Y027053D01*
X019469Y026939D01*
X019495Y026824D01*
X019515Y026708D01*
X019529Y026591D01*
X019538Y026474D01*
X019541Y026356D01*
X019538Y026238D01*
X019529Y026121D01*
X019515Y026004D01*
X019495Y025888D01*
X019469Y025773D01*
X019438Y025659D01*
X019401Y025547D01*
X019358Y025438D01*
X019311Y025330D01*
X019258Y025225D01*
X019200Y025122D01*
X019137Y025023D01*
X019069Y024926D01*
X018996Y024833D01*
X018919Y024744D01*
X018838Y024659D01*
X018753Y024578D01*
X018664Y024501D01*
X018571Y024428D01*
X018474Y024360D01*
X018375Y024297D01*
X018272Y024239D01*
X018167Y024186D01*
X018059Y024139D01*
X017950Y024096D01*
X017838Y024059D01*
X017724Y024028D01*
X017609Y024002D01*
X017493Y023982D01*
X017376Y023968D01*
X017259Y023959D01*
X017141Y023956D01*
X017023Y023959D01*
X016906Y023968D01*
X016789Y023982D01*
X016673Y024002D01*
X016558Y024028D01*
X016444Y024059D01*
X016332Y024096D01*
X016223Y024139D01*
X016115Y024186D01*
X016010Y024239D01*
X015907Y024297D01*
X015808Y024360D01*
X015711Y024428D01*
X015618Y024501D01*
X015529Y024578D01*
X015444Y024659D01*
X015363Y024744D01*
X015286Y024833D01*
X015213Y024926D01*
X015145Y025023D01*
X015082Y025122D01*
X015024Y025225D01*
X014971Y025330D01*
X014924Y025438D01*
X014881Y025547D01*
X014844Y025659D01*
X014813Y025773D01*
X014787Y025888D01*
X014767Y026004D01*
X014753Y026121D01*
X014744Y026238D01*
X014741Y026356D01*
X013839Y029450D02*
X013439Y029450D01*
X012489Y029450D01*
X012139Y029450D01*
X011789Y030250D02*
X011789Y030350D01*
X011689Y030350D01*
X011689Y030950D01*
X011789Y030950D01*
X011789Y031050D01*
X012139Y031850D02*
X012489Y031850D01*
X013489Y031850D01*
X013839Y031850D01*
X014189Y031050D02*
X014189Y030950D01*
X014289Y030950D01*
X014289Y030350D01*
X014189Y030350D01*
X014189Y030250D01*
X012889Y030650D02*
X012891Y030670D01*
X012897Y030688D01*
X012906Y030706D01*
X012918Y030721D01*
X012933Y030733D01*
X012951Y030742D01*
X012969Y030748D01*
X012989Y030750D01*
X013009Y030748D01*
X013027Y030742D01*
X013045Y030733D01*
X013060Y030721D01*
X013072Y030706D01*
X013081Y030688D01*
X013087Y030670D01*
X013089Y030650D01*
X013087Y030630D01*
X013081Y030612D01*
X013072Y030594D01*
X013060Y030579D01*
X013045Y030567D01*
X013027Y030558D01*
X013009Y030552D01*
X012989Y030550D01*
X012969Y030552D01*
X012951Y030558D01*
X012933Y030567D01*
X012918Y030579D01*
X012906Y030594D01*
X012897Y030612D01*
X012891Y030630D01*
X012889Y030650D01*
X012289Y030650D02*
X012291Y030702D01*
X012297Y030754D01*
X012307Y030806D01*
X012320Y030856D01*
X012337Y030906D01*
X012358Y030954D01*
X012383Y031000D01*
X012411Y031044D01*
X012442Y031086D01*
X012476Y031126D01*
X012513Y031163D01*
X012553Y031197D01*
X012595Y031228D01*
X012639Y031256D01*
X012685Y031281D01*
X012733Y031302D01*
X012783Y031319D01*
X012833Y031332D01*
X012885Y031342D01*
X012937Y031348D01*
X012989Y031350D01*
X013041Y031348D01*
X013093Y031342D01*
X013145Y031332D01*
X013195Y031319D01*
X013245Y031302D01*
X013293Y031281D01*
X013339Y031256D01*
X013383Y031228D01*
X013425Y031197D01*
X013465Y031163D01*
X013502Y031126D01*
X013536Y031086D01*
X013567Y031044D01*
X013595Y031000D01*
X013620Y030954D01*
X013641Y030906D01*
X013658Y030856D01*
X013671Y030806D01*
X013681Y030754D01*
X013687Y030702D01*
X013689Y030650D01*
X013687Y030598D01*
X013681Y030546D01*
X013671Y030494D01*
X013658Y030444D01*
X013641Y030394D01*
X013620Y030346D01*
X013595Y030300D01*
X013567Y030256D01*
X013536Y030214D01*
X013502Y030174D01*
X013465Y030137D01*
X013425Y030103D01*
X013383Y030072D01*
X013339Y030044D01*
X013293Y030019D01*
X013245Y029998D01*
X013195Y029981D01*
X013145Y029968D01*
X013093Y029958D01*
X013041Y029952D01*
X012989Y029950D01*
X012937Y029952D01*
X012885Y029958D01*
X012833Y029968D01*
X012783Y029981D01*
X012733Y029998D01*
X012685Y030019D01*
X012639Y030044D01*
X012595Y030072D01*
X012553Y030103D01*
X012513Y030137D01*
X012476Y030174D01*
X012442Y030214D01*
X012411Y030256D01*
X012383Y030300D01*
X012358Y030346D01*
X012337Y030394D01*
X012320Y030444D01*
X012307Y030494D01*
X012297Y030546D01*
X012291Y030598D01*
X012289Y030650D01*
X028006Y026409D02*
X028008Y026472D01*
X028014Y026534D01*
X028024Y026596D01*
X028037Y026658D01*
X028055Y026718D01*
X028076Y026777D01*
X028101Y026835D01*
X028130Y026891D01*
X028162Y026945D01*
X028197Y026997D01*
X028235Y027046D01*
X028277Y027094D01*
X028321Y027138D01*
X028369Y027180D01*
X028418Y027218D01*
X028470Y027253D01*
X028524Y027285D01*
X028580Y027314D01*
X028638Y027339D01*
X028697Y027360D01*
X028757Y027378D01*
X028819Y027391D01*
X028881Y027401D01*
X028943Y027407D01*
X029006Y027409D01*
X029069Y027407D01*
X029131Y027401D01*
X029193Y027391D01*
X029255Y027378D01*
X029315Y027360D01*
X029374Y027339D01*
X029432Y027314D01*
X029488Y027285D01*
X029542Y027253D01*
X029594Y027218D01*
X029643Y027180D01*
X029691Y027138D01*
X029735Y027094D01*
X029777Y027046D01*
X029815Y026997D01*
X029850Y026945D01*
X029882Y026891D01*
X029911Y026835D01*
X029936Y026777D01*
X029957Y026718D01*
X029975Y026658D01*
X029988Y026596D01*
X029998Y026534D01*
X030004Y026472D01*
X030006Y026409D01*
X030004Y026346D01*
X029998Y026284D01*
X029988Y026222D01*
X029975Y026160D01*
X029957Y026100D01*
X029936Y026041D01*
X029911Y025983D01*
X029882Y025927D01*
X029850Y025873D01*
X029815Y025821D01*
X029777Y025772D01*
X029735Y025724D01*
X029691Y025680D01*
X029643Y025638D01*
X029594Y025600D01*
X029542Y025565D01*
X029488Y025533D01*
X029432Y025504D01*
X029374Y025479D01*
X029315Y025458D01*
X029255Y025440D01*
X029193Y025427D01*
X029131Y025417D01*
X029069Y025411D01*
X029006Y025409D01*
X028943Y025411D01*
X028881Y025417D01*
X028819Y025427D01*
X028757Y025440D01*
X028697Y025458D01*
X028638Y025479D01*
X028580Y025504D01*
X028524Y025533D01*
X028470Y025565D01*
X028418Y025600D01*
X028369Y025638D01*
X028321Y025680D01*
X028277Y025724D01*
X028235Y025772D01*
X028197Y025821D01*
X028162Y025873D01*
X028130Y025927D01*
X028101Y025983D01*
X028076Y026041D01*
X028055Y026100D01*
X028037Y026160D01*
X028024Y026222D01*
X028014Y026284D01*
X028008Y026346D01*
X028006Y026409D01*
D12*
X027974Y025629D02*
X028046Y025683D01*
X028045Y025682D02*
X028088Y025629D01*
X028133Y025578D01*
X028182Y025530D01*
X028233Y025485D01*
X028287Y025442D01*
X028343Y025403D01*
X028401Y025367D01*
X028461Y025334D01*
X028522Y025305D01*
X028586Y025280D01*
X028650Y025258D01*
X028716Y025239D01*
X028783Y025225D01*
X028850Y025214D01*
X028918Y025207D01*
X028986Y025204D01*
X029055Y025205D01*
X029123Y025210D01*
X029191Y025218D01*
X029258Y025231D01*
X029324Y025247D01*
X029389Y025267D01*
X029454Y025290D01*
X029516Y025317D01*
X029577Y025348D01*
X029636Y025382D01*
X029694Y025419D01*
X029749Y025460D01*
X029801Y025504D01*
X029851Y025550D01*
X029898Y025599D01*
X029943Y025651D01*
X029984Y025705D01*
X030023Y025762D01*
X030058Y025821D01*
X030089Y025881D01*
X030117Y025943D01*
X030142Y026007D01*
X030163Y026072D01*
X030180Y026138D01*
X030194Y026205D01*
X030203Y026273D01*
X030209Y026341D01*
X030211Y026409D01*
X030209Y026477D01*
X030203Y026545D01*
X030194Y026613D01*
X030180Y026680D01*
X030163Y026746D01*
X030142Y026811D01*
X030117Y026875D01*
X030089Y026937D01*
X030058Y026997D01*
X030023Y027056D01*
X029984Y027113D01*
X029943Y027167D01*
X029898Y027219D01*
X029851Y027268D01*
X029801Y027314D01*
X029749Y027358D01*
X029694Y027399D01*
X029636Y027436D01*
X029577Y027470D01*
X029516Y027501D01*
X029454Y027528D01*
X029389Y027551D01*
X029324Y027571D01*
X029258Y027587D01*
X029191Y027600D01*
X029123Y027608D01*
X029055Y027613D01*
X028986Y027614D01*
X028918Y027611D01*
X028850Y027604D01*
X028783Y027593D01*
X028716Y027579D01*
X028650Y027560D01*
X028586Y027538D01*
X028522Y027513D01*
X028461Y027484D01*
X028401Y027451D01*
X028343Y027415D01*
X028287Y027376D01*
X028233Y027333D01*
X028182Y027288D01*
X028133Y027240D01*
X028088Y027189D01*
X028045Y027136D01*
X027974Y027189D01*
X027973Y027190D01*
X028017Y027245D01*
X028065Y027298D01*
X028115Y027349D01*
X028168Y027396D01*
X028223Y027440D01*
X028281Y027482D01*
X028341Y027520D01*
X028402Y027555D01*
X028466Y027586D01*
X028531Y027614D01*
X028598Y027638D01*
X028666Y027659D01*
X028735Y027675D01*
X028805Y027688D01*
X028875Y027697D01*
X028946Y027703D01*
X029017Y027704D01*
X029088Y027701D01*
X029159Y027695D01*
X029229Y027685D01*
X029298Y027671D01*
X029367Y027653D01*
X029435Y027631D01*
X029501Y027606D01*
X029566Y027577D01*
X029629Y027544D01*
X029690Y027508D01*
X029749Y027469D01*
X029806Y027427D01*
X029861Y027382D01*
X029913Y027333D01*
X029962Y027282D01*
X030009Y027229D01*
X030052Y027172D01*
X030092Y027114D01*
X030129Y027053D01*
X030163Y026991D01*
X030193Y026927D01*
X030220Y026861D01*
X030243Y026794D01*
X030262Y026725D01*
X030277Y026656D01*
X030289Y026586D01*
X030297Y026515D01*
X030301Y026444D01*
X030301Y026374D01*
X030297Y026303D01*
X030289Y026232D01*
X030277Y026162D01*
X030262Y026093D01*
X030243Y026024D01*
X030220Y025957D01*
X030193Y025891D01*
X030163Y025827D01*
X030129Y025765D01*
X030092Y025704D01*
X030052Y025646D01*
X030009Y025589D01*
X029962Y025536D01*
X029913Y025485D01*
X029861Y025436D01*
X029806Y025391D01*
X029749Y025349D01*
X029690Y025310D01*
X029629Y025274D01*
X029566Y025241D01*
X029501Y025212D01*
X029435Y025187D01*
X029367Y025165D01*
X029298Y025147D01*
X029229Y025133D01*
X029159Y025123D01*
X029088Y025117D01*
X029017Y025114D01*
X028946Y025115D01*
X028875Y025121D01*
X028805Y025130D01*
X028735Y025143D01*
X028666Y025159D01*
X028598Y025180D01*
X028531Y025204D01*
X028466Y025232D01*
X028402Y025263D01*
X028341Y025298D01*
X028281Y025336D01*
X028223Y025378D01*
X028168Y025422D01*
X028115Y025469D01*
X028065Y025520D01*
X028017Y025573D01*
X027973Y025628D01*
X027980Y025633D01*
X028025Y025578D01*
X028072Y025525D01*
X028123Y025474D01*
X028176Y025427D01*
X028232Y025382D01*
X028290Y025341D01*
X028350Y025303D01*
X028412Y025268D01*
X028476Y025237D01*
X028542Y025210D01*
X028609Y025186D01*
X028678Y025166D01*
X028747Y025149D01*
X028817Y025137D01*
X028888Y025128D01*
X028959Y025124D01*
X029030Y025123D01*
X029101Y025127D01*
X029172Y025134D01*
X029243Y025145D01*
X029312Y025160D01*
X029381Y025179D01*
X029449Y025202D01*
X029515Y025228D01*
X029580Y025258D01*
X029642Y025292D01*
X029703Y025328D01*
X029762Y025369D01*
X029819Y025412D01*
X029873Y025459D01*
X029924Y025508D01*
X029972Y025561D01*
X030018Y025615D01*
X030060Y025673D01*
X030099Y025732D01*
X030135Y025794D01*
X030168Y025857D01*
X030196Y025922D01*
X030222Y025989D01*
X030243Y026057D01*
X030261Y026126D01*
X030274Y026196D01*
X030284Y026267D01*
X030290Y026338D01*
X030292Y026409D01*
X030290Y026480D01*
X030284Y026551D01*
X030274Y026622D01*
X030261Y026692D01*
X030243Y026761D01*
X030222Y026829D01*
X030196Y026896D01*
X030168Y026961D01*
X030135Y027024D01*
X030099Y027086D01*
X030060Y027145D01*
X030018Y027203D01*
X029972Y027257D01*
X029924Y027310D01*
X029873Y027359D01*
X029819Y027406D01*
X029762Y027449D01*
X029703Y027490D01*
X029642Y027526D01*
X029580Y027560D01*
X029515Y027590D01*
X029449Y027616D01*
X029381Y027639D01*
X029312Y027658D01*
X029243Y027673D01*
X029172Y027684D01*
X029101Y027691D01*
X029030Y027695D01*
X028959Y027694D01*
X028888Y027690D01*
X028817Y027681D01*
X028747Y027669D01*
X028678Y027652D01*
X028609Y027632D01*
X028542Y027608D01*
X028476Y027581D01*
X028412Y027550D01*
X028350Y027515D01*
X028290Y027477D01*
X028232Y027436D01*
X028176Y027391D01*
X028123Y027344D01*
X028072Y027293D01*
X028025Y027240D01*
X027980Y027185D01*
X027987Y027179D01*
X028032Y027234D01*
X028079Y027287D01*
X028129Y027337D01*
X028182Y027384D01*
X028237Y027428D01*
X028295Y027470D01*
X028354Y027507D01*
X028416Y027542D01*
X028480Y027573D01*
X028545Y027600D01*
X028612Y027624D01*
X028680Y027644D01*
X028749Y027660D01*
X028818Y027672D01*
X028889Y027681D01*
X028959Y027685D01*
X029030Y027686D01*
X029101Y027682D01*
X029171Y027675D01*
X029241Y027664D01*
X029310Y027649D01*
X029378Y027630D01*
X029446Y027608D01*
X029511Y027582D01*
X029576Y027552D01*
X029638Y027519D01*
X029698Y027482D01*
X029757Y027442D01*
X029813Y027399D01*
X029867Y027353D01*
X029917Y027303D01*
X029966Y027252D01*
X030011Y027197D01*
X030053Y027140D01*
X030092Y027081D01*
X030127Y027020D01*
X030160Y026957D01*
X030188Y026892D01*
X030213Y026826D01*
X030234Y026758D01*
X030252Y026690D01*
X030265Y026620D01*
X030275Y026550D01*
X030281Y026480D01*
X030283Y026409D01*
X030281Y026338D01*
X030275Y026268D01*
X030265Y026198D01*
X030252Y026128D01*
X030234Y026060D01*
X030213Y025992D01*
X030188Y025926D01*
X030160Y025861D01*
X030127Y025798D01*
X030092Y025737D01*
X030053Y025678D01*
X030011Y025621D01*
X029966Y025566D01*
X029917Y025515D01*
X029867Y025465D01*
X029813Y025419D01*
X029757Y025376D01*
X029698Y025336D01*
X029638Y025299D01*
X029576Y025266D01*
X029511Y025236D01*
X029446Y025210D01*
X029378Y025188D01*
X029310Y025169D01*
X029241Y025154D01*
X029171Y025143D01*
X029101Y025136D01*
X029030Y025132D01*
X028959Y025133D01*
X028889Y025137D01*
X028818Y025146D01*
X028749Y025158D01*
X028680Y025174D01*
X028612Y025194D01*
X028545Y025218D01*
X028480Y025245D01*
X028416Y025276D01*
X028354Y025311D01*
X028295Y025348D01*
X028237Y025390D01*
X028182Y025434D01*
X028129Y025481D01*
X028079Y025531D01*
X028032Y025584D01*
X027987Y025639D01*
X027995Y025644D01*
X028039Y025589D01*
X028087Y025536D01*
X028137Y025486D01*
X028190Y025438D01*
X028246Y025394D01*
X028304Y025353D01*
X028364Y025316D01*
X028426Y025281D01*
X028490Y025251D01*
X028556Y025224D01*
X028623Y025200D01*
X028691Y025181D01*
X028761Y025165D01*
X028831Y025153D01*
X028901Y025145D01*
X028972Y025141D01*
X029043Y025142D01*
X029114Y025146D01*
X029185Y025154D01*
X029255Y025166D01*
X029324Y025182D01*
X029392Y025201D01*
X029460Y025225D01*
X029525Y025252D01*
X029589Y025283D01*
X029651Y025317D01*
X029711Y025355D01*
X029769Y025397D01*
X029825Y025441D01*
X029878Y025488D01*
X029928Y025539D01*
X029975Y025592D01*
X030020Y025647D01*
X030061Y025705D01*
X030098Y025765D01*
X030133Y025828D01*
X030164Y025892D01*
X030191Y025957D01*
X030214Y026024D01*
X030234Y026093D01*
X030250Y026162D01*
X030262Y026232D01*
X030270Y026303D01*
X030274Y026373D01*
X030274Y026445D01*
X030270Y026515D01*
X030262Y026586D01*
X030250Y026656D01*
X030234Y026725D01*
X030214Y026794D01*
X030191Y026861D01*
X030164Y026926D01*
X030133Y026990D01*
X030098Y027053D01*
X030061Y027113D01*
X030020Y027171D01*
X029975Y027226D01*
X029928Y027279D01*
X029878Y027330D01*
X029825Y027377D01*
X029769Y027421D01*
X029711Y027463D01*
X029651Y027501D01*
X029589Y027535D01*
X029525Y027566D01*
X029460Y027593D01*
X029392Y027617D01*
X029324Y027636D01*
X029255Y027652D01*
X029185Y027664D01*
X029114Y027672D01*
X029043Y027676D01*
X028972Y027677D01*
X028901Y027673D01*
X028831Y027665D01*
X028761Y027653D01*
X028691Y027637D01*
X028623Y027618D01*
X028556Y027594D01*
X028490Y027567D01*
X028426Y027537D01*
X028364Y027502D01*
X028304Y027465D01*
X028246Y027424D01*
X028190Y027380D01*
X028137Y027332D01*
X028087Y027282D01*
X028039Y027229D01*
X027995Y027174D01*
X028002Y027168D01*
X028046Y027223D01*
X028093Y027276D01*
X028143Y027326D01*
X028196Y027373D01*
X028251Y027417D01*
X028309Y027457D01*
X028368Y027495D01*
X028430Y027529D01*
X028494Y027559D01*
X028559Y027586D01*
X028626Y027609D01*
X028694Y027629D01*
X028762Y027644D01*
X028832Y027656D01*
X028902Y027664D01*
X028973Y027668D01*
X029043Y027667D01*
X029114Y027663D01*
X029184Y027655D01*
X029253Y027643D01*
X029322Y027628D01*
X029390Y027608D01*
X029456Y027585D01*
X029521Y027558D01*
X029585Y027527D01*
X029647Y027493D01*
X029706Y027455D01*
X029764Y027414D01*
X029819Y027370D01*
X029872Y027323D01*
X029921Y027273D01*
X029968Y027221D01*
X030012Y027165D01*
X030053Y027108D01*
X030091Y027048D01*
X030125Y026986D01*
X030155Y026923D01*
X030182Y026858D01*
X030206Y026791D01*
X030225Y026723D01*
X030241Y026654D01*
X030253Y026585D01*
X030261Y026515D01*
X030265Y026444D01*
X030265Y026374D01*
X030261Y026303D01*
X030253Y026233D01*
X030241Y026164D01*
X030225Y026095D01*
X030206Y026027D01*
X030182Y025960D01*
X030155Y025895D01*
X030125Y025832D01*
X030091Y025770D01*
X030053Y025710D01*
X030012Y025653D01*
X029968Y025597D01*
X029921Y025545D01*
X029872Y025495D01*
X029819Y025448D01*
X029764Y025404D01*
X029706Y025363D01*
X029647Y025325D01*
X029585Y025291D01*
X029521Y025260D01*
X029456Y025233D01*
X029390Y025210D01*
X029322Y025190D01*
X029253Y025175D01*
X029184Y025163D01*
X029114Y025155D01*
X029043Y025151D01*
X028973Y025150D01*
X028902Y025154D01*
X028832Y025162D01*
X028762Y025174D01*
X028694Y025189D01*
X028626Y025209D01*
X028559Y025232D01*
X028494Y025259D01*
X028430Y025289D01*
X028368Y025323D01*
X028309Y025361D01*
X028251Y025401D01*
X028196Y025445D01*
X028143Y025492D01*
X028093Y025542D01*
X028046Y025595D01*
X028002Y025650D01*
X028009Y025655D01*
X028053Y025600D01*
X028100Y025548D01*
X028149Y025499D01*
X028202Y025452D01*
X028256Y025409D01*
X028314Y025368D01*
X028373Y025331D01*
X028434Y025297D01*
X028498Y025267D01*
X028562Y025240D01*
X028629Y025217D01*
X028696Y025198D01*
X028764Y025183D01*
X028833Y025171D01*
X028903Y025163D01*
X028973Y025159D01*
X029043Y025160D01*
X029113Y025164D01*
X029182Y025172D01*
X029251Y025183D01*
X029320Y025199D01*
X029387Y025218D01*
X029453Y025242D01*
X029518Y025269D01*
X029581Y025299D01*
X029642Y025333D01*
X029701Y025370D01*
X029759Y025411D01*
X029813Y025455D01*
X029865Y025501D01*
X029915Y025551D01*
X029962Y025603D01*
X030005Y025658D01*
X030046Y025715D01*
X030083Y025774D01*
X030117Y025836D01*
X030147Y025899D01*
X030174Y025964D01*
X030197Y026030D01*
X030216Y026097D01*
X030232Y026165D01*
X030244Y026234D01*
X030252Y026304D01*
X030256Y026374D01*
X030256Y026444D01*
X030252Y026514D01*
X030244Y026584D01*
X030232Y026653D01*
X030216Y026721D01*
X030197Y026788D01*
X030174Y026854D01*
X030147Y026919D01*
X030117Y026982D01*
X030083Y027044D01*
X030046Y027103D01*
X030005Y027160D01*
X029962Y027215D01*
X029915Y027267D01*
X029865Y027317D01*
X029813Y027363D01*
X029759Y027407D01*
X029701Y027448D01*
X029642Y027485D01*
X029581Y027519D01*
X029518Y027549D01*
X029453Y027576D01*
X029387Y027600D01*
X029320Y027619D01*
X029251Y027635D01*
X029182Y027646D01*
X029113Y027654D01*
X029043Y027658D01*
X028973Y027659D01*
X028903Y027655D01*
X028833Y027647D01*
X028764Y027635D01*
X028696Y027620D01*
X028629Y027601D01*
X028562Y027578D01*
X028498Y027551D01*
X028434Y027521D01*
X028373Y027487D01*
X028314Y027450D01*
X028256Y027409D01*
X028202Y027366D01*
X028149Y027319D01*
X028100Y027270D01*
X028053Y027218D01*
X028009Y027163D01*
X028016Y027158D01*
X028060Y027212D01*
X028106Y027264D01*
X028155Y027313D01*
X028207Y027359D01*
X028262Y027402D01*
X028319Y027442D01*
X028378Y027479D01*
X028439Y027513D01*
X028501Y027543D01*
X028566Y027569D01*
X028631Y027592D01*
X028698Y027611D01*
X028766Y027627D01*
X028835Y027638D01*
X028904Y027646D01*
X028973Y027650D01*
X029043Y027649D01*
X029112Y027645D01*
X029181Y027638D01*
X029250Y027626D01*
X029317Y027610D01*
X029384Y027591D01*
X029450Y027568D01*
X029514Y027541D01*
X029577Y027511D01*
X029638Y027477D01*
X029696Y027440D01*
X029753Y027400D01*
X029807Y027357D01*
X029859Y027310D01*
X029908Y027261D01*
X029955Y027209D01*
X029998Y027155D01*
X030038Y027098D01*
X030075Y027039D01*
X030109Y026978D01*
X030139Y026915D01*
X030166Y026851D01*
X030189Y026786D01*
X030208Y026719D01*
X030223Y026651D01*
X030235Y026582D01*
X030243Y026513D01*
X030247Y026444D01*
X030247Y026374D01*
X030243Y026305D01*
X030235Y026236D01*
X030223Y026167D01*
X030208Y026099D01*
X030189Y026032D01*
X030166Y025967D01*
X030139Y025903D01*
X030109Y025840D01*
X030075Y025779D01*
X030038Y025720D01*
X029998Y025663D01*
X029955Y025609D01*
X029908Y025557D01*
X029859Y025508D01*
X029807Y025461D01*
X029753Y025418D01*
X029696Y025378D01*
X029638Y025341D01*
X029577Y025307D01*
X029514Y025277D01*
X029450Y025250D01*
X029384Y025227D01*
X029317Y025208D01*
X029250Y025192D01*
X029181Y025180D01*
X029112Y025173D01*
X029043Y025169D01*
X028973Y025168D01*
X028904Y025172D01*
X028835Y025180D01*
X028766Y025191D01*
X028698Y025207D01*
X028631Y025226D01*
X028566Y025249D01*
X028501Y025275D01*
X028439Y025305D01*
X028378Y025339D01*
X028319Y025376D01*
X028262Y025416D01*
X028207Y025459D01*
X028155Y025505D01*
X028106Y025554D01*
X028060Y025606D01*
X028016Y025660D01*
X028023Y025666D01*
X028067Y025612D01*
X028113Y025561D01*
X028162Y025512D01*
X028213Y025466D01*
X028267Y025423D01*
X028324Y025383D01*
X028382Y025347D01*
X028443Y025313D01*
X028505Y025283D01*
X028569Y025257D01*
X028634Y025235D01*
X028700Y025216D01*
X028768Y025200D01*
X028836Y025189D01*
X028904Y025181D01*
X028973Y025177D01*
X029042Y025178D01*
X029111Y025182D01*
X029180Y025189D01*
X029248Y025201D01*
X029315Y025216D01*
X029382Y025236D01*
X029447Y025259D01*
X029510Y025285D01*
X029573Y025315D01*
X029633Y025348D01*
X029691Y025385D01*
X029748Y025425D01*
X029802Y025468D01*
X029853Y025514D01*
X029902Y025563D01*
X029948Y025615D01*
X029991Y025669D01*
X030031Y025725D01*
X030067Y025784D01*
X030101Y025844D01*
X030131Y025906D01*
X030157Y025970D01*
X030180Y026035D01*
X030199Y026102D01*
X030214Y026169D01*
X030226Y026237D01*
X030234Y026306D01*
X030238Y026374D01*
X030238Y026444D01*
X030234Y026512D01*
X030226Y026581D01*
X030214Y026649D01*
X030199Y026716D01*
X030180Y026783D01*
X030157Y026848D01*
X030131Y026912D01*
X030101Y026974D01*
X030067Y027034D01*
X030031Y027093D01*
X029991Y027149D01*
X029948Y027203D01*
X029902Y027255D01*
X029853Y027304D01*
X029802Y027350D01*
X029748Y027393D01*
X029691Y027433D01*
X029633Y027470D01*
X029573Y027503D01*
X029510Y027533D01*
X029447Y027559D01*
X029382Y027582D01*
X029315Y027602D01*
X029248Y027617D01*
X029180Y027629D01*
X029111Y027636D01*
X029042Y027640D01*
X028973Y027641D01*
X028904Y027637D01*
X028836Y027629D01*
X028768Y027618D01*
X028700Y027602D01*
X028634Y027583D01*
X028569Y027561D01*
X028505Y027535D01*
X028443Y027505D01*
X028382Y027471D01*
X028324Y027435D01*
X028267Y027395D01*
X028213Y027352D01*
X028162Y027306D01*
X028113Y027257D01*
X028067Y027206D01*
X028023Y027152D01*
X028031Y027147D01*
X028074Y027201D01*
X028120Y027252D01*
X028170Y027301D01*
X028221Y027347D01*
X028276Y027390D01*
X028333Y027430D01*
X028391Y027466D01*
X028452Y027500D01*
X028515Y027529D01*
X028579Y027555D01*
X028645Y027577D01*
X028712Y027596D01*
X028779Y027611D01*
X028848Y027622D01*
X028917Y027629D01*
X028986Y027632D01*
X029055Y027631D01*
X029125Y027626D01*
X029193Y027618D01*
X029261Y027605D01*
X029329Y027589D01*
X029395Y027568D01*
X029460Y027545D01*
X029524Y027517D01*
X029586Y027486D01*
X029646Y027451D01*
X029704Y027413D01*
X029760Y027372D01*
X029813Y027328D01*
X029864Y027281D01*
X029912Y027231D01*
X029957Y027178D01*
X029999Y027123D01*
X030038Y027066D01*
X030073Y027006D01*
X030105Y026945D01*
X030134Y026882D01*
X030159Y026817D01*
X030180Y026751D01*
X030198Y026684D01*
X030211Y026616D01*
X030221Y026547D01*
X030227Y026478D01*
X030229Y026409D01*
X030227Y026340D01*
X030221Y026271D01*
X030211Y026202D01*
X030198Y026134D01*
X030180Y026067D01*
X030159Y026001D01*
X030134Y025936D01*
X030105Y025873D01*
X030073Y025812D01*
X030038Y025752D01*
X029999Y025695D01*
X029957Y025640D01*
X029912Y025587D01*
X029864Y025537D01*
X029813Y025490D01*
X029760Y025446D01*
X029704Y025405D01*
X029646Y025367D01*
X029586Y025332D01*
X029524Y025301D01*
X029460Y025273D01*
X029395Y025250D01*
X029329Y025229D01*
X029261Y025213D01*
X029193Y025200D01*
X029125Y025192D01*
X029055Y025187D01*
X028986Y025186D01*
X028917Y025189D01*
X028848Y025196D01*
X028779Y025207D01*
X028712Y025222D01*
X028645Y025241D01*
X028579Y025263D01*
X028515Y025289D01*
X028452Y025318D01*
X028391Y025352D01*
X028333Y025388D01*
X028276Y025428D01*
X028221Y025471D01*
X028170Y025517D01*
X028120Y025566D01*
X028074Y025617D01*
X028031Y025671D01*
X028038Y025677D01*
X028081Y025623D01*
X028127Y025572D01*
X028176Y025523D01*
X028227Y025478D01*
X028281Y025435D01*
X028338Y025396D01*
X028396Y025359D01*
X028456Y025326D01*
X028519Y025297D01*
X028582Y025271D01*
X028648Y025249D01*
X028714Y025231D01*
X028781Y025216D01*
X028849Y025205D01*
X028918Y025198D01*
X028986Y025195D01*
X029055Y025196D01*
X029124Y025201D01*
X029192Y025209D01*
X029260Y025222D01*
X029326Y025238D01*
X029392Y025258D01*
X029457Y025282D01*
X029520Y025309D01*
X029581Y025340D01*
X029641Y025374D01*
X029699Y025412D01*
X029754Y025453D01*
X029807Y025497D01*
X029857Y025544D01*
X029905Y025593D01*
X029950Y025645D01*
X029992Y025700D01*
X030030Y025757D01*
X030065Y025816D01*
X030097Y025877D01*
X030126Y025940D01*
X030150Y026004D01*
X030172Y026070D01*
X030189Y026136D01*
X030202Y026204D01*
X030212Y026272D01*
X030218Y026340D01*
X030220Y026409D01*
X030218Y026478D01*
X030212Y026546D01*
X030202Y026614D01*
X030189Y026682D01*
X030172Y026748D01*
X030150Y026814D01*
X030126Y026878D01*
X030097Y026941D01*
X030065Y027002D01*
X030030Y027061D01*
X029992Y027118D01*
X029950Y027173D01*
X029905Y027225D01*
X029857Y027274D01*
X029807Y027321D01*
X029754Y027365D01*
X029699Y027406D01*
X029641Y027444D01*
X029581Y027478D01*
X029520Y027509D01*
X029457Y027536D01*
X029392Y027560D01*
X029326Y027580D01*
X029260Y027596D01*
X029192Y027609D01*
X029124Y027617D01*
X029055Y027622D01*
X028986Y027623D01*
X028918Y027620D01*
X028849Y027613D01*
X028781Y027602D01*
X028714Y027587D01*
X028648Y027569D01*
X028582Y027547D01*
X028519Y027521D01*
X028456Y027492D01*
X028396Y027459D01*
X028338Y027422D01*
X028281Y027383D01*
X028227Y027340D01*
X028176Y027295D01*
X028127Y027246D01*
X028081Y027195D01*
X028038Y027141D01*
D13*
X013439Y029450D02*
X013439Y029550D01*
X012489Y029550D01*
X012489Y029450D01*
X012489Y031750D02*
X013489Y031750D01*
X013489Y031850D01*
X012489Y031850D02*
X012489Y031750D01*
D14*
X015256Y032659D02*
X018756Y032659D01*
X018756Y028909D01*
X015256Y028909D01*
X015256Y032659D01*
D15*
X004503Y026157D02*
X004501Y026157D01*
X004501Y026158D01*
X004502Y026158D01*
X004503Y026158D01*
X004503Y026157D01*
X004502Y026156D02*
X004503Y026156D01*
X004502Y026156D01*
X004501Y026156D01*
X004501Y026156D01*
X004500Y026156D01*
X004499Y026156D01*
X004499Y026154D01*
X004502Y026154D01*
X004502Y026155D02*
X004502Y026155D01*
X004501Y026154D01*
X004501Y026156D01*
X004502Y026156D01*
X004501Y026155D01*
X004501Y026155D01*
X004503Y026155D01*
X004503Y026154D02*
X004502Y026155D01*
X004503Y026154D02*
X004503Y026153D01*
X004503Y026152D01*
X004502Y026152D01*
X004502Y026152D01*
X004501Y026152D01*
X004500Y026152D01*
X004499Y026153D01*
X004500Y026153D01*
X004501Y026153D01*
X004501Y026154D01*
X004501Y026153D02*
X004503Y026153D01*
X004502Y026153D01*
X004502Y026152D01*
X004503Y026152D01*
X004503Y026151D01*
X004502Y026151D01*
X004502Y026151D01*
X004501Y026151D01*
X004499Y026151D01*
X004499Y026152D01*
X004500Y026152D01*
X004501Y026152D02*
X004501Y026151D01*
X004500Y026151D01*
X004499Y026150D01*
X004499Y026149D01*
X004498Y026149D02*
X004501Y026149D01*
X004502Y026149D01*
X004503Y026149D01*
X004503Y026150D01*
X004501Y026150D01*
X004501Y026151D01*
X004501Y026150D02*
X004501Y026149D01*
X004501Y026150D01*
X004502Y026149D02*
X004502Y026149D01*
X004502Y026148D02*
X004502Y026148D01*
X004503Y026148D01*
X004503Y026147D01*
X004502Y026147D01*
X004502Y026147D01*
X004501Y026147D01*
X004501Y026148D01*
X004501Y026148D01*
X004501Y026147D01*
X004501Y026147D01*
X004501Y026148D01*
X004502Y026148D01*
X004503Y026146D02*
X004503Y026145D01*
X004501Y026145D01*
X004501Y026145D01*
X004501Y026146D01*
X004501Y026146D01*
X004500Y026146D01*
X004499Y026146D01*
X004499Y026145D01*
X004500Y026145D01*
X004501Y026145D01*
X004503Y026145D01*
X004502Y026144D01*
X004503Y026143D01*
X004501Y026143D01*
X004503Y026143D01*
X004502Y026143D02*
X004502Y026143D01*
X004502Y026144D01*
X004499Y026144D01*
X004499Y026142D01*
X004500Y026142D01*
X004501Y026142D01*
X004501Y026144D01*
X004502Y026143D02*
X004502Y026142D01*
X004503Y026142D02*
X004501Y026142D01*
X004501Y026142D01*
X004501Y026141D02*
X004501Y026141D01*
X004500Y026141D01*
X004499Y026141D01*
X004499Y026140D01*
X004500Y026139D01*
X004501Y026139D01*
X004501Y026139D01*
X004502Y026139D01*
X004503Y026139D01*
X004503Y026138D01*
X004502Y026138D01*
X004501Y026138D01*
X004501Y026138D01*
X004501Y026136D01*
X004498Y026136D01*
X004501Y026136D01*
X004500Y026135D01*
X004501Y026134D01*
X004498Y026134D01*
X004498Y026133D02*
X004501Y026133D01*
X004501Y026133D01*
X004501Y026132D01*
X004502Y026131D01*
X004502Y026130D01*
X004502Y026130D01*
X004503Y026130D01*
X004503Y026131D01*
X004502Y026131D01*
X004501Y026131D01*
X004498Y026131D01*
X004499Y026130D02*
X004498Y026130D01*
X004498Y026129D01*
X004499Y026128D01*
X004500Y026129D01*
X004500Y026130D01*
X004501Y026130D01*
X004501Y026129D01*
X004501Y026128D01*
X004503Y026128D01*
X004503Y026129D01*
X004502Y026128D02*
X004502Y026128D01*
X004501Y026127D02*
X004501Y026127D01*
X004501Y026126D01*
X004501Y026126D01*
X004499Y026126D01*
X004498Y026126D01*
X004498Y026127D01*
X004499Y026127D01*
X004501Y026127D01*
X004503Y026126D01*
X004503Y026125D02*
X004503Y026124D01*
X004502Y026124D01*
X004502Y026124D01*
X004502Y026125D01*
X004503Y026125D01*
X004502Y026125D02*
X004501Y026125D01*
X004501Y026124D01*
X004500Y026123D02*
X004501Y026123D01*
X004498Y026125D01*
X004499Y026128D02*
X004499Y026128D01*
X004501Y026129D02*
X004501Y026128D01*
X004501Y026130D02*
X004501Y026130D01*
X004501Y026131D01*
X004502Y026131D02*
X004502Y026131D01*
X004503Y026132D01*
X004503Y026132D01*
X004503Y026133D01*
X004503Y026134D01*
X004503Y026133D02*
X004501Y026133D01*
X004503Y026133D01*
X004503Y026132D01*
X004502Y026134D02*
X004502Y026134D01*
X004502Y026136D01*
X004502Y026136D01*
X004501Y026135D01*
X004501Y026135D01*
X004502Y026134D01*
X004503Y026135D01*
X004503Y026135D01*
X004503Y026136D02*
X004501Y026137D01*
X004501Y026138D02*
X004501Y026139D01*
X004501Y026140D01*
X004501Y026140D01*
X004501Y026140D01*
X004501Y026141D01*
X004501Y026141D01*
X004501Y026140D01*
X004502Y026140D01*
X004502Y026141D01*
X004502Y026141D01*
X004502Y026141D01*
X004503Y026141D01*
X004503Y026140D01*
X004502Y026140D01*
X004500Y026133D02*
X004500Y026131D01*
X004500Y026130D02*
X004500Y026130D01*
X004501Y026123D02*
X004503Y026123D01*
X004503Y026124D01*
X004503Y026122D02*
X004503Y026121D01*
X004502Y026121D01*
X004502Y026121D01*
X004501Y026121D01*
X004501Y026120D01*
X004500Y026120D01*
X004500Y026122D01*
X004500Y026122D01*
X004499Y026122D01*
X004499Y026121D01*
X004500Y026120D01*
X004501Y026121D02*
X004501Y026122D01*
X004503Y026122D01*
X004501Y026121D02*
X004501Y026122D01*
X004501Y026123D02*
X004501Y026123D01*
X004502Y026121D02*
X004502Y026121D01*
X004502Y026119D01*
X004502Y026119D01*
X004503Y026120D01*
X004503Y026120D01*
X004503Y026119D02*
X004501Y026119D01*
X004501Y026118D01*
X004501Y026119D01*
X004498Y026119D01*
X004498Y026118D01*
X004499Y026118D02*
X004499Y026116D01*
X004500Y026116D01*
X004501Y026116D01*
X004501Y026118D01*
X004501Y026117D01*
X004503Y026116D01*
X004502Y026117D02*
X004502Y026117D01*
X004502Y026118D01*
X004499Y026118D01*
X004501Y026117D02*
X004503Y026117D01*
X004501Y026116D02*
X004501Y026116D01*
X004501Y026115D02*
X004501Y026115D01*
X004501Y026113D01*
X004500Y026113D01*
X004500Y026115D01*
X004501Y026115D01*
X004502Y026114D01*
X004502Y026112D01*
X004501Y026113D01*
X004501Y026113D01*
X004502Y026114D01*
X004502Y026114D01*
X004503Y026114D02*
X004501Y026114D01*
X004501Y026113D02*
X004501Y026113D01*
X004501Y026112D02*
X004501Y026110D01*
X004498Y026110D01*
X004498Y026112D01*
X004499Y026113D02*
X004499Y026114D01*
X004500Y026115D01*
X004502Y026112D02*
X004502Y026112D01*
X004503Y026113D01*
X004503Y026113D01*
X004503Y026112D02*
X004503Y026111D01*
X004502Y026111D01*
X004502Y026111D01*
X004501Y026111D01*
X004501Y026112D01*
X004503Y026112D01*
X004502Y026110D02*
X004503Y026110D01*
X004503Y026109D02*
X004501Y026109D01*
X004501Y026110D01*
X004502Y026110D01*
X004502Y026108D02*
X004501Y026108D01*
X004501Y026107D01*
X004501Y026105D01*
X004501Y026105D01*
X004503Y026105D01*
X004502Y026106D01*
X004503Y026106D01*
X004501Y026106D01*
X004500Y026107D02*
X004501Y026107D01*
X004498Y026109D01*
X004500Y026110D02*
X004500Y026111D01*
X004502Y026108D02*
X004502Y026108D01*
X004503Y026108D01*
X004503Y026107D01*
X004502Y026107D01*
X004502Y026107D01*
X004501Y026107D01*
X004500Y026107D02*
X004500Y026105D01*
X004501Y026105D01*
X004501Y026104D01*
X004501Y026103D01*
X004500Y026103D01*
X004499Y026103D02*
X004499Y026103D01*
X004501Y026103D01*
X004503Y026103D01*
X004503Y026103D01*
X004502Y026102D02*
X004503Y026102D01*
X004503Y026101D01*
X004501Y026101D01*
X004501Y026102D01*
X004501Y026101D01*
X004501Y026100D01*
X004500Y026100D01*
X004499Y026101D01*
X004499Y026102D01*
X004498Y026102D02*
X004501Y026102D01*
X004501Y026102D01*
X004501Y026102D01*
X004502Y026102D01*
X004502Y026102D01*
X004502Y026102D01*
X004502Y026101D01*
X004503Y026100D02*
X004501Y026100D01*
X004501Y026099D02*
X004503Y026100D01*
X004503Y026099D02*
X004501Y026099D01*
X004501Y026098D01*
X004501Y026097D01*
X004498Y026097D01*
X004499Y026096D01*
X004498Y026095D01*
X004501Y026095D01*
X004501Y026094D01*
X004502Y026094D01*
X004503Y026094D01*
X004502Y026095D02*
X004503Y026095D01*
X004503Y026096D02*
X004503Y026096D01*
X004502Y026097D01*
X004502Y026096D01*
X004502Y026096D01*
X004502Y026096D01*
X004501Y026096D01*
X004501Y026097D01*
X004500Y026097D01*
X004500Y026099D01*
X004500Y026099D01*
X004499Y026099D01*
X004499Y026098D01*
X004500Y026097D01*
X004501Y026099D02*
X004503Y026097D01*
X004501Y026095D02*
X004502Y026095D01*
X004501Y026094D02*
X004501Y026093D01*
X004503Y026093D01*
X004503Y026092D02*
X004503Y026091D01*
X004502Y026091D01*
X004502Y026092D01*
X004502Y026092D01*
X004501Y026092D01*
X004498Y026094D01*
X004499Y026091D02*
X004499Y026091D01*
X004500Y026090D01*
X004501Y026090D02*
X004499Y026090D01*
X004500Y026089D02*
X004500Y026089D01*
X004500Y026087D01*
X004499Y026087D01*
X004499Y026089D01*
X004500Y026089D01*
X004501Y026089D02*
X004501Y026087D01*
X004500Y026087D01*
X004501Y026087D02*
X004501Y026087D01*
X004502Y026087D01*
X004503Y026087D01*
X004503Y026088D01*
X004501Y026088D01*
X004501Y026089D02*
X004501Y026089D01*
X004503Y026089D01*
X004502Y026090D02*
X004503Y026090D01*
X004502Y026090D01*
X004501Y026090D01*
X004502Y026090D01*
X004501Y026089D01*
X004502Y026091D02*
X004501Y026091D01*
X004501Y026092D01*
X004502Y026091D02*
X004502Y026091D01*
X004503Y026087D02*
X004503Y026086D01*
X004502Y026085D01*
X004502Y026085D01*
X004501Y026084D01*
X004500Y026084D01*
X004499Y026085D01*
X004499Y026086D01*
X004498Y026086D02*
X004501Y026086D01*
X004501Y026085D01*
X004501Y026084D01*
X004502Y026083D01*
X004501Y026083D01*
X004501Y026083D01*
X004501Y026082D01*
X004499Y026082D01*
X004499Y026083D01*
X004500Y026084D01*
X004501Y026084D01*
X004501Y026084D01*
X004502Y026083D02*
X004502Y026083D01*
X004503Y026083D01*
X004503Y026082D01*
X004501Y026082D01*
X004501Y026081D02*
X004503Y026080D01*
X004503Y026079D02*
X004503Y026079D01*
X004503Y026079D01*
X004501Y026079D01*
X004501Y026079D01*
X004500Y026079D01*
X004499Y026079D01*
X004499Y026080D01*
X004500Y026081D01*
X004501Y026081D01*
X004501Y026080D01*
X004501Y026079D01*
X004501Y026078D02*
X004498Y026078D01*
X004498Y026076D02*
X004501Y026076D01*
X004500Y026077D01*
X004501Y026078D01*
X004502Y026078D01*
X004503Y026078D01*
X004503Y026079D01*
X004502Y026078D02*
X004502Y026076D01*
X004501Y026077D01*
X004502Y026078D01*
X004502Y026078D01*
X004503Y026077D02*
X004503Y026077D01*
X004502Y026076D01*
X004502Y026076D01*
X004503Y026075D02*
X004503Y026076D01*
X004503Y026075D02*
X004501Y026075D01*
X004501Y026075D01*
X004501Y026075D01*
X004499Y026075D01*
X004499Y026074D01*
X004499Y026073D02*
X004501Y026073D01*
X004501Y026074D01*
X004501Y026075D01*
X004503Y026075D01*
X004503Y026074D01*
X004502Y026073D01*
X004502Y026072D01*
X004502Y026071D01*
X004503Y026071D01*
X004503Y026072D02*
X004502Y026071D01*
X004501Y026071D01*
X004501Y026070D01*
X004498Y026070D01*
X004498Y026071D01*
X004499Y026072D01*
X004500Y026071D01*
X004500Y026070D01*
X004501Y026070D02*
X004503Y026070D01*
X004503Y026069D02*
X004503Y026068D01*
X004502Y026068D01*
X004502Y026069D01*
X004502Y026069D01*
X004501Y026069D01*
X004498Y026069D01*
X004498Y026067D02*
X004501Y026069D01*
X004501Y026068D01*
X004502Y026068D01*
X004502Y026068D01*
X004503Y026067D02*
X004503Y026066D01*
X004502Y026066D01*
X004502Y026066D01*
X004501Y026066D01*
X004501Y026067D01*
X004498Y026067D01*
X004498Y026066D02*
X004501Y026064D01*
X004500Y026063D01*
X004500Y026062D01*
X004500Y026062D01*
X004499Y026062D01*
X004499Y026064D01*
X004501Y026063D02*
X004501Y026064D01*
X004501Y026063D01*
X004501Y026062D01*
X004502Y026062D01*
X004502Y026061D01*
X004502Y026061D01*
X004503Y026061D01*
X004503Y026062D01*
X004502Y026063D02*
X004503Y026063D01*
X004503Y026064D01*
X004502Y026064D01*
X004502Y026064D01*
X004501Y026064D01*
X004503Y026064D01*
X004502Y026064D02*
X004501Y026065D01*
X004501Y026065D01*
X004501Y026063D02*
X004502Y026063D01*
X004502Y026063D01*
X004502Y026062D02*
X004502Y026062D01*
X004501Y026061D02*
X004501Y026062D01*
X004502Y026061D02*
X004501Y026061D01*
X004501Y026060D01*
X004499Y026060D01*
X004499Y026061D01*
X004500Y026059D02*
X004501Y026059D01*
X004502Y026059D01*
X004503Y026059D01*
X004503Y026060D01*
X004503Y026060D01*
X004503Y026060D01*
X004501Y026060D01*
X004501Y026059D01*
X004503Y026057D01*
X004503Y026056D02*
X004502Y026057D01*
X004502Y026056D01*
X004502Y026055D01*
X004501Y026056D01*
X004501Y026055D01*
X004501Y026054D01*
X004500Y026054D01*
X004500Y026056D01*
X004500Y026056D01*
X004499Y026056D01*
X004499Y026055D01*
X004500Y026054D01*
X004499Y026053D01*
X004500Y026053D01*
X004501Y026053D01*
X004502Y026053D01*
X004502Y026052D01*
X004502Y026052D01*
X004503Y026052D01*
X004503Y026053D01*
X004503Y026054D02*
X004501Y026054D01*
X004500Y026054D01*
X004500Y026053D02*
X004499Y026052D01*
X004499Y026052D01*
X004501Y026052D01*
X004501Y026051D01*
X004499Y026051D01*
X004499Y026049D02*
X004501Y026049D01*
X004501Y026049D01*
X004501Y026051D01*
X004502Y026050D01*
X004501Y026050D01*
X004502Y026051D02*
X004502Y026050D01*
X004503Y026049D01*
X004503Y026049D01*
X004502Y026049D01*
X004501Y026049D01*
X004501Y026048D02*
X004501Y026047D01*
X004501Y026046D01*
X004500Y026046D01*
X004499Y026047D01*
X004499Y026048D01*
X004501Y026048D02*
X004503Y026047D01*
X004501Y026045D02*
X004501Y026046D01*
X004500Y026046D01*
X004499Y026045D01*
X004499Y026044D01*
X004500Y026044D01*
X004501Y026044D01*
X004501Y026044D01*
X004501Y026045D01*
X004501Y026043D02*
X004499Y026043D01*
X004498Y026042D01*
X004498Y026041D01*
X004501Y026041D01*
X004501Y026042D01*
X004501Y026043D01*
X004498Y026040D02*
X004501Y026038D01*
X004501Y026037D02*
X004501Y026036D01*
X004501Y026035D01*
X004499Y026035D01*
X004500Y026035D02*
X004500Y026035D01*
X004500Y026033D01*
X004499Y026033D01*
X004499Y026034D01*
X004500Y026035D01*
X004501Y026034D02*
X004501Y026033D01*
X004501Y026033D01*
X004500Y026033D01*
X004501Y026032D02*
X004501Y026031D01*
X004498Y026031D01*
X004498Y026031D01*
X004498Y026030D02*
X004501Y026030D01*
X004501Y026029D01*
X004501Y026028D01*
X004500Y026028D01*
X004499Y026029D01*
X004499Y026030D01*
X004500Y026027D02*
X004501Y026027D01*
X004501Y026026D01*
X004501Y026025D01*
X004500Y026025D01*
X004499Y026024D01*
X004499Y026023D01*
X004500Y026023D01*
X004500Y026022D02*
X004500Y026020D01*
X004499Y026020D01*
X004499Y026021D01*
X004500Y026022D01*
X004500Y026022D01*
X004501Y026021D02*
X004501Y026020D01*
X004500Y026020D01*
X004501Y026020D02*
X004501Y026020D01*
X004501Y026019D02*
X004501Y026018D01*
X004501Y026017D01*
X004500Y026017D01*
X004499Y026018D01*
X004499Y026019D01*
X004502Y026019D01*
X004502Y026019D01*
X004502Y026018D01*
X004501Y026015D02*
X004499Y026015D01*
X004500Y026014D02*
X004499Y026014D01*
X004499Y026013D01*
X004500Y026012D01*
X004501Y026012D01*
X004501Y026013D01*
X004501Y026014D01*
X004501Y026014D01*
X004500Y026014D01*
X004500Y026015D02*
X004499Y026016D01*
X004499Y026016D01*
X004500Y026012D02*
X004500Y026012D01*
X004500Y026010D01*
X004499Y026010D01*
X004499Y026011D01*
X004500Y026012D01*
X004501Y026011D02*
X004501Y026010D01*
X004501Y026010D01*
X004500Y026010D01*
X004499Y026009D02*
X004499Y026007D01*
X004500Y026007D01*
X004501Y026007D01*
X004501Y026009D01*
X004502Y026009D02*
X004499Y026009D01*
X004502Y026008D02*
X004502Y026009D01*
X004502Y026008D02*
X004502Y026008D01*
X004501Y026007D02*
X004501Y026007D01*
X004501Y026004D02*
X004498Y026006D01*
X004499Y026003D02*
X004499Y026002D01*
X004500Y026001D01*
X004500Y026002D01*
X004500Y026003D01*
X004501Y026003D01*
X004501Y026003D01*
X004501Y026001D01*
X004499Y026000D02*
X004499Y026001D01*
X004499Y026000D02*
X004500Y025999D01*
X004500Y025998D02*
X004500Y025996D01*
X004499Y025997D01*
X004499Y025998D01*
X004500Y025998D01*
X004500Y025998D01*
X004501Y025998D02*
X004501Y025997D01*
X004501Y025996D01*
X004500Y025995D01*
X004500Y025994D01*
X004500Y025994D01*
X004499Y025994D01*
X004499Y025996D01*
X004500Y025996D02*
X004501Y025996D01*
X004501Y025995D01*
X004501Y025994D01*
X004501Y025993D02*
X004498Y025993D01*
X004498Y025991D02*
X004501Y025991D01*
X004501Y025991D01*
X004501Y025992D01*
X004501Y025993D01*
X004498Y025990D02*
X004501Y025988D01*
X004501Y025999D02*
X004499Y025999D01*
X004498Y026023D02*
X004501Y026023D01*
X004501Y026025D02*
X004500Y026026D01*
X004500Y026027D01*
X004499Y026027D01*
X004499Y026026D01*
X004502Y026036D02*
X004502Y026037D01*
X004502Y026037D01*
X004499Y026037D01*
X004503Y026050D02*
X004503Y026051D01*
X004502Y026052D01*
X004501Y026052D01*
X004501Y026053D01*
X004502Y026053D02*
X004502Y026053D01*
X004502Y026054D02*
X004501Y026055D01*
X004501Y026055D01*
X004501Y026056D02*
X004501Y026057D01*
X004499Y026057D01*
X004499Y026059D01*
X004500Y026059D01*
X004502Y026059D02*
X004502Y026059D01*
X004502Y026056D02*
X004502Y026056D01*
X004503Y026055D02*
X004503Y026056D01*
X004502Y026052D02*
X004502Y026051D01*
X004502Y026051D01*
X004503Y026067D02*
X004503Y026067D01*
X004501Y026067D01*
X004503Y026067D02*
X004503Y026067D01*
X004502Y026070D02*
X004501Y026070D01*
X004501Y026071D01*
X004501Y026072D01*
X004500Y026072D01*
X004500Y026071D01*
X004499Y026072D02*
X004499Y026072D01*
X004499Y026073D02*
X004499Y026073D01*
X004498Y026073D02*
X004498Y026073D01*
X004501Y026074D02*
X004502Y026073D01*
X004502Y026073D01*
X004503Y026073D01*
X004503Y026072D01*
X004502Y026073D02*
X004501Y026072D01*
X004501Y026072D01*
X004501Y026077D02*
X004501Y026077D01*
X004502Y026083D02*
X004503Y026084D01*
X004503Y026084D01*
X004502Y026085D01*
X004502Y026085D01*
X004501Y026086D01*
X004501Y026087D01*
X004501Y026103D02*
X004501Y026103D01*
X004501Y026104D02*
X004502Y026104D01*
X004503Y026105D01*
X004500Y026107D02*
X004499Y026106D01*
X004499Y026105D01*
X004498Y026103D02*
X004498Y026103D01*
X004502Y026119D02*
X004501Y026120D01*
X004502Y026121D01*
X004501Y026120D02*
X004501Y026120D01*
X004503Y026149D02*
X004503Y026150D01*
X004503Y026150D01*
X004502Y026158D02*
X004502Y026158D01*
D16*
X004912Y025776D03*
X005100Y025398D03*
X004995Y024832D03*
X004995Y024619D03*
X004995Y024532D03*
X005551Y024394D03*
X006910Y025204D03*
D17*
X005553Y024394D03*
X005481Y024075D03*
X005307Y024172D03*
X005221Y024105D03*
X005223Y024021D03*
X005223Y023938D03*
X005137Y023889D03*
X004996Y023761D03*
X004996Y023674D03*
X005229Y023601D03*
X005229Y023389D03*
X004996Y024531D03*
X005229Y024670D03*
X004914Y025776D03*
D18*
X004915Y025776D03*
X005139Y024744D03*
X004998Y024529D03*
X005220Y024106D03*
X005139Y023887D03*
X005026Y023809D03*
X005080Y023316D03*
X006916Y024111D03*
D19*
X005556Y024393D03*
X005305Y024174D03*
X004999Y024528D03*
X004999Y024828D03*
X004917Y025774D03*
X005079Y023317D03*
D20*
X004918Y025774D03*
D21*
X004920Y025771D03*
X005094Y025405D03*
X005004Y024951D03*
X005007Y024823D03*
X005005Y024823D03*
X005010Y024823D03*
X005011Y024823D03*
X005013Y024823D03*
X005001Y024612D03*
X005004Y024523D03*
X005149Y024396D03*
X005299Y024178D03*
X005215Y024112D03*
X005215Y024028D03*
X005214Y023946D03*
X005146Y023881D03*
X005145Y023881D03*
X005007Y023754D03*
X005005Y023754D03*
X005004Y023754D03*
X005004Y023667D03*
X005002Y023667D03*
X005076Y023322D03*
X005487Y024075D03*
X005550Y024901D03*
X005298Y024948D03*
X006912Y024112D03*
D22*
X005292Y024181D03*
X005290Y024181D03*
X005289Y024181D03*
X005287Y024181D03*
X005286Y024181D03*
X005284Y024181D03*
X005275Y024181D03*
X005272Y024181D03*
X005266Y024181D03*
X005260Y024181D03*
X005256Y024181D03*
X005254Y024181D03*
X005251Y024181D03*
X005247Y024181D03*
X005242Y024181D03*
X005235Y024181D03*
X005232Y024181D03*
X005230Y024181D03*
X005229Y024181D03*
X005227Y024181D03*
X005226Y024181D03*
X005224Y024181D03*
X005166Y024181D03*
X005164Y024181D03*
X005163Y024181D03*
X005161Y024181D03*
X005160Y024181D03*
X005157Y024181D03*
X005155Y024181D03*
X005154Y024181D03*
X005152Y024181D03*
X005145Y024181D03*
X005136Y024181D03*
X005125Y024181D03*
X005122Y024181D03*
X005118Y024181D03*
X005115Y024181D03*
X005107Y024181D03*
X005097Y024181D03*
X005094Y024181D03*
X005086Y024181D03*
X005085Y024181D03*
X005082Y024181D03*
X005079Y024181D03*
X005074Y024181D03*
X005065Y024181D03*
X005064Y024181D03*
X005062Y024181D03*
X005061Y024181D03*
X005059Y024181D03*
X005058Y024181D03*
X005056Y024181D03*
X005052Y024183D03*
X005049Y024303D03*
X005169Y024303D03*
X005163Y024520D03*
X005161Y024520D03*
X005160Y024520D03*
X005157Y024520D03*
X005155Y024520D03*
X005161Y024610D03*
X005163Y024610D03*
X005164Y024610D03*
X005167Y024732D03*
X005169Y024732D03*
X005167Y024826D03*
X005170Y024828D03*
X005167Y024948D03*
X005166Y024948D03*
X005164Y024948D03*
X005221Y024948D03*
X005062Y024735D03*
X005061Y024735D03*
X005047Y024735D03*
X005046Y024735D03*
X005005Y025318D03*
X005089Y025408D03*
X004921Y025768D03*
X005052Y024031D03*
X005064Y024031D03*
X005065Y024031D03*
X005070Y024031D03*
X005076Y024031D03*
X005079Y024031D03*
X005080Y024031D03*
X005088Y024031D03*
X005094Y024031D03*
X005095Y024031D03*
X005100Y024031D03*
X005101Y024031D03*
X005160Y023878D03*
X005161Y023878D03*
X005169Y023757D03*
X005170Y023757D03*
X005167Y023755D03*
X005146Y023755D03*
X005107Y023755D03*
X005052Y023328D03*
X005152Y023325D03*
X005166Y023328D03*
X005167Y023328D03*
D23*
X005149Y023326D03*
X005179Y023442D03*
X005178Y023443D03*
X005176Y023445D03*
X005178Y023547D03*
X005046Y023446D03*
X005176Y023760D03*
X005178Y023760D03*
X005067Y023878D03*
X005065Y023878D03*
X005043Y023878D03*
X005040Y023877D03*
X005043Y024030D03*
X005044Y024030D03*
X005041Y024030D03*
X005043Y024300D03*
X005044Y024301D03*
X005046Y024301D03*
X005041Y024300D03*
X005176Y024300D03*
X005178Y024300D03*
X005178Y024402D03*
X005175Y024615D03*
X005176Y024616D03*
X005040Y024732D03*
X005172Y024946D03*
X004923Y025767D03*
D24*
X004924Y025766D03*
X004996Y025700D03*
X004996Y025927D03*
X005242Y025475D03*
X005179Y024832D03*
X005178Y024728D03*
X005179Y024727D03*
X005179Y024619D03*
X005178Y024617D03*
X005146Y024611D03*
X005178Y024514D03*
X005179Y024512D03*
X005176Y024401D03*
X005172Y024184D03*
X005220Y024184D03*
X005040Y024190D03*
X005029Y024107D03*
X004992Y023989D03*
X005032Y023951D03*
X005181Y023869D03*
X005178Y023659D03*
X005181Y023441D03*
X005182Y023440D03*
X005227Y023389D03*
X005178Y023332D03*
X005037Y023336D03*
X005073Y023449D03*
X005074Y023449D03*
X005035Y024730D03*
X005034Y024730D03*
X005037Y024731D03*
X005070Y024731D03*
X005554Y024904D03*
D25*
X005227Y024886D03*
X005181Y024832D03*
X005181Y024726D03*
X005182Y024724D03*
X005184Y024723D03*
X005182Y024621D03*
X005181Y024619D03*
X005145Y024612D03*
X005106Y024612D03*
X005074Y024729D03*
X005073Y024729D03*
X005071Y024730D03*
X005032Y024729D03*
X005181Y024511D03*
X005227Y024459D03*
X005181Y024297D03*
X005037Y024297D03*
X005037Y024192D03*
X004992Y024072D03*
X005037Y023875D03*
X005035Y023874D03*
X005034Y023874D03*
X005032Y023872D03*
X005031Y023871D03*
X005070Y023875D03*
X005182Y023868D03*
X005181Y023763D03*
X005179Y023656D03*
X005184Y023551D03*
X005184Y023439D03*
X005115Y023448D03*
X005037Y023440D03*
X005035Y023337D03*
X005179Y023332D03*
X005082Y025411D03*
X005080Y025411D03*
X005079Y025411D03*
X005077Y025411D03*
X005076Y025411D03*
X005142Y025539D03*
X005145Y025539D03*
X005146Y025539D03*
X005148Y025539D03*
X005149Y025539D03*
X005151Y025539D03*
X005152Y025539D03*
X005154Y025539D03*
X004926Y025765D03*
X006901Y025204D03*
D26*
X005556Y024905D03*
X005184Y024835D03*
X005182Y024833D03*
X005185Y024722D03*
X005187Y024721D03*
X005227Y024673D03*
X005184Y024622D03*
X005076Y024728D03*
X005031Y024728D03*
X005029Y024727D03*
X005187Y024410D03*
X005185Y024409D03*
X005184Y024407D03*
X005182Y024406D03*
X005182Y024296D03*
X005175Y024185D03*
X005035Y024193D03*
X005035Y024031D03*
X005071Y023875D03*
X005073Y023873D03*
X005076Y023872D03*
X005077Y023870D03*
X005184Y023867D03*
X005185Y023866D03*
X005227Y023816D03*
X005182Y023764D03*
X005181Y023656D03*
X005185Y023552D03*
X005185Y023438D03*
X005187Y023437D03*
X005076Y023447D03*
X005035Y023438D03*
X005029Y023342D03*
X005031Y023341D03*
X005148Y023329D03*
X005490Y024076D03*
X005562Y024386D03*
X005242Y025249D03*
X005074Y025412D03*
X005073Y025412D03*
X005010Y025315D03*
X005010Y025187D03*
X005137Y025538D03*
X005139Y025538D03*
X005140Y025538D03*
X005155Y025538D03*
X005157Y025538D03*
X005160Y025538D03*
X005242Y025700D03*
X005242Y025927D03*
X004929Y025765D03*
X004927Y025765D03*
D27*
X004930Y025764D03*
X004932Y025764D03*
X004935Y025764D03*
X004936Y025764D03*
X004938Y025764D03*
X004939Y025764D03*
X004941Y025764D03*
X004942Y025764D03*
X004944Y025764D03*
X004945Y025764D03*
X004947Y025764D03*
X004950Y025764D03*
X004951Y025764D03*
X004953Y025764D03*
X004954Y025764D03*
X004956Y025764D03*
X004957Y025764D03*
X004959Y025764D03*
X004960Y025764D03*
X004962Y025764D03*
X004965Y025764D03*
X004966Y025764D03*
X004968Y025764D03*
X004969Y025764D03*
X004971Y025764D03*
X004972Y025764D03*
X004974Y025764D03*
X004975Y025764D03*
X004977Y025764D03*
X004980Y025764D03*
X004981Y025764D03*
X004983Y025764D03*
X004984Y025764D03*
X004986Y025764D03*
X004987Y025764D03*
X004989Y025764D03*
X004990Y025764D03*
X004992Y025764D03*
X005073Y025764D03*
X005074Y025764D03*
X005076Y025764D03*
X005077Y025764D03*
X005079Y025764D03*
X005080Y025764D03*
X005082Y025764D03*
X005085Y025764D03*
X005086Y025764D03*
X005088Y025764D03*
X005089Y025764D03*
X005091Y025764D03*
X005092Y025764D03*
X005094Y025764D03*
X005095Y025764D03*
X005097Y025764D03*
X005100Y025764D03*
X005101Y025764D03*
X005103Y025764D03*
X005104Y025764D03*
X005106Y025764D03*
X005107Y025764D03*
X005109Y025764D03*
X005110Y025764D03*
X005112Y025764D03*
X005115Y025764D03*
X005116Y025764D03*
X005118Y025764D03*
X005119Y025764D03*
X005121Y025764D03*
X005122Y025764D03*
X005124Y025764D03*
X005125Y025764D03*
X005127Y025764D03*
X005130Y025764D03*
X005131Y025764D03*
X005133Y025764D03*
X005134Y025764D03*
X005136Y025764D03*
X005137Y025764D03*
X005139Y025764D03*
X005140Y025764D03*
X005142Y025764D03*
X005145Y025764D03*
X005146Y025764D03*
X005148Y025764D03*
X005149Y025764D03*
X005151Y025764D03*
X005152Y025764D03*
X005154Y025764D03*
X005155Y025764D03*
X005157Y025764D03*
X005160Y025764D03*
X005161Y025764D03*
X005163Y025764D03*
X005164Y025764D03*
X005166Y025764D03*
X005161Y025636D03*
X005160Y025636D03*
X005157Y025636D03*
X005155Y025636D03*
X005154Y025636D03*
X005152Y025636D03*
X005151Y025636D03*
X005149Y025636D03*
X005148Y025636D03*
X005146Y025636D03*
X005145Y025636D03*
X005142Y025636D03*
X005140Y025636D03*
X005139Y025636D03*
X005137Y025636D03*
X005136Y025636D03*
X005134Y025636D03*
X005133Y025636D03*
X005131Y025636D03*
X005130Y025636D03*
X005127Y025636D03*
X005125Y025636D03*
X005124Y025636D03*
X005122Y025636D03*
X005121Y025636D03*
X005119Y025636D03*
X005118Y025636D03*
X005116Y025636D03*
X005115Y025636D03*
X005112Y025636D03*
X005110Y025636D03*
X005109Y025636D03*
X005107Y025636D03*
X005106Y025636D03*
X005104Y025636D03*
X005103Y025636D03*
X005101Y025636D03*
X005100Y025636D03*
X005097Y025636D03*
X005095Y025636D03*
X005094Y025636D03*
X005092Y025636D03*
X005091Y025636D03*
X005089Y025636D03*
X005088Y025636D03*
X005086Y025636D03*
X005085Y025636D03*
X005082Y025636D03*
X005080Y025636D03*
X005079Y025636D03*
X005077Y025636D03*
X005076Y025636D03*
X005136Y025537D03*
X005161Y025537D03*
X005163Y025537D03*
X005071Y025413D03*
X005070Y025413D03*
X005013Y025314D03*
X005011Y025314D03*
X005167Y025312D03*
X005179Y024943D03*
X005187Y024837D03*
X005185Y024835D03*
X005190Y024717D03*
X005187Y024624D03*
X005185Y024622D03*
X005142Y024613D03*
X005185Y024508D03*
X005187Y024507D03*
X005184Y024295D03*
X005185Y024294D03*
X005227Y024244D03*
X005178Y024186D03*
X005176Y024186D03*
X005032Y024195D03*
X005028Y024105D03*
X005035Y024295D03*
X005074Y023872D03*
X005029Y023869D03*
X005140Y023760D03*
X005184Y023764D03*
X005185Y023766D03*
X005187Y023865D03*
X005184Y023653D03*
X005185Y023652D03*
X005187Y023650D03*
X005227Y023602D03*
X005187Y023553D03*
X005077Y023446D03*
X005034Y023437D03*
X005181Y023334D03*
X005182Y023335D03*
X005187Y023338D03*
X006907Y024112D03*
X005167Y025989D03*
X005166Y025989D03*
X005164Y025990D03*
X005163Y025990D03*
X005161Y025990D03*
X005160Y025990D03*
X005157Y025990D03*
X005155Y025990D03*
X005154Y025990D03*
X005152Y025990D03*
X005151Y025990D03*
X005149Y025990D03*
X005148Y025990D03*
X005146Y025990D03*
X005145Y025990D03*
X005142Y025990D03*
X005140Y025990D03*
X005139Y025990D03*
X005137Y025990D03*
X005136Y025990D03*
X005134Y025990D03*
X005133Y025990D03*
X005131Y025990D03*
X005130Y025990D03*
X005127Y025990D03*
X005125Y025990D03*
X005124Y025990D03*
X005122Y025990D03*
X005121Y025990D03*
X005119Y025990D03*
X005118Y025990D03*
X005116Y025990D03*
X005115Y025990D03*
X005112Y025990D03*
X005110Y025990D03*
X005109Y025990D03*
X005107Y025990D03*
X005106Y025990D03*
X005104Y025990D03*
X005103Y025990D03*
X005101Y025990D03*
X005100Y025990D03*
X005097Y025990D03*
X005095Y025990D03*
X005094Y025990D03*
X005092Y025990D03*
X005091Y025990D03*
X005089Y025990D03*
X005088Y025990D03*
X005086Y025990D03*
X005085Y025990D03*
X005082Y025990D03*
X005080Y025990D03*
X005079Y025990D03*
X005077Y025990D03*
X005076Y025990D03*
X005074Y025990D03*
X005073Y025989D03*
X005071Y025989D03*
D28*
X005083Y025990D03*
X005098Y025990D03*
X005113Y025990D03*
X005128Y025990D03*
X005143Y025990D03*
X005158Y025990D03*
X005158Y025764D03*
X005143Y025764D03*
X005128Y025764D03*
X005113Y025764D03*
X005098Y025764D03*
X005083Y025764D03*
X004993Y025764D03*
X004978Y025764D03*
X004963Y025764D03*
X004948Y025764D03*
X004933Y025764D03*
X005083Y025636D03*
X005098Y025636D03*
X005113Y025636D03*
X005128Y025636D03*
X005143Y025636D03*
X005158Y025636D03*
X005188Y024838D03*
X005188Y024411D03*
X005563Y024385D03*
X005188Y023863D03*
X005188Y023649D03*
X005188Y023554D03*
D29*
X005226Y024104D03*
X004990Y024691D03*
X005134Y024746D03*
X005542Y024896D03*
D30*
X004990Y024683D03*
X004990Y024251D03*
X004990Y024245D03*
D31*
X004990Y023980D03*
X005134Y023892D03*
X005028Y023806D03*
X004992Y023763D03*
X004990Y023400D03*
X005028Y024663D03*
X004990Y024676D03*
D32*
X004990Y024670D03*
X004990Y024238D03*
X004990Y023830D03*
X004990Y023387D03*
X004990Y023380D03*
X005479Y024076D03*
X005550Y024394D03*
X005463Y025214D03*
X005101Y025397D03*
D33*
X004996Y025324D03*
X004990Y024079D03*
X005226Y024019D03*
D34*
X004990Y024067D03*
X004990Y023392D03*
D35*
X004990Y023818D03*
X004990Y023824D03*
D36*
X004992Y024533D03*
X004992Y024833D03*
D37*
X004992Y024680D03*
X005184Y024941D03*
X005176Y025187D03*
X005178Y025189D03*
X005179Y025307D03*
X005176Y025309D03*
X005178Y025415D03*
X005176Y025415D03*
X005175Y025415D03*
X005164Y025415D03*
X005163Y025415D03*
X005241Y025475D03*
X005181Y025534D03*
X005179Y025534D03*
X005176Y025535D03*
X005175Y025535D03*
X005079Y025535D03*
X005062Y025535D03*
X005059Y025534D03*
X005058Y025534D03*
X005064Y025639D03*
X005061Y025640D03*
X005059Y025642D03*
X005175Y025639D03*
X005178Y025640D03*
X005179Y025642D03*
X005182Y025643D03*
X005241Y025700D03*
X005178Y025760D03*
X005176Y025762D03*
X005179Y025867D03*
X005181Y025985D03*
X005182Y025985D03*
X005061Y025985D03*
X005059Y025985D03*
X004998Y025927D03*
X005059Y025867D03*
X005062Y025762D03*
X005056Y025417D03*
X005059Y025415D03*
X005029Y024290D03*
X004992Y024245D03*
X005182Y024188D03*
X005026Y023959D03*
X005028Y023867D03*
X005139Y023762D03*
X005190Y023771D03*
X005190Y023647D03*
X005190Y023434D03*
X005145Y023332D03*
X005029Y023434D03*
X006904Y024113D03*
D38*
X006900Y025204D03*
X005170Y025186D03*
X005169Y025186D03*
X005172Y025312D03*
X005170Y025312D03*
X005169Y025312D03*
X005166Y025313D03*
X005164Y025313D03*
X005163Y025313D03*
X005161Y025313D03*
X005160Y025313D03*
X005157Y025313D03*
X005155Y025313D03*
X005154Y025313D03*
X005152Y025313D03*
X005151Y025313D03*
X005149Y025313D03*
X005148Y025313D03*
X005146Y025313D03*
X005145Y025313D03*
X005142Y025313D03*
X005140Y025313D03*
X005139Y025313D03*
X005137Y025313D03*
X005136Y025313D03*
X005134Y025313D03*
X005133Y025313D03*
X005131Y025313D03*
X005130Y025313D03*
X005127Y025313D03*
X005125Y025313D03*
X005124Y025313D03*
X005122Y025313D03*
X005121Y025313D03*
X005119Y025313D03*
X005118Y025313D03*
X005116Y025313D03*
X005115Y025313D03*
X005112Y025313D03*
X005110Y025313D03*
X005109Y025313D03*
X005107Y025313D03*
X005106Y025313D03*
X005104Y025313D03*
X005103Y025313D03*
X005101Y025313D03*
X005100Y025313D03*
X005097Y025313D03*
X005095Y025313D03*
X005094Y025313D03*
X005092Y025313D03*
X005091Y025313D03*
X005089Y025313D03*
X005088Y025313D03*
X005086Y025313D03*
X005085Y025313D03*
X005082Y025313D03*
X005080Y025313D03*
X005079Y025313D03*
X005077Y025313D03*
X005076Y025313D03*
X005074Y025313D03*
X005073Y025313D03*
X005071Y025313D03*
X005070Y025313D03*
X005067Y025313D03*
X005065Y025313D03*
X005064Y025313D03*
X005062Y025313D03*
X005061Y025313D03*
X005059Y025313D03*
X005058Y025313D03*
X005056Y025313D03*
X005055Y025313D03*
X005052Y025313D03*
X005050Y025313D03*
X005049Y025313D03*
X005047Y025313D03*
X005046Y025313D03*
X005044Y025313D03*
X005043Y025313D03*
X005041Y025313D03*
X005040Y025313D03*
X005037Y025313D03*
X005035Y025313D03*
X005034Y025313D03*
X005032Y025313D03*
X005031Y025313D03*
X005029Y025313D03*
X005028Y025313D03*
X005026Y025313D03*
X005025Y025313D03*
X005022Y025313D03*
X005020Y025313D03*
X005019Y025313D03*
X005017Y025313D03*
X005016Y025313D03*
X005014Y025313D03*
X005065Y025414D03*
X005067Y025414D03*
X005070Y025537D03*
X005071Y025537D03*
X005073Y025537D03*
X005074Y025537D03*
X005134Y025537D03*
X005164Y025537D03*
X005166Y025537D03*
X005167Y025537D03*
X005169Y025637D03*
X005170Y025637D03*
X005167Y025637D03*
X005166Y025637D03*
X005164Y025637D03*
X005163Y025637D03*
X005074Y025637D03*
X005073Y025637D03*
X005071Y025637D03*
X005070Y025637D03*
X005071Y025763D03*
X005070Y025763D03*
X005067Y025763D03*
X004996Y025763D03*
X004995Y025763D03*
X005070Y025864D03*
X005071Y025864D03*
X005073Y025864D03*
X005074Y025864D03*
X005076Y025864D03*
X005077Y025864D03*
X005079Y025864D03*
X005080Y025864D03*
X005082Y025864D03*
X005085Y025864D03*
X005086Y025864D03*
X005088Y025864D03*
X005089Y025864D03*
X005091Y025864D03*
X005092Y025864D03*
X005094Y025864D03*
X005095Y025864D03*
X005097Y025864D03*
X005100Y025864D03*
X005101Y025864D03*
X005103Y025864D03*
X005104Y025864D03*
X005106Y025864D03*
X005107Y025864D03*
X005109Y025864D03*
X005110Y025864D03*
X005112Y025864D03*
X005115Y025864D03*
X005116Y025864D03*
X005118Y025864D03*
X005119Y025864D03*
X005121Y025864D03*
X005122Y025864D03*
X005124Y025864D03*
X005125Y025864D03*
X005127Y025864D03*
X005130Y025864D03*
X005131Y025864D03*
X005133Y025864D03*
X005134Y025864D03*
X005136Y025864D03*
X005137Y025864D03*
X005139Y025864D03*
X005140Y025864D03*
X005142Y025864D03*
X005145Y025864D03*
X005146Y025864D03*
X005148Y025864D03*
X005149Y025864D03*
X005151Y025864D03*
X005152Y025864D03*
X005154Y025864D03*
X005155Y025864D03*
X005157Y025864D03*
X005160Y025864D03*
X005161Y025864D03*
X005163Y025864D03*
X005164Y025864D03*
X005166Y025864D03*
X005167Y025864D03*
X005169Y025763D03*
X005170Y025763D03*
X005172Y025763D03*
X005167Y025763D03*
X005170Y025988D03*
X005169Y025988D03*
X005172Y025988D03*
X005070Y025988D03*
X005013Y025186D03*
X005011Y025186D03*
X005181Y024943D03*
X005077Y024727D03*
X005034Y024295D03*
X005032Y024293D03*
X005187Y024293D03*
X005179Y024187D03*
X005026Y024103D03*
X005034Y024031D03*
X005028Y023956D03*
X005079Y023869D03*
X004992Y023824D03*
X005187Y023767D03*
X005032Y023437D03*
X005031Y023435D03*
X005146Y023330D03*
X005184Y023336D03*
X005185Y023338D03*
X005491Y024076D03*
D39*
X004992Y023676D03*
D40*
X005190Y023556D03*
X005190Y023343D03*
X005028Y023344D03*
X004992Y023386D03*
X005190Y023860D03*
X005032Y024031D03*
X005031Y024196D03*
X005029Y024198D03*
X005031Y024292D03*
X005190Y024289D03*
X005181Y024187D03*
X005190Y024414D03*
X005190Y024504D03*
X005079Y024724D03*
X005028Y024724D03*
X005190Y024841D03*
X005182Y024942D03*
X005175Y025186D03*
X005172Y025186D03*
X005178Y025308D03*
X005175Y025309D03*
X005172Y025414D03*
X005170Y025414D03*
X005169Y025414D03*
X005167Y025414D03*
X005166Y025414D03*
X005064Y025414D03*
X005062Y025414D03*
X005061Y025414D03*
X004998Y025474D03*
X005061Y025534D03*
X005064Y025536D03*
X005065Y025536D03*
X005067Y025536D03*
X005076Y025536D03*
X005077Y025536D03*
X005169Y025536D03*
X005170Y025536D03*
X005172Y025536D03*
X005178Y025534D03*
X005172Y025638D03*
X005176Y025639D03*
X005067Y025638D03*
X005065Y025638D03*
X005062Y025639D03*
X005064Y025762D03*
X005065Y025762D03*
X004998Y025762D03*
X005061Y025866D03*
X005062Y025866D03*
X005064Y025866D03*
X005065Y025864D03*
X005067Y025864D03*
X005169Y025864D03*
X005170Y025864D03*
X005172Y025864D03*
X005175Y025866D03*
X005176Y025866D03*
X005178Y025866D03*
X005175Y025762D03*
X005179Y025986D03*
X005178Y025986D03*
X005176Y025986D03*
X005175Y025987D03*
X005067Y025987D03*
X005065Y025986D03*
X005064Y025986D03*
X005062Y025986D03*
X005557Y024906D03*
X005565Y024385D03*
X006906Y024112D03*
D41*
X005143Y024398D03*
X004993Y025927D03*
D42*
X004993Y025700D03*
D43*
X004993Y025475D03*
X006913Y024112D03*
X005143Y023543D03*
D44*
X005308Y024940D03*
X004993Y024961D03*
D45*
X004993Y024832D03*
X004993Y024621D03*
X004993Y024532D03*
X004993Y023763D03*
X004993Y023676D03*
D46*
X004993Y024245D03*
X004993Y024680D03*
X005188Y024938D03*
D47*
X005173Y025186D03*
X005173Y025536D03*
X005173Y025638D03*
X005173Y025762D03*
X005173Y025864D03*
X005068Y025864D03*
X005068Y025987D03*
X005173Y025987D03*
X005068Y025536D03*
X004993Y024072D03*
X004993Y023989D03*
D48*
X004993Y023824D03*
D49*
X004993Y023387D03*
X005188Y025303D03*
X005188Y025529D03*
X005053Y025759D03*
X005188Y025871D03*
D50*
X004995Y025927D03*
X005055Y023947D03*
X005056Y023947D03*
X005058Y023947D03*
X005059Y023947D03*
X005061Y023947D03*
X005062Y023947D03*
X005064Y023947D03*
X005065Y023947D03*
X005067Y023947D03*
X005070Y023947D03*
X005071Y023947D03*
X005073Y023947D03*
X005074Y023947D03*
X005076Y023947D03*
X005077Y023947D03*
X005079Y023947D03*
X005080Y023947D03*
X005082Y023947D03*
X005085Y023947D03*
X005086Y023947D03*
X005088Y023947D03*
X005089Y023947D03*
X005091Y023947D03*
X005092Y023947D03*
X005094Y023947D03*
X005095Y023947D03*
X005097Y023947D03*
X005100Y023947D03*
X005101Y023947D03*
X005103Y023947D03*
X005104Y023947D03*
X005106Y023947D03*
X005107Y023947D03*
X005109Y023947D03*
X005110Y023947D03*
X005112Y023947D03*
X005115Y023947D03*
X005116Y023947D03*
X005118Y023947D03*
X005119Y023947D03*
X005121Y023947D03*
X005122Y023947D03*
X005124Y023947D03*
X005125Y023947D03*
X005127Y023947D03*
X005130Y023947D03*
X005131Y023947D03*
X005133Y023947D03*
X005134Y023947D03*
X005136Y023947D03*
X005137Y023947D03*
X005139Y023947D03*
X005140Y023947D03*
X005142Y023947D03*
X005145Y023947D03*
X005146Y023947D03*
X005148Y023947D03*
X005149Y023947D03*
X005151Y023947D03*
X005152Y023947D03*
X005154Y023947D03*
X005155Y023947D03*
X005157Y023947D03*
X005160Y023947D03*
X005161Y023947D03*
X005163Y023947D03*
X005164Y023947D03*
X005166Y023947D03*
X005167Y023947D03*
X005169Y023947D03*
X005170Y023947D03*
X005172Y023947D03*
X005175Y023947D03*
X005176Y023947D03*
X005178Y023947D03*
X005179Y023947D03*
X005181Y023947D03*
X005182Y023947D03*
X005184Y023947D03*
X005185Y023947D03*
X005187Y023947D03*
X005190Y023947D03*
X005191Y023947D03*
X005193Y023947D03*
X005194Y023947D03*
X005196Y023947D03*
X005197Y023947D03*
X005199Y023947D03*
X005200Y023947D03*
X005202Y023947D03*
X005205Y023947D03*
X005206Y023947D03*
X005208Y023947D03*
X005209Y023947D03*
X005211Y023947D03*
X005212Y023947D03*
D51*
X005214Y024029D03*
X005214Y024113D03*
X005212Y024113D03*
X005211Y024113D03*
X005148Y023881D03*
X005152Y023753D03*
X005154Y023753D03*
X005155Y023753D03*
X005157Y023753D03*
X005100Y023753D03*
X005097Y023753D03*
X005095Y023753D03*
X005094Y023753D03*
X005092Y023753D03*
X005091Y023753D03*
X005089Y023753D03*
X005088Y023753D03*
X005086Y023753D03*
X005085Y023753D03*
X005082Y023753D03*
X005080Y023753D03*
X005079Y023753D03*
X005077Y023753D03*
X005076Y023753D03*
X005074Y023753D03*
X005073Y023753D03*
X005071Y023753D03*
X005070Y023753D03*
X005067Y023753D03*
X005065Y023753D03*
X005064Y023753D03*
X005062Y023753D03*
X005061Y023753D03*
X005059Y023753D03*
X005058Y023753D03*
X005056Y023753D03*
X005055Y023753D03*
X005052Y023753D03*
X005050Y023753D03*
X005049Y023753D03*
X005047Y023753D03*
X005046Y023753D03*
X005044Y023753D03*
X005043Y023753D03*
X005041Y023753D03*
X005040Y023753D03*
X005037Y023753D03*
X005035Y023753D03*
X005034Y023753D03*
X005032Y023753D03*
X005031Y023753D03*
X005029Y023753D03*
X005028Y023753D03*
X005026Y023753D03*
X005025Y023753D03*
X005022Y023753D03*
X005020Y023753D03*
X005019Y023753D03*
X005017Y023753D03*
X005016Y023753D03*
X005014Y023753D03*
X005013Y023753D03*
X005011Y023753D03*
X005010Y023753D03*
X005011Y023666D03*
X005010Y023666D03*
X005013Y023666D03*
X005014Y023666D03*
X005016Y023666D03*
X005017Y023666D03*
X005019Y023666D03*
X005020Y023666D03*
X005022Y023666D03*
X005025Y023666D03*
X005026Y023666D03*
X005028Y023666D03*
X005029Y023666D03*
X005031Y023666D03*
X005032Y023666D03*
X005034Y023666D03*
X005035Y023666D03*
X005037Y023666D03*
X005040Y023666D03*
X005041Y023666D03*
X005043Y023666D03*
X005044Y023666D03*
X005046Y023666D03*
X005047Y023666D03*
X005049Y023666D03*
X005050Y023666D03*
X005052Y023666D03*
X005055Y023666D03*
X005056Y023666D03*
X005058Y023666D03*
X005059Y023666D03*
X005061Y023666D03*
X005062Y023666D03*
X005064Y023666D03*
X005065Y023666D03*
X005067Y023666D03*
X005070Y023666D03*
X005071Y023666D03*
X005073Y023666D03*
X005074Y023666D03*
X005076Y023666D03*
X005077Y023666D03*
X005079Y023666D03*
X005080Y023666D03*
X005082Y023666D03*
X005085Y023666D03*
X005086Y023666D03*
X005088Y023666D03*
X005089Y023666D03*
X005091Y023666D03*
X005092Y023666D03*
X005094Y023666D03*
X005095Y023666D03*
X005097Y023666D03*
X005100Y023666D03*
X005101Y023666D03*
X005103Y023666D03*
X005104Y023666D03*
X005106Y023666D03*
X005107Y023666D03*
X005109Y023666D03*
X005110Y023666D03*
X005112Y023666D03*
X005115Y023666D03*
X005116Y023666D03*
X005118Y023666D03*
X005119Y023666D03*
X005121Y023666D03*
X005122Y023666D03*
X005124Y023666D03*
X005125Y023666D03*
X005127Y023666D03*
X005130Y023666D03*
X005131Y023666D03*
X005133Y023666D03*
X005134Y023666D03*
X005136Y023666D03*
X005137Y023666D03*
X005139Y023666D03*
X005140Y023666D03*
X005142Y023666D03*
X005145Y023666D03*
X005146Y023666D03*
X005148Y023666D03*
X005149Y023666D03*
X005151Y023666D03*
X005152Y023666D03*
X005154Y023666D03*
X005160Y023665D03*
X005148Y023540D03*
X005007Y023666D03*
X005005Y023666D03*
X005073Y023323D03*
X005074Y023323D03*
X005151Y024395D03*
X005152Y024395D03*
X005154Y024395D03*
X005005Y024523D03*
X005145Y024737D03*
X005146Y024737D03*
X005148Y024737D03*
X005155Y024736D03*
X005157Y024736D03*
X005148Y024823D03*
X005146Y024823D03*
X005145Y024823D03*
X005142Y024823D03*
X005140Y024823D03*
X005139Y024823D03*
X005137Y024823D03*
X005136Y024823D03*
X005134Y024823D03*
X005133Y024823D03*
X005131Y024823D03*
X005130Y024823D03*
X005127Y024823D03*
X005125Y024823D03*
X005124Y024823D03*
X005122Y024823D03*
X005121Y024823D03*
X005119Y024823D03*
X005118Y024823D03*
X005116Y024823D03*
X005115Y024823D03*
X005112Y024823D03*
X005110Y024823D03*
X005109Y024823D03*
X005107Y024823D03*
X005106Y024823D03*
X005104Y024823D03*
X005103Y024823D03*
X005101Y024823D03*
X005100Y024823D03*
X005097Y024823D03*
X005095Y024823D03*
X005094Y024823D03*
X005092Y024823D03*
X005091Y024823D03*
X005089Y024823D03*
X005088Y024823D03*
X005086Y024823D03*
X005085Y024823D03*
X005082Y024823D03*
X005080Y024823D03*
X005079Y024823D03*
X005077Y024823D03*
X005076Y024823D03*
X005074Y024823D03*
X005073Y024823D03*
X005071Y024823D03*
X005070Y024823D03*
X005067Y024823D03*
X005065Y024823D03*
X005064Y024823D03*
X005062Y024823D03*
X005061Y024823D03*
X005059Y024823D03*
X005058Y024823D03*
X005056Y024823D03*
X005055Y024823D03*
X005052Y024823D03*
X005050Y024823D03*
X005049Y024823D03*
X005047Y024823D03*
X005046Y024823D03*
X005044Y024823D03*
X005043Y024823D03*
X005041Y024823D03*
X005040Y024823D03*
X005037Y024823D03*
X005035Y024823D03*
X005034Y024823D03*
X005032Y024823D03*
X005031Y024823D03*
X005029Y024823D03*
X005028Y024823D03*
X005026Y024823D03*
X005025Y024823D03*
X005022Y024823D03*
X005020Y024823D03*
X005019Y024823D03*
X005017Y024823D03*
X005016Y024823D03*
X005014Y024823D03*
X005011Y024950D03*
X005010Y024950D03*
X005007Y024950D03*
X005005Y024950D03*
X005296Y024949D03*
X005092Y025406D03*
X004995Y025475D03*
X004995Y025700D03*
D52*
X005464Y025214D03*
X004995Y024961D03*
X005224Y024104D03*
D53*
X005194Y024281D03*
X005194Y024421D03*
X005137Y024620D03*
X005193Y024632D03*
X004995Y024680D03*
X005224Y024886D03*
X005191Y025198D03*
X005193Y025199D03*
X005191Y025300D03*
X005190Y025421D03*
X005191Y025423D03*
X005191Y025526D03*
X005046Y025426D03*
X005044Y025427D03*
X005047Y025649D03*
X005050Y025757D03*
X005047Y025978D03*
X005049Y025979D03*
X005191Y025979D03*
X005479Y025213D03*
X005560Y024911D03*
X005569Y024380D03*
X005085Y023860D03*
X004995Y023824D03*
X005082Y023440D03*
X005026Y023428D03*
X005025Y023351D03*
X005194Y023426D03*
X005224Y023389D03*
D54*
X005196Y023424D03*
X005194Y023350D03*
X004995Y023388D03*
X005194Y023640D03*
X005194Y023779D03*
X005224Y023815D03*
X005196Y023850D03*
X005136Y023767D03*
X005086Y023859D03*
X004998Y023989D03*
X004998Y024072D03*
X004995Y024244D03*
X005190Y024193D03*
X005224Y024244D03*
X005196Y024279D03*
X005194Y024634D03*
X005224Y024672D03*
X005085Y024717D03*
X005194Y025200D03*
X005239Y025249D03*
X005193Y025299D03*
X005085Y025530D03*
X005047Y025527D03*
X004999Y025474D03*
X005046Y025650D03*
X005193Y025650D03*
X005194Y025651D03*
X005239Y025699D03*
X005194Y025749D03*
X005193Y025750D03*
X005193Y025876D03*
X005193Y025977D03*
X005047Y025875D03*
X006895Y025203D03*
X005497Y024076D03*
D55*
X005191Y024286D03*
X004995Y024072D03*
X005080Y023866D03*
X005028Y023431D03*
X005190Y024627D03*
X005185Y025305D03*
X005184Y025305D03*
X005182Y025306D03*
X005181Y025306D03*
D56*
X005241Y025249D03*
X005182Y025191D03*
X005179Y025189D03*
X005179Y025416D03*
X005161Y025416D03*
X005058Y025416D03*
X005055Y025417D03*
X005056Y025533D03*
X005058Y025642D03*
X005056Y025642D03*
X005055Y025644D03*
X004998Y025701D03*
X004999Y025761D03*
X005061Y025761D03*
X005058Y025867D03*
X005058Y025984D03*
X005184Y025984D03*
X005185Y025983D03*
X005181Y025867D03*
X005179Y025759D03*
X005182Y025758D03*
X005184Y025644D03*
X005185Y025644D03*
X005181Y025642D03*
X005182Y025533D03*
X005185Y024940D03*
X005191Y024844D03*
X005191Y024714D03*
X005566Y024384D03*
X005184Y024189D03*
X004995Y023989D03*
X005191Y023857D03*
D57*
X005224Y024020D03*
X005229Y024245D03*
X005140Y024401D03*
X005229Y024460D03*
X005137Y024745D03*
X004996Y024832D03*
X005545Y024896D03*
X004995Y023762D03*
X004995Y023675D03*
X005082Y023315D03*
D58*
X005050Y023329D03*
X005047Y023330D03*
X005046Y023330D03*
X005044Y023330D03*
X005041Y023332D03*
X005050Y023449D03*
X005052Y023449D03*
X005055Y023450D03*
X005056Y023450D03*
X005058Y023450D03*
X005070Y023450D03*
X005118Y023450D03*
X005119Y023450D03*
X005161Y023450D03*
X005163Y023450D03*
X005169Y023449D03*
X005170Y023449D03*
X005166Y023540D03*
X005164Y023540D03*
X005163Y023540D03*
X005169Y023542D03*
X005170Y023542D03*
X005172Y023542D03*
X005172Y023660D03*
X005176Y023872D03*
X005043Y023950D03*
X005041Y023950D03*
X005040Y023950D03*
X005040Y024110D03*
X005037Y024110D03*
X005035Y024110D03*
X005047Y024185D03*
X005046Y024187D03*
X005170Y024400D03*
X005172Y024400D03*
X005172Y024518D03*
X005170Y024518D03*
X005167Y024520D03*
X005166Y024520D03*
X005164Y024520D03*
X005160Y024610D03*
X005149Y024610D03*
X005101Y024610D03*
X005100Y024610D03*
X005175Y024730D03*
X005172Y024829D03*
X005176Y024830D03*
X005553Y024904D03*
X005244Y025249D03*
X005007Y025190D03*
X004996Y025475D03*
X005169Y023329D03*
X005170Y023329D03*
D59*
X005223Y024104D03*
X004996Y024959D03*
D60*
X005088Y024712D03*
X004996Y024681D03*
X005136Y024622D03*
X005196Y024637D03*
X005196Y025296D03*
X005194Y025297D03*
X005044Y025522D03*
X005197Y025747D03*
X005041Y025881D03*
X005197Y025972D03*
X005224Y023602D03*
D61*
X005140Y023546D03*
X004998Y023674D03*
X005221Y024022D03*
X004996Y024619D03*
X004998Y024830D03*
X005307Y024943D03*
X004999Y025324D03*
D62*
X005197Y025294D03*
X005197Y025429D03*
X005197Y025654D03*
X005041Y025654D03*
X005041Y025971D03*
X005089Y024709D03*
X005134Y024624D03*
X005221Y024244D03*
X004996Y024244D03*
X004999Y023989D03*
X005089Y023854D03*
X005223Y023602D03*
X005086Y023436D03*
D63*
X005082Y023863D03*
X005194Y023852D03*
X004996Y023989D03*
X005029Y024031D03*
X004996Y024073D03*
X005496Y024076D03*
X005190Y025196D03*
X005190Y025301D03*
X005187Y025420D03*
X005049Y025421D03*
X005050Y025529D03*
X005052Y025531D03*
X005082Y025532D03*
X005055Y025759D03*
X005052Y025871D03*
X005052Y025981D03*
X005190Y025873D03*
X005190Y025753D03*
D64*
X005196Y025653D03*
X005043Y025653D03*
X005086Y025528D03*
X005194Y025426D03*
X005197Y025203D03*
X005191Y024934D03*
X005562Y024912D03*
X005223Y024244D03*
X005223Y023815D03*
X005134Y023769D03*
X004996Y023824D03*
X006894Y025203D03*
X005196Y025879D03*
X005196Y025974D03*
X005043Y025879D03*
D65*
X005223Y024672D03*
X005572Y024378D03*
X005133Y023770D03*
X004996Y023388D03*
X005137Y023340D03*
X006892Y025203D03*
D66*
X005544Y024896D03*
X005229Y024887D03*
X005136Y024746D03*
X004998Y025325D03*
X005136Y023891D03*
X005229Y023816D03*
D67*
X005224Y023938D03*
X005139Y023548D03*
X004998Y025198D03*
D68*
X004998Y024958D03*
X005547Y024898D03*
X004998Y023760D03*
D69*
X005085Y023437D03*
X005025Y023423D03*
X005223Y024458D03*
X004998Y024682D03*
X005040Y025432D03*
X005041Y025520D03*
X005043Y025522D03*
X005197Y025520D03*
X005197Y025882D03*
X005043Y025973D03*
D70*
X004999Y025196D03*
X005026Y024665D03*
X004998Y024617D03*
X005142Y024400D03*
X005220Y024023D03*
X005554Y024394D03*
D71*
X005193Y024199D03*
X004998Y024244D03*
X005131Y024626D03*
X004999Y024683D03*
X004999Y023827D03*
X005221Y023603D03*
X005136Y023342D03*
X004998Y023389D03*
X005199Y025658D03*
X005043Y025751D03*
D72*
X005040Y025883D03*
X005199Y025744D03*
X004998Y023825D03*
X005221Y023389D03*
D73*
X005196Y023782D03*
X005088Y023857D03*
X005196Y025522D03*
X005239Y025927D03*
X004999Y025927D03*
D74*
X005044Y025879D03*
X005046Y025877D03*
X005046Y025976D03*
X005194Y025976D03*
X005194Y025879D03*
X005196Y025748D03*
X005049Y025756D03*
X004999Y025700D03*
X005044Y025652D03*
X005046Y025525D03*
X005041Y025430D03*
X005043Y025429D03*
X005193Y025424D03*
X005239Y025475D03*
X005194Y025523D03*
X005193Y025525D03*
X005196Y025201D03*
X005196Y024851D03*
X005196Y024707D03*
X005086Y024715D03*
X005194Y024496D03*
X005224Y024458D03*
X005196Y024422D03*
X005025Y024280D03*
X005025Y024208D03*
X005028Y024031D03*
X005196Y023638D03*
X005194Y023564D03*
X005196Y023353D03*
X005139Y023338D03*
X006900Y024113D03*
D75*
X005304Y024944D03*
X004999Y024956D03*
X004999Y024616D03*
X005467Y025214D03*
X004999Y023758D03*
D76*
X005004Y023830D03*
X004999Y024244D03*
X005002Y024686D03*
X005092Y025520D03*
X006888Y025202D03*
D77*
X005481Y025213D03*
X005196Y025427D03*
X005157Y025423D03*
X005088Y025528D03*
X005047Y025754D03*
X005044Y025975D03*
X005223Y024886D03*
X005196Y024493D03*
X005191Y024196D03*
X004999Y024073D03*
X005196Y023567D03*
X005223Y023389D03*
X005499Y024077D03*
X005571Y024379D03*
D78*
X004999Y023671D03*
D79*
X005097Y023842D03*
X005095Y023843D03*
X005001Y023992D03*
X004999Y023389D03*
X005130Y023348D03*
X005097Y024698D03*
X005095Y024700D03*
X005568Y024917D03*
X005487Y025213D03*
X005149Y025429D03*
D80*
X005151Y025427D03*
X005238Y025475D03*
X005238Y025250D03*
X005485Y025213D03*
X005238Y025700D03*
X005041Y025750D03*
X005001Y025927D03*
X005238Y025927D03*
X005220Y024458D03*
X005220Y024245D03*
X005194Y024200D03*
X005001Y024071D03*
X005026Y024031D03*
X005220Y023816D03*
X005220Y023389D03*
X005133Y023345D03*
X005131Y023347D03*
D81*
X005017Y024244D03*
X005217Y024904D03*
X005220Y025249D03*
X005505Y025209D03*
X005001Y025725D03*
X006870Y025200D03*
X006877Y024117D03*
D82*
X006897Y024114D03*
X005502Y024078D03*
X005089Y023433D03*
X005134Y023344D03*
X005001Y025474D03*
X005199Y025885D03*
D83*
X005001Y025321D03*
X005484Y024075D03*
D84*
X005302Y024176D03*
X005142Y023884D03*
X005001Y023756D03*
X005001Y024526D03*
X005001Y024826D03*
X005302Y024946D03*
X005245Y025247D03*
X005001Y025195D03*
D85*
X005001Y024953D03*
X005146Y024397D03*
D86*
X005130Y024628D03*
X005094Y024702D03*
X005001Y024684D03*
X005220Y024672D03*
X005196Y024928D03*
X005091Y025522D03*
X005577Y024375D03*
X005092Y023847D03*
X005094Y023845D03*
X005001Y023829D03*
X005220Y023602D03*
X006895Y024114D03*
X006889Y025203D03*
D87*
X005490Y025211D03*
X005235Y025249D03*
X005097Y025517D03*
X005010Y024692D03*
X005103Y024685D03*
X005001Y024244D03*
X005010Y023834D03*
X005001Y023389D03*
X005115Y023380D03*
X005508Y024079D03*
D88*
X005485Y024075D03*
X005301Y024177D03*
X005217Y024027D03*
X005217Y023944D03*
X005001Y023668D03*
X005077Y023320D03*
X005557Y024391D03*
X005301Y024946D03*
X005002Y024825D03*
X005095Y025404D03*
D89*
X005094Y025519D03*
X005002Y025474D03*
X005236Y025249D03*
X005236Y025701D03*
X005002Y025926D03*
X005569Y024919D03*
X005506Y024078D03*
X005127Y023778D03*
X005005Y023830D03*
X006892Y024114D03*
D90*
X006876Y024117D03*
X005199Y023815D03*
X005020Y023388D03*
X005215Y024903D03*
X005002Y025723D03*
D91*
X005002Y025321D03*
X005002Y025193D03*
X005004Y024824D03*
X005142Y024739D03*
X005002Y024524D03*
X005299Y024947D03*
X005469Y025214D03*
X005215Y023945D03*
X005002Y023755D03*
X006907Y025205D03*
D92*
X005148Y024397D03*
X005217Y024112D03*
X005146Y023542D03*
X005002Y024952D03*
D93*
X005013Y024949D03*
X005014Y024949D03*
X005016Y024949D03*
X005017Y024949D03*
X005019Y024949D03*
X005020Y024949D03*
X005022Y024949D03*
X005025Y024949D03*
X005026Y024949D03*
X005028Y024949D03*
X005029Y024949D03*
X005031Y024949D03*
X005032Y024949D03*
X005034Y024949D03*
X005035Y024949D03*
X005037Y024949D03*
X005040Y024949D03*
X005041Y024949D03*
X005043Y024949D03*
X005044Y024949D03*
X005046Y024949D03*
X005047Y024949D03*
X005049Y024949D03*
X005050Y024949D03*
X005052Y024949D03*
X005055Y024949D03*
X005056Y024949D03*
X005058Y024949D03*
X005059Y024949D03*
X005061Y024949D03*
X005062Y024949D03*
X005064Y024949D03*
X005065Y024949D03*
X005067Y024949D03*
X005070Y024949D03*
X005071Y024949D03*
X005073Y024949D03*
X005074Y024949D03*
X005076Y024949D03*
X005077Y024949D03*
X005079Y024949D03*
X005080Y024949D03*
X005082Y024949D03*
X005085Y024949D03*
X005086Y024949D03*
X005088Y024949D03*
X005089Y024949D03*
X005091Y024949D03*
X005092Y024949D03*
X005094Y024949D03*
X005095Y024949D03*
X005097Y024949D03*
X005100Y024949D03*
X005101Y024949D03*
X005103Y024949D03*
X005104Y024949D03*
X005106Y024949D03*
X005107Y024949D03*
X005109Y024949D03*
X005110Y024949D03*
X005112Y024949D03*
X005115Y024949D03*
X005116Y024949D03*
X005118Y024949D03*
X005119Y024949D03*
X005121Y024949D03*
X005122Y024949D03*
X005124Y024949D03*
X005125Y024949D03*
X005127Y024949D03*
X005130Y024949D03*
X005131Y024949D03*
X005133Y024949D03*
X005134Y024949D03*
X005136Y024949D03*
X005137Y024949D03*
X005139Y024949D03*
X005140Y024949D03*
X005142Y024949D03*
X005145Y024949D03*
X005146Y024949D03*
X005148Y024949D03*
X005149Y024949D03*
X005151Y024949D03*
X005152Y024949D03*
X005224Y024949D03*
X005226Y024949D03*
X005227Y024949D03*
X005229Y024949D03*
X005230Y024949D03*
X005232Y024949D03*
X005235Y024949D03*
X005236Y024949D03*
X005238Y024949D03*
X005239Y024949D03*
X005241Y024949D03*
X005242Y024949D03*
X005244Y024949D03*
X005245Y024949D03*
X005247Y024949D03*
X005250Y024949D03*
X005251Y024949D03*
X005253Y024949D03*
X005254Y024949D03*
X005256Y024949D03*
X005257Y024949D03*
X005259Y024949D03*
X005260Y024949D03*
X005262Y024949D03*
X005265Y024949D03*
X005266Y024949D03*
X005268Y024949D03*
X005269Y024949D03*
X005271Y024949D03*
X005272Y024949D03*
X005274Y024949D03*
X005275Y024949D03*
X005277Y024949D03*
X005280Y024949D03*
X005281Y024949D03*
X005283Y024949D03*
X005284Y024949D03*
X005286Y024949D03*
X005287Y024949D03*
X005290Y024949D03*
X005292Y024949D03*
X005295Y024949D03*
X005164Y024825D03*
X005160Y024823D03*
X005157Y024823D03*
X005155Y024823D03*
X005154Y024823D03*
X005152Y024823D03*
X005151Y024823D03*
X005149Y024823D03*
X005151Y024736D03*
X005152Y024736D03*
X005154Y024736D03*
X005149Y024736D03*
X005160Y024735D03*
X005161Y024735D03*
X005163Y024733D03*
X005164Y024733D03*
X005056Y024736D03*
X005055Y024736D03*
X005052Y024736D03*
X005002Y024610D03*
X005007Y024522D03*
X005010Y024522D03*
X005155Y024394D03*
X005157Y024394D03*
X005298Y024180D03*
X005209Y024114D03*
X005208Y024114D03*
X005206Y024114D03*
X005205Y024114D03*
X005202Y024114D03*
X005200Y024114D03*
X005199Y024114D03*
X005197Y024114D03*
X005196Y024114D03*
X005194Y024114D03*
X005193Y024114D03*
X005191Y024114D03*
X005190Y024114D03*
X005187Y024114D03*
X005185Y024114D03*
X005184Y024114D03*
X005182Y024114D03*
X005181Y024114D03*
X005179Y024114D03*
X005178Y024114D03*
X005176Y024114D03*
X005175Y024114D03*
X005172Y024114D03*
X005170Y024114D03*
X005169Y024114D03*
X005167Y024114D03*
X005166Y024114D03*
X005164Y024114D03*
X005163Y024114D03*
X005161Y024114D03*
X005160Y024114D03*
X005157Y024114D03*
X005155Y024114D03*
X005154Y024114D03*
X005152Y024114D03*
X005151Y024114D03*
X005149Y024114D03*
X005148Y024114D03*
X005146Y024114D03*
X005145Y024114D03*
X005142Y024114D03*
X005140Y024114D03*
X005139Y024114D03*
X005137Y024114D03*
X005136Y024114D03*
X005134Y024114D03*
X005133Y024114D03*
X005131Y024114D03*
X005130Y024114D03*
X005127Y024114D03*
X005125Y024114D03*
X005124Y024114D03*
X005122Y024114D03*
X005121Y024114D03*
X005119Y024114D03*
X005118Y024114D03*
X005116Y024114D03*
X005115Y024114D03*
X005112Y024114D03*
X005110Y024114D03*
X005109Y024114D03*
X005107Y024114D03*
X005106Y024114D03*
X005104Y024114D03*
X005103Y024114D03*
X005101Y024114D03*
X005100Y024114D03*
X005097Y024114D03*
X005095Y024114D03*
X005094Y024114D03*
X005092Y024114D03*
X005091Y024114D03*
X005089Y024114D03*
X005088Y024114D03*
X005086Y024114D03*
X005085Y024114D03*
X005082Y024114D03*
X005080Y024114D03*
X005079Y024114D03*
X005077Y024114D03*
X005076Y024114D03*
X005074Y024114D03*
X005073Y024114D03*
X005071Y024114D03*
X005070Y024114D03*
X005067Y024114D03*
X005065Y024114D03*
X005064Y024114D03*
X005062Y024114D03*
X005061Y024114D03*
X005059Y024114D03*
X005058Y024114D03*
X005056Y024114D03*
X005055Y024114D03*
X005052Y024114D03*
X005119Y024030D03*
X005121Y024030D03*
X005122Y024030D03*
X005124Y024030D03*
X005125Y024030D03*
X005127Y024030D03*
X005130Y024030D03*
X005131Y024030D03*
X005133Y024030D03*
X005134Y024030D03*
X005136Y024030D03*
X005137Y024030D03*
X005139Y024030D03*
X005140Y024030D03*
X005142Y024030D03*
X005145Y024030D03*
X005146Y024030D03*
X005148Y024030D03*
X005149Y024030D03*
X005151Y024030D03*
X005152Y024030D03*
X005154Y024030D03*
X005155Y024030D03*
X005157Y024030D03*
X005160Y024030D03*
X005161Y024030D03*
X005163Y024030D03*
X005164Y024030D03*
X005166Y024030D03*
X005167Y024030D03*
X005169Y024030D03*
X005170Y024030D03*
X005172Y024030D03*
X005175Y024030D03*
X005176Y024030D03*
X005178Y024030D03*
X005179Y024030D03*
X005181Y024030D03*
X005182Y024030D03*
X005184Y024030D03*
X005185Y024030D03*
X005187Y024030D03*
X005190Y024030D03*
X005191Y024030D03*
X005193Y024030D03*
X005194Y024030D03*
X005196Y024030D03*
X005197Y024030D03*
X005199Y024030D03*
X005200Y024030D03*
X005202Y024030D03*
X005205Y024030D03*
X005206Y024030D03*
X005208Y024030D03*
X005209Y024030D03*
X005211Y024030D03*
X005212Y024030D03*
X005151Y023880D03*
X005149Y023880D03*
X005151Y023754D03*
X005149Y023754D03*
X005160Y023754D03*
X005161Y023754D03*
X005163Y023754D03*
X005104Y023754D03*
X005103Y023754D03*
X005101Y023754D03*
X005155Y023665D03*
X005157Y023665D03*
X005161Y023664D03*
X005163Y023664D03*
X005151Y023539D03*
X005149Y023539D03*
X005161Y023326D03*
X005157Y023325D03*
X005155Y023325D03*
X005071Y023323D03*
X005070Y023323D03*
X005067Y023323D03*
X005065Y023323D03*
X005064Y023323D03*
X005062Y023325D03*
X005061Y023325D03*
X005059Y023325D03*
X005056Y023326D03*
X005551Y024903D03*
X005091Y025407D03*
X005004Y025320D03*
X005244Y025474D03*
X006906Y025204D03*
D94*
X005574Y024922D03*
X005217Y024672D03*
X005124Y024636D03*
X005017Y024696D03*
X005217Y024459D03*
X005002Y024244D03*
X005016Y023838D03*
X005122Y023782D03*
X005509Y024079D03*
X005217Y023388D03*
X005145Y025435D03*
D95*
X005031Y025708D03*
X007098Y024662D03*
X005002Y024031D03*
D96*
X005002Y023829D03*
X005196Y024202D03*
X005505Y024078D03*
X006894Y024114D03*
X005040Y025747D03*
D97*
X005100Y025514D03*
X005007Y025475D03*
X005491Y025211D03*
X005575Y024923D03*
X005583Y024370D03*
X005025Y023845D03*
X005022Y023843D03*
X005019Y023840D03*
X005017Y023839D03*
X005002Y023389D03*
X006882Y025202D03*
D98*
X005571Y024922D03*
X005004Y025475D03*
X005235Y025700D03*
X005004Y025927D03*
X005125Y023780D03*
D99*
X005197Y024672D03*
X005212Y024901D03*
X005004Y025722D03*
X006874Y024117D03*
D100*
X005164Y024306D03*
X005163Y024306D03*
X005160Y024396D03*
X005061Y024307D03*
X005059Y024307D03*
X005056Y024306D03*
X005055Y024306D03*
X005050Y024112D03*
X005049Y024112D03*
X005052Y023947D03*
X005004Y025192D03*
D101*
X005004Y024687D03*
X005100Y024691D03*
X005100Y023835D03*
X005092Y023428D03*
D102*
X005055Y023327D03*
X005058Y023326D03*
X005154Y023324D03*
X005160Y023326D03*
X005163Y023327D03*
X005164Y023327D03*
X005154Y023539D03*
X005152Y023539D03*
X005148Y023755D03*
X005164Y023755D03*
X005166Y023755D03*
X005106Y023755D03*
X005152Y023879D03*
X005154Y023879D03*
X005155Y023879D03*
X005157Y023879D03*
X005163Y023878D03*
X005164Y023878D03*
X005166Y023878D03*
X005167Y023876D03*
X005169Y023876D03*
X005170Y023875D03*
X005118Y024031D03*
X005116Y024031D03*
X005115Y024031D03*
X005112Y024031D03*
X005110Y024031D03*
X005109Y024031D03*
X005107Y024031D03*
X005106Y024031D03*
X005104Y024031D03*
X005103Y024031D03*
X005097Y024031D03*
X005092Y024031D03*
X005091Y024031D03*
X005089Y024031D03*
X005086Y024031D03*
X005085Y024031D03*
X005082Y024031D03*
X005077Y024031D03*
X005074Y024031D03*
X005073Y024031D03*
X005071Y024031D03*
X005067Y024031D03*
X005062Y024031D03*
X005061Y024031D03*
X005059Y024031D03*
X005058Y024031D03*
X005056Y024031D03*
X005055Y024031D03*
X005067Y024181D03*
X005070Y024181D03*
X005071Y024181D03*
X005073Y024181D03*
X005076Y024181D03*
X005077Y024181D03*
X005080Y024181D03*
X005088Y024181D03*
X005089Y024181D03*
X005091Y024181D03*
X005092Y024181D03*
X005095Y024181D03*
X005100Y024181D03*
X005101Y024181D03*
X005103Y024181D03*
X005104Y024181D03*
X005106Y024181D03*
X005109Y024181D03*
X005110Y024181D03*
X005112Y024181D03*
X005116Y024181D03*
X005119Y024181D03*
X005121Y024181D03*
X005124Y024181D03*
X005127Y024181D03*
X005130Y024181D03*
X005131Y024181D03*
X005133Y024181D03*
X005134Y024181D03*
X005137Y024181D03*
X005139Y024181D03*
X005140Y024181D03*
X005142Y024181D03*
X005146Y024181D03*
X005148Y024181D03*
X005149Y024181D03*
X005151Y024181D03*
X005236Y024181D03*
X005238Y024181D03*
X005239Y024181D03*
X005241Y024181D03*
X005244Y024181D03*
X005245Y024181D03*
X005250Y024181D03*
X005253Y024181D03*
X005257Y024181D03*
X005259Y024181D03*
X005262Y024181D03*
X005265Y024181D03*
X005268Y024181D03*
X005269Y024181D03*
X005271Y024181D03*
X005274Y024181D03*
X005277Y024181D03*
X005280Y024181D03*
X005281Y024181D03*
X005283Y024181D03*
X005295Y024181D03*
X005296Y024181D03*
X005167Y024304D03*
X005050Y024304D03*
X005055Y024182D03*
X005059Y024521D03*
X005058Y024521D03*
X005056Y024521D03*
X005055Y024521D03*
X005052Y024521D03*
X005050Y024521D03*
X005049Y024521D03*
X005047Y024521D03*
X005046Y024521D03*
X005044Y024521D03*
X005043Y024521D03*
X005041Y024521D03*
X005040Y024521D03*
X005037Y024521D03*
X005035Y024521D03*
X005034Y024521D03*
X005032Y024521D03*
X005031Y024521D03*
X005029Y024521D03*
X005028Y024521D03*
X005026Y024521D03*
X005025Y024521D03*
X005022Y024521D03*
X005020Y024521D03*
X005019Y024521D03*
X005017Y024521D03*
X005016Y024521D03*
X005014Y024521D03*
X005013Y024521D03*
X005011Y024521D03*
X005061Y024521D03*
X005062Y024521D03*
X005064Y024521D03*
X005065Y024521D03*
X005067Y024521D03*
X005070Y024521D03*
X005071Y024521D03*
X005073Y024521D03*
X005074Y024521D03*
X005076Y024521D03*
X005077Y024521D03*
X005079Y024521D03*
X005080Y024521D03*
X005082Y024521D03*
X005085Y024521D03*
X005086Y024521D03*
X005088Y024521D03*
X005089Y024521D03*
X005091Y024521D03*
X005092Y024521D03*
X005094Y024521D03*
X005095Y024521D03*
X005097Y024521D03*
X005100Y024521D03*
X005101Y024521D03*
X005103Y024521D03*
X005104Y024521D03*
X005106Y024521D03*
X005107Y024521D03*
X005109Y024521D03*
X005110Y024521D03*
X005112Y024521D03*
X005115Y024521D03*
X005116Y024521D03*
X005118Y024521D03*
X005119Y024521D03*
X005121Y024521D03*
X005122Y024521D03*
X005124Y024521D03*
X005125Y024521D03*
X005127Y024521D03*
X005130Y024521D03*
X005131Y024521D03*
X005133Y024521D03*
X005134Y024521D03*
X005136Y024521D03*
X005137Y024521D03*
X005139Y024521D03*
X005140Y024521D03*
X005142Y024521D03*
X005145Y024521D03*
X005146Y024521D03*
X005148Y024521D03*
X005149Y024521D03*
X005151Y024521D03*
X005152Y024521D03*
X005154Y024521D03*
X005005Y024610D03*
X005004Y024610D03*
X005049Y024736D03*
X005050Y024736D03*
X005058Y024736D03*
X005059Y024736D03*
X005166Y024733D03*
X005163Y024824D03*
X005161Y024824D03*
X005166Y024826D03*
X005163Y024949D03*
X005161Y024949D03*
X005160Y024949D03*
X005157Y024949D03*
X005155Y024949D03*
X005154Y024949D03*
X005223Y024949D03*
X005470Y025214D03*
X005559Y024389D03*
D103*
X005511Y024079D03*
X005004Y024244D03*
X005577Y024925D03*
X005493Y025211D03*
X005142Y025438D03*
X007099Y024673D03*
X006888Y024115D03*
X005215Y023389D03*
X005004Y023389D03*
D104*
X005004Y024031D03*
D105*
X005005Y025927D03*
D106*
X005005Y025721D03*
X005217Y025702D03*
X005217Y025249D03*
X005508Y025208D03*
X005197Y024458D03*
X005212Y024229D03*
X005602Y024356D03*
X005197Y023387D03*
D107*
X005097Y023425D03*
X005107Y023821D03*
X005014Y023837D03*
X005013Y023836D03*
X005125Y024635D03*
X005106Y024680D03*
X005016Y024695D03*
X005014Y024695D03*
X005013Y024694D03*
X005005Y025475D03*
X006889Y024115D03*
D108*
X006910Y024112D03*
X005166Y024305D03*
X005161Y024307D03*
X005160Y024307D03*
X005157Y024308D03*
X005155Y024308D03*
X005154Y024308D03*
X005152Y024308D03*
X005151Y024308D03*
X005149Y024308D03*
X005070Y024308D03*
X005067Y024308D03*
X005065Y024308D03*
X005064Y024308D03*
X005062Y024308D03*
X005058Y024307D03*
X005052Y024305D03*
X005161Y024397D03*
X005163Y024397D03*
X005047Y024112D03*
X005046Y024112D03*
X005049Y023948D03*
X005050Y023948D03*
X005164Y023663D03*
X005166Y023663D03*
X005167Y023662D03*
X005289Y024950D03*
X005005Y025192D03*
D109*
X005005Y024688D03*
X005580Y024371D03*
X005007Y023831D03*
X005119Y023371D03*
X006886Y025202D03*
D110*
X005230Y025249D03*
X005230Y025927D03*
X005214Y024458D03*
X005005Y024244D03*
X005214Y023602D03*
X005214Y023389D03*
X005005Y023389D03*
D111*
X005005Y024031D03*
X005520Y025207D03*
D112*
X005019Y024697D03*
X005020Y023842D03*
X005217Y023602D03*
X005007Y025927D03*
D113*
X005007Y025720D03*
X005025Y025476D03*
X005118Y025494D03*
X005215Y025474D03*
X005592Y024936D03*
X005211Y024229D03*
X005527Y024082D03*
X006873Y024117D03*
D114*
X005223Y024182D03*
X005221Y024182D03*
X005167Y024182D03*
X005175Y024301D03*
X005172Y024302D03*
X005170Y024302D03*
X005047Y024302D03*
X005050Y024031D03*
X005049Y024031D03*
X005047Y024031D03*
X005046Y024031D03*
X005049Y023879D03*
X005050Y023879D03*
X005052Y023879D03*
X005055Y023879D03*
X005056Y023879D03*
X005058Y023879D03*
X005059Y023879D03*
X005061Y023879D03*
X005062Y023879D03*
X005064Y023879D03*
X005047Y023879D03*
X005046Y023879D03*
X005044Y023879D03*
X005041Y023878D03*
X005145Y023756D03*
X005172Y023758D03*
X005175Y023759D03*
X005172Y023447D03*
X005175Y023446D03*
X005151Y023326D03*
X005167Y024611D03*
X005166Y024611D03*
X005169Y024611D03*
X005170Y024613D03*
X005172Y024613D03*
X005172Y024731D03*
X005170Y024731D03*
X005169Y024827D03*
X005170Y024947D03*
X005169Y024947D03*
X005064Y024734D03*
X005065Y024733D03*
X005067Y024733D03*
X005044Y024734D03*
X005043Y024733D03*
X005041Y024733D03*
X005007Y025318D03*
X005088Y025409D03*
D115*
X005101Y024687D03*
X005127Y024633D03*
X005007Y024688D03*
X005101Y023830D03*
X005094Y023427D03*
X005121Y023365D03*
X005127Y023355D03*
D116*
X005049Y023329D03*
X005059Y023451D03*
X005061Y023451D03*
X005062Y023451D03*
X005064Y023451D03*
X005065Y023451D03*
X005067Y023451D03*
X005121Y023451D03*
X005122Y023451D03*
X005124Y023451D03*
X005125Y023451D03*
X005127Y023451D03*
X005130Y023451D03*
X005131Y023451D03*
X005133Y023451D03*
X005134Y023451D03*
X005136Y023451D03*
X005137Y023451D03*
X005139Y023451D03*
X005140Y023451D03*
X005142Y023451D03*
X005145Y023451D03*
X005146Y023451D03*
X005148Y023451D03*
X005149Y023451D03*
X005151Y023451D03*
X005152Y023451D03*
X005154Y023451D03*
X005155Y023451D03*
X005157Y023451D03*
X005160Y023451D03*
X005164Y023449D03*
X005166Y023449D03*
X005167Y023449D03*
X005161Y023539D03*
X005160Y023539D03*
X005157Y023539D03*
X005155Y023539D03*
X005167Y023541D03*
X005169Y023661D03*
X005170Y023661D03*
X005175Y023872D03*
X005172Y023874D03*
X005047Y023949D03*
X005046Y023949D03*
X005044Y023949D03*
X005044Y024111D03*
X005043Y024111D03*
X005041Y024111D03*
X005049Y024184D03*
X005050Y024184D03*
X005071Y024309D03*
X005073Y024309D03*
X005074Y024309D03*
X005076Y024309D03*
X005077Y024309D03*
X005079Y024309D03*
X005080Y024309D03*
X005082Y024309D03*
X005085Y024309D03*
X005086Y024309D03*
X005088Y024309D03*
X005089Y024309D03*
X005091Y024309D03*
X005092Y024309D03*
X005094Y024309D03*
X005095Y024309D03*
X005097Y024309D03*
X005100Y024309D03*
X005101Y024309D03*
X005103Y024309D03*
X005104Y024309D03*
X005106Y024309D03*
X005107Y024309D03*
X005109Y024309D03*
X005110Y024309D03*
X005112Y024309D03*
X005115Y024309D03*
X005116Y024309D03*
X005118Y024309D03*
X005119Y024309D03*
X005121Y024309D03*
X005122Y024309D03*
X005124Y024309D03*
X005125Y024309D03*
X005127Y024309D03*
X005130Y024309D03*
X005131Y024309D03*
X005133Y024309D03*
X005134Y024309D03*
X005136Y024309D03*
X005137Y024309D03*
X005139Y024309D03*
X005140Y024309D03*
X005142Y024309D03*
X005145Y024309D03*
X005146Y024309D03*
X005148Y024309D03*
X005164Y024397D03*
X005166Y024397D03*
X005167Y024399D03*
X005169Y024399D03*
X005169Y024519D03*
X005157Y024609D03*
X005155Y024609D03*
X005154Y024609D03*
X005152Y024609D03*
X005151Y024609D03*
X005097Y024609D03*
X005095Y024609D03*
X005094Y024609D03*
X005092Y024609D03*
X005091Y024609D03*
X005089Y024609D03*
X005088Y024609D03*
X005086Y024609D03*
X005085Y024609D03*
X005082Y024609D03*
X005080Y024609D03*
X005079Y024609D03*
X005077Y024609D03*
X005076Y024609D03*
X005074Y024609D03*
X005073Y024609D03*
X005071Y024609D03*
X005070Y024609D03*
X005067Y024609D03*
X005065Y024609D03*
X005064Y024609D03*
X005062Y024609D03*
X005061Y024609D03*
X005059Y024609D03*
X005058Y024609D03*
X005056Y024609D03*
X005055Y024609D03*
X005052Y024609D03*
X005050Y024609D03*
X005049Y024609D03*
X005047Y024609D03*
X005046Y024609D03*
X005044Y024609D03*
X005043Y024609D03*
X005041Y024609D03*
X005040Y024609D03*
X005037Y024609D03*
X005035Y024609D03*
X005034Y024609D03*
X005032Y024609D03*
X005031Y024609D03*
X005029Y024609D03*
X005028Y024609D03*
X005026Y024609D03*
X005025Y024609D03*
X005022Y024609D03*
X005020Y024609D03*
X005019Y024609D03*
X005017Y024609D03*
X005016Y024609D03*
X005014Y024609D03*
X005013Y024609D03*
X005011Y024609D03*
X005010Y024609D03*
X005007Y024609D03*
X005244Y025701D03*
X005244Y025926D03*
X006904Y025204D03*
D117*
X005229Y025700D03*
X005010Y025475D03*
X005212Y024458D03*
X005007Y024244D03*
X005514Y024080D03*
X005212Y023602D03*
X005212Y023389D03*
D118*
X005007Y024031D03*
X005541Y024085D03*
X005133Y025477D03*
D119*
X005496Y025210D03*
X005119Y024640D03*
X005587Y024367D03*
X005512Y024079D03*
X005212Y023815D03*
X005007Y023389D03*
X006886Y024115D03*
D120*
X005008Y025476D03*
X005008Y025926D03*
D121*
X005008Y025720D03*
X005593Y024937D03*
D122*
X005038Y024731D03*
X005038Y024191D03*
X005038Y023876D03*
X005038Y023441D03*
X005038Y023335D03*
X005008Y025189D03*
X005008Y025316D03*
D123*
X005008Y024950D03*
X005023Y024823D03*
X005038Y024823D03*
X005053Y024823D03*
X005068Y024823D03*
X005083Y024823D03*
X005098Y024823D03*
X005113Y024823D03*
X005128Y024823D03*
X005143Y024823D03*
X005158Y023753D03*
X005098Y023753D03*
X005083Y023753D03*
X005068Y023753D03*
X005053Y023753D03*
X005038Y023753D03*
X005023Y023753D03*
X005008Y023753D03*
X005008Y023666D03*
X005023Y023666D03*
X005038Y023666D03*
X005053Y023666D03*
X005068Y023666D03*
X005083Y023666D03*
X005098Y023666D03*
X005113Y023666D03*
X005128Y023666D03*
X005143Y023666D03*
D124*
X005143Y024738D03*
X005008Y024823D03*
D125*
X005008Y024690D03*
X005008Y023833D03*
D126*
X005158Y023539D03*
X005158Y023451D03*
X005143Y023451D03*
X005128Y023451D03*
X005053Y023449D03*
X005083Y024309D03*
X005098Y024309D03*
X005113Y024309D03*
X005128Y024309D03*
X005143Y024309D03*
X005158Y024609D03*
X005098Y024609D03*
X005083Y024609D03*
X005068Y024609D03*
X005053Y024609D03*
X005038Y024609D03*
X005023Y024609D03*
X005008Y024609D03*
D127*
X005008Y024522D03*
X005053Y024736D03*
X005158Y024735D03*
X005158Y024823D03*
X005143Y024949D03*
X005128Y024949D03*
X005113Y024949D03*
X005098Y024949D03*
X005083Y024949D03*
X005068Y024949D03*
X005053Y024949D03*
X005038Y024949D03*
X005023Y024949D03*
X005233Y024949D03*
X005248Y024949D03*
X005263Y024949D03*
X005278Y024949D03*
X005293Y024949D03*
X005203Y024114D03*
X005188Y024114D03*
X005173Y024114D03*
X005158Y024114D03*
X005143Y024114D03*
X005128Y024114D03*
X005113Y024114D03*
X005098Y024114D03*
X005083Y024114D03*
X005068Y024114D03*
X005053Y024114D03*
X005128Y024030D03*
X005143Y024030D03*
X005158Y024030D03*
X005173Y024030D03*
X005188Y024030D03*
X005203Y024030D03*
X005158Y023665D03*
X005068Y023323D03*
D128*
X005008Y023389D03*
X005008Y024244D03*
D129*
X005008Y024031D03*
D130*
X005211Y023815D03*
X005515Y024079D03*
X005211Y024672D03*
X005229Y025249D03*
X005229Y025474D03*
X005103Y025509D03*
X005010Y025926D03*
X005229Y025926D03*
X006879Y025201D03*
X006885Y024115D03*
X005211Y023388D03*
X005101Y023418D03*
D131*
X005529Y024082D03*
X005208Y024232D03*
X005206Y024898D03*
X005214Y025249D03*
X005212Y025474D03*
X005119Y025492D03*
X005028Y025475D03*
X005010Y025718D03*
X005212Y025700D03*
X005214Y025700D03*
X005026Y025927D03*
X005509Y025208D03*
X005595Y024938D03*
D132*
X005499Y025210D03*
X005227Y025249D03*
X005107Y025506D03*
X005011Y025926D03*
X005227Y025926D03*
X005208Y024672D03*
X005209Y024459D03*
X005010Y024244D03*
X005116Y023791D03*
X005209Y023602D03*
X005590Y024364D03*
X006882Y024115D03*
D133*
X006850Y025198D03*
X005010Y024031D03*
D134*
X005517Y024080D03*
X005103Y023416D03*
X005010Y023389D03*
X005137Y025444D03*
X005106Y025507D03*
X005011Y025475D03*
X005227Y025474D03*
X005227Y025700D03*
D135*
X005011Y025716D03*
X005121Y025489D03*
X005209Y025249D03*
X005202Y024895D03*
X005530Y024082D03*
D136*
X005581Y024370D03*
X005217Y023815D03*
X005106Y023824D03*
X005011Y023835D03*
X005095Y023425D03*
X005124Y023359D03*
X005125Y023358D03*
X005011Y024693D03*
X005146Y025434D03*
X005235Y025474D03*
X006885Y025203D03*
D137*
X005592Y024363D03*
X005115Y023793D03*
X005208Y023602D03*
X005011Y024244D03*
X005136Y025446D03*
X005109Y025504D03*
X005226Y025474D03*
X005226Y025926D03*
D138*
X005545Y024085D03*
X005011Y024031D03*
D139*
X005208Y023815D03*
X005208Y023387D03*
X005011Y023389D03*
X005013Y025475D03*
D140*
X005014Y025475D03*
X005134Y025448D03*
X005224Y025474D03*
X005226Y025249D03*
X005500Y025210D03*
X005226Y025700D03*
X005013Y025927D03*
X005208Y024458D03*
X005206Y023815D03*
D141*
X005202Y024235D03*
X005200Y024895D03*
X005199Y024895D03*
X005208Y025249D03*
X005209Y025474D03*
X005031Y025475D03*
X005013Y025715D03*
X005208Y025700D03*
X005209Y025927D03*
X005029Y025927D03*
D142*
X005013Y024244D03*
X005112Y023794D03*
X005206Y023602D03*
X005013Y023389D03*
D143*
X005013Y024030D03*
X006856Y024120D03*
D144*
X005520Y024080D03*
X005206Y024458D03*
X005016Y025475D03*
X005224Y025700D03*
X005224Y025927D03*
X005014Y025927D03*
D145*
X005031Y025926D03*
X005208Y025926D03*
X005206Y025701D03*
X005014Y025714D03*
X005208Y025474D03*
X005512Y025207D03*
X005197Y024894D03*
D146*
X005140Y024615D03*
X005146Y025185D03*
X005145Y025185D03*
X005148Y025185D03*
X005149Y025185D03*
X005151Y025185D03*
X005152Y025185D03*
X005154Y025185D03*
X005155Y025185D03*
X005157Y025185D03*
X005160Y025185D03*
X005161Y025185D03*
X005163Y025185D03*
X005164Y025185D03*
X005166Y025185D03*
X005167Y025185D03*
X005142Y025185D03*
X005140Y025185D03*
X005139Y025185D03*
X005137Y025185D03*
X005136Y025185D03*
X005134Y025185D03*
X005133Y025185D03*
X005131Y025185D03*
X005130Y025185D03*
X005127Y025185D03*
X005125Y025185D03*
X005124Y025185D03*
X005122Y025185D03*
X005121Y025185D03*
X005119Y025185D03*
X005118Y025185D03*
X005116Y025185D03*
X005115Y025185D03*
X005112Y025185D03*
X005110Y025185D03*
X005109Y025185D03*
X005107Y025185D03*
X005106Y025185D03*
X005104Y025185D03*
X005103Y025185D03*
X005101Y025185D03*
X005100Y025185D03*
X005097Y025185D03*
X005095Y025185D03*
X005094Y025185D03*
X005092Y025185D03*
X005091Y025185D03*
X005089Y025185D03*
X005088Y025185D03*
X005086Y025185D03*
X005085Y025185D03*
X005082Y025185D03*
X005080Y025185D03*
X005079Y025185D03*
X005077Y025185D03*
X005076Y025185D03*
X005074Y025185D03*
X005073Y025185D03*
X005071Y025185D03*
X005070Y025185D03*
X005067Y025185D03*
X005065Y025185D03*
X005064Y025185D03*
X005062Y025185D03*
X005061Y025185D03*
X005059Y025185D03*
X005058Y025185D03*
X005056Y025185D03*
X005055Y025185D03*
X005052Y025185D03*
X005050Y025185D03*
X005049Y025185D03*
X005047Y025185D03*
X005046Y025185D03*
X005044Y025185D03*
X005043Y025185D03*
X005041Y025185D03*
X005040Y025185D03*
X005037Y025185D03*
X005035Y025185D03*
X005034Y025185D03*
X005032Y025185D03*
X005031Y025185D03*
X005029Y025185D03*
X005028Y025185D03*
X005026Y025185D03*
X005025Y025185D03*
X005022Y025185D03*
X005020Y025185D03*
X005019Y025185D03*
X005017Y025185D03*
X005016Y025185D03*
X005014Y025185D03*
X005079Y023445D03*
D147*
X005014Y023389D03*
X005205Y023388D03*
X005205Y023815D03*
X005014Y024244D03*
X005112Y024649D03*
X005586Y024931D03*
X005502Y025209D03*
X005110Y025501D03*
X005596Y024361D03*
X006879Y024117D03*
D148*
X006849Y025198D03*
X005547Y024085D03*
X005014Y024031D03*
D149*
X005016Y025927D03*
X005223Y025927D03*
D150*
X005017Y025714D03*
X005016Y025714D03*
X005122Y025487D03*
X005206Y025249D03*
X005197Y024236D03*
X006861Y025199D03*
D151*
X005587Y024931D03*
X005221Y025249D03*
X005221Y025701D03*
X005110Y024651D03*
X005016Y024244D03*
X005521Y024081D03*
X005598Y024360D03*
X005110Y023409D03*
X005017Y023389D03*
D152*
X005016Y024030D03*
X005527Y025206D03*
X006855Y024120D03*
D153*
X006871Y025201D03*
X005223Y025249D03*
X005221Y025474D03*
X005017Y025475D03*
X005202Y024671D03*
X005205Y024458D03*
X005016Y023389D03*
D154*
X005202Y023602D03*
X005221Y025927D03*
X005017Y025927D03*
D155*
X006847Y025198D03*
X005019Y024031D03*
X005017Y024031D03*
D156*
X005200Y024458D03*
X005109Y024653D03*
X005524Y024082D03*
X005020Y025475D03*
X005019Y025927D03*
D157*
X005019Y025713D03*
X005205Y025474D03*
X005206Y025474D03*
X005205Y025248D03*
D158*
X005220Y025474D03*
X005112Y025499D03*
X005019Y025475D03*
X005200Y024671D03*
X005202Y024458D03*
X005202Y023815D03*
X005109Y023798D03*
X005019Y023389D03*
X005202Y023387D03*
D159*
X005112Y023406D03*
X005199Y023602D03*
X005019Y024244D03*
X005506Y025209D03*
X005020Y025926D03*
D160*
X005034Y025925D03*
X005020Y025712D03*
X005035Y025475D03*
X005037Y025475D03*
X005124Y025486D03*
D161*
X005232Y025701D03*
X005020Y024697D03*
X005122Y024637D03*
D162*
X005107Y024655D03*
X005022Y024244D03*
X005020Y024244D03*
X005214Y024228D03*
X005197Y023602D03*
X005022Y023388D03*
X005217Y025474D03*
X005116Y025495D03*
X005022Y025926D03*
X005217Y025926D03*
D163*
X005020Y024031D03*
D164*
X005535Y024083D03*
X005202Y025249D03*
X005200Y025474D03*
X005022Y025711D03*
D165*
X005022Y025475D03*
X005590Y024935D03*
X005199Y024458D03*
X005526Y024082D03*
X005197Y023815D03*
D166*
X005215Y023815D03*
X005121Y023784D03*
X005584Y024369D03*
X005215Y024672D03*
X005022Y024699D03*
X005232Y025249D03*
X005232Y025474D03*
D167*
X005022Y024031D03*
D168*
X005023Y024244D03*
X005023Y023388D03*
X005023Y025926D03*
D169*
X005023Y025710D03*
D170*
X005023Y025475D03*
D171*
X005068Y025414D03*
X005068Y025313D03*
X005053Y025313D03*
X005038Y025313D03*
X005023Y025313D03*
X005083Y025313D03*
X005098Y025313D03*
X005113Y025313D03*
X005128Y025313D03*
X005143Y025313D03*
X005158Y025313D03*
X005173Y025310D03*
X005068Y025637D03*
X005068Y025763D03*
X005083Y025864D03*
X005098Y025864D03*
X005113Y025864D03*
X005128Y025864D03*
X005143Y025864D03*
X005158Y025864D03*
X005188Y024625D03*
X005188Y024506D03*
X005188Y024292D03*
X005188Y023768D03*
X005188Y023435D03*
X005188Y023341D03*
D172*
X005158Y025185D03*
X005143Y025185D03*
X005128Y025185D03*
X005113Y025185D03*
X005098Y025185D03*
X005083Y025185D03*
X005068Y025185D03*
X005053Y025185D03*
X005038Y025185D03*
X005023Y025185D03*
D173*
X005023Y024700D03*
D174*
X005023Y024521D03*
X005038Y024521D03*
X005053Y024521D03*
X005068Y024521D03*
X005083Y024521D03*
X005098Y024521D03*
X005113Y024521D03*
X005128Y024521D03*
X005143Y024521D03*
X005143Y024181D03*
X005128Y024181D03*
X005113Y024181D03*
X005098Y024181D03*
X005083Y024181D03*
X005068Y024181D03*
X005068Y024031D03*
X005113Y024031D03*
X005248Y024181D03*
X005263Y024181D03*
X005278Y024181D03*
X005293Y024181D03*
X005158Y024949D03*
X005158Y023326D03*
X005053Y023327D03*
D175*
X005023Y024030D03*
D176*
X005023Y023843D03*
X005098Y023423D03*
X005233Y025249D03*
X005143Y025436D03*
D177*
X005214Y025474D03*
X005026Y025475D03*
X005215Y025700D03*
X005215Y025927D03*
X005025Y025927D03*
X005215Y025249D03*
X005604Y024356D03*
X005209Y024230D03*
D178*
X005200Y025249D03*
X005026Y025709D03*
X005025Y025709D03*
D179*
X005052Y025758D03*
X005050Y025872D03*
X005049Y025873D03*
X005050Y025980D03*
X005190Y025980D03*
X005191Y025875D03*
X005191Y025752D03*
X005191Y025648D03*
X005190Y025528D03*
X005049Y025528D03*
X005047Y025423D03*
X005194Y024849D03*
X005194Y024709D03*
X005226Y024672D03*
X005082Y024720D03*
X005025Y024718D03*
X005193Y024498D03*
X005193Y024418D03*
X005026Y024283D03*
X005026Y024204D03*
X005193Y023778D03*
X005193Y023641D03*
X005193Y023562D03*
X005193Y023428D03*
X005193Y023349D03*
X005140Y023335D03*
X006897Y025203D03*
D180*
X005025Y024667D03*
X005145Y023542D03*
D181*
X005025Y024031D03*
X006850Y024121D03*
D182*
X005226Y023815D03*
X005187Y024190D03*
X005193Y024283D03*
X005191Y024630D03*
X005026Y024721D03*
X005478Y025213D03*
X005187Y025530D03*
X005185Y025531D03*
X005190Y025647D03*
X005049Y025647D03*
X005050Y025420D03*
X005187Y025870D03*
X005055Y025983D03*
D183*
X005187Y025982D03*
X005184Y025757D03*
X005185Y025756D03*
X005187Y025756D03*
X005050Y025646D03*
X005055Y025532D03*
X005184Y025532D03*
X005187Y025304D03*
X005226Y024886D03*
X005080Y024722D03*
X005139Y024617D03*
X005191Y024416D03*
X005028Y024287D03*
X005031Y024031D03*
X005026Y023864D03*
X005191Y023774D03*
X005191Y023431D03*
X005080Y023443D03*
X005494Y024076D03*
D184*
X005568Y024382D03*
X005226Y024459D03*
X005191Y024501D03*
X005226Y024244D03*
X005191Y023559D03*
X005226Y023389D03*
X005191Y023346D03*
X005142Y023334D03*
X005026Y023347D03*
X005187Y024939D03*
X005559Y024909D03*
X005185Y025419D03*
X005182Y025417D03*
X005052Y025419D03*
X005056Y025759D03*
X005058Y025759D03*
X005056Y025869D03*
X005055Y025869D03*
X005184Y025869D03*
X005185Y025869D03*
D185*
X005211Y025927D03*
X005028Y025927D03*
X005209Y025700D03*
X005211Y025700D03*
X005211Y025474D03*
X005029Y025475D03*
X005211Y025249D03*
X005511Y025208D03*
X005205Y024233D03*
D186*
X005029Y025708D03*
X005028Y025708D03*
X006858Y025198D03*
X006864Y024118D03*
D187*
X006903Y024113D03*
X005185Y024190D03*
X005028Y024200D03*
X005193Y023855D03*
X005191Y023644D03*
X005181Y025190D03*
X005184Y025192D03*
X005185Y025192D03*
X005187Y025193D03*
X005181Y025417D03*
X005160Y025417D03*
X005080Y025534D03*
X005052Y025645D03*
X005059Y025760D03*
X005181Y025759D03*
X005182Y025868D03*
X005241Y025927D03*
X005056Y025984D03*
X005187Y025645D03*
D188*
X005178Y024944D03*
X005176Y024944D03*
X005184Y024509D03*
X005029Y023954D03*
X005182Y023654D03*
D189*
X005176Y023659D03*
X005175Y023659D03*
X005176Y023545D03*
X005175Y023544D03*
X005116Y023449D03*
X005071Y023449D03*
X005049Y023448D03*
X005047Y023448D03*
X005040Y023332D03*
X005043Y023331D03*
X005172Y023329D03*
X005175Y023331D03*
X005176Y023331D03*
X005179Y023869D03*
X005178Y023871D03*
X005037Y023950D03*
X005035Y023950D03*
X005034Y023950D03*
X005031Y024108D03*
X005032Y024109D03*
X005034Y024109D03*
X005044Y024187D03*
X005043Y024189D03*
X005041Y024189D03*
X005169Y024183D03*
X005170Y024183D03*
X005175Y024400D03*
X005176Y024514D03*
X005175Y024516D03*
X005148Y024610D03*
X005104Y024610D03*
X005103Y024610D03*
X005176Y024729D03*
X005175Y024829D03*
X005178Y024831D03*
X006903Y025204D03*
X006909Y024112D03*
D190*
X005560Y024388D03*
X005179Y024299D03*
X005040Y024299D03*
X005040Y024031D03*
X005031Y023953D03*
X005179Y023761D03*
X005181Y023549D03*
X005179Y023548D03*
X005044Y023446D03*
X005043Y023444D03*
X005041Y023443D03*
X005040Y023443D03*
X005472Y025214D03*
X005086Y025411D03*
X005085Y025411D03*
D191*
X005205Y025701D03*
X005206Y025926D03*
X005205Y025926D03*
X005032Y025926D03*
X005514Y025207D03*
X005611Y024352D03*
D192*
X006862Y024118D03*
X006856Y025198D03*
X005034Y025707D03*
X005032Y025707D03*
D193*
X005034Y025475D03*
X005032Y025475D03*
X005610Y024353D03*
X005532Y024083D03*
D194*
X005181Y024405D03*
X005179Y024403D03*
X005182Y024510D03*
X005175Y024945D03*
X005037Y024030D03*
X005142Y023758D03*
X005182Y023550D03*
X005032Y023340D03*
X005034Y023338D03*
D195*
X005034Y024194D03*
X005475Y025214D03*
D196*
X005515Y025207D03*
X005202Y025474D03*
X005125Y025485D03*
X005202Y025926D03*
X005037Y025926D03*
X005035Y025926D03*
X006859Y025198D03*
X006867Y024118D03*
D197*
X005130Y025480D03*
X005035Y025706D03*
D198*
X005037Y025705D03*
X005539Y024084D03*
D199*
X005038Y025926D03*
D200*
X005038Y025705D03*
D201*
X005038Y025475D03*
D202*
X005038Y024298D03*
D203*
X005038Y024110D03*
X005038Y023950D03*
X005173Y023873D03*
X005173Y023660D03*
X005173Y023543D03*
X005068Y023450D03*
X005173Y024517D03*
X005173Y024730D03*
X005173Y024829D03*
D204*
X005173Y024946D03*
X005038Y024031D03*
X005143Y023758D03*
D205*
X005088Y023434D03*
X005221Y024457D03*
X005133Y024625D03*
X005199Y025206D03*
X005199Y025432D03*
X005089Y025525D03*
X005040Y025657D03*
X005040Y025968D03*
X005199Y025969D03*
X006891Y025203D03*
D206*
X005565Y024914D03*
X005482Y025213D03*
X005155Y025424D03*
X005040Y025517D03*
X005046Y025753D03*
X005193Y024932D03*
X005221Y024886D03*
X005500Y024077D03*
X005221Y023816D03*
X005131Y023771D03*
D207*
X005574Y024376D03*
X005221Y024672D03*
X005154Y025425D03*
X005199Y025516D03*
X005044Y025752D03*
D208*
X005053Y025870D03*
X005053Y025981D03*
X005188Y025981D03*
X005188Y025755D03*
X005053Y025531D03*
D209*
X005053Y025644D03*
D210*
X005053Y025418D03*
X005188Y025195D03*
X006898Y025204D03*
X005143Y023333D03*
D211*
X005053Y024305D03*
X005068Y024308D03*
D212*
X005053Y024183D03*
X005158Y024181D03*
X005233Y024181D03*
X005098Y024031D03*
X005083Y024031D03*
X005053Y024031D03*
X005158Y023878D03*
X005488Y024075D03*
X005158Y024520D03*
D213*
X005158Y023947D03*
X005143Y023947D03*
X005128Y023947D03*
X005113Y023947D03*
X005098Y023947D03*
X005083Y023947D03*
X005068Y023947D03*
X005053Y023947D03*
X005173Y023947D03*
X005188Y023947D03*
X005203Y023947D03*
D214*
X005053Y023879D03*
X005173Y023447D03*
X005173Y024614D03*
D215*
X005068Y024732D03*
X005173Y024301D03*
X005068Y023877D03*
X005173Y023758D03*
D216*
X005083Y023861D03*
X005083Y025531D03*
D217*
X005143Y025539D03*
X005083Y025411D03*
X005173Y024184D03*
D218*
X005083Y024718D03*
D219*
X005083Y023438D03*
D220*
X005083Y023314D03*
D221*
X005085Y023314D03*
X006918Y024109D03*
D222*
X005575Y024376D03*
X005091Y024706D03*
X005194Y024931D03*
X005199Y025291D03*
X005152Y025426D03*
X005484Y025213D03*
X005566Y024916D03*
X005130Y023773D03*
D223*
X005091Y023850D03*
X005092Y024703D03*
D224*
X005091Y023430D03*
D225*
X005148Y025432D03*
X005236Y025475D03*
X005095Y025519D03*
X005236Y025927D03*
D226*
X005245Y025702D03*
X005097Y025402D03*
X005140Y024741D03*
X005145Y024397D03*
D227*
X005098Y025516D03*
X005233Y025700D03*
X006883Y025202D03*
D228*
X005098Y025401D03*
D229*
X005098Y024695D03*
D230*
X005098Y023839D03*
X005128Y023776D03*
D231*
X005586Y024369D03*
X005121Y024639D03*
X005230Y025474D03*
X005230Y025701D03*
X005100Y023421D03*
D232*
X006880Y025202D03*
X005101Y025511D03*
D233*
X005235Y025926D03*
X005572Y024922D03*
X005104Y024682D03*
X005103Y023827D03*
X005104Y023826D03*
X005124Y023781D03*
X005122Y023362D03*
D234*
X005209Y023388D03*
X005209Y023815D03*
X005589Y024366D03*
X005209Y024672D03*
X005118Y024643D03*
X005580Y024928D03*
X005104Y025507D03*
X006877Y025201D03*
D235*
X005104Y023415D03*
D236*
X005106Y023414D03*
X005116Y024646D03*
X005581Y024929D03*
D237*
X005583Y024929D03*
X005206Y024671D03*
X005115Y024647D03*
X005107Y023413D03*
X006880Y024116D03*
X006874Y025201D03*
D238*
X006873Y025201D03*
X005595Y024362D03*
X005205Y024671D03*
X005224Y025249D03*
X005223Y025474D03*
X005109Y023411D03*
D239*
X005205Y023602D03*
X005110Y023796D03*
X005220Y024907D03*
X005223Y025701D03*
D240*
X005113Y025498D03*
D241*
X005113Y024648D03*
X005593Y024363D03*
D242*
X005113Y023794D03*
D243*
X005113Y023404D03*
D244*
X005199Y023387D03*
X005215Y024227D03*
X005601Y024358D03*
X005214Y024902D03*
X005115Y025496D03*
D245*
X006891Y024114D03*
X005118Y023374D03*
X005116Y023377D03*
D246*
X005118Y023789D03*
D247*
X005119Y023785D03*
X005214Y023815D03*
X005214Y024672D03*
X005494Y025210D03*
X005140Y025438D03*
D248*
X005127Y025483D03*
X006865Y024118D03*
X005536Y024084D03*
D249*
X005128Y025482D03*
D250*
X005128Y024631D03*
D251*
X005218Y024672D03*
X005488Y025212D03*
X005128Y023352D03*
D252*
X005131Y025477D03*
D253*
X005184Y025418D03*
X005193Y024847D03*
X005193Y024712D03*
X005137Y023765D03*
X006901Y024113D03*
D254*
X005139Y025441D03*
D255*
X005139Y024403D03*
X005226Y023937D03*
D256*
X005140Y023885D03*
X005304Y024175D03*
X005142Y023545D03*
X006915Y024112D03*
X006909Y025205D03*
X005245Y025475D03*
X005245Y025925D03*
D257*
X005158Y025538D03*
X005143Y024613D03*
D258*
X005143Y023882D03*
D259*
X005188Y024192D03*
X005158Y025419D03*
X005188Y025420D03*
D260*
X005158Y024396D03*
X005158Y024307D03*
D261*
X005173Y025415D03*
D262*
X005173Y024400D03*
X005173Y023329D03*
D263*
X005188Y025646D03*
D264*
X005473Y025214D03*
X005188Y024719D03*
D265*
X005190Y024937D03*
D266*
X005199Y024671D03*
X005217Y024226D03*
X005599Y024359D03*
X005200Y023815D03*
X005200Y023387D03*
X005589Y024934D03*
D267*
X005200Y024235D03*
X005199Y024235D03*
D268*
X005613Y024352D03*
X005200Y025927D03*
D269*
X005200Y025700D03*
D270*
X005220Y025701D03*
X005220Y025926D03*
X005523Y024081D03*
X005200Y023602D03*
D271*
X005517Y025207D03*
X005202Y025701D03*
D272*
X005203Y025701D03*
X005203Y025926D03*
X005203Y025474D03*
X005203Y025248D03*
D273*
X005203Y024896D03*
D274*
X005203Y024671D03*
D275*
X005203Y024459D03*
X005218Y024906D03*
X005503Y025209D03*
X005203Y023815D03*
X005203Y023388D03*
D276*
X005203Y024234D03*
X005608Y024354D03*
D277*
X005203Y023602D03*
D278*
X005206Y024232D03*
X005607Y024355D03*
X005205Y024897D03*
X005212Y025249D03*
X005212Y025927D03*
D279*
X005584Y024930D03*
X005206Y023388D03*
D280*
X005208Y024899D03*
X006867Y025199D03*
D281*
X005209Y024900D03*
D282*
X005211Y024901D03*
D283*
X005497Y025210D03*
X005211Y024458D03*
X005211Y023602D03*
D284*
X005212Y024672D03*
D285*
X005605Y024355D03*
X006871Y024117D03*
X005214Y025927D03*
D286*
X005232Y025927D03*
X005215Y024458D03*
X005215Y023602D03*
D287*
X005218Y025474D03*
X005218Y025701D03*
X005218Y025926D03*
D288*
X005218Y025249D03*
D289*
X005218Y024458D03*
X005218Y023602D03*
X005218Y023389D03*
D290*
X005218Y024224D03*
D291*
X005218Y024109D03*
D292*
X005218Y024025D03*
X005218Y023943D03*
X005548Y024900D03*
D293*
X005218Y023815D03*
D294*
X005220Y023941D03*
X005482Y024076D03*
X005305Y024944D03*
D295*
X005466Y025214D03*
X005221Y023939D03*
D296*
X005226Y023602D03*
D297*
X005233Y025474D03*
X005233Y025926D03*
D298*
X005308Y024171D03*
D299*
X005493Y024076D03*
X005476Y025214D03*
D300*
X005503Y024078D03*
D301*
X005518Y025207D03*
D302*
X005518Y024080D03*
D303*
X005521Y025206D03*
D304*
X005523Y025206D03*
D305*
X005524Y025205D03*
X005544Y024085D03*
D306*
X005526Y025205D03*
D307*
X005529Y025204D03*
D308*
X005530Y025204D03*
X006843Y025196D03*
D309*
X006841Y025196D03*
X007096Y024655D03*
X005553Y024086D03*
X005532Y025204D03*
D310*
X005533Y025204D03*
D311*
X005533Y024083D03*
D312*
X005535Y025204D03*
X006840Y025196D03*
D313*
X005536Y025203D03*
X006846Y024121D03*
X005557Y024087D03*
D314*
X005538Y025203D03*
X006837Y025195D03*
D315*
X005538Y024083D03*
D316*
X005539Y025202D03*
D317*
X005541Y025201D03*
X005562Y024088D03*
D318*
X005542Y025201D03*
D319*
X005542Y024085D03*
D320*
X005544Y025201D03*
D321*
X005545Y025201D03*
X006829Y025195D03*
X007092Y024653D03*
D322*
X005568Y024090D03*
X005547Y025200D03*
D323*
X005548Y025200D03*
D324*
X006853Y024120D03*
X005548Y024085D03*
D325*
X005572Y024091D03*
X005550Y025199D03*
D326*
X005550Y024085D03*
D327*
X005574Y024091D03*
X006829Y024125D03*
X005551Y025199D03*
D328*
X005551Y024085D03*
D329*
X005575Y024091D03*
X007084Y024654D03*
X005553Y025198D03*
D330*
X005554Y025198D03*
X005577Y024091D03*
D331*
X005554Y024086D03*
X006849Y024121D03*
D332*
X005556Y025198D03*
D333*
X006847Y024121D03*
X005556Y024087D03*
D334*
X006825Y024127D03*
X007059Y024655D03*
X007060Y024655D03*
X007062Y024655D03*
X007065Y024655D03*
X005557Y025198D03*
D335*
X005559Y025197D03*
X005581Y024093D03*
X006822Y024127D03*
X007051Y024654D03*
D336*
X006843Y024122D03*
X005559Y024088D03*
D337*
X005560Y025196D03*
D338*
X006834Y025195D03*
X006841Y024123D03*
X005560Y024088D03*
D339*
X005586Y024094D03*
X005562Y025195D03*
X006810Y025189D03*
X007030Y024655D03*
X007032Y024655D03*
D340*
X007018Y024655D03*
X005563Y025195D03*
D341*
X005563Y024913D03*
D342*
X005563Y024088D03*
D343*
X007008Y024655D03*
X007009Y024655D03*
X007011Y024655D03*
X007012Y024655D03*
X007014Y024655D03*
X005565Y025195D03*
D344*
X005565Y024089D03*
D345*
X007000Y024655D03*
X005566Y025195D03*
D346*
X005566Y024089D03*
D347*
X006814Y024130D03*
X006807Y025189D03*
X005568Y025195D03*
D348*
X005569Y025194D03*
X006804Y025188D03*
X006984Y024655D03*
X006985Y024655D03*
D349*
X005569Y024090D03*
D350*
X005595Y024096D03*
X006810Y024130D03*
X006963Y024655D03*
X006964Y024655D03*
X006966Y024655D03*
X006967Y024655D03*
X006969Y024655D03*
X006970Y024655D03*
X006972Y024655D03*
X006801Y025188D03*
X005571Y025194D03*
D351*
X005571Y024091D03*
D352*
X005596Y024097D03*
X005572Y025193D03*
D353*
X005574Y025193D03*
D354*
X005575Y025192D03*
D355*
X005577Y025192D03*
X006927Y024657D03*
X006930Y024657D03*
X006931Y024657D03*
X006805Y024132D03*
D356*
X005578Y025192D03*
D357*
X005578Y024926D03*
D358*
X005578Y024373D03*
D359*
X005578Y024092D03*
D360*
X005580Y025191D03*
X006903Y024655D03*
X006904Y024655D03*
X006906Y024655D03*
D361*
X007057Y024654D03*
X005580Y024093D03*
D362*
X005607Y024100D03*
X005581Y025190D03*
X006886Y024656D03*
X006888Y024656D03*
X006889Y024656D03*
X006891Y024656D03*
X006892Y024656D03*
D363*
X006880Y024658D03*
X006879Y024658D03*
X005583Y025190D03*
D364*
X006813Y025190D03*
X007041Y024655D03*
X007042Y024655D03*
X007044Y024655D03*
X006820Y024128D03*
X005583Y024094D03*
D365*
X005584Y025190D03*
D366*
X005584Y024094D03*
X007035Y024655D03*
X007036Y024655D03*
X007038Y024655D03*
D367*
X005586Y025189D03*
D368*
X005587Y025189D03*
D369*
X005587Y024094D03*
X007015Y024655D03*
X007017Y024655D03*
X007020Y024655D03*
X007021Y024655D03*
D370*
X006852Y024656D03*
X005589Y025189D03*
D371*
X005589Y024095D03*
D372*
X005590Y025188D03*
X006781Y025183D03*
D373*
X006990Y024655D03*
X006991Y024655D03*
X005590Y024096D03*
D374*
X005592Y025188D03*
X006849Y024655D03*
D375*
X006981Y024656D03*
X006982Y024656D03*
X006811Y024130D03*
X005592Y024097D03*
D376*
X005593Y025188D03*
D377*
X005593Y024097D03*
X006973Y024656D03*
D378*
X005595Y025188D03*
D379*
X005596Y025115D03*
X005701Y025076D03*
X006009Y025073D03*
X006036Y025097D03*
X005770Y024244D03*
X005767Y024242D03*
X005614Y024182D03*
D380*
X005752Y024234D03*
X005755Y024235D03*
X005757Y024235D03*
X005760Y024237D03*
X006003Y024241D03*
X006379Y024243D03*
X006381Y024244D03*
X006382Y024246D03*
X006006Y025071D03*
X006007Y025072D03*
X005694Y025081D03*
X005691Y025083D03*
X005688Y025084D03*
X005598Y025116D03*
X006346Y025098D03*
D381*
X005598Y024097D03*
D382*
X005617Y024181D03*
X005749Y024232D03*
X005889Y024285D03*
X006385Y024247D03*
X006384Y025063D03*
X006003Y025069D03*
X006001Y025068D03*
X005872Y025018D03*
X005871Y025018D03*
X005685Y025086D03*
X005599Y025116D03*
D383*
X005599Y024098D03*
X006933Y024656D03*
D384*
X006387Y025061D03*
X006385Y025063D03*
X006037Y025102D03*
X005682Y025088D03*
X005680Y025088D03*
X005601Y025117D03*
X005890Y024286D03*
X005748Y024232D03*
X005746Y024230D03*
X005619Y024181D03*
X006387Y024250D03*
D385*
X005601Y024100D03*
X006796Y025186D03*
D386*
X006345Y025101D03*
X006000Y025066D03*
X005679Y025089D03*
X005676Y025090D03*
X005602Y025117D03*
X005745Y024229D03*
X005742Y024228D03*
X005740Y024228D03*
X005739Y024226D03*
D387*
X005602Y024100D03*
X006802Y024133D03*
X006918Y024656D03*
X006919Y024656D03*
X006921Y024656D03*
X006795Y025186D03*
D388*
X006391Y025059D03*
X005605Y025117D03*
X005604Y025117D03*
X005725Y024219D03*
X005994Y024249D03*
D389*
X005604Y024100D03*
D390*
X005605Y024100D03*
X006894Y024656D03*
X006895Y024656D03*
X006897Y024656D03*
X006900Y024656D03*
X006901Y024656D03*
D391*
X006394Y025056D03*
X006393Y025057D03*
X005661Y025099D03*
X005659Y025099D03*
X005658Y025101D03*
X005607Y025117D03*
X005721Y024217D03*
X005719Y024216D03*
D392*
X005608Y025117D03*
D393*
X005608Y024100D03*
D394*
X005655Y025102D03*
X005611Y025117D03*
X005610Y025117D03*
D395*
X005610Y024101D03*
X006796Y024134D03*
X006862Y024658D03*
X006864Y024658D03*
X006865Y024658D03*
X006867Y024658D03*
D396*
X006856Y024658D03*
X006786Y025184D03*
X005611Y024103D03*
D397*
X005988Y025057D03*
X005613Y025117D03*
D398*
X006783Y025183D03*
X006792Y024135D03*
X005613Y024103D03*
D399*
X005697Y024204D03*
X005700Y024205D03*
X005701Y024205D03*
X005902Y024285D03*
X005904Y024285D03*
X005905Y024285D03*
X005907Y024285D03*
X005985Y024255D03*
X006400Y024261D03*
X005986Y025056D03*
X005892Y025020D03*
X005649Y025105D03*
X005647Y025105D03*
X005646Y025107D03*
X005644Y025107D03*
X005616Y025117D03*
X005614Y025117D03*
D400*
X005686Y025085D03*
X005689Y025084D03*
X005692Y025082D03*
X006004Y025070D03*
X006822Y024656D03*
X006384Y024247D03*
X006375Y024236D03*
X006001Y024242D03*
X006000Y024244D03*
X005887Y024286D03*
X005754Y024235D03*
X005751Y024233D03*
X005616Y024182D03*
D401*
X005620Y025117D03*
X005619Y025117D03*
X005617Y025117D03*
D402*
X005877Y025019D03*
X005880Y025019D03*
X005737Y024226D03*
X005736Y024224D03*
X005734Y024223D03*
X005733Y024223D03*
X005620Y024181D03*
D403*
X005691Y024201D03*
X005692Y024202D03*
X006402Y024262D03*
X005628Y025116D03*
X005626Y025116D03*
X005625Y025116D03*
X005622Y025116D03*
D404*
X005670Y025093D03*
X005671Y025092D03*
X005881Y025020D03*
X005883Y025020D03*
X005997Y025063D03*
X005731Y024222D03*
X005622Y024180D03*
D405*
X005623Y025116D03*
D406*
X005893Y024285D03*
X005623Y024180D03*
D407*
X005625Y024179D03*
X006391Y024253D03*
X006393Y024254D03*
X006820Y024656D03*
X005995Y025063D03*
X005994Y025061D03*
X005992Y025061D03*
X005884Y025019D03*
X005667Y025096D03*
D408*
X005665Y025096D03*
X005664Y025098D03*
X005886Y025020D03*
X005887Y025020D03*
X005896Y024285D03*
X005895Y024285D03*
X005989Y024252D03*
X005991Y024250D03*
X005626Y024180D03*
X006394Y024255D03*
D409*
X006396Y024256D03*
X006397Y024257D03*
X006370Y024226D03*
X005715Y024214D03*
X005712Y024212D03*
X005710Y024211D03*
X005628Y024179D03*
X005991Y025060D03*
D410*
X005982Y025053D03*
X005895Y025020D03*
X005640Y025110D03*
X005635Y025113D03*
X005632Y025114D03*
X005631Y025114D03*
X005629Y025114D03*
X006400Y025050D03*
X005911Y024285D03*
X005910Y024285D03*
D411*
X005986Y024254D03*
X006060Y024185D03*
X006399Y024259D03*
X005706Y024208D03*
X005704Y024208D03*
X005703Y024206D03*
X005629Y024178D03*
X006399Y025052D03*
X006342Y025109D03*
X005650Y025105D03*
D412*
X005643Y025108D03*
X005641Y025109D03*
X005985Y025055D03*
X005982Y024257D03*
X005695Y024203D03*
X005694Y024203D03*
X005632Y024178D03*
X005631Y024178D03*
D413*
X005634Y024178D03*
X005680Y024194D03*
X005682Y024196D03*
X005685Y024197D03*
X005688Y024199D03*
X005913Y024284D03*
X005980Y024259D03*
X006405Y024265D03*
X006406Y024266D03*
X006819Y024656D03*
X006402Y025048D03*
X005980Y025052D03*
X005637Y025112D03*
X005634Y025114D03*
D414*
X005896Y025020D03*
X005898Y025020D03*
X006405Y025045D03*
X005914Y024285D03*
X005686Y024198D03*
X005679Y024193D03*
X005637Y024178D03*
X005635Y024178D03*
D415*
X006403Y024264D03*
X005983Y025054D03*
X005893Y025020D03*
X005638Y025111D03*
D416*
X005638Y024178D03*
D417*
X005640Y024178D03*
X005641Y024178D03*
X005901Y025020D03*
X005902Y025020D03*
X005979Y025050D03*
D418*
X005905Y025021D03*
X005904Y025021D03*
X005917Y024284D03*
X006061Y024179D03*
X005647Y024179D03*
X005646Y024179D03*
X005644Y024179D03*
X005643Y024179D03*
D419*
X005649Y024180D03*
X005650Y024180D03*
X005652Y024180D03*
X005919Y024285D03*
X006409Y024270D03*
X005977Y025048D03*
X005907Y025020D03*
D420*
X005890Y025020D03*
X005889Y025020D03*
X006039Y025108D03*
X006397Y025054D03*
X005652Y025104D03*
X005898Y024285D03*
X005899Y024285D03*
X005901Y024285D03*
X005988Y024253D03*
X005716Y024214D03*
X005709Y024210D03*
X005707Y024208D03*
D421*
X005653Y025103D03*
D422*
X005653Y024181D03*
D423*
X005655Y024181D03*
X005656Y024181D03*
X005658Y024183D03*
X005659Y024183D03*
X005661Y024184D03*
X005662Y024186D03*
X005665Y024187D03*
X005976Y024264D03*
X005977Y024262D03*
X006409Y025041D03*
D424*
X006396Y025055D03*
X005989Y025058D03*
X005656Y025102D03*
X005718Y024215D03*
D425*
X005722Y024218D03*
X005724Y024218D03*
X005727Y024220D03*
X005992Y024250D03*
X005662Y025099D03*
D426*
X005670Y024190D03*
X005667Y024188D03*
X005664Y024187D03*
D427*
X005668Y025094D03*
D428*
X005668Y024189D03*
D429*
X005671Y024190D03*
X005673Y024190D03*
X006369Y024217D03*
X006408Y025042D03*
X006040Y025116D03*
D430*
X006390Y025060D03*
X005677Y025090D03*
X005674Y025091D03*
X005673Y025091D03*
X005730Y024221D03*
X005995Y024248D03*
X005997Y024247D03*
X006372Y024230D03*
X006390Y024251D03*
D431*
X006408Y024268D03*
X005916Y024284D03*
X005677Y024193D03*
X005676Y024191D03*
X005674Y024191D03*
X005899Y025021D03*
D432*
X005683Y025086D03*
X006058Y024193D03*
X006373Y024234D03*
D433*
X005683Y024196D03*
D434*
X005689Y024200D03*
D435*
X005884Y024285D03*
X005886Y024285D03*
X006004Y024240D03*
X005869Y025018D03*
X005695Y025080D03*
X006381Y025065D03*
D436*
X006379Y025066D03*
X005868Y025018D03*
X005697Y025079D03*
X005881Y024286D03*
X005883Y024286D03*
X005766Y024241D03*
X005764Y024241D03*
X005763Y024239D03*
X005761Y024238D03*
X006006Y024239D03*
X006007Y024238D03*
X006376Y024239D03*
X006378Y024241D03*
D437*
X005698Y025078D03*
D438*
X005908Y024284D03*
X005983Y024256D03*
X005698Y024205D03*
D439*
X005880Y024285D03*
X006009Y024237D03*
X005700Y025077D03*
D440*
X005703Y025075D03*
X005704Y025075D03*
X005707Y025074D03*
X006010Y025074D03*
X006378Y025068D03*
X005775Y024246D03*
X005772Y024244D03*
X005769Y024243D03*
D441*
X005776Y024247D03*
X005778Y024247D03*
X005709Y025073D03*
X005706Y025075D03*
X006012Y025075D03*
X006376Y025069D03*
D442*
X006372Y025072D03*
X005710Y025072D03*
X005779Y024248D03*
D443*
X006015Y024232D03*
X005712Y025071D03*
X006370Y025072D03*
D444*
X005713Y025071D03*
D445*
X005713Y024213D03*
D446*
X005781Y024249D03*
X005784Y024250D03*
X005787Y024252D03*
X005790Y024253D03*
X005791Y024255D03*
X005874Y024286D03*
X006057Y024199D03*
X006825Y024655D03*
X006369Y025074D03*
X006033Y025092D03*
X006018Y025078D03*
X005860Y025018D03*
X005859Y025018D03*
X005719Y025068D03*
X005716Y025069D03*
X005715Y025069D03*
D447*
X005718Y025069D03*
X005721Y025067D03*
X005722Y025066D03*
X005724Y025064D03*
X006019Y025079D03*
X005872Y024287D03*
X005871Y024287D03*
X005797Y024259D03*
X005796Y024257D03*
X005794Y024257D03*
X005793Y024256D03*
D448*
X005799Y024259D03*
X005800Y024259D03*
X006018Y024231D03*
X006019Y024231D03*
X005857Y025018D03*
X005856Y025018D03*
X005731Y025060D03*
X005727Y025062D03*
X005725Y025063D03*
X006021Y025080D03*
X006024Y025081D03*
X006031Y025089D03*
X006366Y025077D03*
X006367Y025075D03*
D449*
X005728Y025062D03*
X005803Y024261D03*
D450*
X005728Y024220D03*
D451*
X005802Y024260D03*
X005869Y024287D03*
X006021Y024230D03*
X006022Y024229D03*
X006024Y024229D03*
X005854Y025018D03*
X005734Y025060D03*
X005733Y025060D03*
X005730Y025061D03*
X006022Y025081D03*
X006025Y025082D03*
X006361Y025079D03*
X006363Y025078D03*
X006364Y025078D03*
D452*
X006360Y025080D03*
X006027Y025083D03*
X005853Y025017D03*
X005736Y025059D03*
X005868Y024286D03*
X006025Y024228D03*
X006826Y024655D03*
D453*
X005808Y024262D03*
X005737Y025057D03*
D454*
X005739Y025057D03*
X006349Y025087D03*
X006055Y024203D03*
D455*
X005740Y025056D03*
D456*
X005742Y025055D03*
X005745Y025054D03*
X006351Y025085D03*
X006352Y025084D03*
X005826Y024274D03*
X005824Y024274D03*
D457*
X005743Y025054D03*
D458*
X006388Y025060D03*
X006388Y024250D03*
X005743Y024229D03*
D459*
X005827Y024274D03*
X005829Y024274D03*
X005832Y024276D03*
X005847Y025015D03*
X005746Y025053D03*
D460*
X005748Y025052D03*
X005823Y024272D03*
X006030Y024226D03*
D461*
X006031Y024225D03*
X006033Y024223D03*
X006034Y024223D03*
X006054Y024207D03*
X005862Y024286D03*
X005860Y024286D03*
X005751Y025050D03*
X005749Y025051D03*
D462*
X005752Y025049D03*
X005754Y025048D03*
X006036Y024223D03*
D463*
X006037Y024222D03*
X005857Y024286D03*
X005856Y024286D03*
X005853Y024286D03*
X005839Y024280D03*
X005835Y024277D03*
X005842Y025015D03*
X005841Y025015D03*
X005844Y025015D03*
X005761Y025044D03*
X005760Y025045D03*
X005755Y025047D03*
D464*
X005757Y025046D03*
X005845Y025016D03*
X005859Y024287D03*
X005836Y024278D03*
X005830Y024275D03*
X006828Y024655D03*
D465*
X005758Y025045D03*
D466*
X005758Y024236D03*
D467*
X005838Y024280D03*
X005841Y024281D03*
X005842Y024283D03*
X005850Y024286D03*
X005851Y024286D03*
X005854Y024287D03*
X006039Y024221D03*
X006040Y024220D03*
X005764Y025043D03*
X005763Y025043D03*
D468*
X005766Y025042D03*
X005838Y025015D03*
X005839Y025015D03*
X006042Y024219D03*
X006045Y024217D03*
X006046Y024216D03*
X006048Y024214D03*
X006049Y024213D03*
X006051Y024211D03*
D469*
X005769Y025040D03*
X005767Y025042D03*
D470*
X005770Y025039D03*
X005772Y025039D03*
X005775Y025038D03*
X005836Y025015D03*
D471*
X005773Y025038D03*
D472*
X005773Y024244D03*
D473*
X005776Y025037D03*
D474*
X005778Y025036D03*
X005779Y025034D03*
D475*
X005781Y025033D03*
X005782Y025032D03*
X005784Y025032D03*
D476*
X005862Y025018D03*
X006016Y025078D03*
X006348Y025093D03*
X005785Y024251D03*
X005782Y024250D03*
D477*
X005785Y025031D03*
D478*
X005787Y025030D03*
X005835Y025015D03*
D479*
X005833Y025015D03*
X005788Y025030D03*
D480*
X005788Y024253D03*
D481*
X005791Y025027D03*
X005790Y025029D03*
D482*
X005793Y025027D03*
D483*
X005794Y025026D03*
X005796Y025026D03*
D484*
X005797Y025025D03*
X005800Y025024D03*
X005826Y025015D03*
X005827Y025015D03*
D485*
X005829Y025014D03*
X005799Y025024D03*
D486*
X005802Y025023D03*
X005805Y025021D03*
X005806Y025020D03*
X005823Y025014D03*
X005824Y025014D03*
D487*
X005803Y025022D03*
D488*
X006030Y025087D03*
X005806Y024262D03*
X005805Y024262D03*
D489*
X005817Y025015D03*
X005820Y025015D03*
X005821Y025015D03*
X005814Y025016D03*
X005812Y025016D03*
X005809Y025018D03*
X005808Y025019D03*
D490*
X006355Y025082D03*
X006357Y025081D03*
X006027Y024227D03*
X005866Y024287D03*
X005820Y024271D03*
X005815Y024268D03*
X005812Y024266D03*
X005811Y024265D03*
X005809Y024265D03*
D491*
X005815Y025015D03*
X005811Y025017D03*
D492*
X005850Y025017D03*
X005851Y025017D03*
X006354Y025083D03*
X005865Y024286D03*
X005821Y024271D03*
X005817Y024268D03*
X005814Y024267D03*
D493*
X005818Y025015D03*
D494*
X005818Y024269D03*
D495*
X005830Y025015D03*
X005832Y025015D03*
D496*
X005833Y024277D03*
D497*
X005844Y024283D03*
D498*
X005845Y024284D03*
X005847Y024284D03*
X006052Y024209D03*
D499*
X005848Y025016D03*
D500*
X005848Y024285D03*
D501*
X005863Y025018D03*
X006013Y025075D03*
D502*
X005863Y024286D03*
X006028Y024226D03*
D503*
X005877Y024286D03*
X005866Y025018D03*
X005865Y025018D03*
D504*
X005874Y025019D03*
X005875Y025019D03*
D505*
X006015Y025077D03*
X006034Y025093D03*
X005875Y024286D03*
X006010Y024235D03*
D506*
X005878Y025019D03*
D507*
X005878Y024286D03*
X006823Y024656D03*
D508*
X005892Y024285D03*
D509*
X005908Y025021D03*
D510*
X005910Y025021D03*
X006817Y024656D03*
D511*
X005976Y025047D03*
X005911Y025021D03*
X006042Y025120D03*
X005922Y024285D03*
X005974Y024265D03*
D512*
X006412Y024273D03*
X006412Y025036D03*
X005973Y025044D03*
X005914Y025021D03*
X005913Y025021D03*
D513*
X005916Y025022D03*
X005971Y025043D03*
X006816Y024656D03*
X006414Y024275D03*
D514*
X006366Y024206D03*
X005935Y024284D03*
X005934Y024284D03*
X005919Y025022D03*
X005917Y025022D03*
X006417Y025034D03*
D515*
X005920Y025021D03*
X005937Y024285D03*
D516*
X005920Y024284D03*
D517*
X005940Y024284D03*
X006066Y024169D03*
X006814Y024656D03*
X006045Y025127D03*
X005922Y025022D03*
D518*
X005923Y025021D03*
D519*
X005923Y024284D03*
D520*
X005967Y024274D03*
X005925Y025021D03*
X005967Y025036D03*
D521*
X005926Y024285D03*
X005925Y024285D03*
D522*
X005941Y024284D03*
X006420Y024281D03*
X006813Y024656D03*
X006046Y025130D03*
X005928Y025021D03*
X005926Y025021D03*
D523*
X006414Y025036D03*
X005970Y024269D03*
X005929Y024284D03*
X005928Y024284D03*
D524*
X005943Y024283D03*
X005962Y024279D03*
X005929Y025021D03*
X005962Y025032D03*
X005964Y025033D03*
X005965Y025035D03*
X006420Y025029D03*
D525*
X006337Y025130D03*
X005932Y025021D03*
X005931Y025021D03*
X005944Y024284D03*
X005961Y024280D03*
X006363Y024200D03*
X006421Y024283D03*
D526*
X005932Y024285D03*
X005931Y024285D03*
X006415Y025035D03*
X006339Y025123D03*
D527*
X005961Y025030D03*
X005935Y025021D03*
X005934Y025021D03*
D528*
X005937Y025022D03*
X006811Y024656D03*
X006423Y024284D03*
X006067Y024164D03*
X005959Y024281D03*
X005947Y024284D03*
X005946Y024284D03*
D529*
X005938Y025021D03*
D530*
X005968Y025039D03*
X005938Y024284D03*
D531*
X005949Y024284D03*
X005950Y024284D03*
X005952Y024284D03*
X005955Y024284D03*
X005958Y024283D03*
X005941Y025022D03*
X005940Y025022D03*
D532*
X005943Y025022D03*
X005944Y025022D03*
X005958Y025025D03*
X006336Y025135D03*
X006426Y025022D03*
D533*
X005956Y025024D03*
X005947Y025023D03*
X005946Y025023D03*
X006810Y024655D03*
X006427Y024291D03*
D534*
X005955Y025024D03*
X005950Y025022D03*
X005949Y025022D03*
D535*
X005952Y025023D03*
X006334Y025138D03*
D536*
X005953Y025023D03*
D537*
X005953Y024284D03*
D538*
X005956Y024283D03*
D539*
X006426Y024289D03*
X006424Y025024D03*
X006423Y025025D03*
X006048Y025135D03*
X005959Y025028D03*
D540*
X005964Y024277D03*
D541*
X005965Y024276D03*
X006364Y024202D03*
D542*
X005968Y024272D03*
D543*
X006064Y024172D03*
X006415Y024276D03*
X005970Y025041D03*
D544*
X005974Y025045D03*
X006411Y025039D03*
X006411Y024272D03*
X006367Y024211D03*
X006063Y024175D03*
X005973Y024266D03*
X005971Y024268D03*
D545*
X005979Y024260D03*
X006406Y025045D03*
D546*
X005998Y025065D03*
D547*
X005998Y024245D03*
D548*
X006012Y024234D03*
X006375Y025069D03*
D549*
X006013Y024233D03*
D550*
X006016Y024232D03*
D551*
X006028Y025084D03*
X006358Y025080D03*
D552*
X006043Y025124D03*
D553*
X006043Y024218D03*
D554*
X006049Y025143D03*
D555*
X006051Y025149D03*
X006070Y024148D03*
D556*
X006805Y024655D03*
X006330Y025152D03*
X006052Y025153D03*
D557*
X006054Y025157D03*
X006804Y024656D03*
D558*
X006354Y024171D03*
X006055Y025159D03*
D559*
X006057Y025163D03*
X006801Y024656D03*
X006352Y024167D03*
D560*
X006058Y025168D03*
D561*
X006060Y025177D03*
X006796Y024656D03*
D562*
X006061Y025181D03*
D563*
X006063Y025185D03*
X006442Y024336D03*
X006345Y024141D03*
D564*
X006064Y025188D03*
D565*
X006066Y025190D03*
D566*
X006067Y025195D03*
X006084Y024105D03*
X006340Y024130D03*
D567*
X006784Y024657D03*
X006069Y025203D03*
D568*
X006429Y024295D03*
X006360Y024191D03*
X006069Y024157D03*
D569*
X006781Y024655D03*
X006249Y025234D03*
X006247Y025234D03*
X006246Y025234D03*
X006244Y025234D03*
X006243Y025234D03*
X006241Y025234D03*
X006232Y025236D03*
X006231Y025236D03*
X006229Y025236D03*
X006154Y025236D03*
X006153Y025236D03*
X006151Y025236D03*
X006150Y025236D03*
X006147Y025236D03*
X006145Y025236D03*
X006144Y025236D03*
X006142Y025236D03*
X006141Y025236D03*
X006070Y025209D03*
D570*
X006072Y025213D03*
X006121Y025234D03*
X006123Y025234D03*
X006124Y025234D03*
X006261Y025232D03*
X006262Y025232D03*
X006312Y025211D03*
X006271Y024080D03*
X006267Y024079D03*
X006117Y024077D03*
X006115Y024077D03*
X006096Y024083D03*
X006094Y024085D03*
D571*
X006072Y024142D03*
D572*
X006073Y025216D03*
X006268Y025231D03*
D573*
X006073Y024139D03*
D574*
X006100Y024081D03*
X006102Y024081D03*
X006105Y024079D03*
X006106Y024079D03*
X006108Y024079D03*
X006295Y024087D03*
X006334Y024109D03*
X006309Y025216D03*
X006075Y025216D03*
D575*
X006075Y024136D03*
D576*
X006076Y025219D03*
X006291Y025226D03*
D577*
X006351Y024163D03*
X006076Y024133D03*
D578*
X006078Y025219D03*
X006079Y025221D03*
X006292Y025225D03*
X006301Y025221D03*
X006306Y025219D03*
X006307Y025218D03*
D579*
X006078Y024127D03*
D580*
X006079Y024119D03*
X006348Y024149D03*
D581*
X006304Y025220D03*
X006303Y025220D03*
X006300Y025222D03*
X006297Y025223D03*
X006295Y025223D03*
X006294Y025225D03*
X006081Y025222D03*
D582*
X006081Y024112D03*
D583*
X006082Y025222D03*
X006084Y025224D03*
X006085Y025224D03*
D584*
X006082Y024108D03*
D585*
X006085Y024101D03*
D586*
X006310Y024091D03*
X006331Y024105D03*
X006087Y025225D03*
D587*
X006087Y024097D03*
D588*
X006088Y025226D03*
D589*
X006088Y024091D03*
X006208Y024071D03*
X006223Y024073D03*
D590*
X006303Y024089D03*
X006304Y024089D03*
X006307Y024091D03*
X006309Y024091D03*
X006090Y025226D03*
X006091Y025228D03*
D591*
X006090Y024088D03*
X006123Y024076D03*
X006124Y024076D03*
X006126Y024076D03*
X006130Y024074D03*
X006132Y024074D03*
X006135Y024074D03*
X006136Y024074D03*
X006138Y024074D03*
X006252Y024076D03*
X006255Y024076D03*
X006256Y024076D03*
D592*
X006259Y024077D03*
X006261Y024077D03*
X006262Y024077D03*
X006091Y024086D03*
X006132Y025235D03*
X006135Y025235D03*
X006136Y025235D03*
X006138Y025235D03*
X006139Y025235D03*
X006250Y025234D03*
X006252Y025234D03*
X006255Y025234D03*
X006256Y025234D03*
D593*
X006289Y025227D03*
X006096Y025228D03*
X006094Y025228D03*
X006093Y025228D03*
X006333Y024106D03*
X006306Y024090D03*
X006301Y024088D03*
X006300Y024088D03*
D594*
X006265Y024078D03*
X006264Y024078D03*
X006121Y024076D03*
X006120Y024076D03*
X006093Y024085D03*
X006126Y025234D03*
X006127Y025234D03*
X006129Y025234D03*
X006130Y025234D03*
X006258Y025233D03*
X006259Y025233D03*
D595*
X006286Y025228D03*
X006288Y025228D03*
X006102Y025229D03*
X006100Y025229D03*
X006099Y025229D03*
X006097Y025229D03*
X006297Y024088D03*
D596*
X006289Y024084D03*
X006288Y024084D03*
X006286Y024084D03*
X006285Y024082D03*
X006282Y024082D03*
X006280Y024082D03*
X006279Y024082D03*
X006277Y024081D03*
X006276Y024081D03*
X006274Y024081D03*
X006273Y024081D03*
X006270Y024079D03*
X006336Y024112D03*
X006114Y024078D03*
X006112Y024078D03*
X006097Y024082D03*
X006115Y025231D03*
X006120Y025233D03*
X006264Y025231D03*
X006265Y025231D03*
X006270Y025230D03*
X006310Y025213D03*
D597*
X006267Y025231D03*
X006117Y025232D03*
X006114Y025231D03*
X006112Y025231D03*
X006111Y025231D03*
X006099Y024082D03*
X006109Y024079D03*
X006111Y024079D03*
X006291Y024085D03*
X006292Y024085D03*
X006294Y024086D03*
D598*
X006298Y024088D03*
X006103Y025229D03*
D599*
X006103Y024079D03*
D600*
X006109Y025230D03*
X006108Y025230D03*
X006106Y025230D03*
X006105Y025230D03*
X006279Y025228D03*
X006280Y025228D03*
X006282Y025228D03*
X006285Y025228D03*
D601*
X006118Y025233D03*
X006283Y024082D03*
D602*
X006118Y024076D03*
X006313Y025209D03*
D603*
X006129Y024075D03*
X006127Y024075D03*
D604*
X006133Y025235D03*
X006253Y025234D03*
D605*
X006253Y024076D03*
X006133Y024074D03*
D606*
X006139Y024073D03*
X006141Y024073D03*
X006142Y024073D03*
X006144Y024073D03*
X006145Y024073D03*
X006244Y024075D03*
X006246Y024075D03*
X006247Y024075D03*
X006249Y024075D03*
X006250Y024075D03*
X006258Y024076D03*
D607*
X006243Y024074D03*
X006241Y024074D03*
X006240Y024074D03*
X006237Y024074D03*
X006235Y024074D03*
X006156Y024073D03*
X006154Y024073D03*
X006153Y024073D03*
X006151Y024073D03*
X006150Y024073D03*
X006147Y024073D03*
X006337Y024116D03*
D608*
X006148Y025236D03*
D609*
X006148Y024073D03*
X006238Y024074D03*
D610*
X006315Y025207D03*
X006240Y025235D03*
X006237Y025235D03*
X006235Y025235D03*
X006234Y025235D03*
X006228Y025237D03*
X006226Y025237D03*
X006225Y025237D03*
X006222Y025237D03*
X006220Y025237D03*
X006219Y025237D03*
X006217Y025237D03*
X006165Y025237D03*
X006162Y025237D03*
X006160Y025237D03*
X006159Y025237D03*
X006157Y025237D03*
X006156Y025237D03*
D611*
X006165Y024072D03*
X006162Y024072D03*
X006160Y024072D03*
X006159Y024072D03*
X006157Y024072D03*
X006216Y024072D03*
X006217Y024072D03*
X006219Y024072D03*
X006225Y024073D03*
X006226Y024073D03*
X006228Y024073D03*
X006229Y024073D03*
X006231Y024073D03*
X006232Y024073D03*
X006234Y024073D03*
D612*
X006238Y025235D03*
X006223Y025237D03*
X006163Y025237D03*
D613*
X006163Y024072D03*
D614*
X006172Y025237D03*
X006171Y025237D03*
X006169Y025237D03*
X006168Y025237D03*
X006166Y025237D03*
X006174Y025237D03*
X006175Y025239D03*
X006177Y025239D03*
X006180Y025239D03*
X006181Y025239D03*
X006183Y025239D03*
X006184Y025239D03*
X006207Y025237D03*
X006210Y025237D03*
X006211Y025237D03*
X006213Y025237D03*
X006214Y025237D03*
X006216Y025237D03*
D615*
X006189Y025240D03*
X006187Y025240D03*
X006186Y025240D03*
X006220Y024073D03*
X006222Y024073D03*
X006214Y024071D03*
X006213Y024071D03*
X006211Y024071D03*
X006210Y024071D03*
X006207Y024071D03*
X006205Y024071D03*
X006175Y024071D03*
X006174Y024071D03*
X006172Y024071D03*
X006171Y024071D03*
X006169Y024071D03*
X006168Y024071D03*
X006166Y024071D03*
D616*
X006177Y024070D03*
X006180Y024070D03*
X006181Y024070D03*
X006183Y024070D03*
X006184Y024070D03*
X006186Y024070D03*
X006187Y024070D03*
X006189Y024070D03*
X006190Y024070D03*
X006192Y024070D03*
X006195Y024070D03*
X006196Y024070D03*
X006198Y024070D03*
X006199Y024070D03*
X006201Y024070D03*
X006202Y024070D03*
X006204Y024070D03*
X006316Y025203D03*
X006196Y025239D03*
X006195Y025239D03*
X006192Y025239D03*
X006190Y025239D03*
D617*
X006178Y025239D03*
X006208Y025237D03*
D618*
X006193Y025239D03*
X006193Y024070D03*
X006178Y024070D03*
D619*
X006199Y025238D03*
X006198Y025238D03*
X006201Y025238D03*
X006202Y025238D03*
X006204Y025238D03*
X006205Y025238D03*
D620*
X006268Y024079D03*
D621*
X006277Y025229D03*
X006276Y025229D03*
X006274Y025229D03*
X006273Y025229D03*
X006271Y025229D03*
D622*
X006283Y025228D03*
D623*
X006298Y025222D03*
D624*
X006330Y024103D03*
X006312Y024092D03*
D625*
X006313Y024092D03*
X006328Y024101D03*
D626*
X006327Y024099D03*
X006318Y024094D03*
X006315Y024093D03*
D627*
X006316Y024094D03*
X006319Y024095D03*
X006321Y024095D03*
D628*
X006786Y024656D03*
X006318Y025198D03*
D629*
X006319Y025190D03*
X006789Y024656D03*
D630*
X006792Y024656D03*
X006346Y024145D03*
X006321Y025183D03*
D631*
X006322Y025178D03*
D632*
X006325Y024097D03*
X006322Y024096D03*
D633*
X006324Y025174D03*
D634*
X006324Y024097D03*
D635*
X006325Y025171D03*
D636*
X006327Y025168D03*
D637*
X006328Y025161D03*
D638*
X006331Y025146D03*
D639*
X006333Y025141D03*
D640*
X006339Y024122D03*
D641*
X006340Y025114D03*
D642*
X006342Y024135D03*
D643*
X006343Y025105D03*
D644*
X006343Y024138D03*
D645*
X006349Y024157D03*
D646*
X006355Y024174D03*
X006438Y024310D03*
X006438Y025000D03*
D647*
X006357Y024178D03*
D648*
X006358Y024184D03*
D649*
X006361Y024196D03*
X006424Y024286D03*
D650*
X006373Y025071D03*
D651*
X006382Y025064D03*
D652*
X006403Y025047D03*
D653*
X006417Y024277D03*
D654*
X006418Y025032D03*
D655*
X006418Y024278D03*
D656*
X006421Y025027D03*
D657*
X006427Y025019D03*
D658*
X006429Y025016D03*
D659*
X006430Y025012D03*
D660*
X006430Y024300D03*
D661*
X006432Y025009D03*
D662*
X006432Y024302D03*
D663*
X006433Y025008D03*
D664*
X006433Y024304D03*
D665*
X006807Y024656D03*
X006435Y025006D03*
D666*
X006435Y024306D03*
D667*
X006436Y025004D03*
D668*
X006436Y024307D03*
D669*
X006439Y024319D03*
X006439Y024991D03*
D670*
X006441Y024985D03*
D671*
X006441Y024330D03*
D672*
X006442Y024979D03*
D673*
X006444Y024655D03*
D674*
X006445Y024656D03*
D675*
X006447Y024655D03*
X006627Y024658D03*
D676*
X006448Y024655D03*
D677*
X006450Y024656D03*
D678*
X006451Y024656D03*
X006624Y024659D03*
D679*
X006622Y024658D03*
X006453Y024657D03*
D680*
X006454Y024656D03*
X006621Y024659D03*
D681*
X006457Y024656D03*
X006456Y024656D03*
D682*
X006459Y024655D03*
X006618Y024658D03*
D683*
X006460Y024656D03*
D684*
X006462Y024655D03*
X006465Y024655D03*
D685*
X006463Y024655D03*
D686*
X006466Y024655D03*
X006468Y024655D03*
X006469Y024655D03*
D687*
X006471Y024655D03*
X006612Y024658D03*
D688*
X006472Y024656D03*
D689*
X006474Y024655D03*
D690*
X006475Y024655D03*
D691*
X006477Y024656D03*
X006606Y024659D03*
D692*
X006478Y024655D03*
D693*
X006480Y024655D03*
X006481Y024655D03*
X006603Y024658D03*
D694*
X006601Y024658D03*
X006486Y024655D03*
X006484Y024655D03*
X006483Y024655D03*
D695*
X006487Y024656D03*
X006600Y024659D03*
D696*
X006489Y024655D03*
D697*
X006490Y024656D03*
D698*
X006492Y024655D03*
D699*
X006493Y024656D03*
D700*
X006495Y024656D03*
X006496Y024656D03*
D701*
X006498Y024656D03*
D702*
X006499Y024655D03*
D703*
X006501Y024656D03*
D704*
X006502Y024655D03*
X006504Y024655D03*
D705*
X006505Y024655D03*
X006507Y024655D03*
D706*
X006508Y024656D03*
D707*
X006510Y024655D03*
D708*
X006511Y024656D03*
X006585Y024659D03*
D709*
X006582Y024659D03*
X006513Y024656D03*
D710*
X006514Y024657D03*
X006580Y024660D03*
D711*
X006579Y024659D03*
X006516Y024656D03*
D712*
X006517Y024656D03*
X006576Y024659D03*
D713*
X006519Y024655D03*
D714*
X006520Y024656D03*
X006574Y024659D03*
D715*
X006522Y024655D03*
D716*
X006523Y024655D03*
D717*
X006525Y024655D03*
X006526Y024655D03*
D718*
X006528Y024655D03*
X006570Y024660D03*
D719*
X006529Y024656D03*
D720*
X006531Y024656D03*
D721*
X006532Y024656D03*
D722*
X006534Y024655D03*
X006562Y024660D03*
D723*
X006561Y024659D03*
X006535Y024656D03*
D724*
X006537Y024655D03*
D725*
X006538Y024655D03*
D726*
X006540Y024655D03*
D727*
X006541Y024656D03*
X006543Y024656D03*
D728*
X006544Y024656D03*
X006546Y024656D03*
X006556Y024659D03*
D729*
X006555Y024660D03*
X006550Y024658D03*
X006549Y024658D03*
X006547Y024657D03*
D730*
X006552Y024659D03*
D731*
X006553Y024659D03*
D732*
X006558Y024660D03*
D733*
X006559Y024659D03*
D734*
X006564Y024660D03*
X006565Y024660D03*
D735*
X006567Y024660D03*
D736*
X006568Y024660D03*
D737*
X006571Y024660D03*
D738*
X006573Y024659D03*
D739*
X006577Y024660D03*
D740*
X006583Y024659D03*
D741*
X006586Y024659D03*
D742*
X006588Y024659D03*
D743*
X006589Y024659D03*
D744*
X006591Y024659D03*
D745*
X006592Y024660D03*
D746*
X006594Y024659D03*
D747*
X006595Y024660D03*
D748*
X006597Y024659D03*
D749*
X006598Y024659D03*
D750*
X006604Y024658D03*
D751*
X006607Y024658D03*
D752*
X006609Y024659D03*
D753*
X006610Y024659D03*
D754*
X006613Y024658D03*
D755*
X006615Y024658D03*
D756*
X006616Y024658D03*
D757*
X006619Y024658D03*
D758*
X006625Y024658D03*
D759*
X006628Y024658D03*
D760*
X006630Y024658D03*
D761*
X006631Y024658D03*
D762*
X006633Y024658D03*
D763*
X006634Y024658D03*
D764*
X006636Y024659D03*
D765*
X006637Y024658D03*
D766*
X006639Y024658D03*
D767*
X006640Y024658D03*
D768*
X006642Y024658D03*
D769*
X006643Y024657D03*
D770*
X006645Y024658D03*
D771*
X006646Y024658D03*
D772*
X006648Y024658D03*
D773*
X006649Y024658D03*
D774*
X006651Y024658D03*
D775*
X006652Y024658D03*
D776*
X006654Y024658D03*
D777*
X006655Y024658D03*
D778*
X006657Y024657D03*
D779*
X006658Y024657D03*
D780*
X006660Y024658D03*
D781*
X006661Y024658D03*
D782*
X006663Y024658D03*
D783*
X006664Y024658D03*
X006666Y024658D03*
D784*
X006667Y024658D03*
D785*
X006669Y024657D03*
D786*
X006670Y024657D03*
X006672Y024657D03*
D787*
X006673Y024657D03*
D788*
X006675Y024657D03*
D789*
X006676Y024658D03*
D790*
X006678Y024658D03*
X006679Y024658D03*
D791*
X006681Y024658D03*
D792*
X006682Y024658D03*
D793*
X006684Y024657D03*
D794*
X006685Y024657D03*
X006687Y024657D03*
D795*
X006688Y024657D03*
D796*
X006690Y024657D03*
D797*
X006691Y024658D03*
D798*
X006693Y024658D03*
X006694Y024658D03*
D799*
X006696Y024658D03*
D800*
X006697Y024657D03*
D801*
X006699Y024657D03*
D802*
X006700Y024656D03*
D803*
X006702Y024656D03*
D804*
X006703Y024657D03*
D805*
X006705Y024657D03*
D806*
X006706Y024658D03*
D807*
X006708Y024657D03*
D808*
X006709Y024657D03*
D809*
X006711Y024657D03*
D810*
X006712Y024656D03*
D811*
X006714Y024656D03*
X006715Y024656D03*
D812*
X006717Y024656D03*
D813*
X006718Y024657D03*
D814*
X006720Y024657D03*
D815*
X006721Y024657D03*
D816*
X006723Y024656D03*
D817*
X006724Y024656D03*
X006772Y024655D03*
D818*
X006726Y024655D03*
D819*
X006727Y024656D03*
X006771Y024655D03*
D820*
X006730Y024656D03*
X006729Y024656D03*
D821*
X006732Y024656D03*
D822*
X006733Y024657D03*
D823*
X006735Y024657D03*
D824*
X006736Y024656D03*
D825*
X006738Y024657D03*
X006762Y024655D03*
D826*
X006739Y024656D03*
D827*
X006741Y024656D03*
X006759Y024655D03*
D828*
X006757Y024655D03*
X006756Y024655D03*
X006747Y024655D03*
X006745Y024655D03*
X006744Y024655D03*
X006742Y024655D03*
D829*
X006748Y024655D03*
D830*
X006750Y024655D03*
X006751Y024655D03*
X006753Y024655D03*
X006754Y024655D03*
D831*
X006760Y024655D03*
D832*
X006763Y024655D03*
D833*
X006765Y024655D03*
D834*
X006766Y024655D03*
D835*
X006768Y024655D03*
D836*
X006769Y024655D03*
D837*
X006774Y024655D03*
D838*
X006775Y024655D03*
D839*
X006786Y024137D03*
X006777Y025181D03*
D840*
X006777Y024478D03*
D841*
X006778Y025182D03*
D842*
X006778Y024478D03*
D843*
X006780Y025183D03*
D844*
X006780Y024476D03*
D845*
X006781Y024139D03*
D846*
X006783Y024657D03*
D847*
X006783Y024137D03*
D848*
X006795Y024135D03*
X006855Y024657D03*
X006784Y025183D03*
D849*
X006784Y024137D03*
D850*
X006787Y025183D03*
D851*
X006787Y024657D03*
D852*
X006787Y024137D03*
D853*
X006789Y025184D03*
D854*
X006789Y024136D03*
D855*
X006790Y025185D03*
D856*
X006790Y024656D03*
D857*
X006790Y024136D03*
D858*
X006801Y024133D03*
X006792Y025185D03*
D859*
X006793Y025186D03*
X006913Y024656D03*
D860*
X006793Y024656D03*
D861*
X006853Y024657D03*
X006793Y024135D03*
D862*
X006795Y024657D03*
D863*
X006934Y024657D03*
X006936Y024657D03*
X006937Y024657D03*
X006807Y024132D03*
X006798Y025186D03*
D864*
X006798Y024656D03*
D865*
X006870Y024658D03*
X006871Y024658D03*
X006873Y024658D03*
X006874Y024658D03*
X006876Y024658D03*
X006798Y024134D03*
D866*
X006946Y024656D03*
X006948Y024656D03*
X006949Y024656D03*
X006799Y025187D03*
D867*
X006799Y024656D03*
D868*
X006799Y024134D03*
D869*
X006976Y024655D03*
X006978Y024655D03*
X006979Y024655D03*
X006802Y025188D03*
D870*
X006802Y024656D03*
D871*
X006922Y024657D03*
X006924Y024657D03*
X006925Y024657D03*
X006804Y024132D03*
D872*
X006813Y024130D03*
X006987Y024656D03*
X006805Y025189D03*
D873*
X006808Y025189D03*
X007003Y024655D03*
D874*
X006808Y024656D03*
D875*
X006808Y024131D03*
D876*
X006811Y025189D03*
D877*
X006814Y025190D03*
X007047Y024655D03*
X007050Y024655D03*
D878*
X007053Y024655D03*
X007054Y024655D03*
X007056Y024655D03*
X006816Y025190D03*
D879*
X006816Y024129D03*
D880*
X007066Y024654D03*
X006817Y025191D03*
D881*
X007002Y024655D03*
X007005Y024655D03*
X007006Y024655D03*
X006817Y024129D03*
D882*
X007080Y024655D03*
X006819Y025192D03*
D883*
X007023Y024655D03*
X007024Y024655D03*
X007026Y024655D03*
X007027Y024655D03*
X007029Y024655D03*
X006819Y024128D03*
D884*
X006820Y025192D03*
D885*
X006822Y025192D03*
X007086Y024654D03*
D886*
X006823Y025192D03*
D887*
X006823Y024127D03*
D888*
X006832Y024124D03*
X006825Y025192D03*
D889*
X006826Y025193D03*
X007089Y024655D03*
D890*
X007077Y024655D03*
X007075Y024655D03*
X007074Y024655D03*
X007072Y024655D03*
X007071Y024655D03*
X007069Y024655D03*
X007068Y024655D03*
X006826Y024127D03*
D891*
X006835Y024124D03*
X007090Y024654D03*
X006828Y025194D03*
D892*
X007081Y024654D03*
X007083Y024654D03*
X006828Y024126D03*
D893*
X006829Y024655D03*
D894*
X006831Y025194D03*
D895*
X006831Y024655D03*
D896*
X007087Y024654D03*
X006831Y024124D03*
D897*
X006832Y025195D03*
D898*
X006832Y024656D03*
D899*
X006834Y024655D03*
D900*
X006834Y024124D03*
D901*
X007095Y024652D03*
X006835Y025195D03*
D902*
X006835Y024655D03*
D903*
X006837Y024655D03*
D904*
X006837Y024124D03*
D905*
X006838Y025195D03*
D906*
X006838Y024656D03*
D907*
X006838Y024123D03*
D908*
X006840Y024655D03*
D909*
X006840Y024122D03*
D910*
X006841Y024655D03*
D911*
X006843Y024655D03*
D912*
X006844Y025197D03*
D913*
X006844Y024655D03*
D914*
X006844Y024122D03*
D915*
X006852Y024120D03*
X006846Y025197D03*
D916*
X006846Y024655D03*
D917*
X006847Y024655D03*
D918*
X006850Y024656D03*
D919*
X006852Y025198D03*
D920*
X006853Y025198D03*
D921*
X006855Y025198D03*
D922*
X006861Y024657D03*
X006859Y024657D03*
X006858Y024657D03*
D923*
X006858Y024120D03*
D924*
X006859Y024119D03*
D925*
X006861Y024119D03*
D926*
X006862Y025200D03*
D927*
X006864Y025199D03*
X006870Y024118D03*
D928*
X006865Y025199D03*
D929*
X006868Y025200D03*
D930*
X006868Y024658D03*
D931*
X006868Y024118D03*
D932*
X006876Y025201D03*
D933*
X006877Y024657D03*
D934*
X006882Y024657D03*
X006885Y024657D03*
D935*
X006883Y024657D03*
D936*
X006883Y024115D03*
D937*
X006898Y024656D03*
D938*
X006898Y024114D03*
D939*
X006907Y024656D03*
X006909Y024656D03*
X006910Y024656D03*
X006912Y024656D03*
X006915Y024656D03*
D940*
X006916Y024657D03*
D941*
X006928Y024657D03*
D942*
X006939Y024656D03*
X006940Y024656D03*
X006942Y024656D03*
D943*
X006943Y024655D03*
D944*
X006945Y024655D03*
D945*
X006951Y024655D03*
X006952Y024655D03*
X006954Y024655D03*
X006955Y024655D03*
X006957Y024655D03*
X006960Y024655D03*
X006961Y024655D03*
D946*
X006958Y024655D03*
D947*
X006975Y024656D03*
D948*
X006988Y024656D03*
D949*
X006993Y024656D03*
D950*
X006994Y024655D03*
X006996Y024655D03*
X006997Y024655D03*
X006999Y024655D03*
D951*
X007033Y024655D03*
D952*
X007039Y024655D03*
D953*
X007045Y024654D03*
D954*
X007048Y024655D03*
D955*
X007063Y024655D03*
D956*
X007078Y024655D03*
D957*
X007093Y024653D03*
M02*
