solid Default
  facet normal -9.284767e-01 3.713907e-01 0.000000e+00
    outer loop
      vertex -1.600000e+01 -3.450000e+01 1.000000e+00
      vertex -2.000000e+01 -4.450000e+01 0.000000e+00
      vertex -2.000000e+01 -4.450000e+01 1.000000e+00
    endloop
  endfacet
  facet normal -9.284767e-01 3.713907e-01 0.000000e+00
    outer loop
      vertex -2.000000e+01 -4.450000e+01 0.000000e+00
      vertex -1.600000e+01 -3.450000e+01 1.000000e+00
      vertex -1.600000e+01 -3.450000e+01 0.000000e+00
    endloop
  endfacet
  facet normal 0.000000e+00 1.000000e+00 0.000000e+00
    outer loop
      vertex -1.600000e+01 4.450000e+01 1.000000e+00
      vertex 2.000000e+01 4.450000e+01 0.000000e+00
      vertex -1.600000e+01 4.450000e+01 0.000000e+00
    endloop
  endfacet
  facet normal 0.000000e+00 1.000000e+00 0.000000e+00
    outer loop
      vertex 2.000000e+01 4.450000e+01 0.000000e+00
      vertex -1.600000e+01 4.450000e+01 1.000000e+00
      vertex 2.000000e+01 4.450000e+01 1.000000e+00
    endloop
  endfacet
  facet normal 1.000000e+00 0.000000e+00 0.000000e+00
    outer loop
      vertex 2.000000e+01 4.450000e+01 0.000000e+00
      vertex 2.000000e+01 -4.450000e+01 1.000000e+00
      vertex 2.000000e+01 -4.450000e+01 0.000000e+00
    endloop
  endfacet
  facet normal 1.000000e+00 0.000000e+00 0.000000e+00
    outer loop
      vertex 2.000000e+01 -4.450000e+01 1.000000e+00
      vertex 2.000000e+01 4.450000e+01 0.000000e+00
      vertex 2.000000e+01 4.450000e+01 1.000000e+00
    endloop
  endfacet
  facet normal 0.000000e+00 1.000000e+00 0.000000e+00
    outer loop
      vertex -1.435000e+01 -3.590000e+01 1.000000e+00
      vertex 9.700001e+00 -3.590000e+01 0.000000e+00
      vertex -1.435000e+01 -3.590000e+01 0.000000e+00
    endloop
  endfacet
  facet normal 0.000000e+00 1.000000e+00 0.000000e+00
    outer loop
      vertex 9.700001e+00 -3.590000e+01 0.000000e+00
      vertex -1.435000e+01 -3.590000e+01 1.000000e+00
      vertex 9.700001e+00 -3.590000e+01 1.000000e+00
    endloop
  endfacet
  facet normal -1.000000e+00 0.000000e+00 0.000000e+00
    outer loop
      vertex 9.700001e+00 3.615000e+01 1.000000e+00
      vertex 9.700001e+00 -3.590000e+01 0.000000e+00
      vertex 9.700001e+00 -3.590000e+01 1.000000e+00
    endloop
  endfacet
  facet normal -1.000000e+00 0.000000e+00 0.000000e+00
    outer loop
      vertex 9.700001e+00 -3.590000e+01 0.000000e+00
      vertex 9.700001e+00 3.615000e+01 1.000000e+00
      vertex 9.700001e+00 3.615000e+01 0.000000e+00
    endloop
  endfacet
  facet normal 1.000000e+00 0.000000e+00 0.000000e+00
    outer loop
      vertex -1.435000e+01 3.615000e+01 0.000000e+00
      vertex -1.435000e+01 -3.590000e+01 1.000000e+00
      vertex -1.435000e+01 -3.590000e+01 0.000000e+00
    endloop
  endfacet
  facet normal 1.000000e+00 0.000000e+00 0.000000e+00
    outer loop
      vertex -1.435000e+01 -3.590000e+01 1.000000e+00
      vertex -1.435000e+01 3.615000e+01 0.000000e+00
      vertex -1.435000e+01 3.615000e+01 1.000000e+00
    endloop
  endfacet
  facet normal -0.000000e+00 -1.000000e+00 -0.000000e+00
    outer loop
      vertex 9.700001e+00 3.615000e+01 1.000000e+00
      vertex -1.435000e+01 3.615000e+01 0.000000e+00
      vertex 9.700001e+00 3.615000e+01 0.000000e+00
    endloop
  endfacet
  facet normal -0.000000e+00 -1.000000e+00 -0.000000e+00
    outer loop
      vertex -1.435000e+01 3.615000e+01 0.000000e+00
      vertex 9.700001e+00 3.615000e+01 1.000000e+00
      vertex -1.435000e+01 3.615000e+01 1.000000e+00
    endloop
  endfacet
  facet normal -9.284767e-01 -3.713907e-01 0.000000e+00
    outer loop
      vertex -2.000000e+01 3.550000e+01 1.000000e+00
      vertex -1.600000e+01 2.550000e+01 0.000000e+00
      vertex -1.600000e+01 2.550000e+01 1.000000e+00
    endloop
  endfacet
  facet normal -9.284767e-01 -3.713907e-01 0.000000e+00
    outer loop
      vertex -1.600000e+01 2.550000e+01 0.000000e+00
      vertex -2.000000e+01 3.550000e+01 1.000000e+00
      vertex -2.000000e+01 3.550000e+01 0.000000e+00
    endloop
  endfacet
  facet normal -9.138116e-01 4.061385e-01 0.000000e+00
    outer loop
      vertex -1.600000e+01 4.450000e+01 1.000000e+00
      vertex -2.000000e+01 3.550000e+01 0.000000e+00
      vertex -2.000000e+01 3.550000e+01 1.000000e+00
    endloop
  endfacet
  facet normal -9.138116e-01 4.061385e-01 0.000000e+00
    outer loop
      vertex -2.000000e+01 3.550000e+01 0.000000e+00
      vertex -1.600000e+01 4.450000e+01 1.000000e+00
      vertex -1.600000e+01 4.450000e+01 0.000000e+00
    endloop
  endfacet
  facet normal -9.284767e-01 -3.713907e-01 0.000000e+00
    outer loop
      vertex -2.000000e+01 1.550000e+01 1.000000e+00
      vertex -1.600000e+01 5.500000e+00 0.000000e+00
      vertex -1.600000e+01 5.500000e+00 1.000000e+00
    endloop
  endfacet
  facet normal -9.284767e-01 -3.713907e-01 0.000000e+00
    outer loop
      vertex -1.600000e+01 5.500000e+00 0.000000e+00
      vertex -2.000000e+01 1.550000e+01 1.000000e+00
      vertex -2.000000e+01 1.550000e+01 0.000000e+00
    endloop
  endfacet
  facet normal -9.284767e-01 3.713907e-01 0.000000e+00
    outer loop
      vertex -1.600000e+01 2.550000e+01 1.000000e+00
      vertex -2.000000e+01 1.550000e+01 0.000000e+00
      vertex -2.000000e+01 1.550000e+01 1.000000e+00
    endloop
  endfacet
  facet normal -9.284767e-01 3.713907e-01 0.000000e+00
    outer loop
      vertex -2.000000e+01 1.550000e+01 0.000000e+00
      vertex -1.600000e+01 2.550000e+01 1.000000e+00
      vertex -1.600000e+01 2.550000e+01 0.000000e+00
    endloop
  endfacet
  facet normal -9.284767e-01 3.713907e-01 0.000000e+00
    outer loop
      vertex -1.600000e+01 -1.450000e+01 1.000000e+00
      vertex -2.000000e+01 -2.450000e+01 0.000000e+00
      vertex -2.000000e+01 -2.450000e+01 1.000000e+00
    endloop
  endfacet
  facet normal -9.284767e-01 3.713907e-01 0.000000e+00
    outer loop
      vertex -2.000000e+01 -2.450000e+01 0.000000e+00
      vertex -1.600000e+01 -1.450000e+01 1.000000e+00
      vertex -1.600000e+01 -1.450000e+01 0.000000e+00
    endloop
  endfacet
  facet normal 0.000000e+00 -1.000000e+00 0.000000e+00
    outer loop
      vertex 2.000000e+01 -4.450000e+01 1.000000e+00
      vertex -2.000000e+01 -4.450000e+01 0.000000e+00
      vertex 2.000000e+01 -4.450000e+01 0.000000e+00
    endloop
  endfacet
  facet normal 0.000000e+00 -1.000000e+00 0.000000e+00
    outer loop
      vertex -2.000000e+01 -4.450000e+01 0.000000e+00
      vertex 2.000000e+01 -4.450000e+01 1.000000e+00
      vertex -2.000000e+01 -4.450000e+01 1.000000e+00
    endloop
  endfacet
  facet normal 0.000000e+00 0.000000e+00 1.000000e+00
    outer loop
      vertex -2.000000e+01 -4.450000e+01 1.000000e+00
      vertex -1.435000e+01 -3.590000e+01 1.000000e+00
      vertex -1.600000e+01 -3.450000e+01 1.000000e+00
    endloop
  endfacet
  facet normal 0.000000e+00 0.000000e+00 1.000000e+00
    outer loop
      vertex -1.435000e+01 -3.590000e+01 1.000000e+00
      vertex -2.000000e+01 -4.450000e+01 1.000000e+00
      vertex 2.000000e+01 -4.450000e+01 1.000000e+00
    endloop
  endfacet
  facet normal 0.000000e+00 0.000000e+00 1.000000e+00
    outer loop
      vertex -1.600000e+01 -3.450000e+01 1.000000e+00
      vertex -1.435000e+01 -3.590000e+01 1.000000e+00
      vertex -1.600000e+01 -1.450000e+01 1.000000e+00
    endloop
  endfacet
  facet normal 0.000000e+00 0.000000e+00 1.000000e+00
    outer loop
      vertex -1.600000e+01 -1.450000e+01 1.000000e+00
      vertex -1.435000e+01 -3.590000e+01 1.000000e+00
      vertex -1.600000e+01 5.500000e+00 1.000000e+00
    endloop
  endfacet
  facet normal 0.000000e+00 0.000000e+00 1.000000e+00
    outer loop
      vertex -1.600000e+01 5.500000e+00 1.000000e+00
      vertex -1.435000e+01 -3.590000e+01 1.000000e+00
      vertex -1.600000e+01 2.550000e+01 1.000000e+00
    endloop
  endfacet
  facet normal 0.000000e+00 0.000000e+00 1.000000e+00
    outer loop
      vertex -1.435000e+01 -3.590000e+01 1.000000e+00
      vertex 2.000000e+01 -4.450000e+01 1.000000e+00
      vertex 9.700001e+00 -3.590000e+01 1.000000e+00
    endloop
  endfacet
  facet normal 0.000000e+00 0.000000e+00 1.000000e+00
    outer loop
      vertex 9.700001e+00 -3.590000e+01 1.000000e+00
      vertex 2.000000e+01 -4.450000e+01 1.000000e+00
      vertex 9.700001e+00 3.615000e+01 1.000000e+00
    endloop
  endfacet
  facet normal 0.000000e+00 0.000000e+00 1.000000e+00
    outer loop
      vertex -1.600000e+01 2.550000e+01 1.000000e+00
      vertex -1.600000e+01 4.450000e+01 1.000000e+00
      vertex -2.000000e+01 3.550000e+01 1.000000e+00
    endloop
  endfacet
  facet normal 0.000000e+00 0.000000e+00 1.000000e+00
    outer loop
      vertex -1.600000e+01 4.450000e+01 1.000000e+00
      vertex -1.600000e+01 2.550000e+01 1.000000e+00
      vertex -1.435000e+01 3.615000e+01 1.000000e+00
    endloop
  endfacet
  facet normal 0.000000e+00 0.000000e+00 1.000000e+00
    outer loop
      vertex -1.600000e+01 4.450000e+01 1.000000e+00
      vertex -1.435000e+01 3.615000e+01 1.000000e+00
      vertex 2.000000e+01 4.450000e+01 1.000000e+00
    endloop
  endfacet
  facet normal 0.000000e+00 0.000000e+00 1.000000e+00
    outer loop
      vertex -1.435000e+01 3.615000e+01 1.000000e+00
      vertex -1.600000e+01 2.550000e+01 1.000000e+00
      vertex -1.435000e+01 -3.590000e+01 1.000000e+00
    endloop
  endfacet
  facet normal 0.000000e+00 0.000000e+00 1.000000e+00
    outer loop
      vertex 2.000000e+01 4.450000e+01 1.000000e+00
      vertex -1.435000e+01 3.615000e+01 1.000000e+00
      vertex 9.700001e+00 3.615000e+01 1.000000e+00
    endloop
  endfacet
  facet normal 0.000000e+00 0.000000e+00 1.000000e+00
    outer loop
      vertex 2.000000e+01 4.450000e+01 1.000000e+00
      vertex 9.700001e+00 3.615000e+01 1.000000e+00
      vertex 2.000000e+01 -4.450000e+01 1.000000e+00
    endloop
  endfacet
  facet normal 0.000000e+00 0.000000e+00 1.000000e+00
    outer loop
      vertex -1.600000e+01 2.550000e+01 1.000000e+00
      vertex -2.000000e+01 1.550000e+01 1.000000e+00
      vertex -1.600000e+01 5.500000e+00 1.000000e+00
    endloop
  endfacet
  facet normal 0.000000e+00 0.000000e+00 1.000000e+00
    outer loop
      vertex -1.600000e+01 5.500000e+00 1.000000e+00
      vertex -2.000000e+01 -4.500000e+00 1.000000e+00
      vertex -1.600000e+01 -1.450000e+01 1.000000e+00
    endloop
  endfacet
  facet normal 0.000000e+00 0.000000e+00 1.000000e+00
    outer loop
      vertex -1.600000e+01 -1.450000e+01 1.000000e+00
      vertex -2.000000e+01 -2.450000e+01 1.000000e+00
      vertex -1.600000e+01 -3.450000e+01 1.000000e+00
    endloop
  endfacet
  facet normal 0.000000e+00 0.000000e+00 -1.000000e+00
    outer loop
      vertex -1.600000e+01 -1.450000e+01 0.000000e+00
      vertex -1.600000e+01 -3.450000e+01 0.000000e+00
      vertex -2.000000e+01 -2.450000e+01 0.000000e+00
    endloop
  endfacet
  facet normal 0.000000e+00 0.000000e+00 -1.000000e+00
    outer loop
      vertex -1.600000e+01 4.450000e+01 0.000000e+00
      vertex -1.600000e+01 2.550000e+01 0.000000e+00
      vertex -2.000000e+01 3.550000e+01 0.000000e+00
    endloop
  endfacet
  facet normal 0.000000e+00 0.000000e+00 -1.000000e+00
    outer loop
      vertex -1.600000e+01 2.550000e+01 0.000000e+00
      vertex -1.600000e+01 4.450000e+01 0.000000e+00
      vertex -1.435000e+01 3.615000e+01 0.000000e+00
    endloop
  endfacet
  facet normal 0.000000e+00 0.000000e+00 -1.000000e+00
    outer loop
      vertex -1.435000e+01 3.615000e+01 0.000000e+00
      vertex -1.600000e+01 4.450000e+01 0.000000e+00
      vertex 2.000000e+01 4.450000e+01 0.000000e+00
    endloop
  endfacet
  facet normal 0.000000e+00 0.000000e+00 -1.000000e+00
    outer loop
      vertex -1.600000e+01 2.550000e+01 0.000000e+00
      vertex -1.435000e+01 3.615000e+01 0.000000e+00
      vertex -1.600000e+01 5.500000e+00 0.000000e+00
    endloop
  endfacet
  facet normal 0.000000e+00 0.000000e+00 -1.000000e+00
    outer loop
      vertex -1.600000e+01 5.500000e+00 0.000000e+00
      vertex -1.435000e+01 3.615000e+01 0.000000e+00
      vertex -1.600000e+01 -1.450000e+01 0.000000e+00
    endloop
  endfacet
  facet normal 0.000000e+00 0.000000e+00 -1.000000e+00
    outer loop
      vertex -1.435000e+01 3.615000e+01 0.000000e+00
      vertex 2.000000e+01 4.450000e+01 0.000000e+00
      vertex 9.700001e+00 3.615000e+01 0.000000e+00
    endloop
  endfacet
  facet normal 0.000000e+00 0.000000e+00 -1.000000e+00
    outer loop
      vertex 9.700001e+00 3.615000e+01 0.000000e+00
      vertex 2.000000e+01 4.450000e+01 0.000000e+00
      vertex 9.700001e+00 -3.590000e+01 0.000000e+00
    endloop
  endfacet
  facet normal 0.000000e+00 0.000000e+00 -1.000000e+00
    outer loop
      vertex -2.000000e+01 -4.450000e+01 0.000000e+00
      vertex -1.435000e+01 -3.590000e+01 0.000000e+00
      vertex 2.000000e+01 -4.450000e+01 0.000000e+00
    endloop
  endfacet
  facet normal 0.000000e+00 0.000000e+00 -1.000000e+00
    outer loop
      vertex -1.435000e+01 -3.590000e+01 0.000000e+00
      vertex -2.000000e+01 -4.450000e+01 0.000000e+00
      vertex -1.600000e+01 -3.450000e+01 0.000000e+00
    endloop
  endfacet
  facet normal 0.000000e+00 0.000000e+00 -1.000000e+00
    outer loop
      vertex -1.435000e+01 -3.590000e+01 0.000000e+00
      vertex -1.600000e+01 -3.450000e+01 0.000000e+00
      vertex -1.600000e+01 -1.450000e+01 0.000000e+00
    endloop
  endfacet
  facet normal 0.000000e+00 0.000000e+00 -1.000000e+00
    outer loop
      vertex -1.435000e+01 -3.590000e+01 0.000000e+00
      vertex -1.600000e+01 -1.450000e+01 0.000000e+00
      vertex -1.435000e+01 3.615000e+01 0.000000e+00
    endloop
  endfacet
  facet normal 0.000000e+00 0.000000e+00 -1.000000e+00
    outer loop
      vertex 2.000000e+01 -4.450000e+01 0.000000e+00
      vertex -1.435000e+01 -3.590000e+01 0.000000e+00
      vertex 9.700001e+00 -3.590000e+01 0.000000e+00
    endloop
  endfacet
  facet normal 0.000000e+00 0.000000e+00 -1.000000e+00
    outer loop
      vertex 2.000000e+01 -4.450000e+01 0.000000e+00
      vertex 9.700001e+00 -3.590000e+01 0.000000e+00
      vertex 2.000000e+01 4.450000e+01 0.000000e+00
    endloop
  endfacet
  facet normal 0.000000e+00 0.000000e+00 -1.000000e+00
    outer loop
      vertex -1.600000e+01 -1.450000e+01 0.000000e+00
      vertex -2.000000e+01 -4.500000e+00 0.000000e+00
      vertex -1.600000e+01 5.500000e+00 0.000000e+00
    endloop
  endfacet
  facet normal 0.000000e+00 0.000000e+00 -1.000000e+00
    outer loop
      vertex -1.600000e+01 5.500000e+00 0.000000e+00
      vertex -2.000000e+01 1.550000e+01 0.000000e+00
      vertex -1.600000e+01 2.550000e+01 0.000000e+00
    endloop
  endfacet
  facet normal -9.284767e-01 -3.713907e-01 0.000000e+00
    outer loop
      vertex -2.000000e+01 -2.450000e+01 1.000000e+00
      vertex -1.600000e+01 -3.450000e+01 0.000000e+00
      vertex -1.600000e+01 -3.450000e+01 1.000000e+00
    endloop
  endfacet
  facet normal -9.284767e-01 -3.713907e-01 0.000000e+00
    outer loop
      vertex -1.600000e+01 -3.450000e+01 0.000000e+00
      vertex -2.000000e+01 -2.450000e+01 1.000000e+00
      vertex -2.000000e+01 -2.450000e+01 0.000000e+00
    endloop
  endfacet
  facet normal -9.284767e-01 3.713907e-01 0.000000e+00
    outer loop
      vertex -1.600000e+01 5.500000e+00 1.000000e+00
      vertex -2.000000e+01 -4.500000e+00 0.000000e+00
      vertex -2.000000e+01 -4.500000e+00 1.000000e+00
    endloop
  endfacet
  facet normal -9.284767e-01 3.713907e-01 0.000000e+00
    outer loop
      vertex -2.000000e+01 -4.500000e+00 0.000000e+00
      vertex -1.600000e+01 5.500000e+00 1.000000e+00
      vertex -1.600000e+01 5.500000e+00 0.000000e+00
    endloop
  endfacet
  facet normal -9.284767e-01 -3.713907e-01 0.000000e+00
    outer loop
      vertex -2.000000e+01 -4.500000e+00 1.000000e+00
      vertex -1.600000e+01 -1.450000e+01 0.000000e+00
      vertex -1.600000e+01 -1.450000e+01 1.000000e+00
    endloop
  endfacet
  facet normal -9.284767e-01 -3.713907e-01 0.000000e+00
    outer loop
      vertex -1.600000e+01 -1.450000e+01 0.000000e+00
      vertex -2.000000e+01 -4.500000e+00 1.000000e+00
      vertex -2.000000e+01 -4.500000e+00 0.000000e+00
    endloop
  endfacet
endsolid Default
