solid Default
  facet normal 7.071068e-01 -7.071068e-01 0.000000e+00
    outer loop
      vertex 1.242528e+01 -3.580000e+01 2.000000e+00
      vertex 1.167528e+01 -3.655000e+01 0.000000e+00
      vertex 1.242528e+01 -3.580000e+01 0.000000e+00
    endloop
  endfacet
  facet normal 7.071068e-01 -7.071068e-01 0.000000e+00
    outer loop
      vertex 1.167528e+01 -3.655000e+01 0.000000e+00
      vertex 1.242528e+01 -3.580000e+01 2.000000e+00
      vertex 1.167528e+01 -3.655000e+01 2.000000e+00
    endloop
  endfacet
  facet normal 0.000000e+00 1.000000e+00 0.000000e+00
    outer loop
      vertex 1.242528e+01 -3.880000e+01 2.000000e+00
      vertex 1.392528e+01 -3.880000e+01 0.000000e+00
      vertex 1.242528e+01 -3.880000e+01 0.000000e+00
    endloop
  endfacet
  facet normal 0.000000e+00 1.000000e+00 0.000000e+00
    outer loop
      vertex 1.392528e+01 -3.880000e+01 0.000000e+00
      vertex 1.242528e+01 -3.880000e+01 2.000000e+00
      vertex 1.392528e+01 -3.880000e+01 2.000000e+00
    endloop
  endfacet
  facet normal 1.000000e+00 0.000000e+00 -1.111665e-15
    outer loop
      vertex 1.167528e+01 3.840000e+01 0.000000e+00
      vertex 1.167528e+01 3.690000e+01 2.000000e+00
      vertex 1.167528e+01 3.690000e+01 0.000000e+00
    endloop
  endfacet
  facet normal 1.000000e+00 0.000000e+00 -1.111665e-15
    outer loop
      vertex 1.167528e+01 3.690000e+01 2.000000e+00
      vertex 1.167528e+01 3.840000e+01 0.000000e+00
      vertex 1.167528e+01 3.840000e+01 2.000000e+00
    endloop
  endfacet
  facet normal 1.000000e+00 0.000000e+00 0.000000e+00
    outer loop
      vertex 1.167528e+01 -3.655000e+01 0.000000e+00
      vertex 1.167528e+01 -3.805000e+01 2.000000e+00
      vertex 1.167528e+01 -3.805000e+01 0.000000e+00
    endloop
  endfacet
  facet normal 1.000000e+00 0.000000e+00 0.000000e+00
    outer loop
      vertex 1.167528e+01 -3.805000e+01 2.000000e+00
      vertex 1.167528e+01 -3.655000e+01 0.000000e+00
      vertex 1.167528e+01 -3.655000e+01 2.000000e+00
    endloop
  endfacet
  facet normal 1.000000e+00 0.000000e+00 0.000000e+00
    outer loop
      vertex 2.002529e+01 4.450000e+01 0.000000e+00
      vertex 2.002529e+01 -4.450000e+01 2.000000e+00
      vertex 2.002529e+01 -4.450000e+01 0.000000e+00
    endloop
  endfacet
  facet normal 1.000000e+00 0.000000e+00 0.000000e+00
    outer loop
      vertex 2.002529e+01 -4.450000e+01 2.000000e+00
      vertex 2.002529e+01 4.450000e+01 0.000000e+00
      vertex 2.002529e+01 4.450000e+01 2.000000e+00
    endloop
  endfacet
  facet normal 0.000000e+00 1.000000e+00 0.000000e+00
    outer loop
      vertex -1.582472e+01 -3.600000e+01 2.000000e+00
      vertex 1.117528e+01 -3.600000e+01 0.000000e+00
      vertex -1.582472e+01 -3.600000e+01 0.000000e+00
    endloop
  endfacet
  facet normal 0.000000e+00 1.000000e+00 0.000000e+00
    outer loop
      vertex 1.117528e+01 -3.600000e+01 0.000000e+00
      vertex -1.582472e+01 -3.600000e+01 2.000000e+00
      vertex 1.117528e+01 -3.600000e+01 2.000000e+00
    endloop
  endfacet
  facet normal -1.000000e+00 0.000000e+00 0.000000e+00
    outer loop
      vertex 1.117528e+01 3.600000e+01 2.000000e+00
      vertex 1.117528e+01 -3.600000e+01 0.000000e+00
      vertex 1.117528e+01 -3.600000e+01 2.000000e+00
    endloop
  endfacet
  facet normal -1.000000e+00 0.000000e+00 0.000000e+00
    outer loop
      vertex 1.117528e+01 -3.600000e+01 0.000000e+00
      vertex 1.117528e+01 3.600000e+01 2.000000e+00
      vertex 1.117528e+01 3.600000e+01 0.000000e+00
    endloop
  endfacet
  facet normal 1.000000e+00 0.000000e+00 0.000000e+00
    outer loop
      vertex -1.582472e+01 3.600000e+01 0.000000e+00
      vertex -1.582472e+01 -3.600000e+01 2.000000e+00
      vertex -1.582472e+01 -3.600000e+01 0.000000e+00
    endloop
  endfacet
  facet normal 1.000000e+00 0.000000e+00 0.000000e+00
    outer loop
      vertex -1.582472e+01 -3.600000e+01 2.000000e+00
      vertex -1.582472e+01 3.600000e+01 0.000000e+00
      vertex -1.582472e+01 3.600000e+01 2.000000e+00
    endloop
  endfacet
  facet normal -0.000000e+00 -1.000000e+00 -0.000000e+00
    outer loop
      vertex 1.117528e+01 3.600000e+01 2.000000e+00
      vertex -1.582472e+01 3.600000e+01 0.000000e+00
      vertex 1.117528e+01 3.600000e+01 0.000000e+00
    endloop
  endfacet
  facet normal -0.000000e+00 -1.000000e+00 -0.000000e+00
    outer loop
      vertex -1.582472e+01 3.600000e+01 0.000000e+00
      vertex 1.117528e+01 3.600000e+01 2.000000e+00
      vertex -1.582472e+01 3.600000e+01 2.000000e+00
    endloop
  endfacet
  facet normal -7.071068e-01 7.071068e-01 0.000000e+00
    outer loop
      vertex 1.392528e+01 -3.880000e+01 2.000000e+00
      vertex 1.467528e+01 -3.805000e+01 0.000000e+00
      vertex 1.392528e+01 -3.880000e+01 0.000000e+00
    endloop
  endfacet
  facet normal -7.071068e-01 7.071068e-01 0.000000e+00
    outer loop
      vertex 1.467528e+01 -3.805000e+01 0.000000e+00
      vertex 1.392528e+01 -3.880000e+01 2.000000e+00
      vertex 1.467528e+01 -3.805000e+01 2.000000e+00
    endloop
  endfacet
  facet normal -7.071068e-01 -7.071068e-01 -0.000000e+00
    outer loop
      vertex 1.467528e+01 -3.655000e+01 2.000000e+00
      vertex 1.392528e+01 -3.580000e+01 0.000000e+00
      vertex 1.467528e+01 -3.655000e+01 0.000000e+00
    endloop
  endfacet
  facet normal -7.071068e-01 -7.071068e-01 -0.000000e+00
    outer loop
      vertex 1.392528e+01 -3.580000e+01 0.000000e+00
      vertex 1.467528e+01 -3.655000e+01 2.000000e+00
      vertex 1.392528e+01 -3.580000e+01 2.000000e+00
    endloop
  endfacet
  facet normal -0.000000e+00 -1.000000e+00 -0.000000e+00
    outer loop
      vertex 1.392528e+01 -3.580000e+01 2.000000e+00
      vertex 1.242528e+01 -3.580000e+01 0.000000e+00
      vertex 1.392528e+01 -3.580000e+01 0.000000e+00
    endloop
  endfacet
  facet normal -0.000000e+00 -1.000000e+00 -0.000000e+00
    outer loop
      vertex 1.242528e+01 -3.580000e+01 0.000000e+00
      vertex 1.392528e+01 -3.580000e+01 2.000000e+00
      vertex 1.242528e+01 -3.580000e+01 2.000000e+00
    endloop
  endfacet
  facet normal 0.000000e+00 -1.000000e+00 0.000000e+00
    outer loop
      vertex 2.002529e+01 -4.450000e+01 0.000000e+00
      vertex -1.802529e+01 -4.450000e+01 2.000000e+00
      vertex -2.002529e+01 -4.450000e+01 0.000000e+00
    endloop
  endfacet
  facet normal 0.000000e+00 -1.000000e+00 0.000000e+00
    outer loop
      vertex -1.802529e+01 -4.450000e+01 2.000000e+00
      vertex 2.002529e+01 -4.450000e+01 0.000000e+00
      vertex 2.002529e+01 -4.450000e+01 2.000000e+00
    endloop
  endfacet
  facet normal -1.111665e-15 -1.584251e-16 1.000000e+00
    outer loop
      vertex -1.802529e+01 -4.450000e+01 2.000000e+00
      vertex -1.582472e+01 -3.600000e+01 2.000000e+00
      vertex -1.802529e+01 4.450000e+01 2.000000e+00
    endloop
  endfacet
  facet normal -1.111665e-15 -1.584251e-16 1.000000e+00
    outer loop
      vertex -1.582472e+01 -3.600000e+01 2.000000e+00
      vertex -1.802529e+01 -4.450000e+01 2.000000e+00
      vertex 2.002529e+01 -4.450000e+01 2.000000e+00
    endloop
  endfacet
  facet normal -1.111665e-15 -1.584251e-16 1.000000e+00
    outer loop
      vertex -1.582472e+01 -3.600000e+01 2.000000e+00
      vertex 2.002529e+01 -4.450000e+01 2.000000e+00
      vertex 1.242528e+01 -3.880000e+01 2.000000e+00
    endloop
  endfacet
  facet normal -1.111665e-15 -1.584251e-16 1.000000e+00
    outer loop
      vertex -1.582472e+01 -3.600000e+01 2.000000e+00
      vertex 1.242528e+01 -3.880000e+01 2.000000e+00
      vertex 1.167528e+01 -3.805000e+01 2.000000e+00
    endloop
  endfacet
  facet normal -1.111665e-15 -1.584251e-16 1.000000e+00
    outer loop
      vertex -1.582472e+01 -3.600000e+01 2.000000e+00
      vertex 1.167528e+01 -3.805000e+01 2.000000e+00
      vertex 1.117528e+01 -3.600000e+01 2.000000e+00
    endloop
  endfacet
  facet normal -1.111665e-15 -1.584251e-16 1.000000e+00
    outer loop
      vertex 1.117528e+01 -3.600000e+01 2.000000e+00
      vertex 1.167528e+01 -3.805000e+01 2.000000e+00
      vertex 1.117528e+01 3.600000e+01 2.000000e+00
    endloop
  endfacet
  facet normal -1.111665e-15 -1.584251e-16 1.000000e+00
    outer loop
      vertex 1.242528e+01 -3.880000e+01 2.000000e+00
      vertex 2.002529e+01 -4.450000e+01 2.000000e+00
      vertex 1.392528e+01 -3.880000e+01 2.000000e+00
    endloop
  endfacet
  facet normal -1.111665e-15 -1.584251e-16 1.000000e+00
    outer loop
      vertex 1.392528e+01 -3.880000e+01 2.000000e+00
      vertex 2.002529e+01 -4.450000e+01 2.000000e+00
      vertex 1.467528e+01 -3.805000e+01 2.000000e+00
    endloop
  endfacet
  facet normal -1.111665e-15 -1.584251e-16 1.000000e+00
    outer loop
      vertex 1.467528e+01 -3.805000e+01 2.000000e+00
      vertex 2.002529e+01 -4.450000e+01 2.000000e+00
      vertex 1.467528e+01 -3.655000e+01 2.000000e+00
    endloop
  endfacet
  facet normal -1.111665e-15 -1.584251e-16 1.000000e+00
    outer loop
      vertex 1.467528e+01 -3.655000e+01 2.000000e+00
      vertex 2.002529e+01 -4.450000e+01 2.000000e+00
      vertex 1.467528e+01 3.690000e+01 2.000000e+00
    endloop
  endfacet
  facet normal -1.111665e-15 -1.584251e-16 1.000000e+00
    outer loop
      vertex 1.467528e+01 3.690000e+01 2.000000e+00
      vertex 2.002529e+01 -4.450000e+01 2.000000e+00
      vertex 1.467528e+01 3.840000e+01 2.000000e+00
    endloop
  endfacet
  facet normal -1.111665e-15 -1.584251e-16 1.000000e+00
    outer loop
      vertex -1.802529e+01 4.450000e+01 2.000000e+00
      vertex -1.582472e+01 3.600000e+01 2.000000e+00
      vertex 2.002529e+01 4.450000e+01 2.000000e+00
    endloop
  endfacet
  facet normal -1.111665e-15 -1.584251e-16 1.000000e+00
    outer loop
      vertex -1.582472e+01 3.600000e+01 2.000000e+00
      vertex -1.802529e+01 4.450000e+01 2.000000e+00
      vertex -1.582472e+01 -3.600000e+01 2.000000e+00
    endloop
  endfacet
  facet normal -1.111665e-15 -1.584251e-16 1.000000e+00
    outer loop
      vertex 2.002529e+01 4.450000e+01 2.000000e+00
      vertex -1.582472e+01 3.600000e+01 2.000000e+00
      vertex 1.242528e+01 3.915000e+01 2.000000e+00
    endloop
  endfacet
  facet normal -1.111665e-15 -1.584251e-16 1.000000e+00
    outer loop
      vertex 1.242528e+01 3.915000e+01 2.000000e+00
      vertex -1.582472e+01 3.600000e+01 2.000000e+00
      vertex 1.167528e+01 3.840000e+01 2.000000e+00
    endloop
  endfacet
  facet normal -1.111665e-15 -1.584251e-16 1.000000e+00
    outer loop
      vertex 1.167528e+01 3.840000e+01 2.000000e+00
      vertex -1.582472e+01 3.600000e+01 2.000000e+00
      vertex 1.117528e+01 3.600000e+01 2.000000e+00
    endloop
  endfacet
  facet normal -1.111665e-15 -1.584251e-16 1.000000e+00
    outer loop
      vertex 1.167528e+01 3.840000e+01 2.000000e+00
      vertex 1.117528e+01 3.600000e+01 2.000000e+00
      vertex 1.167528e+01 -3.805000e+01 2.000000e+00
    endloop
  endfacet
  facet normal -1.111665e-15 -1.584251e-16 1.000000e+00
    outer loop
      vertex 1.167528e+01 3.840000e+01 2.000000e+00
      vertex 1.167528e+01 -3.805000e+01 2.000000e+00
      vertex 1.167528e+01 -3.655000e+01 2.000000e+00
    endloop
  endfacet
  facet normal -1.111665e-15 -1.584251e-16 1.000000e+00
    outer loop
      vertex 1.167528e+01 3.840000e+01 2.000000e+00
      vertex 1.167528e+01 -3.655000e+01 2.000000e+00
      vertex 1.167528e+01 3.690000e+01 2.000000e+00
    endloop
  endfacet
  facet normal -1.111665e-15 -1.584251e-16 1.000000e+00
    outer loop
      vertex 2.002529e+01 4.450000e+01 2.000000e+00
      vertex 1.242528e+01 3.915000e+01 2.000000e+00
      vertex 1.392528e+01 3.915000e+01 2.000000e+00
    endloop
  endfacet
  facet normal -1.111665e-15 -1.584251e-16 1.000000e+00
    outer loop
      vertex 2.002529e+01 4.450000e+01 2.000000e+00
      vertex 1.392528e+01 3.915000e+01 2.000000e+00
      vertex 1.467528e+01 3.840000e+01 2.000000e+00
    endloop
  endfacet
  facet normal -1.111665e-15 -1.584251e-16 1.000000e+00
    outer loop
      vertex 2.002529e+01 4.450000e+01 2.000000e+00
      vertex 1.467528e+01 3.840000e+01 2.000000e+00
      vertex 2.002529e+01 -4.450000e+01 2.000000e+00
    endloop
  endfacet
  facet normal -1.111665e-15 -1.584251e-16 1.000000e+00
    outer loop
      vertex 1.242528e+01 -3.580000e+01 2.000000e+00
      vertex 1.167528e+01 3.690000e+01 2.000000e+00
      vertex 1.167528e+01 -3.655000e+01 2.000000e+00
    endloop
  endfacet
  facet normal -1.111665e-15 -1.584251e-16 1.000000e+00
    outer loop
      vertex 1.167528e+01 3.690000e+01 2.000000e+00
      vertex 1.242528e+01 -3.580000e+01 2.000000e+00
      vertex 1.242528e+01 3.615000e+01 2.000000e+00
    endloop
  endfacet
  facet normal -1.111665e-15 -1.584251e-16 1.000000e+00
    outer loop
      vertex 1.242528e+01 3.615000e+01 2.000000e+00
      vertex 1.242528e+01 -3.580000e+01 2.000000e+00
      vertex 1.392528e+01 -3.580000e+01 2.000000e+00
    endloop
  endfacet
  facet normal -1.111665e-15 -1.584251e-16 1.000000e+00
    outer loop
      vertex 1.242528e+01 3.615000e+01 2.000000e+00
      vertex 1.392528e+01 -3.580000e+01 2.000000e+00
      vertex 1.392528e+01 3.615000e+01 2.000000e+00
    endloop
  endfacet
  facet normal -1.111665e-15 -1.584251e-16 1.000000e+00
    outer loop
      vertex 1.392528e+01 3.615000e+01 2.000000e+00
      vertex 1.392528e+01 -3.580000e+01 2.000000e+00
      vertex 1.467528e+01 -3.655000e+01 2.000000e+00
    endloop
  endfacet
  facet normal -1.111665e-15 -1.584251e-16 1.000000e+00
    outer loop
      vertex 1.392528e+01 3.615000e+01 2.000000e+00
      vertex 1.467528e+01 -3.655000e+01 2.000000e+00
      vertex 1.467528e+01 3.690000e+01 2.000000e+00
    endloop
  endfacet
  facet normal 0.000000e+00 1.000000e+00 0.000000e+00
    outer loop
      vertex 1.242528e+01 3.615000e+01 0.000000e+00
      vertex 1.392528e+01 3.615000e+01 2.000000e+00
      vertex 1.392528e+01 3.615000e+01 0.000000e+00
    endloop
  endfacet
  facet normal 0.000000e+00 1.000000e+00 0.000000e+00
    outer loop
      vertex 1.392528e+01 3.615000e+01 2.000000e+00
      vertex 1.242528e+01 3.615000e+01 0.000000e+00
      vertex 1.242528e+01 3.615000e+01 2.000000e+00
    endloop
  endfacet
  facet normal -7.071068e-01 7.071068e-01 7.860661e-16
    outer loop
      vertex 1.392528e+01 3.615000e+01 2.000000e+00
      vertex 1.467528e+01 3.690000e+01 0.000000e+00
      vertex 1.392528e+01 3.615000e+01 0.000000e+00
    endloop
  endfacet
  facet normal -7.071068e-01 7.071068e-01 7.860661e-16
    outer loop
      vertex 1.467528e+01 3.690000e+01 0.000000e+00
      vertex 1.392528e+01 3.615000e+01 2.000000e+00
      vertex 1.467528e+01 3.690000e+01 2.000000e+00
    endloop
  endfacet
  facet normal -1.000000e+00 0.000000e+00 1.111665e-15
    outer loop
      vertex 1.467528e+01 3.840000e+01 2.000000e+00
      vertex 1.467528e+01 3.690000e+01 0.000000e+00
      vertex 1.467528e+01 3.690000e+01 2.000000e+00
    endloop
  endfacet
  facet normal -1.000000e+00 0.000000e+00 1.111665e-15
    outer loop
      vertex 1.467528e+01 3.690000e+01 0.000000e+00
      vertex 1.467528e+01 3.840000e+01 2.000000e+00
      vertex 1.467528e+01 3.840000e+01 0.000000e+00
    endloop
  endfacet
  facet normal -7.071068e-01 -7.071068e-01 7.860661e-16
    outer loop
      vertex 1.392528e+01 3.915000e+01 2.000000e+00
      vertex 1.467528e+01 3.840000e+01 0.000000e+00
      vertex 1.467528e+01 3.840000e+01 2.000000e+00
    endloop
  endfacet
  facet normal -7.071068e-01 -7.071068e-01 7.860661e-16
    outer loop
      vertex 1.467528e+01 3.840000e+01 0.000000e+00
      vertex 1.392528e+01 3.915000e+01 2.000000e+00
      vertex 1.392528e+01 3.915000e+01 0.000000e+00
    endloop
  endfacet
  facet normal 0.000000e+00 -1.000000e+00 0.000000e+00
    outer loop
      vertex 1.392528e+01 3.915000e+01 2.000000e+00
      vertex 1.242528e+01 3.915000e+01 0.000000e+00
      vertex 1.392528e+01 3.915000e+01 0.000000e+00
    endloop
  endfacet
  facet normal 0.000000e+00 -1.000000e+00 0.000000e+00
    outer loop
      vertex 1.242528e+01 3.915000e+01 0.000000e+00
      vertex 1.392528e+01 3.915000e+01 2.000000e+00
      vertex 1.242528e+01 3.915000e+01 2.000000e+00
    endloop
  endfacet
  facet normal -7.071068e-01 -1.118976e-16 7.071068e-01
    outer loop
      vertex -1.802529e+01 -4.450000e+01 2.000000e+00
      vertex -2.002529e+01 4.450000e+01 0.000000e+00
      vertex -2.002529e+01 -4.450000e+01 0.000000e+00
    endloop
  endfacet
  facet normal -7.071068e-01 -1.118976e-16 7.071068e-01
    outer loop
      vertex -2.002529e+01 4.450000e+01 0.000000e+00
      vertex -1.802529e+01 -4.450000e+01 2.000000e+00
      vertex -1.802529e+01 4.450000e+01 2.000000e+00
    endloop
  endfacet
  facet normal -1.000000e+00 0.000000e+00 0.000000e+00
    outer loop
      vertex 1.467528e+01 -3.655000e+01 2.000000e+00
      vertex 1.467528e+01 -3.805000e+01 0.000000e+00
      vertex 1.467528e+01 -3.805000e+01 2.000000e+00
    endloop
  endfacet
  facet normal -1.000000e+00 0.000000e+00 0.000000e+00
    outer loop
      vertex 1.467528e+01 -3.805000e+01 0.000000e+00
      vertex 1.467528e+01 -3.655000e+01 2.000000e+00
      vertex 1.467528e+01 -3.655000e+01 0.000000e+00
    endloop
  endfacet
  facet normal 7.071068e-01 -7.071068e-01 -7.860661e-16
    outer loop
      vertex 1.242528e+01 3.915000e+01 2.000000e+00
      vertex 1.167528e+01 3.840000e+01 0.000000e+00
      vertex 1.242528e+01 3.915000e+01 0.000000e+00
    endloop
  endfacet
  facet normal 7.071068e-01 -7.071068e-01 -7.860661e-16
    outer loop
      vertex 1.167528e+01 3.840000e+01 0.000000e+00
      vertex 1.242528e+01 3.915000e+01 2.000000e+00
      vertex 1.167528e+01 3.840000e+01 2.000000e+00
    endloop
  endfacet
  facet normal 7.071068e-01 7.071068e-01 -7.860661e-16
    outer loop
      vertex 1.167528e+01 3.690000e+01 0.000000e+00
      vertex 1.242528e+01 3.615000e+01 2.000000e+00
      vertex 1.242528e+01 3.615000e+01 0.000000e+00
    endloop
  endfacet
  facet normal 7.071068e-01 7.071068e-01 -7.860661e-16
    outer loop
      vertex 1.242528e+01 3.615000e+01 2.000000e+00
      vertex 1.167528e+01 3.690000e+01 0.000000e+00
      vertex 1.167528e+01 3.690000e+01 2.000000e+00
    endloop
  endfacet
  facet normal 2.816406e-16 0.000000e+00 -1.000000e+00
    outer loop
      vertex -2.002529e+01 4.450000e+01 0.000000e+00
      vertex -1.582472e+01 3.600000e+01 0.000000e+00
      vertex -2.002529e+01 -4.450000e+01 0.000000e+00
    endloop
  endfacet
  facet normal 2.816406e-16 0.000000e+00 -1.000000e+00
    outer loop
      vertex -1.582472e+01 3.600000e+01 0.000000e+00
      vertex -2.002529e+01 4.450000e+01 0.000000e+00
      vertex 2.002529e+01 4.450000e+01 0.000000e+00
    endloop
  endfacet
  facet normal 2.816406e-16 0.000000e+00 -1.000000e+00
    outer loop
      vertex -1.582472e+01 3.600000e+01 0.000000e+00
      vertex 2.002529e+01 4.450000e+01 0.000000e+00
      vertex 1.242528e+01 3.915000e+01 0.000000e+00
    endloop
  endfacet
  facet normal 2.816406e-16 0.000000e+00 -1.000000e+00
    outer loop
      vertex -1.582472e+01 3.600000e+01 0.000000e+00
      vertex 1.242528e+01 3.915000e+01 0.000000e+00
      vertex 1.167528e+01 3.840000e+01 0.000000e+00
    endloop
  endfacet
  facet normal 2.816406e-16 0.000000e+00 -1.000000e+00
    outer loop
      vertex -1.582472e+01 3.600000e+01 0.000000e+00
      vertex 1.167528e+01 3.840000e+01 0.000000e+00
      vertex 1.117528e+01 3.600000e+01 0.000000e+00
    endloop
  endfacet
  facet normal 2.816406e-16 0.000000e+00 -1.000000e+00
    outer loop
      vertex 1.117528e+01 3.600000e+01 0.000000e+00
      vertex 1.167528e+01 3.840000e+01 0.000000e+00
      vertex 1.117528e+01 -3.600000e+01 0.000000e+00
    endloop
  endfacet
  facet normal 2.816406e-16 0.000000e+00 -1.000000e+00
    outer loop
      vertex 1.242528e+01 3.915000e+01 0.000000e+00
      vertex 2.002529e+01 4.450000e+01 0.000000e+00
      vertex 1.392528e+01 3.915000e+01 0.000000e+00
    endloop
  endfacet
  facet normal 2.816406e-16 0.000000e+00 -1.000000e+00
    outer loop
      vertex 1.392528e+01 3.915000e+01 0.000000e+00
      vertex 2.002529e+01 4.450000e+01 0.000000e+00
      vertex 1.467528e+01 3.840000e+01 0.000000e+00
    endloop
  endfacet
  facet normal 2.816406e-16 0.000000e+00 -1.000000e+00
    outer loop
      vertex 1.467528e+01 3.840000e+01 0.000000e+00
      vertex 2.002529e+01 4.450000e+01 0.000000e+00
      vertex 1.467528e+01 3.690000e+01 0.000000e+00
    endloop
  endfacet
  facet normal 2.816406e-16 0.000000e+00 -1.000000e+00
    outer loop
      vertex 1.467528e+01 3.690000e+01 0.000000e+00
      vertex 2.002529e+01 4.450000e+01 0.000000e+00
      vertex 1.467528e+01 -3.655000e+01 0.000000e+00
    endloop
  endfacet
  facet normal 2.816406e-16 0.000000e+00 -1.000000e+00
    outer loop
      vertex 1.467528e+01 -3.655000e+01 0.000000e+00
      vertex 2.002529e+01 4.450000e+01 0.000000e+00
      vertex 1.467528e+01 -3.805000e+01 0.000000e+00
    endloop
  endfacet
  facet normal 2.816406e-16 0.000000e+00 -1.000000e+00
    outer loop
      vertex -2.002529e+01 -4.450000e+01 0.000000e+00
      vertex -1.582472e+01 -3.600000e+01 0.000000e+00
      vertex 2.002529e+01 -4.450000e+01 0.000000e+00
    endloop
  endfacet
  facet normal 2.816406e-16 0.000000e+00 -1.000000e+00
    outer loop
      vertex -1.582472e+01 -3.600000e+01 0.000000e+00
      vertex -2.002529e+01 -4.450000e+01 0.000000e+00
      vertex -1.582472e+01 3.600000e+01 0.000000e+00
    endloop
  endfacet
  facet normal 2.816406e-16 0.000000e+00 -1.000000e+00
    outer loop
      vertex 2.002529e+01 -4.450000e+01 0.000000e+00
      vertex -1.582472e+01 -3.600000e+01 0.000000e+00
      vertex 1.242528e+01 -3.880000e+01 0.000000e+00
    endloop
  endfacet
  facet normal 2.816406e-16 0.000000e+00 -1.000000e+00
    outer loop
      vertex 1.242528e+01 -3.880000e+01 0.000000e+00
      vertex -1.582472e+01 -3.600000e+01 0.000000e+00
      vertex 1.167528e+01 -3.805000e+01 0.000000e+00
    endloop
  endfacet
  facet normal 2.816406e-16 0.000000e+00 -1.000000e+00
    outer loop
      vertex 1.167528e+01 -3.805000e+01 0.000000e+00
      vertex -1.582472e+01 -3.600000e+01 0.000000e+00
      vertex 1.117528e+01 -3.600000e+01 0.000000e+00
    endloop
  endfacet
  facet normal 2.816406e-16 0.000000e+00 -1.000000e+00
    outer loop
      vertex 1.167528e+01 -3.805000e+01 0.000000e+00
      vertex 1.117528e+01 -3.600000e+01 0.000000e+00
      vertex 1.167528e+01 3.840000e+01 0.000000e+00
    endloop
  endfacet
  facet normal 2.816406e-16 0.000000e+00 -1.000000e+00
    outer loop
      vertex 1.167528e+01 -3.805000e+01 0.000000e+00
      vertex 1.167528e+01 3.840000e+01 0.000000e+00
      vertex 1.167528e+01 3.690000e+01 0.000000e+00
    endloop
  endfacet
  facet normal 2.816406e-16 0.000000e+00 -1.000000e+00
    outer loop
      vertex 1.167528e+01 -3.805000e+01 0.000000e+00
      vertex 1.167528e+01 3.690000e+01 0.000000e+00
      vertex 1.167528e+01 -3.655000e+01 0.000000e+00
    endloop
  endfacet
  facet normal 2.816406e-16 0.000000e+00 -1.000000e+00
    outer loop
      vertex 2.002529e+01 -4.450000e+01 0.000000e+00
      vertex 1.242528e+01 -3.880000e+01 0.000000e+00
      vertex 1.392528e+01 -3.880000e+01 0.000000e+00
    endloop
  endfacet
  facet normal 2.816406e-16 0.000000e+00 -1.000000e+00
    outer loop
      vertex 2.002529e+01 -4.450000e+01 0.000000e+00
      vertex 1.392528e+01 -3.880000e+01 0.000000e+00
      vertex 1.467528e+01 -3.805000e+01 0.000000e+00
    endloop
  endfacet
  facet normal 2.816406e-16 0.000000e+00 -1.000000e+00
    outer loop
      vertex 2.002529e+01 -4.450000e+01 0.000000e+00
      vertex 1.467528e+01 -3.805000e+01 0.000000e+00
      vertex 2.002529e+01 4.450000e+01 0.000000e+00
    endloop
  endfacet
  facet normal 2.816406e-16 0.000000e+00 -1.000000e+00
    outer loop
      vertex 1.242528e+01 3.615000e+01 0.000000e+00
      vertex 1.167528e+01 -3.655000e+01 0.000000e+00
      vertex 1.167528e+01 3.690000e+01 0.000000e+00
    endloop
  endfacet
  facet normal 2.816406e-16 0.000000e+00 -1.000000e+00
    outer loop
      vertex 1.167528e+01 -3.655000e+01 0.000000e+00
      vertex 1.242528e+01 3.615000e+01 0.000000e+00
      vertex 1.242528e+01 -3.580000e+01 0.000000e+00
    endloop
  endfacet
  facet normal 2.816406e-16 0.000000e+00 -1.000000e+00
    outer loop
      vertex 1.242528e+01 -3.580000e+01 0.000000e+00
      vertex 1.242528e+01 3.615000e+01 0.000000e+00
      vertex 1.392528e+01 3.615000e+01 0.000000e+00
    endloop
  endfacet
  facet normal 2.816406e-16 0.000000e+00 -1.000000e+00
    outer loop
      vertex 1.242528e+01 -3.580000e+01 0.000000e+00
      vertex 1.392528e+01 3.615000e+01 0.000000e+00
      vertex 1.392528e+01 -3.580000e+01 0.000000e+00
    endloop
  endfacet
  facet normal 2.816406e-16 0.000000e+00 -1.000000e+00
    outer loop
      vertex 1.392528e+01 -3.580000e+01 0.000000e+00
      vertex 1.392528e+01 3.615000e+01 0.000000e+00
      vertex 1.467528e+01 3.690000e+01 0.000000e+00
    endloop
  endfacet
  facet normal 2.816406e-16 0.000000e+00 -1.000000e+00
    outer loop
      vertex 1.392528e+01 -3.580000e+01 0.000000e+00
      vertex 1.467528e+01 3.690000e+01 0.000000e+00
      vertex 1.467528e+01 -3.655000e+01 0.000000e+00
    endloop
  endfacet
  facet normal 0.000000e+00 1.000000e+00 0.000000e+00
    outer loop
      vertex -1.802529e+01 4.450000e+01 2.000000e+00
      vertex 2.002529e+01 4.450000e+01 0.000000e+00
      vertex -2.002529e+01 4.450000e+01 0.000000e+00
    endloop
  endfacet
  facet normal 0.000000e+00 1.000000e+00 0.000000e+00
    outer loop
      vertex 2.002529e+01 4.450000e+01 0.000000e+00
      vertex -1.802529e+01 4.450000e+01 2.000000e+00
      vertex 2.002529e+01 4.450000e+01 2.000000e+00
    endloop
  endfacet
  facet normal 7.071068e-01 7.071068e-01 0.000000e+00
    outer loop
      vertex 1.167528e+01 -3.805000e+01 0.000000e+00
      vertex 1.242528e+01 -3.880000e+01 2.000000e+00
      vertex 1.242528e+01 -3.880000e+01 0.000000e+00
    endloop
  endfacet
  facet normal 7.071068e-01 7.071068e-01 0.000000e+00
    outer loop
      vertex 1.242528e+01 -3.880000e+01 2.000000e+00
      vertex 1.167528e+01 -3.805000e+01 0.000000e+00
      vertex 1.167528e+01 -3.805000e+01 2.000000e+00
    endloop
  endfacet
endsolid Default
