solid Default
  facet normal -1.000000e+00 -3.587362e-17 -1.536660e-16
    outer loop
      vertex -8.500000e+00 -1.900000e+01 0.000000e+00
      vertex -8.500000e+00 -1.700000e+01 2.000000e+00
      vertex -8.500000e+00 1.900000e+01 0.000000e+00
    endloop
  endfacet
  facet normal -1.000000e+00 -3.587362e-17 -1.536660e-16
    outer loop
      vertex -8.500000e+00 -1.700000e+01 2.000000e+00
      vertex -8.500000e+00 -1.900000e+01 0.000000e+00
      vertex -8.500000e+00 -1.900000e+01 3.500001e+01
    endloop
  endfacet
  facet normal -1.000000e+00 -3.587362e-17 -1.536660e-16
    outer loop
      vertex -8.500000e+00 -1.700000e+01 2.000000e+00
      vertex -8.500000e+00 -1.900000e+01 3.500001e+01
      vertex -8.500000e+00 -1.700000e+01 3.500001e+01
    endloop
  endfacet
  facet normal -1.000000e+00 -3.587362e-17 -1.536660e-16
    outer loop
      vertex -8.500000e+00 1.900000e+01 0.000000e+00
      vertex -8.500000e+00 1.700000e+01 2.000000e+00
      vertex -8.500000e+00 1.900000e+01 3.500001e+01
    endloop
  endfacet
  facet normal -1.000000e+00 -3.587362e-17 -1.536660e-16
    outer loop
      vertex -8.500000e+00 1.700000e+01 2.000000e+00
      vertex -8.500000e+00 1.900000e+01 0.000000e+00
      vertex -8.500000e+00 -1.700000e+01 2.000000e+00
    endloop
  endfacet
  facet normal -1.000000e+00 -3.587362e-17 -1.536660e-16
    outer loop
      vertex -8.500000e+00 1.900000e+01 3.500001e+01
      vertex -8.500000e+00 1.700000e+01 2.000000e+00
      vertex -8.500000e+00 1.700000e+01 3.500001e+01
    endloop
  endfacet
  facet normal 2.174262e-15 -3.511242e-16 -1.000000e+00
    outer loop
      vertex -8.500000e+00 -1.900000e+01 0.000000e+00
      vertex -2.650780e+00 -1.249999e+00 0.000000e+00
      vertex 8.500000e+00 -1.900000e+01 0.000000e+00
    endloop
  endfacet
  facet normal 2.174262e-15 -3.511242e-16 -1.000000e+00
    outer loop
      vertex -2.650780e+00 -1.249999e+00 0.000000e+00
      vertex -8.500000e+00 -1.900000e+01 0.000000e+00
      vertex -2.900530e+00 -6.470499e-01 0.000000e+00
    endloop
  endfacet
  facet normal 2.174262e-15 -3.511242e-16 -1.000000e+00
    outer loop
      vertex -2.900530e+00 -6.470499e-01 0.000000e+00
      vertex -8.500000e+00 -1.900000e+01 0.000000e+00
      vertex -8.500000e+00 1.900000e+01 0.000000e+00
    endloop
  endfacet
  facet normal 2.174262e-15 -3.511242e-16 -1.000000e+00
    outer loop
      vertex 8.500000e+00 -1.900000e+01 0.000000e+00
      vertex -2.650780e+00 -1.249999e+00 0.000000e+00
      vertex -2.253481e+00 -1.767770e+00 0.000000e+00
    endloop
  endfacet
  facet normal 2.174262e-15 -3.511242e-16 -1.000000e+00
    outer loop
      vertex 8.500000e+00 -1.900000e+01 0.000000e+00
      vertex -2.253481e+00 -1.767770e+00 0.000000e+00
      vertex -1.735710e+00 -2.165059e+00 0.000000e+00
    endloop
  endfacet
  facet normal 2.174262e-15 -3.511242e-16 -1.000000e+00
    outer loop
      vertex 8.500000e+00 -1.900000e+01 0.000000e+00
      vertex -1.735710e+00 -2.165059e+00 0.000000e+00
      vertex -1.132759e+00 -2.414809e+00 0.000000e+00
    endloop
  endfacet
  facet normal 2.174262e-15 -3.511242e-16 -1.000000e+00
    outer loop
      vertex 8.500000e+00 -1.900000e+01 0.000000e+00
      vertex -1.132759e+00 -2.414809e+00 0.000000e+00
      vertex -4.857101e-01 -2.499999e+00 0.000000e+00
    endloop
  endfacet
  facet normal 2.174262e-15 -3.511242e-16 -1.000000e+00
    outer loop
      vertex -2.900530e+00 -6.470499e-01 0.000000e+00
      vertex -8.500000e+00 1.900000e+01 0.000000e+00
      vertex -2.985710e+00 9.536743e-07 0.000000e+00
    endloop
  endfacet
  facet normal 2.174262e-15 -3.511242e-16 -1.000000e+00
    outer loop
      vertex -2.985710e+00 9.536743e-07 0.000000e+00
      vertex -8.500000e+00 1.900000e+01 0.000000e+00
      vertex -2.900530e+00 6.470518e-01 0.000000e+00
    endloop
  endfacet
  facet normal 2.174262e-15 -3.511242e-16 -1.000000e+00
    outer loop
      vertex -2.900530e+00 6.470518e-01 0.000000e+00
      vertex -8.500000e+00 1.900000e+01 0.000000e+00
      vertex -2.650780e+00 1.250001e+00 0.000000e+00
    endloop
  endfacet
  facet normal 2.174262e-15 -3.511242e-16 -1.000000e+00
    outer loop
      vertex -2.650780e+00 1.250001e+00 0.000000e+00
      vertex -8.500000e+00 1.900000e+01 0.000000e+00
      vertex -2.253481e+00 1.767772e+00 0.000000e+00
    endloop
  endfacet
  facet normal 2.174262e-15 -3.511242e-16 -1.000000e+00
    outer loop
      vertex -2.253481e+00 1.767772e+00 0.000000e+00
      vertex -8.500000e+00 1.900000e+01 0.000000e+00
      vertex -1.735710e+00 2.165061e+00 0.000000e+00
    endloop
  endfacet
  facet normal 2.174262e-15 -3.511242e-16 -1.000000e+00
    outer loop
      vertex -1.735710e+00 2.165061e+00 0.000000e+00
      vertex -8.500000e+00 1.900000e+01 0.000000e+00
      vertex -1.132759e+00 2.414821e+00 0.000000e+00
    endloop
  endfacet
  facet normal 2.174262e-15 -3.511242e-16 -1.000000e+00
    outer loop
      vertex -1.132759e+00 2.414821e+00 0.000000e+00
      vertex -8.500000e+00 1.900000e+01 0.000000e+00
      vertex -4.857101e-01 2.500001e+00 0.000000e+00
    endloop
  endfacet
  facet normal 2.174262e-15 -3.511242e-16 -1.000000e+00
    outer loop
      vertex 8.500000e+00 -1.900000e+01 0.000000e+00
      vertex 1.929100e+00 -6.470499e-01 0.000000e+00
      vertex 8.500000e+00 1.900000e+01 0.000000e+00
    endloop
  endfacet
  facet normal 2.174262e-15 -3.511242e-16 -1.000000e+00
    outer loop
      vertex 1.929100e+00 -6.470499e-01 0.000000e+00
      vertex 8.500000e+00 -1.900000e+01 0.000000e+00
      vertex 1.679350e+00 -1.249999e+00 0.000000e+00
    endloop
  endfacet
  facet normal 2.174262e-15 -3.511242e-16 -1.000000e+00
    outer loop
      vertex 1.679350e+00 -1.249999e+00 0.000000e+00
      vertex 8.500000e+00 -1.900000e+01 0.000000e+00
      vertex 1.282049e+00 -1.767770e+00 0.000000e+00
    endloop
  endfacet
  facet normal 2.174262e-15 -3.511242e-16 -1.000000e+00
    outer loop
      vertex 1.282049e+00 -1.767770e+00 0.000000e+00
      vertex 8.500000e+00 -1.900000e+01 0.000000e+00
      vertex 7.642899e-01 -2.165059e+00 0.000000e+00
    endloop
  endfacet
  facet normal 2.174262e-15 -3.511242e-16 -1.000000e+00
    outer loop
      vertex 7.642899e-01 -2.165059e+00 0.000000e+00
      vertex 8.500000e+00 -1.900000e+01 0.000000e+00
      vertex 1.613293e-01 -2.414809e+00 0.000000e+00
    endloop
  endfacet
  facet normal 2.174262e-15 -3.511242e-16 -1.000000e+00
    outer loop
      vertex 1.613293e-01 -2.414809e+00 0.000000e+00
      vertex 8.500000e+00 -1.900000e+01 0.000000e+00
      vertex -4.857101e-01 -2.499999e+00 0.000000e+00
    endloop
  endfacet
  facet normal 2.174262e-15 -3.511242e-16 -1.000000e+00
    outer loop
      vertex 8.500000e+00 1.900000e+01 0.000000e+00
      vertex 1.929100e+00 -6.470499e-01 0.000000e+00
      vertex 2.014290e+00 9.536743e-07 0.000000e+00
    endloop
  endfacet
  facet normal 2.174262e-15 -3.511242e-16 -1.000000e+00
    outer loop
      vertex 8.500000e+00 1.900000e+01 0.000000e+00
      vertex 2.014290e+00 9.536743e-07 0.000000e+00
      vertex 1.929100e+00 6.470518e-01 0.000000e+00
    endloop
  endfacet
  facet normal 2.174262e-15 -3.511242e-16 -1.000000e+00
    outer loop
      vertex 8.500000e+00 1.900000e+01 0.000000e+00
      vertex 1.929100e+00 6.470518e-01 0.000000e+00
      vertex 1.679350e+00 1.250001e+00 0.000000e+00
    endloop
  endfacet
  facet normal 2.174262e-15 -3.511242e-16 -1.000000e+00
    outer loop
      vertex 8.500000e+00 1.900000e+01 0.000000e+00
      vertex 1.679350e+00 1.250001e+00 0.000000e+00
      vertex 1.282049e+00 1.767772e+00 0.000000e+00
    endloop
  endfacet
  facet normal 2.174262e-15 -3.511242e-16 -1.000000e+00
    outer loop
      vertex 8.500000e+00 1.900000e+01 0.000000e+00
      vertex 1.282049e+00 1.767772e+00 0.000000e+00
      vertex 7.642899e-01 2.165061e+00 0.000000e+00
    endloop
  endfacet
  facet normal 2.174262e-15 -3.511242e-16 -1.000000e+00
    outer loop
      vertex 8.500000e+00 1.900000e+01 0.000000e+00
      vertex 7.642899e-01 2.165061e+00 0.000000e+00
      vertex 1.613293e-01 2.414821e+00 0.000000e+00
    endloop
  endfacet
  facet normal 2.174262e-15 -3.511242e-16 -1.000000e+00
    outer loop
      vertex 8.500000e+00 1.900000e+01 0.000000e+00
      vertex 1.613293e-01 2.414821e+00 0.000000e+00
      vertex -4.857101e-01 2.500001e+00 0.000000e+00
    endloop
  endfacet
  facet normal 2.174262e-15 -3.511242e-16 -1.000000e+00
    outer loop
      vertex 8.500000e+00 1.900000e+01 0.000000e+00
      vertex -4.857101e-01 2.500001e+00 0.000000e+00
      vertex -8.500000e+00 1.900000e+01 0.000000e+00
    endloop
  endfacet
  facet normal -2.294902e-15 3.759955e-16 1.000000e+00
    outer loop
      vertex 7.528570e+00 -1.700000e+01 2.000000e+00
      vertex 2.552851e+00 -1.754310e+00 2.000000e+00
      vertex -8.500000e+00 -1.700000e+01 2.000000e+00
    endloop
  endfacet
  facet normal -2.294902e-15 3.759955e-16 1.000000e+00
    outer loop
      vertex 2.552851e+00 -1.754310e+00 2.000000e+00
      vertex 7.528570e+00 -1.700000e+01 2.000000e+00
      vertex 2.903360e+00 -9.080992e-01 2.000000e+00
    endloop
  endfacet
  facet normal -2.294902e-15 3.759955e-16 1.000000e+00
    outer loop
      vertex 2.903360e+00 -9.080992e-01 2.000000e+00
      vertex 7.528570e+00 -1.700000e+01 2.000000e+00
      vertex 7.528570e+00 1.700000e+01 2.000000e+00
    endloop
  endfacet
  facet normal -2.294902e-15 3.759955e-16 1.000000e+00
    outer loop
      vertex -8.500000e+00 -1.700000e+01 2.000000e+00
      vertex 2.552851e+00 -1.754310e+00 2.000000e+00
      vertex 1.995260e+00 -2.480969e+00 2.000000e+00
    endloop
  endfacet
  facet normal -2.294902e-15 3.759955e-16 1.000000e+00
    outer loop
      vertex -8.500000e+00 -1.700000e+01 2.000000e+00
      vertex 1.995260e+00 -2.480969e+00 2.000000e+00
      vertex 1.268600e+00 -3.038560e+00 2.000000e+00
    endloop
  endfacet
  facet normal -2.294902e-15 3.759955e-16 1.000000e+00
    outer loop
      vertex -8.500000e+00 -1.700000e+01 2.000000e+00
      vertex 1.268600e+00 -3.038560e+00 2.000000e+00
      vertex 4.223900e-01 -3.389070e+00 2.000000e+00
    endloop
  endfacet
  facet normal -2.294902e-15 3.759955e-16 1.000000e+00
    outer loop
      vertex -8.500000e+00 -1.700000e+01 2.000000e+00
      vertex 4.223900e-01 -3.389070e+00 2.000000e+00
      vertex -4.857101e-01 -3.508630e+00 2.000000e+00
    endloop
  endfacet
  facet normal -2.294902e-15 3.759955e-16 1.000000e+00
    outer loop
      vertex 2.903360e+00 -9.080992e-01 2.000000e+00
      vertex 7.528570e+00 1.700000e+01 2.000000e+00
      vertex 3.022909e+00 9.536743e-07 2.000000e+00
    endloop
  endfacet
  facet normal -2.294902e-15 3.759955e-16 1.000000e+00
    outer loop
      vertex 3.022909e+00 9.536743e-07 2.000000e+00
      vertex 7.528570e+00 1.700000e+01 2.000000e+00
      vertex 2.903360e+00 9.081011e-01 2.000000e+00
    endloop
  endfacet
  facet normal -2.294902e-15 3.759955e-16 1.000000e+00
    outer loop
      vertex 2.903360e+00 9.081011e-01 2.000000e+00
      vertex 7.528570e+00 1.700000e+01 2.000000e+00
      vertex 2.552851e+00 1.754321e+00 2.000000e+00
    endloop
  endfacet
  facet normal -2.294902e-15 3.759955e-16 1.000000e+00
    outer loop
      vertex 2.552851e+00 1.754321e+00 2.000000e+00
      vertex 7.528570e+00 1.700000e+01 2.000000e+00
      vertex 1.995260e+00 2.480981e+00 2.000000e+00
    endloop
  endfacet
  facet normal -2.294902e-15 3.759955e-16 1.000000e+00
    outer loop
      vertex 1.995260e+00 2.480981e+00 2.000000e+00
      vertex 7.528570e+00 1.700000e+01 2.000000e+00
      vertex 1.268600e+00 3.038562e+00 2.000000e+00
    endloop
  endfacet
  facet normal -2.294902e-15 3.759955e-16 1.000000e+00
    outer loop
      vertex 1.268600e+00 3.038562e+00 2.000000e+00
      vertex 7.528570e+00 1.700000e+01 2.000000e+00
      vertex 4.223900e-01 3.389081e+00 2.000000e+00
    endloop
  endfacet
  facet normal -2.294902e-15 3.759955e-16 1.000000e+00
    outer loop
      vertex 4.223900e-01 3.389081e+00 2.000000e+00
      vertex 7.528570e+00 1.700000e+01 2.000000e+00
      vertex -4.857101e-01 3.508632e+00 2.000000e+00
    endloop
  endfacet
  facet normal -2.294902e-15 3.759955e-16 1.000000e+00
    outer loop
      vertex -8.500000e+00 -1.700000e+01 2.000000e+00
      vertex -3.874790e+00 -9.080992e-01 2.000000e+00
      vertex -8.500000e+00 1.700000e+01 2.000000e+00
    endloop
  endfacet
  facet normal -2.294902e-15 3.759955e-16 1.000000e+00
    outer loop
      vertex -3.874790e+00 -9.080992e-01 2.000000e+00
      vertex -8.500000e+00 -1.700000e+01 2.000000e+00
      vertex -3.524281e+00 -1.754310e+00 2.000000e+00
    endloop
  endfacet
  facet normal -2.294902e-15 3.759955e-16 1.000000e+00
    outer loop
      vertex -3.524281e+00 -1.754310e+00 2.000000e+00
      vertex -8.500000e+00 -1.700000e+01 2.000000e+00
      vertex -2.966690e+00 -2.480969e+00 2.000000e+00
    endloop
  endfacet
  facet normal -2.294902e-15 3.759955e-16 1.000000e+00
    outer loop
      vertex -2.966690e+00 -2.480969e+00 2.000000e+00
      vertex -8.500000e+00 -1.700000e+01 2.000000e+00
      vertex -2.240030e+00 -3.038560e+00 2.000000e+00
    endloop
  endfacet
  facet normal -2.294902e-15 3.759955e-16 1.000000e+00
    outer loop
      vertex -2.240030e+00 -3.038560e+00 2.000000e+00
      vertex -8.500000e+00 -1.700000e+01 2.000000e+00
      vertex -1.393810e+00 -3.389070e+00 2.000000e+00
    endloop
  endfacet
  facet normal -2.294902e-15 3.759955e-16 1.000000e+00
    outer loop
      vertex -1.393810e+00 -3.389070e+00 2.000000e+00
      vertex -8.500000e+00 -1.700000e+01 2.000000e+00
      vertex -4.857101e-01 -3.508630e+00 2.000000e+00
    endloop
  endfacet
  facet normal -2.294902e-15 3.759955e-16 1.000000e+00
    outer loop
      vertex -8.500000e+00 1.700000e+01 2.000000e+00
      vertex -3.874790e+00 -9.080992e-01 2.000000e+00
      vertex -3.994341e+00 9.536743e-07 2.000000e+00
    endloop
  endfacet
  facet normal -2.294902e-15 3.759955e-16 1.000000e+00
    outer loop
      vertex -8.500000e+00 1.700000e+01 2.000000e+00
      vertex -3.994341e+00 9.536743e-07 2.000000e+00
      vertex -3.874790e+00 9.081011e-01 2.000000e+00
    endloop
  endfacet
  facet normal -2.294902e-15 3.759955e-16 1.000000e+00
    outer loop
      vertex -8.500000e+00 1.700000e+01 2.000000e+00
      vertex -3.874790e+00 9.081011e-01 2.000000e+00
      vertex -3.524281e+00 1.754321e+00 2.000000e+00
    endloop
  endfacet
  facet normal -2.294902e-15 3.759955e-16 1.000000e+00
    outer loop
      vertex -8.500000e+00 1.700000e+01 2.000000e+00
      vertex -3.524281e+00 1.754321e+00 2.000000e+00
      vertex -2.966690e+00 2.480981e+00 2.000000e+00
    endloop
  endfacet
  facet normal -2.294902e-15 3.759955e-16 1.000000e+00
    outer loop
      vertex -8.500000e+00 1.700000e+01 2.000000e+00
      vertex -2.966690e+00 2.480981e+00 2.000000e+00
      vertex -2.240030e+00 3.038562e+00 2.000000e+00
    endloop
  endfacet
  facet normal -2.294902e-15 3.759955e-16 1.000000e+00
    outer loop
      vertex -8.500000e+00 1.700000e+01 2.000000e+00
      vertex -2.240030e+00 3.038562e+00 2.000000e+00
      vertex -1.393810e+00 3.389081e+00 2.000000e+00
    endloop
  endfacet
  facet normal -2.294902e-15 3.759955e-16 1.000000e+00
    outer loop
      vertex -8.500000e+00 1.700000e+01 2.000000e+00
      vertex -1.393810e+00 3.389081e+00 2.000000e+00
      vertex -4.857101e-01 3.508632e+00 2.000000e+00
    endloop
  endfacet
  facet normal -2.294902e-15 3.759955e-16 1.000000e+00
    outer loop
      vertex -8.500000e+00 1.700000e+01 2.000000e+00
      vertex -4.857101e-01 3.508632e+00 2.000000e+00
      vertex 7.528570e+00 1.700000e+01 2.000000e+00
    endloop
  endfacet
  facet normal 0.000000e+00 -1.000000e+00 0.000000e+00
    outer loop
      vertex -8.500000e+00 -1.900000e+01 0.000000e+00
      vertex 8.500000e+00 -1.900000e+01 0.000000e+00
      vertex -8.500000e+00 -1.900000e+01 3.500001e+01
    endloop
  endfacet
  facet normal 0.000000e+00 1.000000e+00 0.000000e+00
    outer loop
      vertex -8.500000e+00 1.900000e+01 3.500001e+01
      vertex 8.500000e+00 1.900000e+01 0.000000e+00
      vertex -8.500000e+00 1.900000e+01 0.000000e+00
    endloop
  endfacet
  facet normal 8.995082e-01 1.929359e-16 4.369040e-01
    outer loop
      vertex 8.500000e+00 1.900000e+01 0.000000e+00
      vertex 7.528570e+00 1.700000e+01 2.000000e+00
      vertex 8.500000e+00 -1.900000e+01 0.000000e+00
    endloop
  endfacet
  facet normal 8.995082e-01 1.929359e-16 4.369040e-01
    outer loop
      vertex 7.528570e+00 1.700000e+01 2.000000e+00
      vertex 8.500000e+00 1.900000e+01 0.000000e+00
      vertex -8.500000e+00 1.900000e+01 3.500001e+01
    endloop
  endfacet
  facet normal 8.995082e-01 1.929359e-16 4.369040e-01
    outer loop
      vertex 7.528570e+00 1.700000e+01 2.000000e+00
      vertex -8.500000e+00 1.900000e+01 3.500001e+01
      vertex -8.500000e+00 1.700000e+01 3.500001e+01
    endloop
  endfacet
  facet normal 8.995082e-01 1.929359e-16 4.369040e-01
    outer loop
      vertex 8.500000e+00 -1.900000e+01 0.000000e+00
      vertex 7.528570e+00 -1.700000e+01 2.000000e+00
      vertex -8.500000e+00 -1.900000e+01 3.500001e+01
    endloop
  endfacet
  facet normal 8.995082e-01 1.929359e-16 4.369040e-01
    outer loop
      vertex 7.528570e+00 -1.700000e+01 2.000000e+00
      vertex 8.500000e+00 -1.900000e+01 0.000000e+00
      vertex 7.528570e+00 1.700000e+01 2.000000e+00
    endloop
  endfacet
  facet normal 8.995082e-01 1.929359e-16 4.369040e-01
    outer loop
      vertex -8.500000e+00 -1.900000e+01 3.500001e+01
      vertex 7.528570e+00 -1.700000e+01 2.000000e+00
      vertex -8.500000e+00 -1.700000e+01 3.500001e+01
    endloop
  endfacet
  facet normal 1.000000e+00 0.000000e+00 1.836970e-16
    outer loop
      vertex -2.985710e+00 9.536743e-07 3.000000e+00
      vertex -2.900530e+00 -6.470499e-01 0.000000e+00
      vertex -2.985710e+00 9.536743e-07 0.000000e+00
    endloop
  endfacet
  facet normal 9.659258e-01 2.588190e-01 1.774377e-16
    outer loop
      vertex -2.900530e+00 -6.470499e-01 0.000000e+00
      vertex -2.985710e+00 9.536743e-07 3.000000e+00
      vertex -2.900530e+00 -6.470499e-01 3.000000e+00
    endloop
  endfacet
  facet normal -1.000000e+00 7.574443e-16 -1.836970e-16
    outer loop
      vertex -3.994341e+00 9.536743e-07 3.000000e+00
      vertex -3.874790e+00 9.081011e-01 2.000000e+00
      vertex -3.994341e+00 9.536743e-07 2.000000e+00
    endloop
  endfacet
  facet normal -9.659258e-01 2.588190e-01 -1.774377e-16
    outer loop
      vertex -3.874790e+00 9.081011e-01 2.000000e+00
      vertex -3.994341e+00 9.536743e-07 3.000000e+00
      vertex -3.874790e+00 9.081011e-01 3.000000e+00
    endloop
  endfacet
  facet normal -1.836970e-16 0.000000e+00 1.000000e+00
    outer loop
      vertex 4.223900e-01 -3.389070e+00 3.000000e+00
      vertex -1.393810e+00 -3.389070e+00 3.000000e+00
      vertex -4.857101e-01 -3.508630e+00 3.000000e+00
    endloop
  endfacet
  facet normal -1.836970e-16 0.000000e+00 1.000000e+00
    outer loop
      vertex -1.393810e+00 -3.389070e+00 3.000000e+00
      vertex 4.223900e-01 -3.389070e+00 3.000000e+00
      vertex 1.268600e+00 -3.038560e+00 3.000000e+00
    endloop
  endfacet
  facet normal -1.836970e-16 0.000000e+00 1.000000e+00
    outer loop
      vertex -1.393810e+00 -3.389070e+00 3.000000e+00
      vertex 1.268600e+00 -3.038560e+00 3.000000e+00
      vertex -2.240030e+00 -3.038560e+00 3.000000e+00
    endloop
  endfacet
  facet normal -1.836970e-16 0.000000e+00 1.000000e+00
    outer loop
      vertex -2.240030e+00 -3.038560e+00 3.000000e+00
      vertex 1.268600e+00 -3.038560e+00 3.000000e+00
      vertex 1.995260e+00 -2.480969e+00 3.000000e+00
    endloop
  endfacet
  facet normal -1.836970e-16 0.000000e+00 1.000000e+00
    outer loop
      vertex -2.240030e+00 -3.038560e+00 3.000000e+00
      vertex 1.995260e+00 -2.480969e+00 3.000000e+00
      vertex -4.857101e-01 -2.499999e+00 3.000000e+00
    endloop
  endfacet
  facet normal -1.836970e-16 0.000000e+00 1.000000e+00
    outer loop
      vertex -4.857101e-01 -2.499999e+00 3.000000e+00
      vertex 1.995260e+00 -2.480969e+00 3.000000e+00
      vertex 1.613293e-01 -2.414809e+00 3.000000e+00
    endloop
  endfacet
  facet normal -1.836970e-16 0.000000e+00 1.000000e+00
    outer loop
      vertex 1.613293e-01 -2.414809e+00 3.000000e+00
      vertex 1.995260e+00 -2.480969e+00 3.000000e+00
      vertex 2.552851e+00 -1.754310e+00 3.000000e+00
    endloop
  endfacet
  facet normal -1.836970e-16 0.000000e+00 1.000000e+00
    outer loop
      vertex 1.613293e-01 -2.414809e+00 3.000000e+00
      vertex 2.552851e+00 -1.754310e+00 3.000000e+00
      vertex 7.642899e-01 -2.165059e+00 3.000000e+00
    endloop
  endfacet
  facet normal -1.836970e-16 0.000000e+00 1.000000e+00
    outer loop
      vertex 7.642899e-01 -2.165059e+00 3.000000e+00
      vertex 2.552851e+00 -1.754310e+00 3.000000e+00
      vertex 1.282049e+00 -1.767770e+00 3.000000e+00
    endloop
  endfacet
  facet normal -1.836970e-16 0.000000e+00 1.000000e+00
    outer loop
      vertex 1.282049e+00 -1.767770e+00 3.000000e+00
      vertex 2.552851e+00 -1.754310e+00 3.000000e+00
      vertex 1.679350e+00 -1.249999e+00 3.000000e+00
    endloop
  endfacet
  facet normal -1.836970e-16 0.000000e+00 1.000000e+00
    outer loop
      vertex 1.679350e+00 -1.249999e+00 3.000000e+00
      vertex 2.552851e+00 -1.754310e+00 3.000000e+00
      vertex 2.903360e+00 -9.080992e-01 3.000000e+00
    endloop
  endfacet
  facet normal -1.836970e-16 0.000000e+00 1.000000e+00
    outer loop
      vertex 1.679350e+00 -1.249999e+00 3.000000e+00
      vertex 2.903360e+00 -9.080992e-01 3.000000e+00
      vertex 1.929100e+00 -6.470499e-01 3.000000e+00
    endloop
  endfacet
  facet normal -1.836970e-16 0.000000e+00 1.000000e+00
    outer loop
      vertex 1.929100e+00 -6.470499e-01 3.000000e+00
      vertex 2.903360e+00 -9.080992e-01 3.000000e+00
      vertex 3.022909e+00 9.536743e-07 3.000000e+00
    endloop
  endfacet
  facet normal -1.836970e-16 0.000000e+00 1.000000e+00
    outer loop
      vertex 1.929100e+00 -6.470499e-01 3.000000e+00
      vertex 3.022909e+00 9.536743e-07 3.000000e+00
      vertex 2.014290e+00 9.536743e-07 3.000000e+00
    endloop
  endfacet
  facet normal -1.836970e-16 0.000000e+00 1.000000e+00
    outer loop
      vertex 2.014290e+00 9.536743e-07 3.000000e+00
      vertex 3.022909e+00 9.536743e-07 3.000000e+00
      vertex 2.903360e+00 9.081011e-01 3.000000e+00
    endloop
  endfacet
  facet normal -1.836970e-16 0.000000e+00 1.000000e+00
    outer loop
      vertex 2.014290e+00 9.536743e-07 3.000000e+00
      vertex 2.903360e+00 9.081011e-01 3.000000e+00
      vertex 1.929100e+00 6.470518e-01 3.000000e+00
    endloop
  endfacet
  facet normal -1.836970e-16 0.000000e+00 1.000000e+00
    outer loop
      vertex 1.929100e+00 6.470518e-01 3.000000e+00
      vertex 2.903360e+00 9.081011e-01 3.000000e+00
      vertex 1.679350e+00 1.250001e+00 3.000000e+00
    endloop
  endfacet
  facet normal -1.836970e-16 0.000000e+00 1.000000e+00
    outer loop
      vertex 1.679350e+00 1.250001e+00 3.000000e+00
      vertex 2.903360e+00 9.081011e-01 3.000000e+00
      vertex 2.552851e+00 1.754321e+00 3.000000e+00
    endloop
  endfacet
  facet normal -1.836970e-16 0.000000e+00 1.000000e+00
    outer loop
      vertex 1.679350e+00 1.250001e+00 3.000000e+00
      vertex 2.552851e+00 1.754321e+00 3.000000e+00
      vertex 1.282049e+00 1.767772e+00 3.000000e+00
    endloop
  endfacet
  facet normal -1.836970e-16 0.000000e+00 1.000000e+00
    outer loop
      vertex 1.282049e+00 1.767772e+00 3.000000e+00
      vertex 2.552851e+00 1.754321e+00 3.000000e+00
      vertex 1.995260e+00 2.480981e+00 3.000000e+00
    endloop
  endfacet
  facet normal -1.836970e-16 0.000000e+00 1.000000e+00
    outer loop
      vertex 1.282049e+00 1.767772e+00 3.000000e+00
      vertex 1.995260e+00 2.480981e+00 3.000000e+00
      vertex 7.642899e-01 2.165061e+00 3.000000e+00
    endloop
  endfacet
  facet normal -1.836970e-16 0.000000e+00 1.000000e+00
    outer loop
      vertex 7.642899e-01 2.165061e+00 3.000000e+00
      vertex 1.995260e+00 2.480981e+00 3.000000e+00
      vertex 1.613293e-01 2.414821e+00 3.000000e+00
    endloop
  endfacet
  facet normal -1.836970e-16 0.000000e+00 1.000000e+00
    outer loop
      vertex 1.613293e-01 2.414821e+00 3.000000e+00
      vertex 1.995260e+00 2.480981e+00 3.000000e+00
      vertex -4.857101e-01 2.500001e+00 3.000000e+00
    endloop
  endfacet
  facet normal -1.836970e-16 0.000000e+00 1.000000e+00
    outer loop
      vertex -4.857101e-01 2.500001e+00 3.000000e+00
      vertex 1.995260e+00 2.480981e+00 3.000000e+00
      vertex 1.268600e+00 3.038562e+00 3.000000e+00
    endloop
  endfacet
  facet normal -1.836970e-16 0.000000e+00 1.000000e+00
    outer loop
      vertex -4.857101e-01 -2.499999e+00 3.000000e+00
      vertex -2.966690e+00 -2.480969e+00 3.000000e+00
      vertex -2.240030e+00 -3.038560e+00 3.000000e+00
    endloop
  endfacet
  facet normal -1.836970e-16 0.000000e+00 1.000000e+00
    outer loop
      vertex -2.966690e+00 -2.480969e+00 3.000000e+00
      vertex -4.857101e-01 -2.499999e+00 3.000000e+00
      vertex -1.132759e+00 -2.414809e+00 3.000000e+00
    endloop
  endfacet
  facet normal -1.836970e-16 0.000000e+00 1.000000e+00
    outer loop
      vertex -2.966690e+00 -2.480969e+00 3.000000e+00
      vertex -1.132759e+00 -2.414809e+00 3.000000e+00
      vertex -3.524281e+00 -1.754310e+00 3.000000e+00
    endloop
  endfacet
  facet normal -1.836970e-16 0.000000e+00 1.000000e+00
    outer loop
      vertex -3.524281e+00 -1.754310e+00 3.000000e+00
      vertex -1.132759e+00 -2.414809e+00 3.000000e+00
      vertex -1.735710e+00 -2.165059e+00 3.000000e+00
    endloop
  endfacet
  facet normal -1.836970e-16 0.000000e+00 1.000000e+00
    outer loop
      vertex -3.524281e+00 -1.754310e+00 3.000000e+00
      vertex -1.735710e+00 -2.165059e+00 3.000000e+00
      vertex -2.253481e+00 -1.767770e+00 3.000000e+00
    endloop
  endfacet
  facet normal -1.836970e-16 0.000000e+00 1.000000e+00
    outer loop
      vertex -3.524281e+00 -1.754310e+00 3.000000e+00
      vertex -2.253481e+00 -1.767770e+00 3.000000e+00
      vertex -2.650780e+00 -1.249999e+00 3.000000e+00
    endloop
  endfacet
  facet normal -1.836970e-16 0.000000e+00 1.000000e+00
    outer loop
      vertex -3.524281e+00 -1.754310e+00 3.000000e+00
      vertex -2.650780e+00 -1.249999e+00 3.000000e+00
      vertex -3.874790e+00 -9.080992e-01 3.000000e+00
    endloop
  endfacet
  facet normal -1.836970e-16 0.000000e+00 1.000000e+00
    outer loop
      vertex -3.874790e+00 -9.080992e-01 3.000000e+00
      vertex -2.650780e+00 -1.249999e+00 3.000000e+00
      vertex -2.900530e+00 -6.470499e-01 3.000000e+00
    endloop
  endfacet
  facet normal -1.836970e-16 0.000000e+00 1.000000e+00
    outer loop
      vertex -3.874790e+00 -9.080992e-01 3.000000e+00
      vertex -2.900530e+00 -6.470499e-01 3.000000e+00
      vertex -3.994341e+00 9.536743e-07 3.000000e+00
    endloop
  endfacet
  facet normal -1.836970e-16 0.000000e+00 1.000000e+00
    outer loop
      vertex -3.994341e+00 9.536743e-07 3.000000e+00
      vertex -2.900530e+00 -6.470499e-01 3.000000e+00
      vertex -2.985710e+00 9.536743e-07 3.000000e+00
    endloop
  endfacet
  facet normal -1.836970e-16 0.000000e+00 1.000000e+00
    outer loop
      vertex -3.994341e+00 9.536743e-07 3.000000e+00
      vertex -2.985710e+00 9.536743e-07 3.000000e+00
      vertex -2.900530e+00 6.470518e-01 3.000000e+00
    endloop
  endfacet
  facet normal -1.836970e-16 0.000000e+00 1.000000e+00
    outer loop
      vertex -3.994341e+00 9.536743e-07 3.000000e+00
      vertex -2.900530e+00 6.470518e-01 3.000000e+00
      vertex -3.874790e+00 9.081011e-01 3.000000e+00
    endloop
  endfacet
  facet normal -1.836970e-16 0.000000e+00 1.000000e+00
    outer loop
      vertex -3.874790e+00 9.081011e-01 3.000000e+00
      vertex -2.900530e+00 6.470518e-01 3.000000e+00
      vertex -2.650780e+00 1.250001e+00 3.000000e+00
    endloop
  endfacet
  facet normal -1.836970e-16 0.000000e+00 1.000000e+00
    outer loop
      vertex -3.874790e+00 9.081011e-01 3.000000e+00
      vertex -2.650780e+00 1.250001e+00 3.000000e+00
      vertex -3.524281e+00 1.754321e+00 3.000000e+00
    endloop
  endfacet
  facet normal -1.836970e-16 0.000000e+00 1.000000e+00
    outer loop
      vertex -3.524281e+00 1.754321e+00 3.000000e+00
      vertex -2.650780e+00 1.250001e+00 3.000000e+00
      vertex -2.253481e+00 1.767772e+00 3.000000e+00
    endloop
  endfacet
  facet normal -1.836970e-16 0.000000e+00 1.000000e+00
    outer loop
      vertex -3.524281e+00 1.754321e+00 3.000000e+00
      vertex -2.253481e+00 1.767772e+00 3.000000e+00
      vertex -2.966690e+00 2.480981e+00 3.000000e+00
    endloop
  endfacet
  facet normal -1.836970e-16 0.000000e+00 1.000000e+00
    outer loop
      vertex -2.966690e+00 2.480981e+00 3.000000e+00
      vertex -2.253481e+00 1.767772e+00 3.000000e+00
      vertex -1.735710e+00 2.165061e+00 3.000000e+00
    endloop
  endfacet
  facet normal -1.836970e-16 0.000000e+00 1.000000e+00
    outer loop
      vertex -2.966690e+00 2.480981e+00 3.000000e+00
      vertex -1.735710e+00 2.165061e+00 3.000000e+00
      vertex -1.132759e+00 2.414821e+00 3.000000e+00
    endloop
  endfacet
  facet normal -1.836970e-16 0.000000e+00 1.000000e+00
    outer loop
      vertex -2.966690e+00 2.480981e+00 3.000000e+00
      vertex -1.132759e+00 2.414821e+00 3.000000e+00
      vertex -4.857101e-01 2.500001e+00 3.000000e+00
    endloop
  endfacet
  facet normal -1.836970e-16 0.000000e+00 1.000000e+00
    outer loop
      vertex -2.966690e+00 2.480981e+00 3.000000e+00
      vertex -4.857101e-01 2.500001e+00 3.000000e+00
      vertex -2.240030e+00 3.038562e+00 3.000000e+00
    endloop
  endfacet
  facet normal -1.836970e-16 0.000000e+00 1.000000e+00
    outer loop
      vertex -2.240030e+00 3.038562e+00 3.000000e+00
      vertex -4.857101e-01 2.500001e+00 3.000000e+00
      vertex 1.268600e+00 3.038562e+00 3.000000e+00
    endloop
  endfacet
  facet normal -1.836970e-16 0.000000e+00 1.000000e+00
    outer loop
      vertex -2.240030e+00 3.038562e+00 3.000000e+00
      vertex 1.268600e+00 3.038562e+00 3.000000e+00
      vertex 4.223900e-01 3.389081e+00 3.000000e+00
    endloop
  endfacet
  facet normal -1.836970e-16 0.000000e+00 1.000000e+00
    outer loop
      vertex -2.240030e+00 3.038562e+00 3.000000e+00
      vertex 4.223900e-01 3.389081e+00 3.000000e+00
      vertex -1.393810e+00 3.389081e+00 3.000000e+00
    endloop
  endfacet
  facet normal -1.836970e-16 0.000000e+00 1.000000e+00
    outer loop
      vertex -1.393810e+00 3.389081e+00 3.000000e+00
      vertex 4.223900e-01 3.389081e+00 3.000000e+00
      vertex -4.857101e-01 3.508632e+00 3.000000e+00
    endloop
  endfacet
  facet normal 5.000000e-01 -8.660254e-01 9.184851e-17
    outer loop
      vertex 1.268600e+00 -3.038560e+00 3.000000e+00
      vertex 1.995260e+00 -2.480969e+00 2.000000e+00
      vertex 1.995260e+00 -2.480969e+00 3.000000e+00
    endloop
  endfacet
  facet normal 7.071068e-01 -7.071068e-01 1.298934e-16
    outer loop
      vertex 1.995260e+00 -2.480969e+00 2.000000e+00
      vertex 1.268600e+00 -3.038560e+00 3.000000e+00
      vertex 1.268600e+00 -3.038560e+00 2.000000e+00
    endloop
  endfacet
  facet normal -5.000000e-01 8.660254e-01 -9.184851e-17
    outer loop
      vertex -2.240030e+00 3.038562e+00 2.000000e+00
      vertex -1.393810e+00 3.389081e+00 3.000000e+00
      vertex -1.393810e+00 3.389081e+00 2.000000e+00
    endloop
  endfacet
  facet normal -2.588190e-01 9.659258e-01 -4.754429e-17
    outer loop
      vertex -1.393810e+00 3.389081e+00 3.000000e+00
      vertex -2.240030e+00 3.038562e+00 2.000000e+00
      vertex -2.240030e+00 3.038562e+00 3.000000e+00
    endloop
  endfacet
  facet normal -9.659258e-01 -2.588190e-01 -1.774377e-16
    outer loop
      vertex -3.874790e+00 -9.080992e-01 3.000000e+00
      vertex -3.994341e+00 9.536743e-07 2.000000e+00
      vertex -3.874790e+00 -9.080992e-01 2.000000e+00
    endloop
  endfacet
  facet normal -1.000000e+00 7.574443e-16 -1.836970e-16
    outer loop
      vertex -3.994341e+00 9.536743e-07 2.000000e+00
      vertex -3.874790e+00 -9.080992e-01 3.000000e+00
      vertex -3.994341e+00 9.536743e-07 3.000000e+00
    endloop
  endfacet
  facet normal -8.660254e-01 -5.000000e-01 -1.590863e-16
    outer loop
      vertex -3.524281e+00 -1.754310e+00 3.000000e+00
      vertex -3.874790e+00 -9.080992e-01 2.000000e+00
      vertex -3.524281e+00 -1.754310e+00 2.000000e+00
    endloop
  endfacet
  facet normal -9.659258e-01 -2.588190e-01 -1.774377e-16
    outer loop
      vertex -3.874790e+00 -9.080992e-01 2.000000e+00
      vertex -3.524281e+00 -1.754310e+00 3.000000e+00
      vertex -3.874790e+00 -9.080992e-01 3.000000e+00
    endloop
  endfacet
  facet normal -7.071068e-01 -7.071068e-01 -1.298934e-16
    outer loop
      vertex -2.966690e+00 -2.480969e+00 3.000000e+00
      vertex -3.524281e+00 -1.754310e+00 2.000000e+00
      vertex -2.966690e+00 -2.480969e+00 2.000000e+00
    endloop
  endfacet
  facet normal -8.660254e-01 -5.000000e-01 -1.590863e-16
    outer loop
      vertex -3.524281e+00 -1.754310e+00 2.000000e+00
      vertex -2.966690e+00 -2.480969e+00 3.000000e+00
      vertex -3.524281e+00 -1.754310e+00 3.000000e+00
    endloop
  endfacet
  facet normal -7.071068e-01 -7.071068e-01 -1.298934e-16
    outer loop
      vertex -2.966690e+00 -2.480969e+00 3.000000e+00
      vertex -2.240030e+00 -3.038560e+00 2.000000e+00
      vertex -2.240030e+00 -3.038560e+00 3.000000e+00
    endloop
  endfacet
  facet normal -5.000000e-01 -8.660254e-01 -9.184851e-17
    outer loop
      vertex -2.240030e+00 -3.038560e+00 2.000000e+00
      vertex -2.966690e+00 -2.480969e+00 3.000000e+00
      vertex -2.966690e+00 -2.480969e+00 2.000000e+00
    endloop
  endfacet
  facet normal -5.000000e-01 -8.660254e-01 -9.184851e-17
    outer loop
      vertex -2.240030e+00 -3.038560e+00 3.000000e+00
      vertex -1.393810e+00 -3.389070e+00 2.000000e+00
      vertex -1.393810e+00 -3.389070e+00 3.000000e+00
    endloop
  endfacet
  facet normal -2.588190e-01 -9.659258e-01 -4.754429e-17
    outer loop
      vertex -1.393810e+00 -3.389070e+00 2.000000e+00
      vertex -2.240030e+00 -3.038560e+00 3.000000e+00
      vertex -2.240030e+00 -3.038560e+00 2.000000e+00
    endloop
  endfacet
  facet normal -2.588190e-01 -9.659258e-01 -4.754429e-17
    outer loop
      vertex -1.393810e+00 -3.389070e+00 3.000000e+00
      vertex -4.857101e-01 -3.508630e+00 2.000000e+00
      vertex -4.857101e-01 -3.508630e+00 3.000000e+00
    endloop
  endfacet
  facet normal -6.059555e-16 -1.000000e+00 -1.113122e-31
    outer loop
      vertex -4.857101e-01 -3.508630e+00 2.000000e+00
      vertex -1.393810e+00 -3.389070e+00 3.000000e+00
      vertex -1.393810e+00 -3.389070e+00 2.000000e+00
    endloop
  endfacet
  facet normal -6.059555e-16 -1.000000e+00 -1.113122e-31
    outer loop
      vertex -4.857101e-01 -3.508630e+00 3.000000e+00
      vertex 4.223900e-01 -3.389070e+00 2.000000e+00
      vertex 4.223900e-01 -3.389070e+00 3.000000e+00
    endloop
  endfacet
  facet normal 2.588190e-01 -9.659258e-01 4.754429e-17
    outer loop
      vertex 4.223900e-01 -3.389070e+00 2.000000e+00
      vertex -4.857101e-01 -3.508630e+00 3.000000e+00
      vertex -4.857101e-01 -3.508630e+00 2.000000e+00
    endloop
  endfacet
  facet normal 2.588190e-01 -9.659258e-01 4.754429e-17
    outer loop
      vertex 4.223900e-01 -3.389070e+00 3.000000e+00
      vertex 1.268600e+00 -3.038560e+00 2.000000e+00
      vertex 1.268600e+00 -3.038560e+00 3.000000e+00
    endloop
  endfacet
  facet normal 5.000000e-01 -8.660254e-01 9.184851e-17
    outer loop
      vertex 1.268600e+00 -3.038560e+00 2.000000e+00
      vertex 4.223900e-01 -3.389070e+00 3.000000e+00
      vertex 4.223900e-01 -3.389070e+00 2.000000e+00
    endloop
  endfacet
  facet normal 8.660254e-01 -5.000000e-01 1.590863e-16
    outer loop
      vertex 2.552851e+00 -1.754310e+00 3.000000e+00
      vertex 1.995260e+00 -2.480969e+00 2.000000e+00
      vertex 2.552851e+00 -1.754310e+00 2.000000e+00
    endloop
  endfacet
  facet normal 7.071068e-01 -7.071068e-01 1.298934e-16
    outer loop
      vertex 1.995260e+00 -2.480969e+00 2.000000e+00
      vertex 2.552851e+00 -1.754310e+00 3.000000e+00
      vertex 1.995260e+00 -2.480969e+00 3.000000e+00
    endloop
  endfacet
  facet normal 9.659258e-01 -2.588190e-01 1.774377e-16
    outer loop
      vertex 2.903360e+00 -9.080992e-01 3.000000e+00
      vertex 2.552851e+00 -1.754310e+00 2.000000e+00
      vertex 2.903360e+00 -9.080992e-01 2.000000e+00
    endloop
  endfacet
  facet normal 8.660254e-01 -5.000000e-01 1.590863e-16
    outer loop
      vertex 2.552851e+00 -1.754310e+00 2.000000e+00
      vertex 2.903360e+00 -9.080992e-01 3.000000e+00
      vertex 2.552851e+00 -1.754310e+00 3.000000e+00
    endloop
  endfacet
  facet normal 1.000000e+00 -3.742666e-16 1.836970e-16
    outer loop
      vertex 3.022909e+00 9.536743e-07 3.000000e+00
      vertex 2.903360e+00 -9.080992e-01 2.000000e+00
      vertex 3.022909e+00 9.536743e-07 2.000000e+00
    endloop
  endfacet
  facet normal 9.659258e-01 -2.588190e-01 1.774377e-16
    outer loop
      vertex 2.903360e+00 -9.080992e-01 2.000000e+00
      vertex 3.022909e+00 9.536743e-07 3.000000e+00
      vertex 2.903360e+00 -9.080992e-01 3.000000e+00
    endloop
  endfacet
  facet normal 9.659258e-01 2.588190e-01 1.774377e-16
    outer loop
      vertex 2.903360e+00 9.081011e-01 3.000000e+00
      vertex 3.022909e+00 9.536743e-07 2.000000e+00
      vertex 2.903360e+00 9.081011e-01 2.000000e+00
    endloop
  endfacet
  facet normal 1.000000e+00 -3.742666e-16 1.836970e-16
    outer loop
      vertex 3.022909e+00 9.536743e-07 2.000000e+00
      vertex 2.903360e+00 9.081011e-01 3.000000e+00
      vertex 3.022909e+00 9.536743e-07 3.000000e+00
    endloop
  endfacet
  facet normal 8.660254e-01 5.000000e-01 1.590863e-16
    outer loop
      vertex 2.552851e+00 1.754321e+00 3.000000e+00
      vertex 2.903360e+00 9.081011e-01 2.000000e+00
      vertex 2.552851e+00 1.754321e+00 2.000000e+00
    endloop
  endfacet
  facet normal 9.659258e-01 2.588190e-01 1.774377e-16
    outer loop
      vertex 2.903360e+00 9.081011e-01 2.000000e+00
      vertex 2.552851e+00 1.754321e+00 3.000000e+00
      vertex 2.903360e+00 9.081011e-01 3.000000e+00
    endloop
  endfacet
  facet normal 7.071068e-01 7.071068e-01 1.298934e-16
    outer loop
      vertex 1.995260e+00 2.480981e+00 3.000000e+00
      vertex 2.552851e+00 1.754321e+00 2.000000e+00
      vertex 1.995260e+00 2.480981e+00 2.000000e+00
    endloop
  endfacet
  facet normal 8.660254e-01 5.000000e-01 1.590863e-16
    outer loop
      vertex 2.552851e+00 1.754321e+00 2.000000e+00
      vertex 1.995260e+00 2.480981e+00 3.000000e+00
      vertex 2.552851e+00 1.754321e+00 3.000000e+00
    endloop
  endfacet
  facet normal 5.000000e-01 8.660254e-01 9.184851e-17
    outer loop
      vertex 1.268600e+00 3.038562e+00 2.000000e+00
      vertex 1.995260e+00 2.480981e+00 3.000000e+00
      vertex 1.995260e+00 2.480981e+00 2.000000e+00
    endloop
  endfacet
  facet normal 7.071068e-01 7.071068e-01 1.298934e-16
    outer loop
      vertex 1.995260e+00 2.480981e+00 3.000000e+00
      vertex 1.268600e+00 3.038562e+00 2.000000e+00
      vertex 1.268600e+00 3.038562e+00 3.000000e+00
    endloop
  endfacet
  facet normal 2.588190e-01 9.659258e-01 4.754429e-17
    outer loop
      vertex 4.223900e-01 3.389081e+00 2.000000e+00
      vertex 1.268600e+00 3.038562e+00 3.000000e+00
      vertex 1.268600e+00 3.038562e+00 2.000000e+00
    endloop
  endfacet
  facet normal 5.000000e-01 8.660254e-01 9.184851e-17
    outer loop
      vertex 1.268600e+00 3.038562e+00 3.000000e+00
      vertex 4.223900e-01 3.389081e+00 2.000000e+00
      vertex 4.223900e-01 3.389081e+00 3.000000e+00
    endloop
  endfacet
  facet normal -3.118888e-16 1.000000e+00 -5.729305e-32
    outer loop
      vertex -4.857101e-01 3.508632e+00 2.000000e+00
      vertex 4.223900e-01 3.389081e+00 3.000000e+00
      vertex 4.223900e-01 3.389081e+00 2.000000e+00
    endloop
  endfacet
  facet normal 2.588190e-01 9.659258e-01 4.754429e-17
    outer loop
      vertex 4.223900e-01 3.389081e+00 3.000000e+00
      vertex -4.857101e-01 3.508632e+00 2.000000e+00
      vertex -4.857101e-01 3.508632e+00 3.000000e+00
    endloop
  endfacet
  facet normal -2.588190e-01 9.659258e-01 -4.754429e-17
    outer loop
      vertex -1.393810e+00 3.389081e+00 2.000000e+00
      vertex -4.857101e-01 3.508632e+00 3.000000e+00
      vertex -4.857101e-01 3.508632e+00 2.000000e+00
    endloop
  endfacet
  facet normal -3.118888e-16 1.000000e+00 -5.729305e-32
    outer loop
      vertex -4.857101e-01 3.508632e+00 3.000000e+00
      vertex -1.393810e+00 3.389081e+00 2.000000e+00
      vertex -1.393810e+00 3.389081e+00 3.000000e+00
    endloop
  endfacet
  facet normal -7.071068e-01 7.071068e-01 -1.298934e-16
    outer loop
      vertex -2.966690e+00 2.480981e+00 2.000000e+00
      vertex -2.240030e+00 3.038562e+00 3.000000e+00
      vertex -2.240030e+00 3.038562e+00 2.000000e+00
    endloop
  endfacet
  facet normal -5.000000e-01 8.660254e-01 -9.184851e-17
    outer loop
      vertex -2.240030e+00 3.038562e+00 3.000000e+00
      vertex -2.966690e+00 2.480981e+00 2.000000e+00
      vertex -2.966690e+00 2.480981e+00 3.000000e+00
    endloop
  endfacet
  facet normal -8.660254e-01 5.000000e-01 -1.590863e-16
    outer loop
      vertex -3.524281e+00 1.754321e+00 3.000000e+00
      vertex -2.966690e+00 2.480981e+00 2.000000e+00
      vertex -3.524281e+00 1.754321e+00 2.000000e+00
    endloop
  endfacet
  facet normal -7.071068e-01 7.071068e-01 -1.298934e-16
    outer loop
      vertex -2.966690e+00 2.480981e+00 2.000000e+00
      vertex -3.524281e+00 1.754321e+00 3.000000e+00
      vertex -2.966690e+00 2.480981e+00 3.000000e+00
    endloop
  endfacet
  facet normal -9.659258e-01 2.588190e-01 -1.774377e-16
    outer loop
      vertex -3.874790e+00 9.081011e-01 3.000000e+00
      vertex -3.524281e+00 1.754321e+00 2.000000e+00
      vertex -3.874790e+00 9.081011e-01 2.000000e+00
    endloop
  endfacet
  facet normal -8.660254e-01 5.000000e-01 -1.590863e-16
    outer loop
      vertex -3.524281e+00 1.754321e+00 2.000000e+00
      vertex -3.874790e+00 9.081011e-01 3.000000e+00
      vertex -3.524281e+00 1.754321e+00 3.000000e+00
    endloop
  endfacet
  facet normal 8.660254e-01 -5.000000e-01 1.590863e-16
    outer loop
      vertex -2.650780e+00 1.250001e+00 3.000000e+00
      vertex -2.900530e+00 6.470518e-01 0.000000e+00
      vertex -2.650780e+00 1.250001e+00 0.000000e+00
    endloop
  endfacet
  facet normal 9.659258e-01 -2.588190e-01 1.774377e-16
    outer loop
      vertex -2.900530e+00 6.470518e-01 0.000000e+00
      vertex -2.650780e+00 1.250001e+00 3.000000e+00
      vertex -2.900530e+00 6.470518e-01 3.000000e+00
    endloop
  endfacet
  facet normal 7.071068e-01 -7.071068e-01 1.298934e-16
    outer loop
      vertex -2.253481e+00 1.767772e+00 3.000000e+00
      vertex -2.650780e+00 1.250001e+00 0.000000e+00
      vertex -2.253481e+00 1.767772e+00 0.000000e+00
    endloop
  endfacet
  facet normal 8.660254e-01 -5.000000e-01 1.590863e-16
    outer loop
      vertex -2.650780e+00 1.250001e+00 0.000000e+00
      vertex -2.253481e+00 1.767772e+00 3.000000e+00
      vertex -2.650780e+00 1.250001e+00 3.000000e+00
    endloop
  endfacet
  facet normal 7.071068e-01 -7.071068e-01 1.298934e-16
    outer loop
      vertex -2.253481e+00 1.767772e+00 3.000000e+00
      vertex -1.735710e+00 2.165061e+00 0.000000e+00
      vertex -1.735710e+00 2.165061e+00 3.000000e+00
    endloop
  endfacet
  facet normal 5.000000e-01 -8.660254e-01 9.184851e-17
    outer loop
      vertex -1.735710e+00 2.165061e+00 0.000000e+00
      vertex -2.253481e+00 1.767772e+00 3.000000e+00
      vertex -2.253481e+00 1.767772e+00 0.000000e+00
    endloop
  endfacet
  facet normal 5.000000e-01 -8.660254e-01 9.184851e-17
    outer loop
      vertex -1.735710e+00 2.165061e+00 3.000000e+00
      vertex -1.132759e+00 2.414821e+00 0.000000e+00
      vertex -1.132759e+00 2.414821e+00 3.000000e+00
    endloop
  endfacet
  facet normal 2.588190e-01 -9.659258e-01 4.754429e-17
    outer loop
      vertex -1.132759e+00 2.414821e+00 0.000000e+00
      vertex -1.735710e+00 2.165061e+00 3.000000e+00
      vertex -1.735710e+00 2.165061e+00 0.000000e+00
    endloop
  endfacet
  facet normal 2.588190e-01 -9.659258e-01 4.754429e-17
    outer loop
      vertex -1.132759e+00 2.414821e+00 3.000000e+00
      vertex -4.857101e-01 2.500001e+00 0.000000e+00
      vertex -4.857101e-01 2.500001e+00 3.000000e+00
    endloop
  endfacet
  facet normal -1.336666e-16 -1.000000e+00 -2.455416e-32
    outer loop
      vertex -4.857101e-01 2.500001e+00 0.000000e+00
      vertex -1.132759e+00 2.414821e+00 3.000000e+00
      vertex -1.132759e+00 2.414821e+00 0.000000e+00
    endloop
  endfacet
  facet normal -1.336666e-16 -1.000000e+00 -2.455416e-32
    outer loop
      vertex -4.857101e-01 2.500001e+00 3.000000e+00
      vertex 1.613293e-01 2.414821e+00 0.000000e+00
      vertex 1.613293e-01 2.414821e+00 3.000000e+00
    endloop
  endfacet
  facet normal -2.588190e-01 -9.659258e-01 -4.754429e-17
    outer loop
      vertex 1.613293e-01 2.414821e+00 0.000000e+00
      vertex -4.857101e-01 2.500001e+00 3.000000e+00
      vertex -4.857101e-01 2.500001e+00 0.000000e+00
    endloop
  endfacet
  facet normal -2.588190e-01 -9.659258e-01 -4.754429e-17
    outer loop
      vertex 1.613293e-01 2.414821e+00 3.000000e+00
      vertex 7.642899e-01 2.165061e+00 0.000000e+00
      vertex 7.642899e-01 2.165061e+00 3.000000e+00
    endloop
  endfacet
  facet normal -5.000000e-01 -8.660254e-01 -9.184851e-17
    outer loop
      vertex 7.642899e-01 2.165061e+00 0.000000e+00
      vertex 1.613293e-01 2.414821e+00 3.000000e+00
      vertex 1.613293e-01 2.414821e+00 0.000000e+00
    endloop
  endfacet
  facet normal -5.000000e-01 -8.660254e-01 -9.184851e-17
    outer loop
      vertex 7.642899e-01 2.165061e+00 3.000000e+00
      vertex 1.282049e+00 1.767772e+00 0.000000e+00
      vertex 1.282049e+00 1.767772e+00 3.000000e+00
    endloop
  endfacet
  facet normal -7.071068e-01 -7.071068e-01 -1.298934e-16
    outer loop
      vertex 1.282049e+00 1.767772e+00 0.000000e+00
      vertex 7.642899e-01 2.165061e+00 3.000000e+00
      vertex 7.642899e-01 2.165061e+00 0.000000e+00
    endloop
  endfacet
  facet normal -8.660254e-01 -5.000000e-01 -1.590863e-16
    outer loop
      vertex 1.679350e+00 1.250001e+00 3.000000e+00
      vertex 1.282049e+00 1.767772e+00 0.000000e+00
      vertex 1.679350e+00 1.250001e+00 0.000000e+00
    endloop
  endfacet
  facet normal -7.071068e-01 -7.071068e-01 -1.298934e-16
    outer loop
      vertex 1.282049e+00 1.767772e+00 0.000000e+00
      vertex 1.679350e+00 1.250001e+00 3.000000e+00
      vertex 1.282049e+00 1.767772e+00 3.000000e+00
    endloop
  endfacet
  facet normal -9.659258e-01 -2.588190e-01 -1.774377e-16
    outer loop
      vertex 1.929100e+00 6.470518e-01 3.000000e+00
      vertex 1.679350e+00 1.250001e+00 0.000000e+00
      vertex 1.929100e+00 6.470518e-01 0.000000e+00
    endloop
  endfacet
  facet normal -8.660254e-01 -5.000000e-01 -1.590863e-16
    outer loop
      vertex 1.679350e+00 1.250001e+00 0.000000e+00
      vertex 1.929100e+00 6.470518e-01 3.000000e+00
      vertex 1.679350e+00 1.250001e+00 3.000000e+00
    endloop
  endfacet
  facet normal -1.000000e+00 0.000000e+00 -1.836970e-16
    outer loop
      vertex 2.014290e+00 9.536743e-07 3.000000e+00
      vertex 1.929100e+00 6.470518e-01 0.000000e+00
      vertex 2.014290e+00 9.536743e-07 0.000000e+00
    endloop
  endfacet
  facet normal -9.659258e-01 -2.588190e-01 -1.774377e-16
    outer loop
      vertex 1.929100e+00 6.470518e-01 0.000000e+00
      vertex 2.014290e+00 9.536743e-07 3.000000e+00
      vertex 1.929100e+00 6.470518e-01 3.000000e+00
    endloop
  endfacet
  facet normal -9.659258e-01 2.588190e-01 -1.774377e-16
    outer loop
      vertex 1.929100e+00 -6.470499e-01 3.000000e+00
      vertex 2.014290e+00 9.536743e-07 0.000000e+00
      vertex 1.929100e+00 -6.470499e-01 0.000000e+00
    endloop
  endfacet
  facet normal -1.000000e+00 0.000000e+00 -1.836970e-16
    outer loop
      vertex 2.014290e+00 9.536743e-07 0.000000e+00
      vertex 1.929100e+00 -6.470499e-01 3.000000e+00
      vertex 2.014290e+00 9.536743e-07 3.000000e+00
    endloop
  endfacet
  facet normal -8.660254e-01 5.000000e-01 -1.590863e-16
    outer loop
      vertex 1.679350e+00 -1.249999e+00 3.000000e+00
      vertex 1.929100e+00 -6.470499e-01 0.000000e+00
      vertex 1.679350e+00 -1.249999e+00 0.000000e+00
    endloop
  endfacet
  facet normal -9.659258e-01 2.588190e-01 -1.774377e-16
    outer loop
      vertex 1.929100e+00 -6.470499e-01 0.000000e+00
      vertex 1.679350e+00 -1.249999e+00 3.000000e+00
      vertex 1.929100e+00 -6.470499e-01 3.000000e+00
    endloop
  endfacet
  facet normal -7.071068e-01 7.071068e-01 -1.298934e-16
    outer loop
      vertex 1.282049e+00 -1.767770e+00 3.000000e+00
      vertex 1.679350e+00 -1.249999e+00 0.000000e+00
      vertex 1.282049e+00 -1.767770e+00 0.000000e+00
    endloop
  endfacet
  facet normal -8.660254e-01 5.000000e-01 -1.590863e-16
    outer loop
      vertex 1.679350e+00 -1.249999e+00 0.000000e+00
      vertex 1.282049e+00 -1.767770e+00 3.000000e+00
      vertex 1.679350e+00 -1.249999e+00 3.000000e+00
    endloop
  endfacet
  facet normal -5.000000e-01 8.660254e-01 -9.184851e-17
    outer loop
      vertex 7.642899e-01 -2.165059e+00 0.000000e+00
      vertex 1.282049e+00 -1.767770e+00 3.000000e+00
      vertex 1.282049e+00 -1.767770e+00 0.000000e+00
    endloop
  endfacet
  facet normal -7.071068e-01 7.071068e-01 -1.298934e-16
    outer loop
      vertex 1.282049e+00 -1.767770e+00 3.000000e+00
      vertex 7.642899e-01 -2.165059e+00 0.000000e+00
      vertex 7.642899e-01 -2.165059e+00 3.000000e+00
    endloop
  endfacet
  facet normal -2.588190e-01 9.659258e-01 -4.754429e-17
    outer loop
      vertex 1.613293e-01 -2.414809e+00 0.000000e+00
      vertex 7.642899e-01 -2.165059e+00 3.000000e+00
      vertex 7.642899e-01 -2.165059e+00 0.000000e+00
    endloop
  endfacet
  facet normal -5.000000e-01 8.660254e-01 -9.184851e-17
    outer loop
      vertex 7.642899e-01 -2.165059e+00 3.000000e+00
      vertex 1.613293e-01 -2.414809e+00 0.000000e+00
      vertex 1.613293e-01 -2.414809e+00 3.000000e+00
    endloop
  endfacet
  facet normal 2.673333e-16 1.000000e+00 4.910833e-32
    outer loop
      vertex -4.857101e-01 -2.499999e+00 0.000000e+00
      vertex 1.613293e-01 -2.414809e+00 3.000000e+00
      vertex 1.613293e-01 -2.414809e+00 0.000000e+00
    endloop
  endfacet
  facet normal -2.588190e-01 9.659258e-01 -4.754429e-17
    outer loop
      vertex 1.613293e-01 -2.414809e+00 3.000000e+00
      vertex -4.857101e-01 -2.499999e+00 0.000000e+00
      vertex -4.857101e-01 -2.499999e+00 3.000000e+00
    endloop
  endfacet
  facet normal 2.588190e-01 9.659258e-01 4.754429e-17
    outer loop
      vertex -1.132759e+00 -2.414809e+00 0.000000e+00
      vertex -4.857101e-01 -2.499999e+00 3.000000e+00
      vertex -4.857101e-01 -2.499999e+00 0.000000e+00
    endloop
  endfacet
  facet normal 2.673333e-16 1.000000e+00 4.910833e-32
    outer loop
      vertex -4.857101e-01 -2.499999e+00 3.000000e+00
      vertex -1.132759e+00 -2.414809e+00 0.000000e+00
      vertex -1.132759e+00 -2.414809e+00 3.000000e+00
    endloop
  endfacet
  facet normal 5.000000e-01 8.660254e-01 9.184851e-17
    outer loop
      vertex -1.735710e+00 -2.165059e+00 0.000000e+00
      vertex -1.132759e+00 -2.414809e+00 3.000000e+00
      vertex -1.132759e+00 -2.414809e+00 0.000000e+00
    endloop
  endfacet
  facet normal 2.588190e-01 9.659258e-01 4.754429e-17
    outer loop
      vertex -1.132759e+00 -2.414809e+00 3.000000e+00
      vertex -1.735710e+00 -2.165059e+00 0.000000e+00
      vertex -1.735710e+00 -2.165059e+00 3.000000e+00
    endloop
  endfacet
  facet normal 7.071068e-01 7.071068e-01 1.298934e-16
    outer loop
      vertex -2.253481e+00 -1.767770e+00 0.000000e+00
      vertex -1.735710e+00 -2.165059e+00 3.000000e+00
      vertex -1.735710e+00 -2.165059e+00 0.000000e+00
    endloop
  endfacet
  facet normal 5.000000e-01 8.660254e-01 9.184851e-17
    outer loop
      vertex -1.735710e+00 -2.165059e+00 3.000000e+00
      vertex -2.253481e+00 -1.767770e+00 0.000000e+00
      vertex -2.253481e+00 -1.767770e+00 3.000000e+00
    endloop
  endfacet
  facet normal 8.660254e-01 5.000000e-01 1.590863e-16
    outer loop
      vertex -2.650780e+00 -1.249999e+00 3.000000e+00
      vertex -2.253481e+00 -1.767770e+00 0.000000e+00
      vertex -2.650780e+00 -1.249999e+00 0.000000e+00
    endloop
  endfacet
  facet normal 7.071068e-01 7.071068e-01 1.298934e-16
    outer loop
      vertex -2.253481e+00 -1.767770e+00 0.000000e+00
      vertex -2.650780e+00 -1.249999e+00 3.000000e+00
      vertex -2.253481e+00 -1.767770e+00 3.000000e+00
    endloop
  endfacet
  facet normal 9.659258e-01 2.588190e-01 1.774377e-16
    outer loop
      vertex -2.900530e+00 -6.470499e-01 3.000000e+00
      vertex -2.650780e+00 -1.249999e+00 0.000000e+00
      vertex -2.900530e+00 -6.470499e-01 0.000000e+00
    endloop
  endfacet
  facet normal 8.660254e-01 5.000000e-01 1.590863e-16
    outer loop
      vertex -2.650780e+00 -1.249999e+00 0.000000e+00
      vertex -2.900530e+00 -6.470499e-01 3.000000e+00
      vertex -2.650780e+00 -1.249999e+00 3.000000e+00
    endloop
  endfacet
  facet normal 9.659258e-01 -2.588190e-01 1.774377e-16
    outer loop
      vertex -2.900530e+00 6.470518e-01 3.000000e+00
      vertex -2.985710e+00 9.536743e-07 0.000000e+00
      vertex -2.900530e+00 6.470518e-01 0.000000e+00
    endloop
  endfacet
  facet normal 1.000000e+00 0.000000e+00 1.836970e-16
    outer loop
      vertex -2.985710e+00 9.536743e-07 0.000000e+00
      vertex -2.900530e+00 6.470518e-01 3.000000e+00
      vertex -2.985710e+00 9.536743e-07 3.000000e+00
    endloop
  endfacet
  facet normal 0.000000e+00 -1.000000e+00 0.000000e+00
    outer loop
      vertex -8.500000e+00 1.700000e+01 2.000000e+00
      vertex 7.528570e+00 1.700000e+01 2.000000e+00
      vertex -8.500000e+00 1.700000e+01 3.500001e+01
    endloop
  endfacet
  facet normal 0.000000e+00 1.000000e+00 0.000000e+00
    outer loop
      vertex -8.500000e+00 -1.700000e+01 2.000000e+00
      vertex -8.500000e+00 -1.700000e+01 3.500001e+01
      vertex 7.528570e+00 -1.700000e+01 2.000000e+00
    endloop
  endfacet
endsolid Default
