solid Default
  facet normal -1.000000e+00 -1.291592e-15 -1.422236e-16
    outer loop
      vertex -8.500000e+00 -1.900000e+01 3.122848e-06
      vertex -8.500000e+00 -1.700000e+01 2.000003e+00
      vertex -8.500000e+00 1.900000e+01 0.000000e+00
    endloop
  endfacet
  facet normal -1.000000e+00 -1.291592e-15 -1.422236e-16
    outer loop
      vertex -8.500000e+00 -1.700000e+01 2.000003e+00
      vertex -8.500000e+00 -1.900000e+01 3.122848e-06
      vertex -8.500000e+00 -1.900000e+01 3.500001e+01
    endloop
  endfacet
  facet normal -1.000000e+00 -1.291592e-15 -1.422236e-16
    outer loop
      vertex -8.500000e+00 -1.700000e+01 2.000003e+00
      vertex -8.500000e+00 -1.900000e+01 3.500001e+01
      vertex -8.500000e+00 -1.700000e+01 3.500001e+01
    endloop
  endfacet
  facet normal -1.000000e+00 -1.291592e-15 -1.422236e-16
    outer loop
      vertex -8.500000e+00 1.900000e+01 0.000000e+00
      vertex -8.500000e+00 1.700000e+01 2.000000e+00
      vertex -8.500000e+00 1.900000e+01 3.500001e+01
    endloop
  endfacet
  facet normal -1.000000e+00 -1.291592e-15 -1.422236e-16
    outer loop
      vertex -8.500000e+00 1.700000e+01 2.000000e+00
      vertex -8.500000e+00 1.900000e+01 0.000000e+00
      vertex -8.500000e+00 -1.700000e+01 2.000003e+00
    endloop
  endfacet
  facet normal -1.000000e+00 -1.291592e-15 -1.422236e-16
    outer loop
      vertex -8.500000e+00 1.900000e+01 3.500001e+01
      vertex -8.500000e+00 1.700000e+01 2.000000e+00
      vertex -8.500000e+00 1.700000e+01 3.500001e+01
    endloop
  endfacet
  facet normal 2.218330e-15 -8.218021e-08 -1.000000e+00
    outer loop
      vertex -8.500000e+00 -1.900000e+01 3.122848e-06
      vertex -2.650778e+00 -1.250000e+00 1.664149e-06
      vertex 8.500000e+00 -1.900000e+01 3.122848e-06
    endloop
  endfacet
  facet normal 2.218330e-15 -8.218021e-08 -1.000000e+00
    outer loop
      vertex -2.650778e+00 -1.250000e+00 1.664149e-06
      vertex -8.500000e+00 -1.900000e+01 3.122848e-06
      vertex -2.900529e+00 -6.470485e-01 1.614598e-06
    endloop
  endfacet
  facet normal 2.218330e-15 -8.218021e-08 -1.000000e+00
    outer loop
      vertex -2.900529e+00 -6.470485e-01 1.614598e-06
      vertex -8.500000e+00 -1.900000e+01 3.122848e-06
      vertex -8.500000e+00 1.900000e+01 0.000000e+00
    endloop
  endfacet
  facet normal 2.218330e-15 -8.218021e-08 -1.000000e+00
    outer loop
      vertex 8.500000e+00 -1.900000e+01 3.122848e-06
      vertex -2.650778e+00 -1.250000e+00 1.664149e-06
      vertex -2.253481e+00 -1.767768e+00 1.706699e-06
    endloop
  endfacet
  facet normal 2.218330e-15 -8.218021e-08 -1.000000e+00
    outer loop
      vertex 8.500000e+00 -1.900000e+01 3.122848e-06
      vertex -2.253481e+00 -1.767768e+00 1.706699e-06
      vertex -1.735714e+00 -2.165065e+00 1.739349e-06
    endloop
  endfacet
  facet normal 2.218330e-15 -8.218021e-08 -1.000000e+00
    outer loop
      vertex 8.500000e+00 -1.900000e+01 3.122848e-06
      vertex -1.735714e+00 -2.165065e+00 1.739349e-06
      vertex -1.132762e+00 -2.414814e+00 1.759874e-06
    endloop
  endfacet
  facet normal 2.218330e-15 -8.218021e-08 -1.000000e+00
    outer loop
      vertex 8.500000e+00 -1.900000e+01 3.122848e-06
      vertex -1.132762e+00 -2.414814e+00 1.759874e-06
      vertex -4.857140e-01 -2.500000e+00 1.766874e-06
    endloop
  endfacet
  facet normal 2.218330e-15 -8.218021e-08 -1.000000e+00
    outer loop
      vertex -2.900529e+00 -6.470485e-01 1.614598e-06
      vertex -8.500000e+00 1.900000e+01 0.000000e+00
      vertex -2.985714e+00 4.691947e-07 1.561424e-06
    endloop
  endfacet
  facet normal 2.218330e-15 -8.218021e-08 -1.000000e+00
    outer loop
      vertex -2.985714e+00 4.691947e-07 1.561424e-06
      vertex -8.500000e+00 1.900000e+01 0.000000e+00
      vertex -2.900529e+00 6.470456e-01 1.508249e-06
    endloop
  endfacet
  facet normal 2.218330e-15 -8.218021e-08 -1.000000e+00
    outer loop
      vertex -2.900529e+00 6.470456e-01 1.508249e-06
      vertex -8.500000e+00 1.900000e+01 0.000000e+00
      vertex -2.650778e+00 1.250000e+00 1.458698e-06
    endloop
  endfacet
  facet normal 2.218330e-15 -8.218021e-08 -1.000000e+00
    outer loop
      vertex -2.650778e+00 1.250000e+00 1.458698e-06
      vertex -8.500000e+00 1.900000e+01 0.000000e+00
      vertex -2.253481e+00 1.767766e+00 1.416148e-06
    endloop
  endfacet
  facet normal 2.218330e-15 -8.218021e-08 -1.000000e+00
    outer loop
      vertex -2.253481e+00 1.767766e+00 1.416148e-06
      vertex -8.500000e+00 1.900000e+01 0.000000e+00
      vertex -1.735714e+00 2.165062e+00 1.383498e-06
    endloop
  endfacet
  facet normal 2.218330e-15 -8.218021e-08 -1.000000e+00
    outer loop
      vertex -1.735714e+00 2.165062e+00 1.383498e-06
      vertex -8.500000e+00 1.900000e+01 0.000000e+00
      vertex -1.132762e+00 2.414814e+00 1.362974e-06
    endloop
  endfacet
  facet normal 2.218330e-15 -8.218021e-08 -1.000000e+00
    outer loop
      vertex -1.132762e+00 2.414814e+00 1.362974e-06
      vertex -8.500000e+00 1.900000e+01 0.000000e+00
      vertex -4.857140e-01 2.500000e+00 1.355973e-06
    endloop
  endfacet
  facet normal 2.218330e-15 -8.218021e-08 -1.000000e+00
    outer loop
      vertex 8.500000e+00 -1.900000e+01 3.122848e-06
      vertex 1.929101e+00 -6.470485e-01 1.614598e-06
      vertex 8.500000e+00 1.900000e+01 0.000000e+00
    endloop
  endfacet
  facet normal 2.218330e-15 -8.218021e-08 -1.000000e+00
    outer loop
      vertex 1.929101e+00 -6.470485e-01 1.614598e-06
      vertex 8.500000e+00 -1.900000e+01 3.122848e-06
      vertex 1.679349e+00 -1.250000e+00 1.664149e-06
    endloop
  endfacet
  facet normal 2.218330e-15 -8.218021e-08 -1.000000e+00
    outer loop
      vertex 1.679349e+00 -1.250000e+00 1.664149e-06
      vertex 8.500000e+00 -1.900000e+01 3.122848e-06
      vertex 1.282053e+00 -1.767768e+00 1.706699e-06
    endloop
  endfacet
  facet normal 2.218330e-15 -8.218021e-08 -1.000000e+00
    outer loop
      vertex 1.282053e+00 -1.767768e+00 1.706699e-06
      vertex 8.500000e+00 -1.900000e+01 3.122848e-06
      vertex 7.642856e-01 -2.165065e+00 1.739349e-06
    endloop
  endfacet
  facet normal 2.218330e-15 -8.218021e-08 -1.000000e+00
    outer loop
      vertex 7.642856e-01 -2.165065e+00 1.739349e-06
      vertex 8.500000e+00 -1.900000e+01 3.122848e-06
      vertex 1.613331e-01 -2.414814e+00 1.759874e-06
    endloop
  endfacet
  facet normal 2.218330e-15 -8.218021e-08 -1.000000e+00
    outer loop
      vertex 1.613331e-01 -2.414814e+00 1.759874e-06
      vertex 8.500000e+00 -1.900000e+01 3.122848e-06
      vertex -4.857140e-01 -2.500000e+00 1.766874e-06
    endloop
  endfacet
  facet normal 2.218330e-15 -8.218021e-08 -1.000000e+00
    outer loop
      vertex 8.500000e+00 1.900000e+01 0.000000e+00
      vertex 1.929101e+00 -6.470485e-01 1.614598e-06
      vertex 2.014286e+00 4.691947e-07 1.561424e-06
    endloop
  endfacet
  facet normal 2.218330e-15 -8.218021e-08 -1.000000e+00
    outer loop
      vertex 8.500000e+00 1.900000e+01 0.000000e+00
      vertex 2.014286e+00 4.691947e-07 1.561424e-06
      vertex 1.929101e+00 6.470456e-01 1.508249e-06
    endloop
  endfacet
  facet normal 2.218330e-15 -8.218021e-08 -1.000000e+00
    outer loop
      vertex 8.500000e+00 1.900000e+01 0.000000e+00
      vertex 1.929101e+00 6.470456e-01 1.508249e-06
      vertex 1.679349e+00 1.250000e+00 1.458698e-06
    endloop
  endfacet
  facet normal 2.218330e-15 -8.218021e-08 -1.000000e+00
    outer loop
      vertex 8.500000e+00 1.900000e+01 0.000000e+00
      vertex 1.679349e+00 1.250000e+00 1.458698e-06
      vertex 1.282053e+00 1.767766e+00 1.416148e-06
    endloop
  endfacet
  facet normal 2.218330e-15 -8.218021e-08 -1.000000e+00
    outer loop
      vertex 8.500000e+00 1.900000e+01 0.000000e+00
      vertex 1.282053e+00 1.767766e+00 1.416148e-06
      vertex 7.642856e-01 2.165062e+00 1.383498e-06
    endloop
  endfacet
  facet normal 2.218330e-15 -8.218021e-08 -1.000000e+00
    outer loop
      vertex 8.500000e+00 1.900000e+01 0.000000e+00
      vertex 7.642856e-01 2.165062e+00 1.383498e-06
      vertex 1.613331e-01 2.414814e+00 1.362974e-06
    endloop
  endfacet
  facet normal 2.218330e-15 -8.218021e-08 -1.000000e+00
    outer loop
      vertex 8.500000e+00 1.900000e+01 0.000000e+00
      vertex 1.613331e-01 2.414814e+00 1.362974e-06
      vertex -4.857140e-01 2.500000e+00 1.355973e-06
    endloop
  endfacet
  facet normal 2.218330e-15 -8.218021e-08 -1.000000e+00
    outer loop
      vertex 8.500000e+00 1.900000e+01 0.000000e+00
      vertex -4.857140e-01 2.500000e+00 1.355973e-06
      vertex -8.500000e+00 1.900000e+01 0.000000e+00
    endloop
  endfacet
  facet normal -2.338971e-15 8.218021e-08 1.000000e+00
    outer loop
      vertex 7.528571e+00 -1.700000e+01 2.000003e+00
      vertex 2.552847e+00 -1.754314e+00 2.000002e+00
      vertex -8.500000e+00 -1.700000e+01 2.000003e+00
    endloop
  endfacet
  facet normal -2.338971e-15 8.218021e-08 1.000000e+00
    outer loop
      vertex 2.552847e+00 -1.754314e+00 2.000002e+00
      vertex 7.528571e+00 -1.700000e+01 2.000003e+00
      vertex 2.903361e+00 -9.080995e-01 2.000002e+00
    endloop
  endfacet
  facet normal -2.338971e-15 8.218021e-08 1.000000e+00
    outer loop
      vertex 2.903361e+00 -9.080995e-01 2.000002e+00
      vertex 7.528571e+00 -1.700000e+01 2.000003e+00
      vertex 7.528571e+00 1.700000e+01 2.000000e+00
    endloop
  endfacet
  facet normal -2.338971e-15 8.218021e-08 1.000000e+00
    outer loop
      vertex -8.500000e+00 -1.700000e+01 2.000003e+00
      vertex 2.552847e+00 -1.754314e+00 2.000002e+00
      vertex 1.995261e+00 -2.480975e+00 2.000002e+00
    endloop
  endfacet
  facet normal -2.338971e-15 8.218021e-08 1.000000e+00
    outer loop
      vertex -8.500000e+00 -1.700000e+01 2.000003e+00
      vertex 1.995261e+00 -2.480975e+00 2.000002e+00
      vertex 1.268600e+00 -3.038562e+00 2.000002e+00
    endloop
  endfacet
  facet normal -2.338971e-15 8.218021e-08 1.000000e+00
    outer loop
      vertex -8.500000e+00 -1.700000e+01 2.000003e+00
      vertex 1.268600e+00 -3.038562e+00 2.000002e+00
      vertex 4.223862e-01 -3.389076e+00 2.000002e+00
    endloop
  endfacet
  facet normal -2.338971e-15 8.218021e-08 1.000000e+00
    outer loop
      vertex -8.500000e+00 -1.700000e+01 2.000003e+00
      vertex 4.223862e-01 -3.389076e+00 2.000002e+00
      vertex -4.857140e-01 -3.508628e+00 2.000002e+00
    endloop
  endfacet
  facet normal -2.338971e-15 8.218021e-08 1.000000e+00
    outer loop
      vertex 2.903361e+00 -9.080995e-01 2.000002e+00
      vertex 7.528571e+00 1.700000e+01 2.000000e+00
      vertex 3.022915e+00 6.335551e-07 2.000002e+00
    endloop
  endfacet
  facet normal -2.338971e-15 8.218021e-08 1.000000e+00
    outer loop
      vertex 3.022915e+00 6.335551e-07 2.000002e+00
      vertex 7.528571e+00 1.700000e+01 2.000000e+00
      vertex 2.903361e+00 9.081008e-01 2.000001e+00
    endloop
  endfacet
  facet normal -2.338971e-15 8.218021e-08 1.000000e+00
    outer loop
      vertex 2.903361e+00 9.081008e-01 2.000001e+00
      vertex 7.528571e+00 1.700000e+01 2.000000e+00
      vertex 2.552847e+00 1.754315e+00 2.000001e+00
    endloop
  endfacet
  facet normal -2.338971e-15 8.218021e-08 1.000000e+00
    outer loop
      vertex 2.552847e+00 1.754315e+00 2.000001e+00
      vertex 7.528571e+00 1.700000e+01 2.000000e+00
      vertex 1.995261e+00 2.480977e+00 2.000001e+00
    endloop
  endfacet
  facet normal -2.338971e-15 8.218021e-08 1.000000e+00
    outer loop
      vertex 1.995261e+00 2.480977e+00 2.000001e+00
      vertex 7.528571e+00 1.700000e+01 2.000000e+00
      vertex 1.268600e+00 3.038563e+00 2.000001e+00
    endloop
  endfacet
  facet normal -2.338971e-15 8.218021e-08 1.000000e+00
    outer loop
      vertex 1.268600e+00 3.038563e+00 2.000001e+00
      vertex 7.528571e+00 1.700000e+01 2.000000e+00
      vertex 4.223862e-01 3.389077e+00 2.000001e+00
    endloop
  endfacet
  facet normal -2.338971e-15 8.218021e-08 1.000000e+00
    outer loop
      vertex 4.223862e-01 3.389077e+00 2.000001e+00
      vertex 7.528571e+00 1.700000e+01 2.000000e+00
      vertex -4.857140e-01 3.508629e+00 2.000001e+00
    endloop
  endfacet
  facet normal -2.338971e-15 8.218021e-08 1.000000e+00
    outer loop
      vertex -8.500000e+00 -1.700000e+01 2.000003e+00
      vertex -3.874789e+00 -9.080995e-01 2.000002e+00
      vertex -8.500000e+00 1.700000e+01 2.000000e+00
    endloop
  endfacet
  facet normal -2.338971e-15 8.218021e-08 1.000000e+00
    outer loop
      vertex -3.874789e+00 -9.080995e-01 2.000002e+00
      vertex -8.500000e+00 -1.700000e+01 2.000003e+00
      vertex -3.524276e+00 -1.754314e+00 2.000002e+00
    endloop
  endfacet
  facet normal -2.338971e-15 8.218021e-08 1.000000e+00
    outer loop
      vertex -3.524276e+00 -1.754314e+00 2.000002e+00
      vertex -8.500000e+00 -1.700000e+01 2.000003e+00
      vertex -2.966690e+00 -2.480975e+00 2.000002e+00
    endloop
  endfacet
  facet normal -2.338971e-15 8.218021e-08 1.000000e+00
    outer loop
      vertex -2.966690e+00 -2.480975e+00 2.000002e+00
      vertex -8.500000e+00 -1.700000e+01 2.000003e+00
      vertex -2.240028e+00 -3.038562e+00 2.000002e+00
    endloop
  endfacet
  facet normal -2.338971e-15 8.218021e-08 1.000000e+00
    outer loop
      vertex -2.240028e+00 -3.038562e+00 2.000002e+00
      vertex -8.500000e+00 -1.700000e+01 2.000003e+00
      vertex -1.393814e+00 -3.389076e+00 2.000002e+00
    endloop
  endfacet
  facet normal -2.338971e-15 8.218021e-08 1.000000e+00
    outer loop
      vertex -1.393814e+00 -3.389076e+00 2.000002e+00
      vertex -8.500000e+00 -1.700000e+01 2.000003e+00
      vertex -4.857140e-01 -3.508628e+00 2.000002e+00
    endloop
  endfacet
  facet normal -2.338971e-15 8.218021e-08 1.000000e+00
    outer loop
      vertex -8.500000e+00 1.700000e+01 2.000000e+00
      vertex -3.874789e+00 -9.080995e-01 2.000002e+00
      vertex -3.994343e+00 6.335551e-07 2.000002e+00
    endloop
  endfacet
  facet normal -2.338971e-15 8.218021e-08 1.000000e+00
    outer loop
      vertex -8.500000e+00 1.700000e+01 2.000000e+00
      vertex -3.994343e+00 6.335551e-07 2.000002e+00
      vertex -3.874789e+00 9.081008e-01 2.000001e+00
    endloop
  endfacet
  facet normal -2.338971e-15 8.218021e-08 1.000000e+00
    outer loop
      vertex -8.500000e+00 1.700000e+01 2.000000e+00
      vertex -3.874789e+00 9.081008e-01 2.000001e+00
      vertex -3.524276e+00 1.754315e+00 2.000001e+00
    endloop
  endfacet
  facet normal -2.338971e-15 8.218021e-08 1.000000e+00
    outer loop
      vertex -8.500000e+00 1.700000e+01 2.000000e+00
      vertex -3.524276e+00 1.754315e+00 2.000001e+00
      vertex -2.966690e+00 2.480977e+00 2.000001e+00
    endloop
  endfacet
  facet normal -2.338971e-15 8.218021e-08 1.000000e+00
    outer loop
      vertex -8.500000e+00 1.700000e+01 2.000000e+00
      vertex -2.966690e+00 2.480977e+00 2.000001e+00
      vertex -2.240028e+00 3.038563e+00 2.000001e+00
    endloop
  endfacet
  facet normal -2.338971e-15 8.218021e-08 1.000000e+00
    outer loop
      vertex -8.500000e+00 1.700000e+01 2.000000e+00
      vertex -2.240028e+00 3.038563e+00 2.000001e+00
      vertex -1.393814e+00 3.389077e+00 2.000001e+00
    endloop
  endfacet
  facet normal -2.338971e-15 8.218021e-08 1.000000e+00
    outer loop
      vertex -8.500000e+00 1.700000e+01 2.000000e+00
      vertex -1.393814e+00 3.389077e+00 2.000001e+00
      vertex -4.857140e-01 3.508629e+00 2.000001e+00
    endloop
  endfacet
  facet normal -2.338971e-15 8.218021e-08 1.000000e+00
    outer loop
      vertex -8.500000e+00 1.700000e+01 2.000000e+00
      vertex -4.857140e-01 3.508629e+00 2.000001e+00
      vertex 7.528571e+00 1.700000e+01 2.000000e+00
    endloop
  endfacet
  facet normal 1.255718e-15 -1.000000e+00 8.218021e-08
    outer loop
      vertex -8.500000e+00 -1.900000e+01 3.122848e-06
      vertex 8.500000e+00 -1.900000e+01 3.122848e-06
      vertex -8.500000e+00 -1.900000e+01 3.500001e+01
    endloop
  endfacet
  facet normal -1.255718e-15 1.000000e+00 -8.218021e-08
    outer loop
      vertex -8.500000e+00 1.900000e+01 3.500001e+01
      vertex 8.500000e+00 1.900000e+01 0.000000e+00
      vertex -8.500000e+00 1.900000e+01 0.000000e+00
    endloop
  endfacet
  facet normal 8.995082e-01 3.590486e-08 4.369040e-01
    outer loop
      vertex 8.500000e+00 1.900000e+01 0.000000e+00
      vertex 7.528571e+00 1.700000e+01 2.000000e+00
      vertex 8.500000e+00 -1.900000e+01 3.122848e-06
    endloop
  endfacet
  facet normal 8.995082e-01 3.590486e-08 4.369040e-01
    outer loop
      vertex 7.528571e+00 1.700000e+01 2.000000e+00
      vertex 8.500000e+00 1.900000e+01 0.000000e+00
      vertex -8.500000e+00 1.900000e+01 3.500001e+01
    endloop
  endfacet
  facet normal 8.995082e-01 3.590486e-08 4.369040e-01
    outer loop
      vertex 7.528571e+00 1.700000e+01 2.000000e+00
      vertex -8.500000e+00 1.900000e+01 3.500001e+01
      vertex -8.500000e+00 1.700000e+01 3.500001e+01
    endloop
  endfacet
  facet normal 8.995082e-01 3.590486e-08 4.369040e-01
    outer loop
      vertex 8.500000e+00 -1.900000e+01 3.122848e-06
      vertex 7.528571e+00 -1.700000e+01 2.000003e+00
      vertex -8.500000e+00 -1.900000e+01 3.500001e+01
    endloop
  endfacet
  facet normal 8.995082e-01 3.590486e-08 4.369040e-01
    outer loop
      vertex 7.528571e+00 -1.700000e+01 2.000003e+00
      vertex 8.500000e+00 -1.900000e+01 3.122848e-06
      vertex 7.528571e+00 1.700000e+01 2.000000e+00
    endloop
  endfacet
  facet normal 8.995082e-01 3.590486e-08 4.369040e-01
    outer loop
      vertex -8.500000e+00 -1.900000e+01 3.500001e+01
      vertex 7.528571e+00 -1.700000e+01 2.000003e+00
      vertex -8.500000e+00 -1.700000e+01 3.500001e+01
    endloop
  endfacet
  facet normal 1.000000e+00 1.255718e-15 1.722546e-16
    outer loop
      vertex -2.985714e+00 7.157353e-07 3.000002e+00
      vertex -2.900529e+00 -6.470485e-01 1.614598e-06
      vertex -2.985714e+00 4.691947e-07 1.561424e-06
    endloop
  endfacet
  facet normal 9.659258e-01 2.588190e-01 -2.126980e-08
    outer loop
      vertex -2.900529e+00 -6.470485e-01 1.614598e-06
      vertex -2.985714e+00 7.157353e-07 3.000002e+00
      vertex -2.900529e+00 -6.470482e-01 3.000002e+00
    endloop
  endfacet
  facet normal -1.000000e+00 -4.982739e-16 -1.722547e-16
    outer loop
      vertex -3.994343e+00 7.157353e-07 3.000002e+00
      vertex -3.874789e+00 9.081008e-01 2.000001e+00
      vertex -3.994343e+00 6.335551e-07 2.000002e+00
    endloop
  endfacet
  facet normal -9.659258e-01 2.588190e-01 -2.126980e-08
    outer loop
      vertex -3.874789e+00 9.081008e-01 2.000001e+00
      vertex -3.994343e+00 7.157353e-07 3.000002e+00
      vertex -3.874789e+00 9.081008e-01 3.000001e+00
    endloop
  endfacet
  facet normal -2.277658e-16 8.218021e-08 1.000000e+00
    outer loop
      vertex 4.223862e-01 -3.389076e+00 3.000002e+00
      vertex -1.393814e+00 -3.389076e+00 3.000002e+00
      vertex -4.857140e-01 -3.508628e+00 3.000002e+00
    endloop
  endfacet
  facet normal -2.277658e-16 8.218021e-08 1.000000e+00
    outer loop
      vertex -1.393814e+00 -3.389076e+00 3.000002e+00
      vertex 4.223862e-01 -3.389076e+00 3.000002e+00
      vertex 1.268600e+00 -3.038562e+00 3.000002e+00
    endloop
  endfacet
  facet normal -2.277658e-16 8.218021e-08 1.000000e+00
    outer loop
      vertex -1.393814e+00 -3.389076e+00 3.000002e+00
      vertex 1.268600e+00 -3.038562e+00 3.000002e+00
      vertex -2.240028e+00 -3.038562e+00 3.000002e+00
    endloop
  endfacet
  facet normal -2.277658e-16 8.218021e-08 1.000000e+00
    outer loop
      vertex -2.240028e+00 -3.038562e+00 3.000002e+00
      vertex 1.268600e+00 -3.038562e+00 3.000002e+00
      vertex 1.995261e+00 -2.480975e+00 3.000002e+00
    endloop
  endfacet
  facet normal -2.277658e-16 8.218021e-08 1.000000e+00
    outer loop
      vertex -2.240028e+00 -3.038562e+00 3.000002e+00
      vertex 1.995261e+00 -2.480975e+00 3.000002e+00
      vertex -4.857140e-01 -2.499999e+00 3.000002e+00
    endloop
  endfacet
  facet normal -2.277658e-16 8.218021e-08 1.000000e+00
    outer loop
      vertex -4.857140e-01 -2.499999e+00 3.000002e+00
      vertex 1.995261e+00 -2.480975e+00 3.000002e+00
      vertex 1.613331e-01 -2.414813e+00 3.000002e+00
    endloop
  endfacet
  facet normal -2.277658e-16 8.218021e-08 1.000000e+00
    outer loop
      vertex 1.613331e-01 -2.414813e+00 3.000002e+00
      vertex 1.995261e+00 -2.480975e+00 3.000002e+00
      vertex 2.552847e+00 -1.754314e+00 3.000002e+00
    endloop
  endfacet
  facet normal -2.277658e-16 8.218021e-08 1.000000e+00
    outer loop
      vertex 1.613331e-01 -2.414813e+00 3.000002e+00
      vertex 2.552847e+00 -1.754314e+00 3.000002e+00
      vertex 7.642856e-01 -2.165065e+00 3.000002e+00
    endloop
  endfacet
  facet normal -2.277658e-16 8.218021e-08 1.000000e+00
    outer loop
      vertex 7.642856e-01 -2.165065e+00 3.000002e+00
      vertex 2.552847e+00 -1.754314e+00 3.000002e+00
      vertex 1.282053e+00 -1.767768e+00 3.000002e+00
    endloop
  endfacet
  facet normal -2.277658e-16 8.218021e-08 1.000000e+00
    outer loop
      vertex 1.282053e+00 -1.767768e+00 3.000002e+00
      vertex 2.552847e+00 -1.754314e+00 3.000002e+00
      vertex 1.679349e+00 -1.249999e+00 3.000002e+00
    endloop
  endfacet
  facet normal -2.277658e-16 8.218021e-08 1.000000e+00
    outer loop
      vertex 1.679349e+00 -1.249999e+00 3.000002e+00
      vertex 2.552847e+00 -1.754314e+00 3.000002e+00
      vertex 2.903361e+00 -9.080994e-01 3.000002e+00
    endloop
  endfacet
  facet normal -2.277658e-16 8.218021e-08 1.000000e+00
    outer loop
      vertex 1.679349e+00 -1.249999e+00 3.000002e+00
      vertex 2.903361e+00 -9.080994e-01 3.000002e+00
      vertex 1.929101e+00 -6.470482e-01 3.000002e+00
    endloop
  endfacet
  facet normal -2.277658e-16 8.218021e-08 1.000000e+00
    outer loop
      vertex 1.929101e+00 -6.470482e-01 3.000002e+00
      vertex 2.903361e+00 -9.080994e-01 3.000002e+00
      vertex 3.022915e+00 7.157353e-07 3.000002e+00
    endloop
  endfacet
  facet normal -2.277658e-16 8.218021e-08 1.000000e+00
    outer loop
      vertex 1.929101e+00 -6.470482e-01 3.000002e+00
      vertex 3.022915e+00 7.157353e-07 3.000002e+00
      vertex 2.014286e+00 7.157353e-07 3.000002e+00
    endloop
  endfacet
  facet normal -2.277658e-16 8.218021e-08 1.000000e+00
    outer loop
      vertex 2.014286e+00 7.157353e-07 3.000002e+00
      vertex 3.022915e+00 7.157353e-07 3.000002e+00
      vertex 2.903361e+00 9.081008e-01 3.000001e+00
    endloop
  endfacet
  facet normal -2.277658e-16 8.218021e-08 1.000000e+00
    outer loop
      vertex 2.014286e+00 7.157353e-07 3.000002e+00
      vertex 2.903361e+00 9.081008e-01 3.000001e+00
      vertex 1.929101e+00 6.470459e-01 3.000002e+00
    endloop
  endfacet
  facet normal -2.277658e-16 8.218021e-08 1.000000e+00
    outer loop
      vertex 1.929101e+00 6.470459e-01 3.000002e+00
      vertex 2.903361e+00 9.081008e-01 3.000001e+00
      vertex 1.679349e+00 1.250001e+00 3.000001e+00
    endloop
  endfacet
  facet normal -2.277658e-16 8.218021e-08 1.000000e+00
    outer loop
      vertex 1.679349e+00 1.250001e+00 3.000001e+00
      vertex 2.903361e+00 9.081008e-01 3.000001e+00
      vertex 2.552847e+00 1.754315e+00 3.000001e+00
    endloop
  endfacet
  facet normal -2.277658e-16 8.218021e-08 1.000000e+00
    outer loop
      vertex 1.679349e+00 1.250001e+00 3.000001e+00
      vertex 2.552847e+00 1.754315e+00 3.000001e+00
      vertex 1.282053e+00 1.767766e+00 3.000001e+00
    endloop
  endfacet
  facet normal -2.277658e-16 8.218021e-08 1.000000e+00
    outer loop
      vertex 1.282053e+00 1.767766e+00 3.000001e+00
      vertex 2.552847e+00 1.754315e+00 3.000001e+00
      vertex 1.995261e+00 2.480977e+00 3.000001e+00
    endloop
  endfacet
  facet normal -2.277658e-16 8.218021e-08 1.000000e+00
    outer loop
      vertex 1.282053e+00 1.767766e+00 3.000001e+00
      vertex 1.995261e+00 2.480977e+00 3.000001e+00
      vertex 7.642856e-01 2.165063e+00 3.000001e+00
    endloop
  endfacet
  facet normal -2.277658e-16 8.218021e-08 1.000000e+00
    outer loop
      vertex 7.642856e-01 2.165063e+00 3.000001e+00
      vertex 1.995261e+00 2.480977e+00 3.000001e+00
      vertex 1.613331e-01 2.414815e+00 3.000001e+00
    endloop
  endfacet
  facet normal -2.277658e-16 8.218021e-08 1.000000e+00
    outer loop
      vertex 1.613331e-01 2.414815e+00 3.000001e+00
      vertex 1.995261e+00 2.480977e+00 3.000001e+00
      vertex -4.857140e-01 2.500001e+00 3.000001e+00
    endloop
  endfacet
  facet normal -2.277658e-16 8.218021e-08 1.000000e+00
    outer loop
      vertex -4.857140e-01 2.500001e+00 3.000001e+00
      vertex 1.995261e+00 2.480977e+00 3.000001e+00
      vertex 1.268600e+00 3.038563e+00 3.000001e+00
    endloop
  endfacet
  facet normal -2.277658e-16 8.218021e-08 1.000000e+00
    outer loop
      vertex -4.857140e-01 -2.499999e+00 3.000002e+00
      vertex -2.966690e+00 -2.480975e+00 3.000002e+00
      vertex -2.240028e+00 -3.038562e+00 3.000002e+00
    endloop
  endfacet
  facet normal -2.277658e-16 8.218021e-08 1.000000e+00
    outer loop
      vertex -2.966690e+00 -2.480975e+00 3.000002e+00
      vertex -4.857140e-01 -2.499999e+00 3.000002e+00
      vertex -1.132762e+00 -2.414813e+00 3.000002e+00
    endloop
  endfacet
  facet normal -2.277658e-16 8.218021e-08 1.000000e+00
    outer loop
      vertex -2.966690e+00 -2.480975e+00 3.000002e+00
      vertex -1.132762e+00 -2.414813e+00 3.000002e+00
      vertex -3.524276e+00 -1.754314e+00 3.000002e+00
    endloop
  endfacet
  facet normal -2.277658e-16 8.218021e-08 1.000000e+00
    outer loop
      vertex -3.524276e+00 -1.754314e+00 3.000002e+00
      vertex -1.132762e+00 -2.414813e+00 3.000002e+00
      vertex -1.735714e+00 -2.165065e+00 3.000002e+00
    endloop
  endfacet
  facet normal -2.277658e-16 8.218021e-08 1.000000e+00
    outer loop
      vertex -3.524276e+00 -1.754314e+00 3.000002e+00
      vertex -1.735714e+00 -2.165065e+00 3.000002e+00
      vertex -2.253481e+00 -1.767768e+00 3.000002e+00
    endloop
  endfacet
  facet normal -2.277658e-16 8.218021e-08 1.000000e+00
    outer loop
      vertex -3.524276e+00 -1.754314e+00 3.000002e+00
      vertex -2.253481e+00 -1.767768e+00 3.000002e+00
      vertex -2.650778e+00 -1.249999e+00 3.000002e+00
    endloop
  endfacet
  facet normal -2.277658e-16 8.218021e-08 1.000000e+00
    outer loop
      vertex -3.524276e+00 -1.754314e+00 3.000002e+00
      vertex -2.650778e+00 -1.249999e+00 3.000002e+00
      vertex -3.874789e+00 -9.080994e-01 3.000002e+00
    endloop
  endfacet
  facet normal -2.277658e-16 8.218021e-08 1.000000e+00
    outer loop
      vertex -3.874789e+00 -9.080994e-01 3.000002e+00
      vertex -2.650778e+00 -1.249999e+00 3.000002e+00
      vertex -2.900529e+00 -6.470482e-01 3.000002e+00
    endloop
  endfacet
  facet normal -2.277658e-16 8.218021e-08 1.000000e+00
    outer loop
      vertex -3.874789e+00 -9.080994e-01 3.000002e+00
      vertex -2.900529e+00 -6.470482e-01 3.000002e+00
      vertex -3.994343e+00 7.157353e-07 3.000002e+00
    endloop
  endfacet
  facet normal -2.277658e-16 8.218021e-08 1.000000e+00
    outer loop
      vertex -3.994343e+00 7.157353e-07 3.000002e+00
      vertex -2.900529e+00 -6.470482e-01 3.000002e+00
      vertex -2.985714e+00 7.157353e-07 3.000002e+00
    endloop
  endfacet
  facet normal -2.277658e-16 8.218021e-08 1.000000e+00
    outer loop
      vertex -3.994343e+00 7.157353e-07 3.000002e+00
      vertex -2.985714e+00 7.157353e-07 3.000002e+00
      vertex -2.900529e+00 6.470459e-01 3.000002e+00
    endloop
  endfacet
  facet normal -2.277658e-16 8.218021e-08 1.000000e+00
    outer loop
      vertex -3.994343e+00 7.157353e-07 3.000002e+00
      vertex -2.900529e+00 6.470459e-01 3.000002e+00
      vertex -3.874789e+00 9.081008e-01 3.000001e+00
    endloop
  endfacet
  facet normal -2.277658e-16 8.218021e-08 1.000000e+00
    outer loop
      vertex -3.874789e+00 9.081008e-01 3.000001e+00
      vertex -2.900529e+00 6.470459e-01 3.000002e+00
      vertex -2.650778e+00 1.250001e+00 3.000001e+00
    endloop
  endfacet
  facet normal -2.277658e-16 8.218021e-08 1.000000e+00
    outer loop
      vertex -3.874789e+00 9.081008e-01 3.000001e+00
      vertex -2.650778e+00 1.250001e+00 3.000001e+00
      vertex -3.524276e+00 1.754315e+00 3.000001e+00
    endloop
  endfacet
  facet normal -2.277658e-16 8.218021e-08 1.000000e+00
    outer loop
      vertex -3.524276e+00 1.754315e+00 3.000001e+00
      vertex -2.650778e+00 1.250001e+00 3.000001e+00
      vertex -2.253481e+00 1.767766e+00 3.000001e+00
    endloop
  endfacet
  facet normal -2.277658e-16 8.218021e-08 1.000000e+00
    outer loop
      vertex -3.524276e+00 1.754315e+00 3.000001e+00
      vertex -2.253481e+00 1.767766e+00 3.000001e+00
      vertex -2.966690e+00 2.480977e+00 3.000001e+00
    endloop
  endfacet
  facet normal -2.277658e-16 8.218021e-08 1.000000e+00
    outer loop
      vertex -2.966690e+00 2.480977e+00 3.000001e+00
      vertex -2.253481e+00 1.767766e+00 3.000001e+00
      vertex -1.735714e+00 2.165063e+00 3.000001e+00
    endloop
  endfacet
  facet normal -2.277658e-16 8.218021e-08 1.000000e+00
    outer loop
      vertex -2.966690e+00 2.480977e+00 3.000001e+00
      vertex -1.735714e+00 2.165063e+00 3.000001e+00
      vertex -1.132762e+00 2.414815e+00 3.000001e+00
    endloop
  endfacet
  facet normal -2.277658e-16 8.218021e-08 1.000000e+00
    outer loop
      vertex -2.966690e+00 2.480977e+00 3.000001e+00
      vertex -1.132762e+00 2.414815e+00 3.000001e+00
      vertex -4.857140e-01 2.500001e+00 3.000001e+00
    endloop
  endfacet
  facet normal -2.277658e-16 8.218021e-08 1.000000e+00
    outer loop
      vertex -2.966690e+00 2.480977e+00 3.000001e+00
      vertex -4.857140e-01 2.500001e+00 3.000001e+00
      vertex -2.240028e+00 3.038563e+00 3.000001e+00
    endloop
  endfacet
  facet normal -2.277658e-16 8.218021e-08 1.000000e+00
    outer loop
      vertex -2.240028e+00 3.038563e+00 3.000001e+00
      vertex -4.857140e-01 2.500001e+00 3.000001e+00
      vertex 1.268600e+00 3.038563e+00 3.000001e+00
    endloop
  endfacet
  facet normal -2.277658e-16 8.218021e-08 1.000000e+00
    outer loop
      vertex -2.240028e+00 3.038563e+00 3.000001e+00
      vertex 1.268600e+00 3.038563e+00 3.000001e+00
      vertex 4.223862e-01 3.389077e+00 3.000001e+00
    endloop
  endfacet
  facet normal -2.277658e-16 8.218021e-08 1.000000e+00
    outer loop
      vertex -2.240028e+00 3.038563e+00 3.000001e+00
      vertex 4.223862e-01 3.389077e+00 3.000001e+00
      vertex -1.393814e+00 3.389077e+00 3.000001e+00
    endloop
  endfacet
  facet normal -2.277658e-16 8.218021e-08 1.000000e+00
    outer loop
      vertex -1.393814e+00 3.389077e+00 3.000001e+00
      vertex 4.223862e-01 3.389077e+00 3.000001e+00
      vertex -4.857140e-01 3.508630e+00 3.000001e+00
    endloop
  endfacet
  facet normal 5.000000e-01 -8.660254e-01 7.117015e-08
    outer loop
      vertex 1.268600e+00 -3.038562e+00 3.000002e+00
      vertex 1.995261e+00 -2.480975e+00 2.000002e+00
      vertex 1.995261e+00 -2.480975e+00 3.000002e+00
    endloop
  endfacet
  facet normal 7.071068e-01 -7.071068e-01 5.811018e-08
    outer loop
      vertex 1.995261e+00 -2.480975e+00 2.000002e+00
      vertex 1.268600e+00 -3.038562e+00 3.000002e+00
      vertex 1.268600e+00 -3.038562e+00 2.000002e+00
    endloop
  endfacet
  facet normal -5.000000e-01 8.660254e-01 -7.117015e-08
    outer loop
      vertex -2.240028e+00 3.038563e+00 2.000001e+00
      vertex -1.393814e+00 3.389077e+00 3.000001e+00
      vertex -1.393814e+00 3.389077e+00 2.000001e+00
    endloop
  endfacet
  facet normal -2.588190e-01 9.659258e-01 -7.937999e-08
    outer loop
      vertex -1.393814e+00 3.389077e+00 3.000001e+00
      vertex -2.240028e+00 3.038563e+00 2.000001e+00
      vertex -2.240028e+00 3.038563e+00 3.000001e+00
    endloop
  endfacet
  facet normal -9.659258e-01 -2.588190e-01 2.126980e-08
    outer loop
      vertex -3.874789e+00 -9.080994e-01 3.000002e+00
      vertex -3.994343e+00 6.335551e-07 2.000002e+00
      vertex -3.874789e+00 -9.080995e-01 2.000002e+00
    endloop
  endfacet
  facet normal -1.000000e+00 -4.982739e-16 -1.722547e-16
    outer loop
      vertex -3.994343e+00 6.335551e-07 2.000002e+00
      vertex -3.874789e+00 -9.080994e-01 3.000002e+00
      vertex -3.994343e+00 7.157353e-07 3.000002e+00
    endloop
  endfacet
  facet normal -8.660254e-01 -5.000000e-01 4.109010e-08
    outer loop
      vertex -3.524276e+00 -1.754314e+00 3.000002e+00
      vertex -3.874789e+00 -9.080995e-01 2.000002e+00
      vertex -3.524276e+00 -1.754314e+00 2.000002e+00
    endloop
  endfacet
  facet normal -9.659258e-01 -2.588190e-01 2.126980e-08
    outer loop
      vertex -3.874789e+00 -9.080995e-01 2.000002e+00
      vertex -3.524276e+00 -1.754314e+00 3.000002e+00
      vertex -3.874789e+00 -9.080994e-01 3.000002e+00
    endloop
  endfacet
  facet normal -7.071068e-01 -7.071068e-01 5.811018e-08
    outer loop
      vertex -2.966690e+00 -2.480975e+00 3.000002e+00
      vertex -3.524276e+00 -1.754314e+00 2.000002e+00
      vertex -2.966690e+00 -2.480975e+00 2.000002e+00
    endloop
  endfacet
  facet normal -8.660254e-01 -5.000000e-01 4.109010e-08
    outer loop
      vertex -3.524276e+00 -1.754314e+00 2.000002e+00
      vertex -2.966690e+00 -2.480975e+00 3.000002e+00
      vertex -3.524276e+00 -1.754314e+00 3.000002e+00
    endloop
  endfacet
  facet normal -7.071068e-01 -7.071068e-01 5.811018e-08
    outer loop
      vertex -2.966690e+00 -2.480975e+00 3.000002e+00
      vertex -2.240028e+00 -3.038562e+00 2.000002e+00
      vertex -2.240028e+00 -3.038562e+00 3.000002e+00
    endloop
  endfacet
  facet normal -5.000000e-01 -8.660254e-01 7.117015e-08
    outer loop
      vertex -2.240028e+00 -3.038562e+00 2.000002e+00
      vertex -2.966690e+00 -2.480975e+00 3.000002e+00
      vertex -2.966690e+00 -2.480975e+00 2.000002e+00
    endloop
  endfacet
  facet normal -5.000000e-01 -8.660254e-01 7.117015e-08
    outer loop
      vertex -2.240028e+00 -3.038562e+00 3.000002e+00
      vertex -1.393814e+00 -3.389076e+00 2.000002e+00
      vertex -1.393814e+00 -3.389076e+00 3.000002e+00
    endloop
  endfacet
  facet normal -2.588190e-01 -9.659258e-01 7.937999e-08
    outer loop
      vertex -1.393814e+00 -3.389076e+00 2.000002e+00
      vertex -2.240028e+00 -3.038562e+00 3.000002e+00
      vertex -2.240028e+00 -3.038562e+00 2.000002e+00
    endloop
  endfacet
  facet normal -2.588190e-01 -9.659258e-01 7.937999e-08
    outer loop
      vertex -1.393814e+00 -3.389076e+00 3.000002e+00
      vertex -4.857140e-01 -3.508628e+00 2.000002e+00
      vertex -4.857140e-01 -3.508628e+00 3.000002e+00
    endloop
  endfacet
  facet normal 6.497627e-16 -1.000000e+00 8.218021e-08
    outer loop
      vertex -4.857140e-01 -3.508628e+00 2.000002e+00
      vertex -1.393814e+00 -3.389076e+00 3.000002e+00
      vertex -1.393814e+00 -3.389076e+00 2.000002e+00
    endloop
  endfacet
  facet normal 6.497627e-16 -1.000000e+00 8.218021e-08
    outer loop
      vertex -4.857140e-01 -3.508628e+00 3.000002e+00
      vertex 4.223862e-01 -3.389076e+00 2.000002e+00
      vertex 4.223862e-01 -3.389076e+00 3.000002e+00
    endloop
  endfacet
  facet normal 2.588190e-01 -9.659258e-01 7.937999e-08
    outer loop
      vertex 4.223862e-01 -3.389076e+00 2.000002e+00
      vertex -4.857140e-01 -3.508628e+00 3.000002e+00
      vertex -4.857140e-01 -3.508628e+00 2.000002e+00
    endloop
  endfacet
  facet normal 2.588190e-01 -9.659258e-01 7.937999e-08
    outer loop
      vertex 4.223862e-01 -3.389076e+00 3.000002e+00
      vertex 1.268600e+00 -3.038562e+00 2.000002e+00
      vertex 1.268600e+00 -3.038562e+00 3.000002e+00
    endloop
  endfacet
  facet normal 5.000000e-01 -8.660254e-01 7.117015e-08
    outer loop
      vertex 1.268600e+00 -3.038562e+00 2.000002e+00
      vertex 4.223862e-01 -3.389076e+00 3.000002e+00
      vertex 4.223862e-01 -3.389076e+00 2.000002e+00
    endloop
  endfacet
  facet normal 8.660254e-01 -5.000000e-01 4.109010e-08
    outer loop
      vertex 2.552847e+00 -1.754314e+00 3.000002e+00
      vertex 1.995261e+00 -2.480975e+00 2.000002e+00
      vertex 2.552847e+00 -1.754314e+00 2.000002e+00
    endloop
  endfacet
  facet normal 7.071068e-01 -7.071068e-01 5.811018e-08
    outer loop
      vertex 1.995261e+00 -2.480975e+00 2.000002e+00
      vertex 2.552847e+00 -1.754314e+00 3.000002e+00
      vertex 1.995261e+00 -2.480975e+00 3.000002e+00
    endloop
  endfacet
  facet normal 9.659258e-01 -2.588190e-01 2.126980e-08
    outer loop
      vertex 2.903361e+00 -9.080994e-01 3.000002e+00
      vertex 2.552847e+00 -1.754314e+00 2.000002e+00
      vertex 2.903361e+00 -9.080995e-01 2.000002e+00
    endloop
  endfacet
  facet normal 8.660254e-01 -5.000000e-01 4.109010e-08
    outer loop
      vertex 2.552847e+00 -1.754314e+00 2.000002e+00
      vertex 2.903361e+00 -9.080994e-01 3.000002e+00
      vertex 2.552847e+00 -1.754314e+00 3.000002e+00
    endloop
  endfacet
  facet normal 1.000000e+00 8.814515e-16 1.722547e-16
    outer loop
      vertex 3.022915e+00 7.157353e-07 3.000002e+00
      vertex 2.903361e+00 -9.080995e-01 2.000002e+00
      vertex 3.022915e+00 6.335551e-07 2.000002e+00
    endloop
  endfacet
  facet normal 9.659258e-01 -2.588190e-01 2.126980e-08
    outer loop
      vertex 2.903361e+00 -9.080995e-01 2.000002e+00
      vertex 3.022915e+00 7.157353e-07 3.000002e+00
      vertex 2.903361e+00 -9.080994e-01 3.000002e+00
    endloop
  endfacet
  facet normal 9.659258e-01 2.588190e-01 -2.126980e-08
    outer loop
      vertex 2.903361e+00 9.081008e-01 3.000001e+00
      vertex 3.022915e+00 6.335551e-07 2.000002e+00
      vertex 2.903361e+00 9.081008e-01 2.000001e+00
    endloop
  endfacet
  facet normal 1.000000e+00 8.814515e-16 1.722547e-16
    outer loop
      vertex 3.022915e+00 6.335551e-07 2.000002e+00
      vertex 2.903361e+00 9.081008e-01 3.000001e+00
      vertex 3.022915e+00 7.157353e-07 3.000002e+00
    endloop
  endfacet
  facet normal 8.660254e-01 5.000000e-01 -4.109010e-08
    outer loop
      vertex 2.552847e+00 1.754315e+00 3.000001e+00
      vertex 2.903361e+00 9.081008e-01 2.000001e+00
      vertex 2.552847e+00 1.754315e+00 2.000001e+00
    endloop
  endfacet
  facet normal 9.659258e-01 2.588190e-01 -2.126980e-08
    outer loop
      vertex 2.903361e+00 9.081008e-01 2.000001e+00
      vertex 2.552847e+00 1.754315e+00 3.000001e+00
      vertex 2.903361e+00 9.081008e-01 3.000001e+00
    endloop
  endfacet
  facet normal 7.071068e-01 7.071068e-01 -5.811018e-08
    outer loop
      vertex 1.995261e+00 2.480977e+00 3.000001e+00
      vertex 2.552847e+00 1.754315e+00 2.000001e+00
      vertex 1.995261e+00 2.480977e+00 2.000001e+00
    endloop
  endfacet
  facet normal 8.660254e-01 5.000000e-01 -4.109010e-08
    outer loop
      vertex 2.552847e+00 1.754315e+00 2.000001e+00
      vertex 1.995261e+00 2.480977e+00 3.000001e+00
      vertex 2.552847e+00 1.754315e+00 3.000001e+00
    endloop
  endfacet
  facet normal 5.000000e-01 8.660254e-01 -7.117015e-08
    outer loop
      vertex 1.268600e+00 3.038563e+00 2.000001e+00
      vertex 1.995261e+00 2.480977e+00 3.000001e+00
      vertex 1.995261e+00 2.480977e+00 2.000001e+00
    endloop
  endfacet
  facet normal 7.071068e-01 7.071068e-01 -5.811018e-08
    outer loop
      vertex 1.995261e+00 2.480977e+00 3.000001e+00
      vertex 1.268600e+00 3.038563e+00 2.000001e+00
      vertex 1.268600e+00 3.038563e+00 3.000001e+00
    endloop
  endfacet
  facet normal 2.588190e-01 9.659258e-01 -7.937999e-08
    outer loop
      vertex 4.223862e-01 3.389077e+00 2.000001e+00
      vertex 1.268600e+00 3.038563e+00 3.000001e+00
      vertex 1.268600e+00 3.038563e+00 2.000001e+00
    endloop
  endfacet
  facet normal 5.000000e-01 8.660254e-01 -7.117015e-08
    outer loop
      vertex 1.268600e+00 3.038563e+00 3.000001e+00
      vertex 4.223862e-01 3.389077e+00 2.000001e+00
      vertex 4.223862e-01 3.389077e+00 3.000001e+00
    endloop
  endfacet
  facet normal -1.567607e-15 1.000000e+00 -8.218021e-08
    outer loop
      vertex -4.857140e-01 3.508629e+00 2.000001e+00
      vertex 4.223862e-01 3.389077e+00 3.000001e+00
      vertex 4.223862e-01 3.389077e+00 2.000001e+00
    endloop
  endfacet
  facet normal 2.588190e-01 9.659258e-01 -7.937999e-08
    outer loop
      vertex 4.223862e-01 3.389077e+00 3.000001e+00
      vertex -4.857140e-01 3.508629e+00 2.000001e+00
      vertex -4.857140e-01 3.508630e+00 3.000001e+00
    endloop
  endfacet
  facet normal -2.588190e-01 9.659258e-01 -7.937999e-08
    outer loop
      vertex -1.393814e+00 3.389077e+00 2.000001e+00
      vertex -4.857140e-01 3.508630e+00 3.000001e+00
      vertex -4.857140e-01 3.508629e+00 2.000001e+00
    endloop
  endfacet
  facet normal -1.567607e-15 1.000000e+00 -8.218021e-08
    outer loop
      vertex -4.857140e-01 3.508630e+00 3.000001e+00
      vertex -1.393814e+00 3.389077e+00 2.000001e+00
      vertex -1.393814e+00 3.389077e+00 3.000001e+00
    endloop
  endfacet
  facet normal -7.071068e-01 7.071068e-01 -5.811018e-08
    outer loop
      vertex -2.966690e+00 2.480977e+00 2.000001e+00
      vertex -2.240028e+00 3.038563e+00 3.000001e+00
      vertex -2.240028e+00 3.038563e+00 2.000001e+00
    endloop
  endfacet
  facet normal -5.000000e-01 8.660254e-01 -7.117015e-08
    outer loop
      vertex -2.240028e+00 3.038563e+00 3.000001e+00
      vertex -2.966690e+00 2.480977e+00 2.000001e+00
      vertex -2.966690e+00 2.480977e+00 3.000001e+00
    endloop
  endfacet
  facet normal -8.660254e-01 5.000000e-01 -4.109010e-08
    outer loop
      vertex -3.524276e+00 1.754315e+00 3.000001e+00
      vertex -2.966690e+00 2.480977e+00 2.000001e+00
      vertex -3.524276e+00 1.754315e+00 2.000001e+00
    endloop
  endfacet
  facet normal -7.071068e-01 7.071068e-01 -5.811018e-08
    outer loop
      vertex -2.966690e+00 2.480977e+00 2.000001e+00
      vertex -3.524276e+00 1.754315e+00 3.000001e+00
      vertex -2.966690e+00 2.480977e+00 3.000001e+00
    endloop
  endfacet
  facet normal -9.659258e-01 2.588190e-01 -2.126980e-08
    outer loop
      vertex -3.874789e+00 9.081008e-01 3.000001e+00
      vertex -3.524276e+00 1.754315e+00 2.000001e+00
      vertex -3.874789e+00 9.081008e-01 2.000001e+00
    endloop
  endfacet
  facet normal -8.660254e-01 5.000000e-01 -4.109010e-08
    outer loop
      vertex -3.524276e+00 1.754315e+00 2.000001e+00
      vertex -3.874789e+00 9.081008e-01 3.000001e+00
      vertex -3.524276e+00 1.754315e+00 3.000001e+00
    endloop
  endfacet
  facet normal 8.660254e-01 -5.000000e-01 4.109010e-08
    outer loop
      vertex -2.650778e+00 1.250001e+00 3.000001e+00
      vertex -2.900529e+00 6.470456e-01 1.508249e-06
      vertex -2.650778e+00 1.250000e+00 1.458698e-06
    endloop
  endfacet
  facet normal 9.659258e-01 -2.588190e-01 2.126980e-08
    outer loop
      vertex -2.900529e+00 6.470456e-01 1.508249e-06
      vertex -2.650778e+00 1.250001e+00 3.000001e+00
      vertex -2.900529e+00 6.470459e-01 3.000002e+00
    endloop
  endfacet
  facet normal 7.071068e-01 -7.071068e-01 5.811018e-08
    outer loop
      vertex -2.253481e+00 1.767766e+00 3.000001e+00
      vertex -2.650778e+00 1.250000e+00 1.458698e-06
      vertex -2.253481e+00 1.767766e+00 1.416148e-06
    endloop
  endfacet
  facet normal 8.660254e-01 -5.000000e-01 4.109010e-08
    outer loop
      vertex -2.650778e+00 1.250000e+00 1.458698e-06
      vertex -2.253481e+00 1.767766e+00 3.000001e+00
      vertex -2.650778e+00 1.250001e+00 3.000001e+00
    endloop
  endfacet
  facet normal 7.071068e-01 -7.071068e-01 5.811018e-08
    outer loop
      vertex -2.253481e+00 1.767766e+00 3.000001e+00
      vertex -1.735714e+00 2.165062e+00 1.383498e-06
      vertex -1.735714e+00 2.165063e+00 3.000001e+00
    endloop
  endfacet
  facet normal 5.000000e-01 -8.660254e-01 7.117015e-08
    outer loop
      vertex -1.735714e+00 2.165062e+00 1.383498e-06
      vertex -2.253481e+00 1.767766e+00 3.000001e+00
      vertex -2.253481e+00 1.767766e+00 1.416148e-06
    endloop
  endfacet
  facet normal 5.000000e-01 -8.660254e-01 7.117015e-08
    outer loop
      vertex -1.735714e+00 2.165063e+00 3.000001e+00
      vertex -1.132762e+00 2.414814e+00 1.362974e-06
      vertex -1.132762e+00 2.414815e+00 3.000001e+00
    endloop
  endfacet
  facet normal 2.588190e-01 -9.659258e-01 7.937999e-08
    outer loop
      vertex -1.132762e+00 2.414814e+00 1.362974e-06
      vertex -1.735714e+00 2.165063e+00 3.000001e+00
      vertex -1.735714e+00 2.165062e+00 1.383498e-06
    endloop
  endfacet
  facet normal 2.588190e-01 -9.659258e-01 7.937999e-08
    outer loop
      vertex -1.132762e+00 2.414815e+00 3.000001e+00
      vertex -4.857140e-01 2.500000e+00 1.355973e-06
      vertex -4.857140e-01 2.500001e+00 3.000001e+00
    endloop
  endfacet
  facet normal 1.122052e-15 -1.000000e+00 8.218021e-08
    outer loop
      vertex -4.857140e-01 2.500000e+00 1.355973e-06
      vertex -1.132762e+00 2.414815e+00 3.000001e+00
      vertex -1.132762e+00 2.414814e+00 1.362974e-06
    endloop
  endfacet
  facet normal 1.122052e-15 -1.000000e+00 8.218021e-08
    outer loop
      vertex -4.857140e-01 2.500001e+00 3.000001e+00
      vertex 1.613331e-01 2.414814e+00 1.362974e-06
      vertex 1.613331e-01 2.414815e+00 3.000001e+00
    endloop
  endfacet
  facet normal -2.588190e-01 -9.659258e-01 7.937999e-08
    outer loop
      vertex 1.613331e-01 2.414814e+00 1.362974e-06
      vertex -4.857140e-01 2.500001e+00 3.000001e+00
      vertex -4.857140e-01 2.500000e+00 1.355973e-06
    endloop
  endfacet
  facet normal -2.588190e-01 -9.659258e-01 7.937999e-08
    outer loop
      vertex 1.613331e-01 2.414815e+00 3.000001e+00
      vertex 7.642856e-01 2.165062e+00 1.383498e-06
      vertex 7.642856e-01 2.165063e+00 3.000001e+00
    endloop
  endfacet
  facet normal -5.000000e-01 -8.660254e-01 7.117015e-08
    outer loop
      vertex 7.642856e-01 2.165062e+00 1.383498e-06
      vertex 1.613331e-01 2.414815e+00 3.000001e+00
      vertex 1.613331e-01 2.414814e+00 1.362974e-06
    endloop
  endfacet
  facet normal -5.000000e-01 -8.660254e-01 7.117015e-08
    outer loop
      vertex 7.642856e-01 2.165063e+00 3.000001e+00
      vertex 1.282053e+00 1.767766e+00 1.416148e-06
      vertex 1.282053e+00 1.767766e+00 3.000001e+00
    endloop
  endfacet
  facet normal -7.071068e-01 -7.071068e-01 5.811018e-08
    outer loop
      vertex 1.282053e+00 1.767766e+00 1.416148e-06
      vertex 7.642856e-01 2.165063e+00 3.000001e+00
      vertex 7.642856e-01 2.165062e+00 1.383498e-06
    endloop
  endfacet
  facet normal -8.660254e-01 -5.000000e-01 4.109010e-08
    outer loop
      vertex 1.679349e+00 1.250001e+00 3.000001e+00
      vertex 1.282053e+00 1.767766e+00 1.416148e-06
      vertex 1.679349e+00 1.250000e+00 1.458698e-06
    endloop
  endfacet
  facet normal -7.071068e-01 -7.071068e-01 5.811018e-08
    outer loop
      vertex 1.282053e+00 1.767766e+00 1.416148e-06
      vertex 1.679349e+00 1.250001e+00 3.000001e+00
      vertex 1.282053e+00 1.767766e+00 3.000001e+00
    endloop
  endfacet
  facet normal -9.659258e-01 -2.588190e-01 2.126980e-08
    outer loop
      vertex 1.929101e+00 6.470459e-01 3.000002e+00
      vertex 1.679349e+00 1.250000e+00 1.458698e-06
      vertex 1.929101e+00 6.470456e-01 1.508249e-06
    endloop
  endfacet
  facet normal -8.660254e-01 -5.000000e-01 4.109010e-08
    outer loop
      vertex 1.679349e+00 1.250000e+00 1.458698e-06
      vertex 1.929101e+00 6.470459e-01 3.000002e+00
      vertex 1.679349e+00 1.250001e+00 3.000001e+00
    endloop
  endfacet
  facet normal -1.000000e+00 -1.255718e-15 -1.722546e-16
    outer loop
      vertex 2.014286e+00 7.157353e-07 3.000002e+00
      vertex 1.929101e+00 6.470456e-01 1.508249e-06
      vertex 2.014286e+00 4.691947e-07 1.561424e-06
    endloop
  endfacet
  facet normal -9.659258e-01 -2.588190e-01 2.126980e-08
    outer loop
      vertex 1.929101e+00 6.470456e-01 1.508249e-06
      vertex 2.014286e+00 7.157353e-07 3.000002e+00
      vertex 1.929101e+00 6.470459e-01 3.000002e+00
    endloop
  endfacet
  facet normal -9.659258e-01 2.588190e-01 -2.126980e-08
    outer loop
      vertex 1.929101e+00 -6.470482e-01 3.000002e+00
      vertex 2.014286e+00 4.691947e-07 1.561424e-06
      vertex 1.929101e+00 -6.470485e-01 1.614598e-06
    endloop
  endfacet
  facet normal -1.000000e+00 -1.255718e-15 -1.722546e-16
    outer loop
      vertex 2.014286e+00 4.691947e-07 1.561424e-06
      vertex 1.929101e+00 -6.470482e-01 3.000002e+00
      vertex 2.014286e+00 7.157353e-07 3.000002e+00
    endloop
  endfacet
  facet normal -8.660254e-01 5.000000e-01 -4.109010e-08
    outer loop
      vertex 1.679349e+00 -1.249999e+00 3.000002e+00
      vertex 1.929101e+00 -6.470485e-01 1.614598e-06
      vertex 1.679349e+00 -1.250000e+00 1.664149e-06
    endloop
  endfacet
  facet normal -9.659258e-01 2.588190e-01 -2.126980e-08
    outer loop
      vertex 1.929101e+00 -6.470485e-01 1.614598e-06
      vertex 1.679349e+00 -1.249999e+00 3.000002e+00
      vertex 1.929101e+00 -6.470482e-01 3.000002e+00
    endloop
  endfacet
  facet normal -7.071068e-01 7.071068e-01 -5.811018e-08
    outer loop
      vertex 1.282053e+00 -1.767768e+00 3.000002e+00
      vertex 1.679349e+00 -1.250000e+00 1.664149e-06
      vertex 1.282053e+00 -1.767768e+00 1.706699e-06
    endloop
  endfacet
  facet normal -8.660254e-01 5.000000e-01 -4.109010e-08
    outer loop
      vertex 1.679349e+00 -1.250000e+00 1.664149e-06
      vertex 1.282053e+00 -1.767768e+00 3.000002e+00
      vertex 1.679349e+00 -1.249999e+00 3.000002e+00
    endloop
  endfacet
  facet normal -5.000000e-01 8.660254e-01 -7.117015e-08
    outer loop
      vertex 7.642856e-01 -2.165065e+00 1.739349e-06
      vertex 1.282053e+00 -1.767768e+00 3.000002e+00
      vertex 1.282053e+00 -1.767768e+00 1.706699e-06
    endloop
  endfacet
  facet normal -7.071068e-01 7.071068e-01 -5.811018e-08
    outer loop
      vertex 1.282053e+00 -1.767768e+00 3.000002e+00
      vertex 7.642856e-01 -2.165065e+00 1.739349e-06
      vertex 7.642856e-01 -2.165065e+00 3.000002e+00
    endloop
  endfacet
  facet normal -2.588190e-01 9.659258e-01 -7.937999e-08
    outer loop
      vertex 1.613331e-01 -2.414814e+00 1.759874e-06
      vertex 7.642856e-01 -2.165065e+00 3.000002e+00
      vertex 7.642856e-01 -2.165065e+00 1.739349e-06
    endloop
  endfacet
  facet normal -5.000000e-01 8.660254e-01 -7.117015e-08
    outer loop
      vertex 7.642856e-01 -2.165065e+00 3.000002e+00
      vertex 1.613331e-01 -2.414814e+00 1.759874e-06
      vertex 1.613331e-01 -2.414813e+00 3.000002e+00
    endloop
  endfacet
  facet normal -9.883849e-16 1.000000e+00 -8.218021e-08
    outer loop
      vertex -4.857140e-01 -2.500000e+00 1.766874e-06
      vertex 1.613331e-01 -2.414813e+00 3.000002e+00
      vertex 1.613331e-01 -2.414814e+00 1.759874e-06
    endloop
  endfacet
  facet normal -2.588190e-01 9.659258e-01 -7.937999e-08
    outer loop
      vertex 1.613331e-01 -2.414813e+00 3.000002e+00
      vertex -4.857140e-01 -2.500000e+00 1.766874e-06
      vertex -4.857140e-01 -2.499999e+00 3.000002e+00
    endloop
  endfacet
  facet normal 2.588190e-01 9.659258e-01 -7.937999e-08
    outer loop
      vertex -1.132762e+00 -2.414814e+00 1.759874e-06
      vertex -4.857140e-01 -2.499999e+00 3.000002e+00
      vertex -4.857140e-01 -2.500000e+00 1.766874e-06
    endloop
  endfacet
  facet normal -9.883849e-16 1.000000e+00 -8.218021e-08
    outer loop
      vertex -4.857140e-01 -2.499999e+00 3.000002e+00
      vertex -1.132762e+00 -2.414814e+00 1.759874e-06
      vertex -1.132762e+00 -2.414813e+00 3.000002e+00
    endloop
  endfacet
  facet normal 5.000000e-01 8.660254e-01 -7.117015e-08
    outer loop
      vertex -1.735714e+00 -2.165065e+00 1.739349e-06
      vertex -1.132762e+00 -2.414813e+00 3.000002e+00
      vertex -1.132762e+00 -2.414814e+00 1.759874e-06
    endloop
  endfacet
  facet normal 2.588190e-01 9.659258e-01 -7.937999e-08
    outer loop
      vertex -1.132762e+00 -2.414813e+00 3.000002e+00
      vertex -1.735714e+00 -2.165065e+00 1.739349e-06
      vertex -1.735714e+00 -2.165065e+00 3.000002e+00
    endloop
  endfacet
  facet normal 7.071068e-01 7.071068e-01 -5.811018e-08
    outer loop
      vertex -2.253481e+00 -1.767768e+00 1.706699e-06
      vertex -1.735714e+00 -2.165065e+00 3.000002e+00
      vertex -1.735714e+00 -2.165065e+00 1.739349e-06
    endloop
  endfacet
  facet normal 5.000000e-01 8.660254e-01 -7.117015e-08
    outer loop
      vertex -1.735714e+00 -2.165065e+00 3.000002e+00
      vertex -2.253481e+00 -1.767768e+00 1.706699e-06
      vertex -2.253481e+00 -1.767768e+00 3.000002e+00
    endloop
  endfacet
  facet normal 8.660254e-01 5.000000e-01 -4.109010e-08
    outer loop
      vertex -2.650778e+00 -1.249999e+00 3.000002e+00
      vertex -2.253481e+00 -1.767768e+00 1.706699e-06
      vertex -2.650778e+00 -1.250000e+00 1.664149e-06
    endloop
  endfacet
  facet normal 7.071068e-01 7.071068e-01 -5.811018e-08
    outer loop
      vertex -2.253481e+00 -1.767768e+00 1.706699e-06
      vertex -2.650778e+00 -1.249999e+00 3.000002e+00
      vertex -2.253481e+00 -1.767768e+00 3.000002e+00
    endloop
  endfacet
  facet normal 9.659258e-01 2.588190e-01 -2.126980e-08
    outer loop
      vertex -2.900529e+00 -6.470482e-01 3.000002e+00
      vertex -2.650778e+00 -1.250000e+00 1.664149e-06
      vertex -2.900529e+00 -6.470485e-01 1.614598e-06
    endloop
  endfacet
  facet normal 8.660254e-01 5.000000e-01 -4.109010e-08
    outer loop
      vertex -2.650778e+00 -1.250000e+00 1.664149e-06
      vertex -2.900529e+00 -6.470482e-01 3.000002e+00
      vertex -2.650778e+00 -1.249999e+00 3.000002e+00
    endloop
  endfacet
  facet normal 9.659258e-01 -2.588190e-01 2.126980e-08
    outer loop
      vertex -2.900529e+00 6.470459e-01 3.000002e+00
      vertex -2.985714e+00 4.691947e-07 1.561424e-06
      vertex -2.900529e+00 6.470456e-01 1.508249e-06
    endloop
  endfacet
  facet normal 1.000000e+00 1.255718e-15 1.722546e-16
    outer loop
      vertex -2.985714e+00 4.691947e-07 1.561424e-06
      vertex -2.900529e+00 6.470459e-01 3.000002e+00
      vertex -2.985714e+00 7.157353e-07 3.000002e+00
    endloop
  endfacet
  facet normal 1.255718e-15 -1.000000e+00 8.218021e-08
    outer loop
      vertex -8.500000e+00 1.700000e+01 2.000000e+00
      vertex 7.528571e+00 1.700000e+01 2.000000e+00
      vertex -8.500000e+00 1.700000e+01 3.500001e+01
    endloop
  endfacet
  facet normal -1.255718e-15 1.000000e+00 -8.218021e-08
    outer loop
      vertex -8.500000e+00 -1.700000e+01 2.000003e+00
      vertex -8.500000e+00 -1.700000e+01 3.500001e+01
      vertex 7.528571e+00 -1.700000e+01 2.000003e+00
    endloop
  endfacet
endsolid Default
